<svg xmlns="http://www.w3.org/2000/svg" width="960" height="400" viewBox="0 0 960 400">
  <rect width="960" height="400" fill="black"/>
  <text x="10" y="18" fill="cyan" font-size="12">CH1 min=0 max=67801 range=67801</text>
  <text x="10" y="208" fill="yellow" font-size="12">CH2 min=-4194304 max=3147166 range=7341470</text>
  <line x1="0" y1="90" x2="960" y2="90" stroke="#333" stroke-width="1"/>
  <line x1="0" y1="290" x2="960" y2="290" stroke="#333" stroke-width="1"/>
  <path d="M 0,36 L2,169 L4,31 L6,33 L8,26 L10,37 L12,31 L14,32 L16,39 L18,29 L20,27 L22,47 L24,54 L26,38 L28,29 L30,34 L32,35 L34,31 L36,31 L38,27 L40,27 L42,170 L44,35 L46,24 L48,39 L50,35 L52,30 L54,16 L56,17 L58,26 L60,34 L62,26 L64,23 L66,29 L68,20 L70,16 L72,44 L74,43 L76,38 L78,170 L80,25 L82,32 L84,18 L86,28 L88,38 L90,29 L92,28 L94,170 L96,21 L98,27 L100,30 L102,35 L104,32 L106,19 L108,25 L110,170 L112,32 L114,45 L116,31 L118,32 L120,30 L122,28 L124,23 L126,170 L128,39 L130,19 L132,32 L134,28 L136,31 L138,33 L140,32 L142,170 L144,32 L146,23 L148,41 L150,24 L152,37 L154,39 L156,31 L158,170 L160,35 L162,27 L164,20 L166,29 L168,36 L170,27 L172,31 L174,54 L176,54 L178,37 L180,30 L182,28 L184,30 L186,32 L188,34 L190,41 L192,45 L194,170 L196,30 L198,22 L200,29 L202,31 L204,26 L206,29 L208,34 L210,32 L212,27 L214,29 L216,31 L218,28 L220,36 L222,36 L224,38 L226,39 L228,35 L230,170 L232,50 L234,39 L236,33 L238,31 L240,31 L242,24 L244,15 L246,170 L248,85 L250,45 L252,29 L254,24 L256,30 L258,24 L260,22 L262,170 L264,50 L266,27 L268,23 L270,33 L272,34 L274,31 L276,35 L278,170 L280,85 L282,31 L284,27 L286,24 L288,25 L290,39 L292,35 L294,170 L296,50 L298,20 L300,31 L302,30 L304,36 L306,28 L308,24 L310,170 L312,85 L314,22 L316,41 L318,23 L320,37 L322,28 L324,26 L326,30 L328,24 L330,33 L332,36 L334,170 L336,54 L338,34 L340,29 L342,31 L344,29 L346,30 L348,31 L350,29 L352,29 L354,54 L356,26 L358,23 L360,28 L362,41 L364,34 L366,28 L368,18 L370,21 L372,170 L374,35 L376,37 L378,37 L380,36 L382,24 L384,27 L386,34 L388,20 L390,38 L392,41 L394,47 L396,32 L398,41 L400,37 L402,43 L404,30 L406,31 L408,35 L410,34 L412,170 L414,30 L416,37 L418,32 L420,29 L422,39 L424,30 L426,33 L428,34 L430,165 L432,170 L434,20 L436,24 L438,35 L440,37 L442,44 L444,34 L446,30 L448,32 L450,170 L452,26 L454,34 L456,32 L458,41 L460,39 L462,27 L464,35 L466,32 L468,24 L470,32 L472,39 L474,37 L476,29 L478,25 L480,26 L482,27 L484,25 L486,170 L488,38 L490,36 L492,26 L494,25 L496,23 L498,30 L500,35 L502,170 L504,37 L506,33 L508,39 L510,34 L512,39 L514,39 L516,29 L518,170 L520,34 L522,45 L524,45 L526,33 L528,27 L530,42 L532,33 L534,25 L536,32 L538,30 L540,31 L542,25 L544,26 L546,20 L548,27 L550,54 L552,170 L554,44 L556,32 L558,29 L560,31 L562,40 L564,31 L566,24 L568,31 L570,169 L572,37 L574,23 L576,27 L578,29 L580,26 L582,33 L584,43 L586,34 L588,31 L590,47 L592,54 L594,33 L596,33 L598,24 L600,37 L602,45 L604,39 L606,35 L608,18 L610,170 L612,30 L614,35 L616,31 L618,40 L620,36 L622,22 L624,31 L626,38 L628,30 L630,29 L632,37 L634,33 L636,32 L638,32 L640,26 L642,26 L644,25 L646,170 L648,44 L650,39 L652,45 L654,33 L656,28 L658,26 L660,34 L662,170 L664,32 L666,26 L668,31 L670,36 L672,28 L674,28 L676,28 L678,170 L680,32 L682,25 L684,22 L686,36 L688,45 L690,34 L692,36 L694,170 L696,28 L698,16 L700,35 L702,33 L704,32 L706,27 L708,25 L710,170 L712,26 L714,36 L716,32 L718,37 L720,29 L722,36 L724,33 L726,39 L728,23 L730,33 L732,25 L734,170 L736,170 L738,17 L740,25 L742,38 L744,28 L746,33 L748,34 L750,31 L752,26 L754,32 L756,18 L758,30 L760,18 L762,26 L764,24 L766,20 L768,33 L770,25 L772,39 L774,54 L776,54 L778,39 L780,33 L782,33 L784,29 L786,26 L788,17 L790,28 L792,21 L794,170 L796,34 L798,22 L800,34 L802,35 L804,32 L806,32 L808,37 L810,25 L812,37 L814,10 L816,29 L818,32 L820,35 L822,33 L824,38 L826,38 L828,31 L830,170 L832,141 L834,24 L836,27 L838,26 L840,35 L842,32 L844,35 L846,170 L848,47 L850,35 L852,46 L854,38 L856,35 L858,32 L860,33 L862,170 L864,50 L866,34 L868,23 L870,24 L872,19 L874,27 L876,30 L878,170 L880,170 L882,35 L884,33 L886,33 L888,34 L890,29 L892,32 L894,37 L896,30 L898,170 L900,23 L902,30 L904,22 L906,23 L908,30 L910,27 L912,41 L914,30 L916,168 L918,23 L920,36 L922,34 L924,54 L926,28 L928,30 L930,28 L932,28 L934,28 L936,32 L938,30 L940,36 L942,54 L944,170 L946,21 L948,35 L950,40 L952,35 L954,34 L956,33 L958,32" fill="none" stroke="cyan" stroke-width="1"/>
  <path d="M 0,278 L2,350 L4,261 L6,278 L8,278 L10,278 L12,278 L14,278 L16,278 L18,278 L20,278 L22,279 L24,279 L26,278 L28,278 L30,278 L32,277 L34,278 L36,278 L38,278 L40,278 L42,334 L44,278 L46,278 L48,278 L50,278 L52,278 L54,278 L56,278 L58,278 L60,278 L62,370 L64,277 L66,278 L68,278 L70,278 L72,278 L74,278 L76,278 L78,304 L80,370 L82,278 L84,278 L86,278 L88,278 L90,278 L92,278 L94,344 L96,370 L98,278 L100,278 L102,278 L104,278 L106,278 L108,278 L110,303 L112,370 L114,278 L116,278 L118,278 L120,278 L122,278 L124,278 L126,321 L128,370 L130,278 L132,278 L134,278 L136,277 L138,278 L140,278 L142,311 L144,370 L146,278 L148,278 L150,278 L152,278 L154,278 L156,277 L158,325 L160,278 L162,278 L164,278 L166,278 L168,278 L170,278 L172,278 L174,279 L176,279 L178,278 L180,278 L182,278 L184,278 L186,277 L188,278 L190,278 L192,278 L194,305 L196,277 L198,278 L200,278 L202,278 L204,278 L206,278 L208,278 L210,278 L212,278 L214,370 L216,261 L218,277 L220,278 L222,278 L224,278 L226,278 L228,278 L230,303 L232,279 L234,278 L236,278 L238,278 L240,278 L242,278 L244,278 L246,316 L248,279 L250,278 L252,278 L254,277 L256,278 L258,277 L260,278 L262,308 L264,279 L266,278 L268,278 L270,278 L272,278 L274,278 L276,278 L278,312 L280,279 L282,278 L284,278 L286,278 L288,278 L290,278 L292,278 L294,305 L296,279 L298,277 L300,278 L302,278 L304,278 L306,278 L308,278 L310,305 L312,279 L314,278 L316,278 L318,278 L320,278 L322,278 L324,278 L326,278 L328,278 L330,278 L332,278 L334,299 L336,279 L338,278 L340,277 L342,278 L344,278 L346,278 L348,278 L350,278 L352,278 L354,279 L356,277 L358,278 L360,278 L362,278 L364,278 L366,277 L368,278 L370,278 L372,293 L374,278 L376,261 L378,278 L380,278 L382,278 L384,278 L386,278 L388,278 L390,278 L392,278 L394,279 L396,278 L398,278 L400,278 L402,278 L404,277 L406,278 L408,278 L410,278 L412,259 L414,278 L416,278 L418,278 L420,278 L422,278 L424,278 L426,278 L428,278 L430,210 L432,340 L434,278 L436,278 L438,278 L440,278 L442,278 L444,278 L446,278 L448,278 L450,322 L452,278 L454,278 L456,278 L458,278 L460,278 L462,278 L464,278 L466,278 L468,278 L470,370 L472,278 L474,278 L476,278 L478,278 L480,278 L482,278 L484,278 L486,330 L488,370 L490,278 L492,278 L494,278 L496,278 L498,278 L500,278 L502,309 L504,370 L506,278 L508,278 L510,278 L512,278 L514,278 L516,278 L518,331 L520,278 L522,278 L524,278 L526,278 L528,278 L530,278 L532,370 L534,278 L536,278 L538,278 L540,278 L542,278 L544,278 L546,278 L548,277 L550,279 L552,258 L554,278 L556,278 L558,278 L560,278 L562,278 L564,278 L566,278 L568,278 L570,359 L572,261 L574,278 L576,278 L578,278 L580,278 L582,278 L584,278 L586,278 L588,278 L590,279 L592,279 L594,278 L596,278 L598,278 L600,278 L602,278 L604,278 L606,278 L608,278 L610,296 L612,278 L614,278 L616,278 L618,278 L620,278 L622,278 L624,278 L626,278 L628,278 L630,370 L632,278 L634,278 L636,278 L638,278 L640,278 L642,278 L644,278 L646,309 L648,370 L650,278 L652,278 L654,278 L656,278 L658,278 L660,278 L662,337 L664,370 L666,278 L668,278 L670,278 L672,278 L674,278 L676,278 L678,305 L680,370 L682,278 L684,278 L686,278 L688,278 L690,278 L692,278 L694,310 L696,370 L698,278 L700,278 L702,278 L704,278 L706,278 L708,278 L710,319 L712,370 L714,278 L716,278 L718,277 L720,278 L722,278 L724,278 L726,278 L728,278 L730,278 L732,278 L734,273 L736,322 L738,278 L740,278 L742,278 L744,278 L746,278 L748,278 L750,278 L752,278 L754,278 L756,370 L758,278 L760,278 L762,278 L764,278 L766,278 L768,278 L770,278 L772,278 L774,279 L776,279 L778,278 L780,278 L782,278 L784,278 L786,278 L788,278 L790,278 L792,278 L794,320 L796,278 L798,278 L800,278 L802,278 L804,277 L806,278 L808,278 L810,278 L812,278 L814,370 L816,244 L818,278 L820,278 L822,278 L824,278 L826,278 L828,278 L830,325 L832,279 L834,278 L836,278 L838,278 L840,278 L842,278 L844,278 L846,313 L848,279 L850,278 L852,278 L854,278 L856,278 L858,278 L860,278 L862,315 L864,279 L866,278 L868,278 L870,278 L872,277 L874,278 L876,278 L878,300 L880,258 L882,278 L884,278 L886,278 L888,278 L890,278 L892,278 L894,278 L896,277 L898,268 L900,278 L902,278 L904,277 L906,278 L908,278 L910,278 L912,278 L914,278 L916,210 L918,261 L920,278 L922,278 L924,279 L926,278 L928,278 L930,278 L932,277 L934,278 L936,278 L938,278 L940,278 L942,279 L944,260 L946,278 L948,278 L950,278 L952,278 L954,278 L956,278 L958,278" fill="none" stroke="yellow" stroke-width="1"/>
</svg>
