;TYPE=PLATED
;Layer: PTH_Through
;EasyEDA Pro v3.2.148, 2026-07-06 14:14:55
;Gerber Generator version 0.3
M48
METRIC,LZ,0000.00000
;Hole size 1 = 0.30500 METRIC
T01C0.30500
;Hole size 2 = 0.30500 METRIC
T02C0.30500
;Hole size 3 = 0.39980 METRIC
T03C0.39980
;Hole size 4 = 0.59995 METRIC
T04C0.59995
;Hole size 5 = 1.00000 METRIC
T05C1.00000
;Hole size 6 = 1.20000 METRIC
T06C1.20000
;Hole size 7 = 2.20000 METRIC
T07C2.20000
%
G05
G90
T01
X-66.167Y-52.705
X-49.022Y-52.959
X-46.101Y-50.546
X-96.393Y-32.258
X-57.05455Y-26.89245
X-75.946Y-43.815
X-76.962Y-40.259
X-78.67498Y-54.991
X-84.328Y-55.118
X-97.917Y-74.295
X-74.55029Y-67.31
X-77.851Y-59.563
X-72.898Y-55.56098
X-73.914Y-55.88
X-67.31Y-53.594
X-60.071Y-73.406
X-61.976Y-72.41158
X-52.07Y-72.644
X-50.292Y-85.852
X-21.844Y-50.419
X-46.736Y-53.213
X-40.513Y-57.785
X-62.992Y-45.593
X-66.675Y-42.672
X-12.192Y-66.294
T02
X-67.97176Y-47.49391
X-63.90777Y-48.2559
X-12.31897Y-36.18902
X-9.13078Y-66.95157
X-67.83277Y-46.49391
X-47.5694Y-49.2313
X-68.86606Y-52.067
X-64.04007Y-52.067
X-41.82602Y-53.25429
X-44.11201Y-55.54029
X-36.95703Y-53.41149
X-36.70303Y-56.20549
X-59.46208Y-26.52805
X-68.59476Y-50.4939
X-43.44881Y-49.9859
X-67.83277Y-50.5021
X-42.66222Y-49.7823
X-68.22576Y-49.7479
X-60.85978Y-51.2719
X-42.92602Y-46.16601
X-44.19601Y-47.69
X-66.68197Y-74.01855
X-63.37997Y-73.76455
X-25.24326Y-48.59637
X-23.97327Y-47.83437
X-84.87963Y-61.51158
X-82.08563Y-61.76558
X-82.80404Y-92.45592
X-36.86723Y-50.9773
X-33.81923Y-49.9613
X-76.77835Y-66.64197
X-79.82634Y-63.59397
X-39.81122Y-50.4775
X-33.96923Y-50.7315
X-37.12123Y-49.4693
X-34.07323Y-49.2153
X-27.11004Y-50.8643
X-14.66407Y-39.43432
X-72.63626Y-43.94501
X-77.77424Y-62.91058
X-73.20225Y-66.72057
X-75.48825Y-65.91208
X-73.97445Y-63.63628
X-73.63625Y-43.94501
X-76.43915Y-48.0101
X-57.89718Y-48.0101
X-77.02015Y-63.88407
X-79.15424Y-68.30416
X-78.64624Y-71.60616
X-73.52855Y-40.06852
X-69.10276Y-49.0019
X-68.08677Y-48.2481
X-82.02904Y-62.61107
X-70.85306Y-51.4351
X-63.25457Y-51.435
X-81.26704Y-59.81708
X-69.83707Y-46.10111
X-57.94789Y-73.80215
X-70.64786Y-52.46619
X-80.58434Y-64.63387
X-73.55276Y-65.31547
X-65.84087Y-75.08405
X-67.36487Y-70.25806
X-73.34235Y-64.53457
X-86.55033Y-63.01058
X-65.58687Y-76.89105
X-72.69885Y-69.77906
X-79.69714Y-66.98507
X-64.49077Y-45.30301
X-67.67066Y-45.30301
X-62.26587Y-77.35815
X-80.97624Y-53.22819
X-76.55415Y-49.4182
X-89.23002Y-89.94147
X-30.98804Y-43.44261
X-32.51204Y-44.96661
X-36.26003Y-48.7146
X-41.59402Y-43.38061
X-7.11209Y-63.76257
X-30.73404Y-44.18741
X-36.83003Y-46.72741
X-41.58022Y-46.78051
X-43.10421Y-45.25651
X-56.17689Y-26.84985
X-46.66021Y-54.65449
T03
X-90.04795Y-91.29192G85X-90.04821Y-91.29192
X-91.74798Y-91.29192G85X-91.74823Y-91.29192
X-90.89784Y-91.29192G85X-90.89809Y-91.29192
X-89.19781Y-91.29192G85X-89.19807Y-91.29192
X-88.34793Y-91.29192G85X-88.34818Y-91.29192
X-87.49779Y-91.29192G85X-87.49805Y-91.29192
X-86.64791Y-91.29192G85X-86.64816Y-91.29192
X-85.79777Y-91.29192G85X-85.79802Y-91.29192
X-91.74798Y-92.64203G85X-91.74823Y-92.64203
X-90.89276Y-92.64203G85X-90.89301Y-92.64203
X-90.04287Y-92.64203G85X-90.04313Y-92.64203
X-89.19299Y-92.64203G85X-89.19324Y-92.64203
X-88.34285Y-92.64203G85X-88.3431Y-92.64203
X-87.49297Y-92.64203G85X-87.49322Y-92.64203
X-86.64283Y-92.64203G85X-86.64308Y-92.64203
X-85.79295Y-92.64203G85X-85.7932Y-92.64203
T04
X-93.09811Y-91.52204G85X-93.09811Y-93.02217
X-84.44789Y-91.52204G85X-84.44789Y-93.02217
X-93.09811Y-95.25203G85X-93.09811Y-96.05213
X-84.44789Y-95.25203G85X-84.44789Y-96.05213
T05
X-70.84601Y-94.361
X-68.34602Y-94.361
T06
X-96.68184Y-34.9885
X-96.68184Y-37.5285
X-96.68184Y-40.0685
X-96.68184Y-42.6085
X-96.68184Y-45.1485
X-96.68184Y-47.6885
X-96.68184Y-50.2285
X-96.68184Y-52.7685
X-96.68184Y-55.3085
X-96.68184Y-57.8485
X-96.68184Y-60.3885
X-96.68184Y-62.9285
X-96.68184Y-65.4685
X-96.68184Y-68.0085
T07
X-97.155Y-2.794
X-97.028Y-96.774
X-2.794Y-97.155
X-2.794Y-2.921
M30