G04 Layer: DrillDrawingLayer*
G04 EasyEDA Pro v3.2.148, 2026-07-06 14:14:55*
G04 Gerber Generator version 0.3*
G04 Scale: 100 percent, Rotated: No, Reflected: No*
G04 Dimensions in millimeters*
G04 Leading zeros omitted, absolute positions, 4 integers and 5 decimals*
G04 Generated by one-click*
G04 Object Configs: Pad,Via,Track,Text,Image,Dimension,BoardOutline,BoardCutout,CopperFilled,SolidRegion,FPCStiffener,Line,PlaneZone,ComponentProperty,ComponentSilkscreen,TearDrop*
G04 Layer Configs: 1,15,16,2,3,4,5,6,7,8,9,10,11,13,14,56*
G04 Copper Areas: 0*
%FSLAX45Y45*%
%MOMM*%
%AMIconRect*4,1,4,0.28,-0.28,-0.28,-0.28,-0.28,0.28,0.28,0.28,0.28,-0.28,0*4,0,4,0.233333,-0.233333,0.233333,0.233333,-0.233333,0.233333,-0.233333,-0.233333,0.233333,-0.233333,0*%
%AMIconTriangle*4,1,3,-0.339593,0.240473,0.339593,0.240473,0,-0.37884,-0.339593,0.240473,0*4,0,3,-0.265673,0.19404,0,-0.27342,0.266233,0.19404,-0.265673,0.19404,0*%
%AMIconStar6*4,1,12,0.12068,0.20888,0.298527,0.172713,0.241313,0,0.298527,-0.17206,0.12068,-0.208227,0,-0.344073,-0.120073,-0.208227,-0.298573,-0.17206,-0.240707,0,-0.298573,0.17206,-0.120073,0.20888,0,0.344073,0.12068,0.20888,0*4,0,12,-0.000467,0.273467,-0.090067,0.171733,-0.237533,0.136733,-0.193667,-0.007467,-0.237533,-0.1372,-0.090067,-0.171733,-0.000467,-0.273933,0.090067,-0.171733,0.237533,-0.1372,0.194133,0.007,0.237533,0.1372,0.090067,0.171267,-0.000467,0.273467,0*%
%AMIconStar4*4,1,8,-0.311733,0.311733,0,0.202533,0.311733,0.311733,0.202533,0,0.311733,-0.311733,0,-0.202533,-0.304407,-0.311733,-0.202533,0,-0.311733,0.311733,0*4,0,8,0.233333,-0.233333,0.1512,0,0.233333,0.233333,0,0.1512,-0.233333,0.233333,-0.1512,0,-0.233333,-0.233333,0,-0.1512,0.233333,-0.233333,0*%
%AMIconPlus*4,1,12,0.1736,-0.28,-0.1736,-0.28,-0.1736,-0.1736,-0.28,-0.1736,-0.28,0.1736,-0.1736,0.1736,-0.1736,0.28,0.1736,0.28,0.1736,0.1736,0.28,0.1736,0.28,-0.1736,0.1736,-0.1736,0.1736,-0.28,0*4,0,12,0.126933,-0.233333,0.126933,-0.126933,0.233333,-0.126933,0.233333,0.126933,0.126933,0.126933,0.126933,0.233333,-0.126933,0.233333,-0.126933,0.126933,-0.233333,0.126933,-0.233333,-0.126933,-0.126933,-0.126933,-0.126933,-0.233333,0.126933,-0.233333,0*%
%AMIconX*4,1,16,0.28,-0.28,0.076347,-0.28,0,-0.203653,-0.076347,-0.28,-0.28,-0.28,-0.28,-0.076347,-0.203653,0,-0.28,0.076347,-0.28,0.28,-0.076347,0.28,0,0.203653,0.076347,0.28,0.28,0.28,0.28,0.076347,0.203653,0,0.28,-0.076347,0.28,-0.28,0*4,0,16,0.23352,-0.23296,0.23352,-0.095853,0.137107,0.000093,0.23352,0.095853,0.23352,0.2331,0.095853,0.2331,0,0.137107,-0.095853,0.2331,-0.23352,0.2331,-0.23352,0.095853,-0.137107,0.000093,-0.23352,-0.095853,-0.23352,-0.23296,-0.095853,-0.23296,0,-0.137107,0.095853,-0.23296,0.23352,-0.23296,0*%
%ADD10IconRect*%
%ADD11C,0.616X0.522667*%
%ADD12IconTriangle*%
%ADD13IconStar6*%
%ADD14IconStar4*%
%ADD15IconPlus*%
%ADD16IconX*%
%ADD17C,0.2032*%
%ADD18C,0.254*%
G75*


G04 Drill Drawing Start*
G54D10*
G01X-7084601Y-9436100D03*
G01X-6834602Y-9436100D03*
G54D11*
G01X-9309811Y-9227210D03*
G01X-8444789Y-9227210D03*
G54D12*
G01X-9309811Y-9565208D03*
G01X-8444789Y-9565208D03*
G54D13*
G01X-9715500Y-279400D03*
G01X-9702800Y-9677400D03*
G01X-279400Y-9715500D03*
G01X-279400Y-292100D03*
G54D14*
G01X-9668184Y-6800850D03*
G01X-9668184Y-6546850D03*
G01X-9668184Y-6292850D03*
G01X-9668184Y-6038850D03*
G01X-9668184Y-5784850D03*
G01X-9668184Y-5530850D03*
G01X-9668184Y-5276850D03*
G01X-9668184Y-5022850D03*
G01X-9668184Y-4768850D03*
G01X-9668184Y-4514850D03*
G01X-9668184Y-4260850D03*
G01X-9668184Y-4006850D03*
G01X-9668184Y-3752850D03*
G01X-9668184Y-3498850D03*
G54D15*
G01X-9174810Y-9264203D03*
G01X-9174810Y-9129192D03*
G01X-9089796Y-9129192D03*
G01X-9089288Y-9264203D03*
G01X-9004808Y-9129192D03*
G01X-9004300Y-9264203D03*
G01X-8919794Y-9129192D03*
G01X-8919312Y-9264203D03*
G01X-8834806Y-9129192D03*
G01X-8834298Y-9264203D03*
G01X-8749792Y-9129192D03*
G01X-8749309Y-9264203D03*
G01X-8664804Y-9129192D03*
G01X-8664296Y-9264203D03*
G01X-8579790Y-9129192D03*
G01X-8579307Y-9264203D03*
G54D16*
G01X-9791700Y-7429500D03*
G01X-9639300Y-3225800D03*
G01X-8923002Y-8994147D03*
G01X-8655033Y-6301058D03*
G01X-8487963Y-6151158D03*
G01X-8432800Y-5511800D03*
G01X-8280404Y-9245592D03*
G01X-8208563Y-6176558D03*
G01X-8202904Y-6261107D03*
G01X-8126704Y-5981708D03*
G01X-8097624Y-5322819D03*
G01X-8058434Y-6463387D03*
G01X-7982634Y-6359397D03*
G01X-7969714Y-6698507D03*
G01X-7915424Y-6830416D03*
G01X-7867498Y-5499100D03*
G01X-7864624Y-7160616D03*
G01X-7785100Y-5956300D03*
G01X-7777424Y-6291058D03*
G01X-7702015Y-6388407D03*
G01X-7696200Y-4025900D03*
G01X-7677835Y-6664197D03*
G01X-7655415Y-4941820D03*
G01X-7643915Y-4801010D03*
G01X-7594600Y-4381500D03*
G01X-7548825Y-6591208D03*
G01X-7455029Y-6731000D03*
G01X-7397445Y-6363628D03*
G01X-7391400Y-5588000D03*
G01X-7363625Y-4394501D03*
G01X-7355276Y-6531547D03*
G01X-7352855Y-4006852D03*
G01X-7334235Y-6453457D03*
G01X-7320225Y-6672057D03*
G01X-7289800Y-5556098D03*
G01X-7269885Y-6977906D03*
G01X-7263626Y-4394501D03*
G01X-7085306Y-5143510D03*
G01X-7064786Y-5246619D03*
G01X-6983707Y-4610111D03*
G01X-6910276Y-4900190D03*
G01X-6886606Y-5206700D03*
G01X-6859476Y-5049390D03*
G01X-6822576Y-4974790D03*
G01X-6808677Y-4824810D03*
G01X-6797176Y-4749391D03*
G01X-6783277Y-5050210D03*
G01X-6783277Y-4649391D03*
G01X-6767066Y-4530301D03*
G01X-6736487Y-7025806D03*
G01X-6731000Y-5359400D03*
G01X-6668197Y-7401855D03*
G01X-6667500Y-4267200D03*
G01X-6616700Y-5270500D03*
G01X-6584087Y-7508405D03*
G01X-6558687Y-7689105D03*
G01X-6449077Y-4530301D03*
G01X-6404007Y-5206700D03*
G01X-6390777Y-4825590D03*
G01X-6337997Y-7376455D03*
G01X-6325457Y-5143500D03*
G01X-6299200Y-4559300D03*
G01X-6226587Y-7735815D03*
G01X-6197600Y-7241158D03*
G01X-6085978Y-5127190D03*
G01X-6007100Y-7340600D03*
G01X-5946208Y-2652805D03*
G01X-5794789Y-7380215D03*
G01X-5789718Y-4801010D03*
G01X-5705455Y-2689245D03*
G01X-5617689Y-2684985D03*
G01X-5207000Y-7264400D03*
G01X-5029200Y-8585200D03*
G01X-4902200Y-5295900D03*
G01X-4756940Y-4923130D03*
G01X-4673600Y-5321300D03*
G01X-4666021Y-5465449D03*
G01X-4610100Y-5054600D03*
G01X-4419601Y-4769000D03*
G01X-4411201Y-5554029D03*
G01X-4344881Y-4998590D03*
G01X-4310421Y-4525651D03*
G01X-4292602Y-4616601D03*
G01X-4266222Y-4978230D03*
G01X-4182602Y-5325429D03*
G01X-4159402Y-4338061D03*
G01X-4158022Y-4678051D03*
G01X-4051300Y-5778500D03*
G01X-3981122Y-5047750D03*
G01X-3712123Y-4946930D03*
G01X-3695703Y-5341149D03*
G01X-3686723Y-5097730D03*
G01X-3683003Y-4672741D03*
G01X-3670303Y-5620549D03*
G01X-3626003Y-4871460D03*
G01X-3407323Y-4921530D03*
G01X-3396923Y-5073150D03*
G01X-3381923Y-4996130D03*
G01X-3251204Y-4496661D03*
G01X-3098804Y-4344261D03*
G01X-3073404Y-4418741D03*
G01X-2711004Y-5086430D03*
G01X-2524326Y-4859637D03*
G01X-2397327Y-4783437D03*
G01X-2184400Y-5041900D03*
G01X-1466407Y-3943432D03*
G01X-1231897Y-3618902D03*
G01X-1219200Y-6629400D03*
G01X-913078Y-6695157D03*
G01X-711209Y-6376257D03*
G04 Drill Drawing End*

G04 Text Start*
G54D17*
G01X2296646Y-225506D02*
G01X2296646Y-345648D01*
G01X2296646Y-225506D02*
G01X2342366Y-345648D01*
G01X2388086Y-225506D02*
G01X2342366Y-345648D01*
G01X2388086Y-225506D02*
G01X2388086Y-345648D01*
G01X2504418Y-265638D02*
G01X2504418Y-345648D01*
G01X2504418Y-282656D02*
G01X2492988Y-271226D01*
G01X2481558Y-265638D01*
G01X2464540Y-265638D01*
G01X2453110Y-271226D01*
G01X2441680Y-282656D01*
G01X2435838Y-299928D01*
G01X2435838Y-311358D01*
G01X2441680Y-328376D01*
G01X2453110Y-339806D01*
G01X2464540Y-345648D01*
G01X2481558Y-345648D01*
G01X2492988Y-339806D01*
G01X2504418Y-328376D01*
G01X2552170Y-265638D02*
G01X2552170Y-345648D01*
G01X2552170Y-299928D02*
G01X2558012Y-282656D01*
G01X2569442Y-271226D01*
G01X2580872Y-265638D01*
G01X2597890Y-265638D01*
G01X2645642Y-225506D02*
G01X2645642Y-345648D01*
G01X2702792Y-265638D02*
G01X2645642Y-322788D01*
G01X2668502Y-299928D02*
G01X2708634Y-345648D01*
G01X3833926Y-254208D02*
G01X3828084Y-242778D01*
G01X3816654Y-231348D01*
G01X3805224Y-225506D01*
G01X3782364Y-225506D01*
G01X3770934Y-231348D01*
G01X3759504Y-242778D01*
G01X3753916Y-254208D01*
G01X3748074Y-271226D01*
G01X3748074Y-299928D01*
G01X3753916Y-316946D01*
G01X3759504Y-328376D01*
G01X3770934Y-339806D01*
G01X3782364Y-345648D01*
G01X3805224Y-345648D01*
G01X3816654Y-339806D01*
G01X3828084Y-328376D01*
G01X3833926Y-316946D01*
G01X3910380Y-265638D02*
G01X3898950Y-271226D01*
G01X3887520Y-282656D01*
G01X3881678Y-299928D01*
G01X3881678Y-311358D01*
G01X3887520Y-328376D01*
G01X3898950Y-339806D01*
G01X3910380Y-345648D01*
G01X3927398Y-345648D01*
G01X3938828Y-339806D01*
G01X3950258Y-328376D01*
G01X3956100Y-311358D01*
G01X3956100Y-299928D01*
G01X3950258Y-282656D01*
G01X3938828Y-271226D01*
G01X3927398Y-265638D01*
G01X3910380Y-265638D01*
G01X4003852Y-265638D02*
G01X4003852Y-322788D01*
G01X4009694Y-339806D01*
G01X4021124Y-345648D01*
G01X4038142Y-345648D01*
G01X4049572Y-339806D01*
G01X4066844Y-322788D01*
G01X4066844Y-265638D02*
G01X4066844Y-345648D01*
G01X4114596Y-265638D02*
G01X4114596Y-345648D01*
G01X4114596Y-288498D02*
G01X4131868Y-271226D01*
G01X4143298Y-265638D01*
G01X4160316Y-265638D01*
G01X4171746Y-271226D01*
G01X4177588Y-288498D01*
G01X4177588Y-345648D01*
G01X4242612Y-225506D02*
G01X4242612Y-322788D01*
G01X4248200Y-339806D01*
G01X4259630Y-345648D01*
G01X4271060Y-345648D01*
G01X4225340Y-265638D02*
G01X4265472Y-265638D01*
G01X5242248Y-242778D02*
G01X5230818Y-231348D01*
G01X5213800Y-225506D01*
G01X5190940Y-225506D01*
G01X5173668Y-231348D01*
G01X5162238Y-242778D01*
G01X5162238Y-254208D01*
G01X5168080Y-265638D01*
G01X5173668Y-271226D01*
G01X5185098Y-277068D01*
G01X5219388Y-288498D01*
G01X5230818Y-294086D01*
G01X5236660Y-299928D01*
G01X5242248Y-311358D01*
G01X5242248Y-328376D01*
G01X5230818Y-339806D01*
G01X5213800Y-345648D01*
G01X5190940Y-345648D01*
G01X5173668Y-339806D01*
G01X5162238Y-328376D01*
G01X5290000Y-225506D02*
G01X5295842Y-231348D01*
G01X5301430Y-225506D01*
G01X5295842Y-219918D01*
G01X5290000Y-225506D01*
G01X5295842Y-265638D02*
G01X5295842Y-345648D01*
G01X5412174Y-265638D02*
G01X5349182Y-345648D01*
G01X5349182Y-265638D02*
G01X5412174Y-265638D01*
G01X5349182Y-345648D02*
G01X5412174Y-345648D01*
G01X5459926Y-299928D02*
G01X5528506Y-299928D01*
G01X5528506Y-288498D01*
G01X5522918Y-277068D01*
G01X5517076Y-271226D01*
G01X5505646Y-265638D01*
G01X5488628Y-265638D01*
G01X5477198Y-271226D01*
G01X5465768Y-282656D01*
G01X5459926Y-299928D01*
G01X5459926Y-311358D01*
G01X5465768Y-328376D01*
G01X5477198Y-339806D01*
G01X5488628Y-345648D01*
G01X5505646Y-345648D01*
G01X5517076Y-339806D01*
G01X5528506Y-328376D01*
G01X9033343Y-225506D02*
G01X9033343Y-345648D01*
G01X9033343Y-225506D02*
G01X9084905Y-225506D01*
G01X9101923Y-231348D01*
G01X9107765Y-236936D01*
G01X9113353Y-248366D01*
G01X9113353Y-265638D01*
G01X9107765Y-277068D01*
G01X9101923Y-282656D01*
G01X9084905Y-288498D01*
G01X9033343Y-288498D01*
G01X9161105Y-225506D02*
G01X9161105Y-345648D01*
G01X9277437Y-265638D02*
G01X9277437Y-345648D01*
G01X9277437Y-282656D02*
G01X9266007Y-271226D01*
G01X9254577Y-265638D01*
G01X9237559Y-265638D01*
G01X9226129Y-271226D01*
G01X9214699Y-282656D01*
G01X9208857Y-299928D01*
G01X9208857Y-311358D01*
G01X9214699Y-328376D01*
G01X9226129Y-339806D01*
G01X9237559Y-345648D01*
G01X9254577Y-345648D01*
G01X9266007Y-339806D01*
G01X9277437Y-328376D01*
G01X9342461Y-225506D02*
G01X9342461Y-322788D01*
G01X9348049Y-339806D01*
G01X9359479Y-345648D01*
G01X9370909Y-345648D01*
G01X9325189Y-265638D02*
G01X9365321Y-265638D01*
G01X9418661Y-299928D02*
G01X9487241Y-299928D01*
G01X9487241Y-288498D01*
G01X9481653Y-277068D01*
G01X9475811Y-271226D01*
G01X9464381Y-265638D01*
G01X9447363Y-265638D01*
G01X9435933Y-271226D01*
G01X9424503Y-282656D01*
G01X9418661Y-299928D01*
G01X9418661Y-311358D01*
G01X9424503Y-328376D01*
G01X9435933Y-339806D01*
G01X9447363Y-345648D01*
G01X9464381Y-345648D01*
G01X9475811Y-339806D01*
G01X9487241Y-328376D01*
G01X9603573Y-225506D02*
G01X9603573Y-345648D01*
G01X9603573Y-282656D02*
G01X9592143Y-271226D01*
G01X9580713Y-265638D01*
G01X9563695Y-265638D01*
G01X9552265Y-271226D01*
G01X9540835Y-282656D01*
G01X9534993Y-299928D01*
G01X9534993Y-311358D01*
G01X9540835Y-328376D01*
G01X9552265Y-339806D01*
G01X9563695Y-345648D01*
G01X9580713Y-345648D01*
G01X9592143Y-339806D01*
G01X9603573Y-328376D01*
G01X10574760Y-242778D02*
G01X10563330Y-231348D01*
G01X10546312Y-225506D01*
G01X10523452Y-225506D01*
G01X10506180Y-231348D01*
G01X10494750Y-242778D01*
G01X10494750Y-254208D01*
G01X10500592Y-265638D01*
G01X10506180Y-271226D01*
G01X10517610Y-277068D01*
G01X10551900Y-288498D01*
G01X10563330Y-294086D01*
G01X10569172Y-299928D01*
G01X10574760Y-311358D01*
G01X10574760Y-328376D01*
G01X10563330Y-339806D01*
G01X10546312Y-345648D01*
G01X10523452Y-345648D01*
G01X10506180Y-339806D01*
G01X10494750Y-328376D01*
G01X10622512Y-225506D02*
G01X10622512Y-345648D01*
G01X10622512Y-288498D02*
G01X10639784Y-271226D01*
G01X10651214Y-265638D01*
G01X10668232Y-265638D01*
G01X10679662Y-271226D01*
G01X10685504Y-288498D01*
G01X10685504Y-345648D01*
G01X10801836Y-265638D02*
G01X10801836Y-345648D01*
G01X10801836Y-282656D02*
G01X10790406Y-271226D01*
G01X10778976Y-265638D01*
G01X10761958Y-265638D01*
G01X10750528Y-271226D01*
G01X10739098Y-282656D01*
G01X10733256Y-299928D01*
G01X10733256Y-311358D01*
G01X10739098Y-328376D01*
G01X10750528Y-339806D01*
G01X10761958Y-345648D01*
G01X10778976Y-345648D01*
G01X10790406Y-339806D01*
G01X10801836Y-328376D01*
G01X10849588Y-265638D02*
G01X10849588Y-385526D01*
G01X10849588Y-282656D02*
G01X10861018Y-271226D01*
G01X10872448Y-265638D01*
G01X10889720Y-265638D01*
G01X10901150Y-271226D01*
G01X10912580Y-282656D01*
G01X10918168Y-299928D01*
G01X10918168Y-311358D01*
G01X10912580Y-328376D01*
G01X10901150Y-339806D01*
G01X10889720Y-345648D01*
G01X10872448Y-345648D01*
G01X10861018Y-339806D01*
G01X10849588Y-328376D01*
G01X10965920Y-299928D02*
G01X11034500Y-299928D01*
G01X11034500Y-288498D01*
G01X11028912Y-277068D01*
G01X11023070Y-271226D01*
G01X11011640Y-265638D01*
G01X10994622Y-265638D01*
G01X10983192Y-271226D01*
G01X10971762Y-282656D01*
G01X10965920Y-299928D01*
G01X10965920Y-311358D01*
G01X10971762Y-328376D01*
G01X10983192Y-339806D01*
G01X10994622Y-345648D01*
G01X11011640Y-345648D01*
G01X11023070Y-339806D01*
G01X11034500Y-328376D01*
G01X11925931Y-225506D02*
G01X11971651Y-345648D01*
G01X12017371Y-225506D02*
G01X11971651Y-345648D01*
G01X12065123Y-225506D02*
G01X12070965Y-231348D01*
G01X12076553Y-225506D01*
G01X12070965Y-219918D01*
G01X12065123Y-225506D01*
G01X12070965Y-265638D02*
G01X12070965Y-345648D01*
G01X12192885Y-265638D02*
G01X12192885Y-345648D01*
G01X12192885Y-282656D02*
G01X12181455Y-271226D01*
G01X12170025Y-265638D01*
G01X12153007Y-265638D01*
G01X12141577Y-271226D01*
G01X12130147Y-282656D01*
G01X12124305Y-299928D01*
G01X12124305Y-311358D01*
G01X12130147Y-328376D01*
G01X12141577Y-339806D01*
G01X12153007Y-345648D01*
G01X12170025Y-345648D01*
G01X12181455Y-339806D01*
G01X12192885Y-328376D01*
G01X12343507Y-202646D02*
G01X12240637Y-385526D01*
G01X12391259Y-225506D02*
G01X12391259Y-345648D01*
G01X12391259Y-225506D02*
G01X12442821Y-225506D01*
G01X12459839Y-231348D01*
G01X12465681Y-236936D01*
G01X12471269Y-248366D01*
G01X12471269Y-265638D01*
G01X12465681Y-277068D01*
G01X12459839Y-282656D01*
G01X12442821Y-288498D01*
G01X12391259Y-288498D01*
G01X12587601Y-265638D02*
G01X12587601Y-345648D01*
G01X12587601Y-282656D02*
G01X12576171Y-271226D01*
G01X12564741Y-265638D01*
G01X12547723Y-265638D01*
G01X12536293Y-271226D01*
G01X12524863Y-282656D01*
G01X12519021Y-299928D01*
G01X12519021Y-311358D01*
G01X12524863Y-328376D01*
G01X12536293Y-339806D01*
G01X12547723Y-345648D01*
G01X12564741Y-345648D01*
G01X12576171Y-339806D01*
G01X12587601Y-328376D01*
G01X12703933Y-225506D02*
G01X12703933Y-345648D01*
G01X12703933Y-282656D02*
G01X12692503Y-271226D01*
G01X12681073Y-265638D01*
G01X12664055Y-265638D01*
G01X12652625Y-271226D01*
G01X12641195Y-282656D01*
G01X12635353Y-299928D01*
G01X12635353Y-311358D01*
G01X12641195Y-328376D01*
G01X12652625Y-339806D01*
G01X12664055Y-345648D01*
G01X12681073Y-345648D01*
G01X12692503Y-339806D01*
G01X12703933Y-328376D01*
G01X13595110Y-225506D02*
G01X13595110Y-345648D01*
G01X13595110Y-225506D02*
G01X13646672Y-225506D01*
G01X13663690Y-231348D01*
G01X13669532Y-236936D01*
G01X13675120Y-248366D01*
G01X13675120Y-265638D01*
G01X13669532Y-277068D01*
G01X13663690Y-282656D01*
G01X13646672Y-288498D01*
G01X13595110Y-288498D01*
G01X13791452Y-265638D02*
G01X13791452Y-345648D01*
G01X13791452Y-282656D02*
G01X13780022Y-271226D01*
G01X13768592Y-265638D01*
G01X13751574Y-265638D01*
G01X13740144Y-271226D01*
G01X13728714Y-282656D01*
G01X13722872Y-299928D01*
G01X13722872Y-311358D01*
G01X13728714Y-328376D01*
G01X13740144Y-339806D01*
G01X13751574Y-345648D01*
G01X13768592Y-345648D01*
G01X13780022Y-339806D01*
G01X13791452Y-328376D01*
G01X13907784Y-225506D02*
G01X13907784Y-345648D01*
G01X13907784Y-282656D02*
G01X13896354Y-271226D01*
G01X13884924Y-265638D01*
G01X13867906Y-265638D01*
G01X13856476Y-271226D01*
G01X13845046Y-282656D01*
G01X13839204Y-299928D01*
G01X13839204Y-311358D01*
G01X13845046Y-328376D01*
G01X13856476Y-339806D01*
G01X13867906Y-345648D01*
G01X13884924Y-345648D01*
G01X13896354Y-339806D01*
G01X13907784Y-328376D01*
G01X14163562Y-242778D02*
G01X14152132Y-231348D01*
G01X14135114Y-225506D01*
G01X14112254Y-225506D01*
G01X14094982Y-231348D01*
G01X14083552Y-242778D01*
G01X14083552Y-254208D01*
G01X14089394Y-265638D01*
G01X14094982Y-271226D01*
G01X14106412Y-277068D01*
G01X14140702Y-288498D01*
G01X14152132Y-294086D01*
G01X14157974Y-299928D01*
G01X14163562Y-311358D01*
G01X14163562Y-328376D01*
G01X14152132Y-339806D01*
G01X14135114Y-345648D01*
G01X14112254Y-345648D01*
G01X14094982Y-339806D01*
G01X14083552Y-328376D01*
G01X14211314Y-225506D02*
G01X14211314Y-345648D01*
G01X14211314Y-288498D02*
G01X14228586Y-271226D01*
G01X14240016Y-265638D01*
G01X14257034Y-265638D01*
G01X14268464Y-271226D01*
G01X14274306Y-288498D01*
G01X14274306Y-345648D01*
G01X14390638Y-265638D02*
G01X14390638Y-345648D01*
G01X14390638Y-282656D02*
G01X14379208Y-271226D01*
G01X14367778Y-265638D01*
G01X14350760Y-265638D01*
G01X14339330Y-271226D01*
G01X14327900Y-282656D01*
G01X14322058Y-299928D01*
G01X14322058Y-311358D01*
G01X14327900Y-328376D01*
G01X14339330Y-339806D01*
G01X14350760Y-345648D01*
G01X14367778Y-345648D01*
G01X14379208Y-339806D01*
G01X14390638Y-328376D01*
G01X14438390Y-265638D02*
G01X14438390Y-385526D01*
G01X14438390Y-282656D02*
G01X14449820Y-271226D01*
G01X14461250Y-265638D01*
G01X14478522Y-265638D01*
G01X14489952Y-271226D01*
G01X14501382Y-282656D01*
G01X14506970Y-299928D01*
G01X14506970Y-311358D01*
G01X14501382Y-328376D01*
G01X14489952Y-339806D01*
G01X14478522Y-345648D01*
G01X14461250Y-345648D01*
G01X14449820Y-339806D01*
G01X14438390Y-328376D01*
G01X14554722Y-299928D02*
G01X14623302Y-299928D01*
G01X14623302Y-288498D01*
G01X14617714Y-277068D01*
G01X14611872Y-271226D01*
G01X14600442Y-265638D01*
G01X14583424Y-265638D01*
G01X14571994Y-271226D01*
G01X14560564Y-282656D01*
G01X14554722Y-299928D01*
G01X14554722Y-311358D01*
G01X14560564Y-328376D01*
G01X14571994Y-339806D01*
G01X14583424Y-345648D01*
G01X14600442Y-345648D01*
G01X14611872Y-339806D01*
G01X14623302Y-328376D01*
G01X15514479Y-225506D02*
G01X15514479Y-345648D01*
G01X15514479Y-345648D02*
G01X15583059Y-345648D01*
G01X15699391Y-265638D02*
G01X15699391Y-345648D01*
G01X15699391Y-282656D02*
G01X15687961Y-271226D01*
G01X15676531Y-265638D01*
G01X15659513Y-265638D01*
G01X15648083Y-271226D01*
G01X15636653Y-282656D01*
G01X15630811Y-299928D01*
G01X15630811Y-311358D01*
G01X15636653Y-328376D01*
G01X15648083Y-339806D01*
G01X15659513Y-345648D01*
G01X15676531Y-345648D01*
G01X15687961Y-339806D01*
G01X15699391Y-328376D01*
G01X15752985Y-265638D02*
G01X15787275Y-345648D01*
G01X15821565Y-265638D02*
G01X15787275Y-345648D01*
G01X15775845Y-368508D01*
G01X15764415Y-379938D01*
G01X15752985Y-385526D01*
G01X15747143Y-385526D01*
G01X15869317Y-299928D02*
G01X15937897Y-299928D01*
G01X15937897Y-288498D01*
G01X15932309Y-277068D01*
G01X15926467Y-271226D01*
G01X15915037Y-265638D01*
G01X15898019Y-265638D01*
G01X15886589Y-271226D01*
G01X15875159Y-282656D01*
G01X15869317Y-299928D01*
G01X15869317Y-311358D01*
G01X15875159Y-328376D01*
G01X15886589Y-339806D01*
G01X15898019Y-345648D01*
G01X15915037Y-345648D01*
G01X15926467Y-339806D01*
G01X15937897Y-328376D01*
G01X15985649Y-265638D02*
G01X15985649Y-345648D01*
G01X15985649Y-299928D02*
G01X15991491Y-282656D01*
G01X16002921Y-271226D01*
G01X16014351Y-265638D01*
G01X16031369Y-265638D01*
G01X16207137Y-225506D02*
G01X16207137Y-345648D01*
G01X16207137Y-225506D02*
G01X16258699Y-225506D01*
G01X16275717Y-231348D01*
G01X16281559Y-236936D01*
G01X16287147Y-248366D01*
G01X16287147Y-265638D01*
G01X16281559Y-277068D01*
G01X16275717Y-282656D01*
G01X16258699Y-288498D01*
G01X16207137Y-288498D01*
G01X16403479Y-265638D02*
G01X16403479Y-345648D01*
G01X16403479Y-282656D02*
G01X16392049Y-271226D01*
G01X16380619Y-265638D01*
G01X16363601Y-265638D01*
G01X16352171Y-271226D01*
G01X16340741Y-282656D01*
G01X16334899Y-299928D01*
G01X16334899Y-311358D01*
G01X16340741Y-328376D01*
G01X16352171Y-339806D01*
G01X16363601Y-345648D01*
G01X16380619Y-345648D01*
G01X16392049Y-339806D01*
G01X16403479Y-328376D01*
G01X16451231Y-225506D02*
G01X16457073Y-231348D01*
G01X16462661Y-225506D01*
G01X16457073Y-219918D01*
G01X16451231Y-225506D01*
G01X16457073Y-265638D02*
G01X16457073Y-345648D01*
G01X16510413Y-265638D02*
G01X16510413Y-345648D01*
G01X16510413Y-299928D02*
G01X16516255Y-282656D01*
G01X16527685Y-271226D01*
G01X16539115Y-265638D01*
G01X16556133Y-265638D01*
G01X3753916Y-834779D02*
G01X3753916Y-828937D01*
G01X3759504Y-817507D01*
G01X3765346Y-811919D01*
G01X3776776Y-806077D01*
G01X3799636Y-806077D01*
G01X3811066Y-811919D01*
G01X3816654Y-817507D01*
G01X3822496Y-828937D01*
G01X3822496Y-840367D01*
G01X3816654Y-851797D01*
G01X3805224Y-869069D01*
G01X3748074Y-926219D01*
G01X3828084Y-926219D01*
G01X5173668Y-806077D02*
G01X5236660Y-806077D01*
G01X5202370Y-851797D01*
G01X5219388Y-851797D01*
G01X5230818Y-857639D01*
G01X5236660Y-863227D01*
G01X5242248Y-880499D01*
G01X5242248Y-891929D01*
G01X5236660Y-908947D01*
G01X5225230Y-920377D01*
G01X5207958Y-926219D01*
G01X5190940Y-926219D01*
G01X5173668Y-920377D01*
G01X5168080Y-914789D01*
G01X5162238Y-903359D01*
G01X5364422Y-846209D02*
G01X5358580Y-863227D01*
G01X5347150Y-874657D01*
G01X5330132Y-880499D01*
G01X5324290Y-880499D01*
G01X5307272Y-874657D01*
G01X5295842Y-863227D01*
G01X5290000Y-846209D01*
G01X5290000Y-840367D01*
G01X5295842Y-823349D01*
G01X5307272Y-811919D01*
G01X5324290Y-806077D01*
G01X5330132Y-806077D01*
G01X5347150Y-811919D01*
G01X5358580Y-823349D01*
G01X5364422Y-846209D01*
G01X5364422Y-874657D01*
G01X5358580Y-903359D01*
G01X5347150Y-920377D01*
G01X5330132Y-926219D01*
G01X5318702Y-926219D01*
G01X5301430Y-920377D01*
G01X5295842Y-908947D01*
G01X5418016Y-897517D02*
G01X5412174Y-903359D01*
G01X5418016Y-908947D01*
G01X5423604Y-903359D01*
G01X5418016Y-897517D01*
G01X5528506Y-806077D02*
G01X5471356Y-886087D01*
G01X5557208Y-886087D01*
G01X5528506Y-806077D02*
G01X5528506Y-926219D01*
G01X5604960Y-846209D02*
G01X5667952Y-926219D01*
G01X5667952Y-846209D02*
G01X5604960Y-926219D01*
G01X5727134Y-806077D02*
G01X5790126Y-806077D01*
G01X5755836Y-851797D01*
G01X5772854Y-851797D01*
G01X5784284Y-857639D01*
G01X5790126Y-863227D01*
G01X5795714Y-880499D01*
G01X5795714Y-891929D01*
G01X5790126Y-908947D01*
G01X5778696Y-920377D01*
G01X5761424Y-926219D01*
G01X5744406Y-926219D01*
G01X5727134Y-920377D01*
G01X5721546Y-914789D01*
G01X5715704Y-903359D01*
G01X5917888Y-846209D02*
G01X5912046Y-863227D01*
G01X5900616Y-874657D01*
G01X5883598Y-880499D01*
G01X5877756Y-880499D01*
G01X5860738Y-874657D01*
G01X5849308Y-863227D01*
G01X5843466Y-846209D01*
G01X5843466Y-840367D01*
G01X5849308Y-823349D01*
G01X5860738Y-811919D01*
G01X5877756Y-806077D01*
G01X5883598Y-806077D01*
G01X5900616Y-811919D01*
G01X5912046Y-823349D01*
G01X5917888Y-846209D01*
G01X5917888Y-874657D01*
G01X5912046Y-903359D01*
G01X5900616Y-920377D01*
G01X5883598Y-926219D01*
G01X5872168Y-926219D01*
G01X5854896Y-920377D01*
G01X5849308Y-908947D01*
G01X5971482Y-897517D02*
G01X5965640Y-903359D01*
G01X5971482Y-908947D01*
G01X5977070Y-903359D01*
G01X5971482Y-897517D01*
G01X6081972Y-806077D02*
G01X6024822Y-886087D01*
G01X6110674Y-886087D01*
G01X6081972Y-806077D02*
G01X6081972Y-926219D01*
G01X6158426Y-846209D02*
G01X6158426Y-926219D01*
G01X6158426Y-869069D02*
G01X6175698Y-851797D01*
G01X6187128Y-846209D01*
G01X6204146Y-846209D01*
G01X6215576Y-851797D01*
G01X6221418Y-869069D01*
G01X6221418Y-926219D01*
G01X6221418Y-869069D02*
G01X6238436Y-851797D01*
G01X6249866Y-846209D01*
G01X6267138Y-846209D01*
G01X6278568Y-851797D01*
G01X6284156Y-869069D01*
G01X6284156Y-926219D01*
G01X6331908Y-806077D02*
G01X6337750Y-811919D01*
G01X6343338Y-806077D01*
G01X6337750Y-800489D01*
G01X6331908Y-806077D01*
G01X6337750Y-846209D02*
G01X6337750Y-926219D01*
G01X6391090Y-806077D02*
G01X6391090Y-926219D01*
G01X6478974Y-783217D02*
G01X6467544Y-794647D01*
G01X6456114Y-811919D01*
G01X6444684Y-834779D01*
G01X6438842Y-863227D01*
G01X6438842Y-886087D01*
G01X6444684Y-914789D01*
G01X6456114Y-937649D01*
G01X6467544Y-954667D01*
G01X6478974Y-966097D01*
G01X6526726Y-828937D02*
G01X6538156Y-823349D01*
G01X6555428Y-806077D01*
G01X6555428Y-926219D01*
G01X6609022Y-897517D02*
G01X6603180Y-903359D01*
G01X6609022Y-908947D01*
G01X6614610Y-903359D01*
G01X6609022Y-897517D01*
G01X6696652Y-806077D02*
G01X6679634Y-811919D01*
G01X6668204Y-828937D01*
G01X6662362Y-857639D01*
G01X6662362Y-874657D01*
G01X6668204Y-903359D01*
G01X6679634Y-920377D01*
G01X6696652Y-926219D01*
G01X6708082Y-926219D01*
G01X6725354Y-920377D01*
G01X6736784Y-903359D01*
G01X6742372Y-874657D01*
G01X6742372Y-857639D01*
G01X6736784Y-828937D01*
G01X6725354Y-811919D01*
G01X6708082Y-806077D01*
G01X6696652Y-806077D01*
G01X6824414Y-806077D02*
G01X6807396Y-811919D01*
G01X6795966Y-828937D01*
G01X6790124Y-857639D01*
G01X6790124Y-874657D01*
G01X6795966Y-903359D01*
G01X6807396Y-920377D01*
G01X6824414Y-926219D01*
G01X6835844Y-926219D01*
G01X6853116Y-920377D01*
G01X6864546Y-903359D01*
G01X6870134Y-874657D01*
G01X6870134Y-857639D01*
G01X6864546Y-828937D01*
G01X6853116Y-811919D01*
G01X6835844Y-806077D01*
G01X6824414Y-806077D01*
G01X6952176Y-806077D02*
G01X6935158Y-811919D01*
G01X6923728Y-828937D01*
G01X6917886Y-857639D01*
G01X6917886Y-874657D01*
G01X6923728Y-903359D01*
G01X6935158Y-920377D01*
G01X6952176Y-926219D01*
G01X6963606Y-926219D01*
G01X6980878Y-920377D01*
G01X6992308Y-903359D01*
G01X6997896Y-874657D01*
G01X6997896Y-857639D01*
G01X6992308Y-828937D01*
G01X6980878Y-811919D01*
G01X6963606Y-806077D01*
G01X6952176Y-806077D01*
G01X7045648Y-846209D02*
G01X7108640Y-926219D01*
G01X7108640Y-846209D02*
G01X7045648Y-926219D01*
G01X7156392Y-828937D02*
G01X7167822Y-823349D01*
G01X7185094Y-806077D01*
G01X7185094Y-926219D01*
G01X7238688Y-897517D02*
G01X7232846Y-903359D01*
G01X7238688Y-908947D01*
G01X7244276Y-903359D01*
G01X7238688Y-897517D01*
G01X7326318Y-806077D02*
G01X7309300Y-811919D01*
G01X7297870Y-828937D01*
G01X7292028Y-857639D01*
G01X7292028Y-874657D01*
G01X7297870Y-903359D01*
G01X7309300Y-920377D01*
G01X7326318Y-926219D01*
G01X7337748Y-926219D01*
G01X7355020Y-920377D01*
G01X7366450Y-903359D01*
G01X7372038Y-874657D01*
G01X7372038Y-857639D01*
G01X7366450Y-828937D01*
G01X7355020Y-811919D01*
G01X7337748Y-806077D01*
G01X7326318Y-806077D01*
G01X7454080Y-806077D02*
G01X7437062Y-811919D01*
G01X7425632Y-828937D01*
G01X7419790Y-857639D01*
G01X7419790Y-874657D01*
G01X7425632Y-903359D01*
G01X7437062Y-920377D01*
G01X7454080Y-926219D01*
G01X7465510Y-926219D01*
G01X7482782Y-920377D01*
G01X7494212Y-903359D01*
G01X7499800Y-874657D01*
G01X7499800Y-857639D01*
G01X7494212Y-828937D01*
G01X7482782Y-811919D01*
G01X7465510Y-806077D01*
G01X7454080Y-806077D01*
G01X7581842Y-806077D02*
G01X7564824Y-811919D01*
G01X7553394Y-828937D01*
G01X7547552Y-857639D01*
G01X7547552Y-874657D01*
G01X7553394Y-903359D01*
G01X7564824Y-920377D01*
G01X7581842Y-926219D01*
G01X7593272Y-926219D01*
G01X7610544Y-920377D01*
G01X7621974Y-903359D01*
G01X7627562Y-874657D01*
G01X7627562Y-857639D01*
G01X7621974Y-828937D01*
G01X7610544Y-811919D01*
G01X7593272Y-806077D01*
G01X7581842Y-806077D01*
G01X7675314Y-846209D02*
G01X7675314Y-926219D01*
G01X7675314Y-869069D02*
G01X7692586Y-851797D01*
G01X7704016Y-846209D01*
G01X7721034Y-846209D01*
G01X7732464Y-851797D01*
G01X7738306Y-869069D01*
G01X7738306Y-926219D01*
G01X7738306Y-869069D02*
G01X7755324Y-851797D01*
G01X7766754Y-846209D01*
G01X7784026Y-846209D01*
G01X7795456Y-851797D01*
G01X7801044Y-869069D01*
G01X7801044Y-926219D01*
G01X7848796Y-846209D02*
G01X7848796Y-926219D01*
G01X7848796Y-869069D02*
G01X7866068Y-851797D01*
G01X7877498Y-846209D01*
G01X7894516Y-846209D01*
G01X7905946Y-851797D01*
G01X7911788Y-869069D01*
G01X7911788Y-926219D01*
G01X7911788Y-869069D02*
G01X7928806Y-851797D01*
G01X7940236Y-846209D01*
G01X7957508Y-846209D01*
G01X7968938Y-851797D01*
G01X7974526Y-869069D01*
G01X7974526Y-926219D01*
G01X8022278Y-783217D02*
G01X8033708Y-794647D01*
G01X8045138Y-811919D01*
G01X8056568Y-834779D01*
G01X8062410Y-863227D01*
G01X8062410Y-886087D01*
G01X8056568Y-914789D01*
G01X8045138Y-937649D01*
G01X8033708Y-954667D01*
G01X8022278Y-966097D01*
G01X9033343Y-806077D02*
G01X9033343Y-926219D01*
G01X9033343Y-806077D02*
G01X9084905Y-806077D01*
G01X9101923Y-811919D01*
G01X9107765Y-817507D01*
G01X9113353Y-828937D01*
G01X9113353Y-846209D01*
G01X9107765Y-857639D01*
G01X9101923Y-863227D01*
G01X9084905Y-869069D01*
G01X9033343Y-869069D01*
G01X9201237Y-806077D02*
G01X9201237Y-926219D01*
G01X9161105Y-806077D02*
G01X9241115Y-806077D01*
G01X9288867Y-806077D02*
G01X9288867Y-926219D01*
G01X9368877Y-806077D02*
G01X9368877Y-926219D01*
G01X9288867Y-863227D02*
G01X9368877Y-863227D01*
G01X10494750Y-806077D02*
G01X10494750Y-926219D01*
G01X10494750Y-806077D02*
G01X10546312Y-806077D01*
G01X10563330Y-811919D01*
G01X10569172Y-817507D01*
G01X10574760Y-828937D01*
G01X10574760Y-840367D01*
G01X10569172Y-851797D01*
G01X10563330Y-857639D01*
G01X10546312Y-863227D01*
G01X10494750Y-863227D01*
G01X10534882Y-863227D02*
G01X10574760Y-926219D01*
G01X10651214Y-846209D02*
G01X10639784Y-851797D01*
G01X10628354Y-863227D01*
G01X10622512Y-880499D01*
G01X10622512Y-891929D01*
G01X10628354Y-908947D01*
G01X10639784Y-920377D01*
G01X10651214Y-926219D01*
G01X10668232Y-926219D01*
G01X10679662Y-920377D01*
G01X10691092Y-908947D01*
G01X10696934Y-891929D01*
G01X10696934Y-880499D01*
G01X10691092Y-863227D01*
G01X10679662Y-851797D01*
G01X10668232Y-846209D01*
G01X10651214Y-846209D01*
G01X10744686Y-846209D02*
G01X10744686Y-903359D01*
G01X10750528Y-920377D01*
G01X10761958Y-926219D01*
G01X10778976Y-926219D01*
G01X10790406Y-920377D01*
G01X10807678Y-903359D01*
G01X10807678Y-846209D02*
G01X10807678Y-926219D01*
G01X10855430Y-846209D02*
G01X10855430Y-926219D01*
G01X10855430Y-869069D02*
G01X10872702Y-851797D01*
G01X10884132Y-846209D01*
G01X10901150Y-846209D01*
G01X10912580Y-851797D01*
G01X10918422Y-869069D01*
G01X10918422Y-926219D01*
G01X11034754Y-806077D02*
G01X11034754Y-926219D01*
G01X11034754Y-863227D02*
G01X11023324Y-851797D01*
G01X11011894Y-846209D01*
G01X10994876Y-846209D01*
G01X10983446Y-851797D01*
G01X10972016Y-863227D01*
G01X10966174Y-880499D01*
G01X10966174Y-891929D01*
G01X10972016Y-908947D01*
G01X10983446Y-920377D01*
G01X10994876Y-926219D01*
G01X11011894Y-926219D01*
G01X11023324Y-920377D01*
G01X11034754Y-908947D01*
G01X11925931Y-806077D02*
G01X11925931Y-926219D01*
G01X11925931Y-806077D02*
G01X11977493Y-806077D01*
G01X11994511Y-811919D01*
G01X12000353Y-817507D01*
G01X12005941Y-828937D01*
G01X12005941Y-846209D01*
G01X12000353Y-857639D01*
G01X11994511Y-863227D01*
G01X11977493Y-869069D01*
G01X11925931Y-869069D01*
G01X12122273Y-846209D02*
G01X12122273Y-926219D01*
G01X12122273Y-863227D02*
G01X12110843Y-851797D01*
G01X12099413Y-846209D01*
G01X12082395Y-846209D01*
G01X12070965Y-851797D01*
G01X12059535Y-863227D01*
G01X12053693Y-880499D01*
G01X12053693Y-891929D01*
G01X12059535Y-908947D01*
G01X12070965Y-920377D01*
G01X12082395Y-926219D01*
G01X12099413Y-926219D01*
G01X12110843Y-920377D01*
G01X12122273Y-908947D01*
G01X12238605Y-806077D02*
G01X12238605Y-926219D01*
G01X12238605Y-863227D02*
G01X12227175Y-851797D01*
G01X12215745Y-846209D01*
G01X12198727Y-846209D01*
G01X12187297Y-851797D01*
G01X12175867Y-863227D01*
G01X12170025Y-880499D01*
G01X12170025Y-891929D01*
G01X12175867Y-908947D01*
G01X12187297Y-920377D01*
G01X12198727Y-926219D01*
G01X12215745Y-926219D01*
G01X12227175Y-920377D01*
G01X12238605Y-908947D01*
G01X13595110Y-806077D02*
G01X13595110Y-926219D01*
G01X13595110Y-806077D02*
G01X13646672Y-806077D01*
G01X13663690Y-811919D01*
G01X13669532Y-817507D01*
G01X13675120Y-828937D01*
G01X13675120Y-840367D01*
G01X13669532Y-851797D01*
G01X13663690Y-857639D01*
G01X13646672Y-863227D01*
G01X13595110Y-863227D01*
G01X13635242Y-863227D02*
G01X13675120Y-926219D01*
G01X13751574Y-846209D02*
G01X13740144Y-851797D01*
G01X13728714Y-863227D01*
G01X13722872Y-880499D01*
G01X13722872Y-891929D01*
G01X13728714Y-908947D01*
G01X13740144Y-920377D01*
G01X13751574Y-926219D01*
G01X13768592Y-926219D01*
G01X13780022Y-920377D01*
G01X13791452Y-908947D01*
G01X13797294Y-891929D01*
G01X13797294Y-880499D01*
G01X13791452Y-863227D01*
G01X13780022Y-851797D01*
G01X13768592Y-846209D01*
G01X13751574Y-846209D01*
G01X13845046Y-846209D02*
G01X13845046Y-903359D01*
G01X13850888Y-920377D01*
G01X13862318Y-926219D01*
G01X13879336Y-926219D01*
G01X13890766Y-920377D01*
G01X13908038Y-903359D01*
G01X13908038Y-846209D02*
G01X13908038Y-926219D01*
G01X13955790Y-846209D02*
G01X13955790Y-926219D01*
G01X13955790Y-869069D02*
G01X13973062Y-851797D01*
G01X13984492Y-846209D01*
G01X14001510Y-846209D01*
G01X14012940Y-851797D01*
G01X14018782Y-869069D01*
G01X14018782Y-926219D01*
G01X14135114Y-806077D02*
G01X14135114Y-926219D01*
G01X14135114Y-863227D02*
G01X14123684Y-851797D01*
G01X14112254Y-846209D01*
G01X14095236Y-846209D01*
G01X14083806Y-851797D01*
G01X14072376Y-863227D01*
G01X14066534Y-880499D01*
G01X14066534Y-891929D01*
G01X14072376Y-908947D01*
G01X14083806Y-920377D01*
G01X14095236Y-926219D01*
G01X14112254Y-926219D01*
G01X14123684Y-920377D01*
G01X14135114Y-908947D01*
G01X15554611Y-806077D02*
G01X15554611Y-926219D01*
G01X15514479Y-806077D02*
G01X15594489Y-806077D01*
G01X15670943Y-846209D02*
G01X15659513Y-851797D01*
G01X15648083Y-863227D01*
G01X15642241Y-880499D01*
G01X15642241Y-891929D01*
G01X15648083Y-908947D01*
G01X15659513Y-920377D01*
G01X15670943Y-926219D01*
G01X15687961Y-926219D01*
G01X15699391Y-920377D01*
G01X15710821Y-908947D01*
G01X15716663Y-891929D01*
G01X15716663Y-880499D01*
G01X15710821Y-863227D01*
G01X15699391Y-851797D01*
G01X15687961Y-846209D01*
G01X15670943Y-846209D01*
G01X15764415Y-846209D02*
G01X15764415Y-966097D01*
G01X15764415Y-863227D02*
G01X15775845Y-851797D01*
G01X15787275Y-846209D01*
G01X15804547Y-846209D01*
G01X15815977Y-851797D01*
G01X15827407Y-863227D01*
G01X15832995Y-880499D01*
G01X15832995Y-891929D01*
G01X15827407Y-908947D01*
G01X15815977Y-920377D01*
G01X15804547Y-926219D01*
G01X15787275Y-926219D01*
G01X15775845Y-920377D01*
G01X15764415Y-908947D01*
G01X16008763Y-806077D02*
G01X16008763Y-926219D01*
G01X16008763Y-926219D02*
G01X16077343Y-926219D01*
G01X16193675Y-846209D02*
G01X16193675Y-926219D01*
G01X16193675Y-863227D02*
G01X16182245Y-851797D01*
G01X16170815Y-846209D01*
G01X16153797Y-846209D01*
G01X16142367Y-851797D01*
G01X16130937Y-863227D01*
G01X16125095Y-880499D01*
G01X16125095Y-891929D01*
G01X16130937Y-908947D01*
G01X16142367Y-920377D01*
G01X16153797Y-926219D01*
G01X16170815Y-926219D01*
G01X16182245Y-920377D01*
G01X16193675Y-908947D01*
G01X16247269Y-846209D02*
G01X16281559Y-926219D01*
G01X16315849Y-846209D02*
G01X16281559Y-926219D01*
G01X16270129Y-949079D01*
G01X16258699Y-960509D01*
G01X16247269Y-966097D01*
G01X16241427Y-966097D01*
G01X16363601Y-880499D02*
G01X16432181Y-880499D01*
G01X16432181Y-869069D01*
G01X16426593Y-857639D01*
G01X16420751Y-851797D01*
G01X16409321Y-846209D01*
G01X16392303Y-846209D01*
G01X16380873Y-851797D01*
G01X16369443Y-863227D01*
G01X16363601Y-880499D01*
G01X16363601Y-891929D01*
G01X16369443Y-908947D01*
G01X16380873Y-920377D01*
G01X16392303Y-926219D01*
G01X16409321Y-926219D01*
G01X16420751Y-920377D01*
G01X16432181Y-908947D01*
G01X16479933Y-846209D02*
G01X16479933Y-926219D01*
G01X16479933Y-880499D02*
G01X16485775Y-863227D01*
G01X16497205Y-851797D01*
G01X16508635Y-846209D01*
G01X16525653Y-846209D01*
G01X16573405Y-874657D02*
G01X16676275Y-874657D01*
G01X16724027Y-806077D02*
G01X16724027Y-926219D01*
G01X16724027Y-806077D02*
G01X16775589Y-806077D01*
G01X16792607Y-811919D01*
G01X16798449Y-817507D01*
G01X16804037Y-828937D01*
G01X16804037Y-840367D01*
G01X16798449Y-851797D01*
G01X16792607Y-857639D01*
G01X16775589Y-863227D01*
G01X16724027Y-863227D02*
G01X16775589Y-863227D01*
G01X16792607Y-869069D01*
G01X16798449Y-874657D01*
G01X16804037Y-886087D01*
G01X16804037Y-903359D01*
G01X16798449Y-914789D01*
G01X16792607Y-920377D01*
G01X16775589Y-926219D01*
G01X16724027Y-926219D01*
G01X16880491Y-846209D02*
G01X16869061Y-851797D01*
G01X16857631Y-863227D01*
G01X16851789Y-880499D01*
G01X16851789Y-891929D01*
G01X16857631Y-908947D01*
G01X16869061Y-920377D01*
G01X16880491Y-926219D01*
G01X16897509Y-926219D01*
G01X16908939Y-920377D01*
G01X16920369Y-908947D01*
G01X16926211Y-891929D01*
G01X16926211Y-880499D01*
G01X16920369Y-863227D01*
G01X16908939Y-851797D01*
G01X16897509Y-846209D01*
G01X16880491Y-846209D01*
G01X16991235Y-806077D02*
G01X16991235Y-903359D01*
G01X16996823Y-920377D01*
G01X17008253Y-926219D01*
G01X17019683Y-926219D01*
G01X16973963Y-846209D02*
G01X17014095Y-846209D01*
G01X17084707Y-806077D02*
G01X17084707Y-903359D01*
G01X17090295Y-920377D01*
G01X17101725Y-926219D01*
G01X17113155Y-926219D01*
G01X17067435Y-846209D02*
G01X17107567Y-846209D01*
G01X17189609Y-846209D02*
G01X17178179Y-851797D01*
G01X17166749Y-863227D01*
G01X17160907Y-880499D01*
G01X17160907Y-891929D01*
G01X17166749Y-908947D01*
G01X17178179Y-920377D01*
G01X17189609Y-926219D01*
G01X17206627Y-926219D01*
G01X17218057Y-920377D01*
G01X17229487Y-908947D01*
G01X17235329Y-891929D01*
G01X17235329Y-880499D01*
G01X17229487Y-863227D01*
G01X17218057Y-851797D01*
G01X17206627Y-846209D01*
G01X17189609Y-846209D01*
G01X17283081Y-846209D02*
G01X17283081Y-926219D01*
G01X17283081Y-869069D02*
G01X17300353Y-851797D01*
G01X17311783Y-846209D01*
G01X17328801Y-846209D01*
G01X17340231Y-851797D01*
G01X17346073Y-869069D01*
G01X17346073Y-926219D01*
G01X17346073Y-869069D02*
G01X17363091Y-851797D01*
G01X17374521Y-846209D01*
G01X17391793Y-846209D01*
G01X17403223Y-851797D01*
G01X17408811Y-869069D01*
G01X17408811Y-926219D01*
G01X17584579Y-806077D02*
G01X17584579Y-926219D01*
G01X17584579Y-926219D02*
G01X17653159Y-926219D01*
G01X17769491Y-846209D02*
G01X17769491Y-926219D01*
G01X17769491Y-863227D02*
G01X17758061Y-851797D01*
G01X17746631Y-846209D01*
G01X17729613Y-846209D01*
G01X17718183Y-851797D01*
G01X17706753Y-863227D01*
G01X17700911Y-880499D01*
G01X17700911Y-891929D01*
G01X17706753Y-908947D01*
G01X17718183Y-920377D01*
G01X17729613Y-926219D01*
G01X17746631Y-926219D01*
G01X17758061Y-920377D01*
G01X17769491Y-908947D01*
G01X17823085Y-846209D02*
G01X17857375Y-926219D01*
G01X17891665Y-846209D02*
G01X17857375Y-926219D01*
G01X17845945Y-949079D01*
G01X17834515Y-960509D01*
G01X17823085Y-966097D01*
G01X17817243Y-966097D01*
G01X17939417Y-880499D02*
G01X18007997Y-880499D01*
G01X18007997Y-869069D01*
G01X18002409Y-857639D01*
G01X17996567Y-851797D01*
G01X17985137Y-846209D01*
G01X17968119Y-846209D01*
G01X17956689Y-851797D01*
G01X17945259Y-863227D01*
G01X17939417Y-880499D01*
G01X17939417Y-891929D01*
G01X17945259Y-908947D01*
G01X17956689Y-920377D01*
G01X17968119Y-926219D01*
G01X17985137Y-926219D01*
G01X17996567Y-920377D01*
G01X18007997Y-908947D01*
G01X18055749Y-846209D02*
G01X18055749Y-926219D01*
G01X18055749Y-880499D02*
G01X18061591Y-863227D01*
G01X18073021Y-851797D01*
G01X18084451Y-846209D01*
G01X18101469Y-846209D01*
G01X3753916Y-1415351D02*
G01X3753916Y-1409509D01*
G01X3759504Y-1398079D01*
G01X3765346Y-1392491D01*
G01X3776776Y-1386649D01*
G01X3799636Y-1386649D01*
G01X3811066Y-1392491D01*
G01X3816654Y-1398079D01*
G01X3822496Y-1409509D01*
G01X3822496Y-1420939D01*
G01X3816654Y-1432369D01*
G01X3805224Y-1449641D01*
G01X3748074Y-1506791D01*
G01X3828084Y-1506791D01*
G01X5168080Y-1415351D02*
G01X5168080Y-1409509D01*
G01X5173668Y-1398079D01*
G01X5179510Y-1392491D01*
G01X5190940Y-1386649D01*
G01X5213800Y-1386649D01*
G01X5225230Y-1392491D01*
G01X5230818Y-1398079D01*
G01X5236660Y-1409509D01*
G01X5236660Y-1420939D01*
G01X5230818Y-1432369D01*
G01X5219388Y-1449641D01*
G01X5162238Y-1506791D01*
G01X5242248Y-1506791D01*
G01X5301430Y-1386649D02*
G01X5364422Y-1386649D01*
G01X5330132Y-1432369D01*
G01X5347150Y-1432369D01*
G01X5358580Y-1438211D01*
G01X5364422Y-1443799D01*
G01X5370010Y-1461071D01*
G01X5370010Y-1472501D01*
G01X5364422Y-1489519D01*
G01X5352992Y-1500949D01*
G01X5335720Y-1506791D01*
G01X5318702Y-1506791D01*
G01X5301430Y-1500949D01*
G01X5295842Y-1495361D01*
G01X5290000Y-1483931D01*
G01X5423604Y-1478089D02*
G01X5417762Y-1483931D01*
G01X5423604Y-1489519D01*
G01X5429192Y-1483931D01*
G01X5423604Y-1478089D01*
G01X5545524Y-1403921D02*
G01X5539936Y-1392491D01*
G01X5522664Y-1386649D01*
G01X5511234Y-1386649D01*
G01X5494216Y-1392491D01*
G01X5482786Y-1409509D01*
G01X5476944Y-1438211D01*
G01X5476944Y-1466659D01*
G01X5482786Y-1489519D01*
G01X5494216Y-1500949D01*
G01X5511234Y-1506791D01*
G01X5517076Y-1506791D01*
G01X5534094Y-1500949D01*
G01X5545524Y-1489519D01*
G01X5551366Y-1472501D01*
G01X5551366Y-1466659D01*
G01X5545524Y-1449641D01*
G01X5534094Y-1438211D01*
G01X5517076Y-1432369D01*
G01X5511234Y-1432369D01*
G01X5494216Y-1438211D01*
G01X5482786Y-1449641D01*
G01X5476944Y-1466659D01*
G01X5599118Y-1426781D02*
G01X5662110Y-1506791D01*
G01X5662110Y-1426781D02*
G01X5599118Y-1506791D01*
G01X5738564Y-1386649D02*
G01X5721292Y-1392491D01*
G01X5715704Y-1403921D01*
G01X5715704Y-1415351D01*
G01X5721292Y-1426781D01*
G01X5732722Y-1432369D01*
G01X5755582Y-1438211D01*
G01X5772854Y-1443799D01*
G01X5784284Y-1455229D01*
G01X5789872Y-1466659D01*
G01X5789872Y-1483931D01*
G01X5784284Y-1495361D01*
G01X5778442Y-1500949D01*
G01X5761424Y-1506791D01*
G01X5738564Y-1506791D01*
G01X5721292Y-1500949D01*
G01X5715704Y-1495361D01*
G01X5709862Y-1483931D01*
G01X5709862Y-1466659D01*
G01X5715704Y-1455229D01*
G01X5727134Y-1443799D01*
G01X5744152Y-1438211D01*
G01X5767012Y-1432369D01*
G01X5778442Y-1426781D01*
G01X5784284Y-1415351D01*
G01X5784284Y-1403921D01*
G01X5778442Y-1392491D01*
G01X5761424Y-1386649D01*
G01X5738564Y-1386649D01*
G01X5843466Y-1415351D02*
G01X5843466Y-1409509D01*
G01X5849054Y-1398079D01*
G01X5854896Y-1392491D01*
G01X5866326Y-1386649D01*
G01X5889186Y-1386649D01*
G01X5900616Y-1392491D01*
G01X5906204Y-1398079D01*
G01X5912046Y-1409509D01*
G01X5912046Y-1420939D01*
G01X5906204Y-1432369D01*
G01X5894774Y-1449641D01*
G01X5837624Y-1506791D01*
G01X5917634Y-1506791D01*
G01X5971228Y-1478089D02*
G01X5965386Y-1483931D01*
G01X5971228Y-1489519D01*
G01X5976816Y-1483931D01*
G01X5971228Y-1478089D01*
G01X6104578Y-1386649D02*
G01X6047428Y-1506791D01*
G01X6024568Y-1386649D02*
G01X6104578Y-1386649D01*
G01X6152330Y-1426781D02*
G01X6152330Y-1506791D01*
G01X6152330Y-1449641D02*
G01X6169602Y-1432369D01*
G01X6181032Y-1426781D01*
G01X6198050Y-1426781D01*
G01X6209480Y-1432369D01*
G01X6215322Y-1449641D01*
G01X6215322Y-1506791D01*
G01X6215322Y-1449641D02*
G01X6232340Y-1432369D01*
G01X6243770Y-1426781D01*
G01X6261042Y-1426781D01*
G01X6272472Y-1432369D01*
G01X6278060Y-1449641D01*
G01X6278060Y-1506791D01*
G01X6325812Y-1386649D02*
G01X6331654Y-1392491D01*
G01X6337242Y-1386649D01*
G01X6331654Y-1381061D01*
G01X6325812Y-1386649D01*
G01X6331654Y-1426781D02*
G01X6331654Y-1506791D01*
G01X6384994Y-1386649D02*
G01X6384994Y-1506791D01*
G01X6472878Y-1363789D02*
G01X6461448Y-1375219D01*
G01X6450018Y-1392491D01*
G01X6438588Y-1415351D01*
G01X6432746Y-1443799D01*
G01X6432746Y-1466659D01*
G01X6438588Y-1495361D01*
G01X6450018Y-1518221D01*
G01X6461448Y-1535239D01*
G01X6472878Y-1546669D01*
G01X6554920Y-1386649D02*
G01X6537902Y-1392491D01*
G01X6526472Y-1409509D01*
G01X6520630Y-1438211D01*
G01X6520630Y-1455229D01*
G01X6526472Y-1483931D01*
G01X6537902Y-1500949D01*
G01X6554920Y-1506791D01*
G01X6566350Y-1506791D01*
G01X6583622Y-1500949D01*
G01X6595052Y-1483931D01*
G01X6600640Y-1455229D01*
G01X6600640Y-1438211D01*
G01X6595052Y-1409509D01*
G01X6583622Y-1392491D01*
G01X6566350Y-1386649D01*
G01X6554920Y-1386649D01*
G01X6654234Y-1478089D02*
G01X6648392Y-1483931D01*
G01X6654234Y-1489519D01*
G01X6659822Y-1483931D01*
G01X6654234Y-1478089D01*
G01X6776154Y-1403921D02*
G01X6770566Y-1392491D01*
G01X6753294Y-1386649D01*
G01X6741864Y-1386649D01*
G01X6724846Y-1392491D01*
G01X6713416Y-1409509D01*
G01X6707574Y-1438211D01*
G01X6707574Y-1466659D01*
G01X6713416Y-1489519D01*
G01X6724846Y-1500949D01*
G01X6741864Y-1506791D01*
G01X6747706Y-1506791D01*
G01X6764724Y-1500949D01*
G01X6776154Y-1489519D01*
G01X6781996Y-1472501D01*
G01X6781996Y-1466659D01*
G01X6776154Y-1449641D01*
G01X6764724Y-1438211D01*
G01X6747706Y-1432369D01*
G01X6741864Y-1432369D01*
G01X6724846Y-1438211D01*
G01X6713416Y-1449641D01*
G01X6707574Y-1466659D01*
G01X6864038Y-1386649D02*
G01X6847020Y-1392491D01*
G01X6835590Y-1409509D01*
G01X6829748Y-1438211D01*
G01X6829748Y-1455229D01*
G01X6835590Y-1483931D01*
G01X6847020Y-1500949D01*
G01X6864038Y-1506791D01*
G01X6875468Y-1506791D01*
G01X6892740Y-1500949D01*
G01X6904170Y-1483931D01*
G01X6909758Y-1455229D01*
G01X6909758Y-1438211D01*
G01X6904170Y-1409509D01*
G01X6892740Y-1392491D01*
G01X6875468Y-1386649D01*
G01X6864038Y-1386649D01*
G01X6991800Y-1386649D02*
G01X6974782Y-1392491D01*
G01X6963352Y-1409509D01*
G01X6957510Y-1438211D01*
G01X6957510Y-1455229D01*
G01X6963352Y-1483931D01*
G01X6974782Y-1500949D01*
G01X6991800Y-1506791D01*
G01X7003230Y-1506791D01*
G01X7020502Y-1500949D01*
G01X7031932Y-1483931D01*
G01X7037520Y-1455229D01*
G01X7037520Y-1438211D01*
G01X7031932Y-1409509D01*
G01X7020502Y-1392491D01*
G01X7003230Y-1386649D01*
G01X6991800Y-1386649D01*
G01X7085272Y-1426781D02*
G01X7148264Y-1506791D01*
G01X7148264Y-1426781D02*
G01X7085272Y-1506791D01*
G01X7201858Y-1415351D02*
G01X7201858Y-1409509D01*
G01X7207446Y-1398079D01*
G01X7213288Y-1392491D01*
G01X7224718Y-1386649D01*
G01X7247578Y-1386649D01*
G01X7259008Y-1392491D01*
G01X7264596Y-1398079D01*
G01X7270438Y-1409509D01*
G01X7270438Y-1420939D01*
G01X7264596Y-1432369D01*
G01X7253166Y-1449641D01*
G01X7196016Y-1506791D01*
G01X7276026Y-1506791D01*
G01X7329620Y-1478089D02*
G01X7323778Y-1483931D01*
G01X7329620Y-1489519D01*
G01X7335208Y-1483931D01*
G01X7329620Y-1478089D01*
G01X7382960Y-1409509D02*
G01X7394390Y-1403921D01*
G01X7411662Y-1386649D01*
G01X7411662Y-1506791D01*
G01X7493704Y-1386649D02*
G01X7476686Y-1392491D01*
G01X7465256Y-1409509D01*
G01X7459414Y-1438211D01*
G01X7459414Y-1455229D01*
G01X7465256Y-1483931D01*
G01X7476686Y-1500949D01*
G01X7493704Y-1506791D01*
G01X7505134Y-1506791D01*
G01X7522406Y-1500949D01*
G01X7533836Y-1483931D01*
G01X7539424Y-1455229D01*
G01X7539424Y-1438211D01*
G01X7533836Y-1409509D01*
G01X7522406Y-1392491D01*
G01X7505134Y-1386649D01*
G01X7493704Y-1386649D01*
G01X7621466Y-1386649D02*
G01X7604448Y-1392491D01*
G01X7593018Y-1409509D01*
G01X7587176Y-1438211D01*
G01X7587176Y-1455229D01*
G01X7593018Y-1483931D01*
G01X7604448Y-1500949D01*
G01X7621466Y-1506791D01*
G01X7632896Y-1506791D01*
G01X7650168Y-1500949D01*
G01X7661598Y-1483931D01*
G01X7667186Y-1455229D01*
G01X7667186Y-1438211D01*
G01X7661598Y-1409509D01*
G01X7650168Y-1392491D01*
G01X7632896Y-1386649D01*
G01X7621466Y-1386649D01*
G01X7714938Y-1426781D02*
G01X7714938Y-1506791D01*
G01X7714938Y-1449641D02*
G01X7732210Y-1432369D01*
G01X7743640Y-1426781D01*
G01X7760658Y-1426781D01*
G01X7772088Y-1432369D01*
G01X7777930Y-1449641D01*
G01X7777930Y-1506791D01*
G01X7777930Y-1449641D02*
G01X7794948Y-1432369D01*
G01X7806378Y-1426781D01*
G01X7823650Y-1426781D01*
G01X7835080Y-1432369D01*
G01X7840668Y-1449641D01*
G01X7840668Y-1506791D01*
G01X7888420Y-1426781D02*
G01X7888420Y-1506791D01*
G01X7888420Y-1449641D02*
G01X7905692Y-1432369D01*
G01X7917122Y-1426781D01*
G01X7934140Y-1426781D01*
G01X7945570Y-1432369D01*
G01X7951412Y-1449641D01*
G01X7951412Y-1506791D01*
G01X7951412Y-1449641D02*
G01X7968430Y-1432369D01*
G01X7979860Y-1426781D01*
G01X7997132Y-1426781D01*
G01X8008562Y-1432369D01*
G01X8014150Y-1449641D01*
G01X8014150Y-1506791D01*
G01X8061902Y-1363789D02*
G01X8073332Y-1375219D01*
G01X8084762Y-1392491D01*
G01X8096192Y-1415351D01*
G01X8102034Y-1443799D01*
G01X8102034Y-1466659D01*
G01X8096192Y-1495361D01*
G01X8084762Y-1518221D01*
G01X8073332Y-1535239D01*
G01X8061902Y-1546669D01*
G01X9033343Y-1386649D02*
G01X9033343Y-1506791D01*
G01X9033343Y-1386649D02*
G01X9084905Y-1386649D01*
G01X9101923Y-1392491D01*
G01X9107765Y-1398079D01*
G01X9113353Y-1409509D01*
G01X9113353Y-1426781D01*
G01X9107765Y-1438211D01*
G01X9101923Y-1443799D01*
G01X9084905Y-1449641D01*
G01X9033343Y-1449641D01*
G01X9201237Y-1386649D02*
G01X9201237Y-1506791D01*
G01X9161105Y-1386649D02*
G01X9241115Y-1386649D01*
G01X9288867Y-1386649D02*
G01X9288867Y-1506791D01*
G01X9368877Y-1386649D02*
G01X9368877Y-1506791D01*
G01X9288867Y-1443799D02*
G01X9368877Y-1443799D01*
G01X10574760Y-1403921D02*
G01X10563330Y-1392491D01*
G01X10546312Y-1386649D01*
G01X10523452Y-1386649D01*
G01X10506180Y-1392491D01*
G01X10494750Y-1403921D01*
G01X10494750Y-1415351D01*
G01X10500592Y-1426781D01*
G01X10506180Y-1432369D01*
G01X10517610Y-1438211D01*
G01X10551900Y-1449641D01*
G01X10563330Y-1455229D01*
G01X10569172Y-1461071D01*
G01X10574760Y-1472501D01*
G01X10574760Y-1489519D01*
G01X10563330Y-1500949D01*
G01X10546312Y-1506791D01*
G01X10523452Y-1506791D01*
G01X10506180Y-1500949D01*
G01X10494750Y-1489519D01*
G01X10622512Y-1386649D02*
G01X10622512Y-1506791D01*
G01X10698966Y-1426781D02*
G01X10687536Y-1432369D01*
G01X10676106Y-1443799D01*
G01X10670264Y-1461071D01*
G01X10670264Y-1472501D01*
G01X10676106Y-1489519D01*
G01X10687536Y-1500949D01*
G01X10698966Y-1506791D01*
G01X10715984Y-1506791D01*
G01X10727414Y-1500949D01*
G01X10738844Y-1489519D01*
G01X10744686Y-1472501D01*
G01X10744686Y-1461071D01*
G01X10738844Y-1443799D01*
G01X10727414Y-1432369D01*
G01X10715984Y-1426781D01*
G01X10698966Y-1426781D01*
G01X10809710Y-1386649D02*
G01X10809710Y-1483931D01*
G01X10815298Y-1500949D01*
G01X10826728Y-1506791D01*
G01X10838158Y-1506791D01*
G01X10792438Y-1426781D02*
G01X10832570Y-1426781D01*
G01X11925931Y-1386649D02*
G01X11925931Y-1506791D01*
G01X11925931Y-1386649D02*
G01X11977493Y-1386649D01*
G01X11994511Y-1392491D01*
G01X12000353Y-1398079D01*
G01X12005941Y-1409509D01*
G01X12005941Y-1426781D01*
G01X12000353Y-1438211D01*
G01X11994511Y-1443799D01*
G01X11977493Y-1449641D01*
G01X11925931Y-1449641D01*
G01X12122273Y-1426781D02*
G01X12122273Y-1506791D01*
G01X12122273Y-1443799D02*
G01X12110843Y-1432369D01*
G01X12099413Y-1426781D01*
G01X12082395Y-1426781D01*
G01X12070965Y-1432369D01*
G01X12059535Y-1443799D01*
G01X12053693Y-1461071D01*
G01X12053693Y-1472501D01*
G01X12059535Y-1489519D01*
G01X12070965Y-1500949D01*
G01X12082395Y-1506791D01*
G01X12099413Y-1506791D01*
G01X12110843Y-1500949D01*
G01X12122273Y-1489519D01*
G01X12238605Y-1386649D02*
G01X12238605Y-1506791D01*
G01X12238605Y-1443799D02*
G01X12227175Y-1432369D01*
G01X12215745Y-1426781D01*
G01X12198727Y-1426781D01*
G01X12187297Y-1432369D01*
G01X12175867Y-1443799D01*
G01X12170025Y-1461071D01*
G01X12170025Y-1472501D01*
G01X12175867Y-1489519D01*
G01X12187297Y-1500949D01*
G01X12198727Y-1506791D01*
G01X12215745Y-1506791D01*
G01X12227175Y-1500949D01*
G01X12238605Y-1489519D01*
G01X13629400Y-1386649D02*
G01X13617970Y-1392491D01*
G01X13606540Y-1403921D01*
G01X13600952Y-1415351D01*
G01X13595110Y-1432369D01*
G01X13595110Y-1461071D01*
G01X13600952Y-1478089D01*
G01X13606540Y-1489519D01*
G01X13617970Y-1500949D01*
G01X13629400Y-1506791D01*
G01X13652260Y-1506791D01*
G01X13663690Y-1500949D01*
G01X13675120Y-1489519D01*
G01X13680962Y-1478089D01*
G01X13686550Y-1461071D01*
G01X13686550Y-1432369D01*
G01X13680962Y-1415351D01*
G01X13675120Y-1403921D01*
G01X13663690Y-1392491D01*
G01X13652260Y-1386649D01*
G01X13629400Y-1386649D01*
G01X13734302Y-1426781D02*
G01X13768592Y-1506791D01*
G01X13802882Y-1426781D02*
G01X13768592Y-1506791D01*
G01X13919214Y-1426781D02*
G01X13919214Y-1506791D01*
G01X13919214Y-1443799D02*
G01X13907784Y-1432369D01*
G01X13896354Y-1426781D01*
G01X13879336Y-1426781D01*
G01X13867906Y-1432369D01*
G01X13856476Y-1443799D01*
G01X13850634Y-1461071D01*
G01X13850634Y-1472501D01*
G01X13856476Y-1489519D01*
G01X13867906Y-1500949D01*
G01X13879336Y-1506791D01*
G01X13896354Y-1506791D01*
G01X13907784Y-1500949D01*
G01X13919214Y-1489519D01*
G01X13966966Y-1386649D02*
G01X13966966Y-1506791D01*
G01X15554611Y-1386649D02*
G01X15554611Y-1506791D01*
G01X15514479Y-1386649D02*
G01X15594489Y-1386649D01*
G01X15670943Y-1426781D02*
G01X15659513Y-1432369D01*
G01X15648083Y-1443799D01*
G01X15642241Y-1461071D01*
G01X15642241Y-1472501D01*
G01X15648083Y-1489519D01*
G01X15659513Y-1500949D01*
G01X15670943Y-1506791D01*
G01X15687961Y-1506791D01*
G01X15699391Y-1500949D01*
G01X15710821Y-1489519D01*
G01X15716663Y-1472501D01*
G01X15716663Y-1461071D01*
G01X15710821Y-1443799D01*
G01X15699391Y-1432369D01*
G01X15687961Y-1426781D01*
G01X15670943Y-1426781D01*
G01X15764415Y-1426781D02*
G01X15764415Y-1546669D01*
G01X15764415Y-1443799D02*
G01X15775845Y-1432369D01*
G01X15787275Y-1426781D01*
G01X15804547Y-1426781D01*
G01X15815977Y-1432369D01*
G01X15827407Y-1443799D01*
G01X15832995Y-1461071D01*
G01X15832995Y-1472501D01*
G01X15827407Y-1489519D01*
G01X15815977Y-1500949D01*
G01X15804547Y-1506791D01*
G01X15787275Y-1506791D01*
G01X15775845Y-1500949D01*
G01X15764415Y-1489519D01*
G01X16008763Y-1386649D02*
G01X16008763Y-1506791D01*
G01X16008763Y-1506791D02*
G01X16077343Y-1506791D01*
G01X16193675Y-1426781D02*
G01X16193675Y-1506791D01*
G01X16193675Y-1443799D02*
G01X16182245Y-1432369D01*
G01X16170815Y-1426781D01*
G01X16153797Y-1426781D01*
G01X16142367Y-1432369D01*
G01X16130937Y-1443799D01*
G01X16125095Y-1461071D01*
G01X16125095Y-1472501D01*
G01X16130937Y-1489519D01*
G01X16142367Y-1500949D01*
G01X16153797Y-1506791D01*
G01X16170815Y-1506791D01*
G01X16182245Y-1500949D01*
G01X16193675Y-1489519D01*
G01X16247269Y-1426781D02*
G01X16281559Y-1506791D01*
G01X16315849Y-1426781D02*
G01X16281559Y-1506791D01*
G01X16270129Y-1529651D01*
G01X16258699Y-1541081D01*
G01X16247269Y-1546669D01*
G01X16241427Y-1546669D01*
G01X16363601Y-1461071D02*
G01X16432181Y-1461071D01*
G01X16432181Y-1449641D01*
G01X16426593Y-1438211D01*
G01X16420751Y-1432369D01*
G01X16409321Y-1426781D01*
G01X16392303Y-1426781D01*
G01X16380873Y-1432369D01*
G01X16369443Y-1443799D01*
G01X16363601Y-1461071D01*
G01X16363601Y-1472501D01*
G01X16369443Y-1489519D01*
G01X16380873Y-1500949D01*
G01X16392303Y-1506791D01*
G01X16409321Y-1506791D01*
G01X16420751Y-1500949D01*
G01X16432181Y-1489519D01*
G01X16479933Y-1426781D02*
G01X16479933Y-1506791D01*
G01X16479933Y-1461071D02*
G01X16485775Y-1443799D01*
G01X16497205Y-1432369D01*
G01X16508635Y-1426781D01*
G01X16525653Y-1426781D01*
G01X16573405Y-1455229D02*
G01X16676275Y-1455229D01*
G01X16724027Y-1386649D02*
G01X16724027Y-1506791D01*
G01X16724027Y-1386649D02*
G01X16775589Y-1386649D01*
G01X16792607Y-1392491D01*
G01X16798449Y-1398079D01*
G01X16804037Y-1409509D01*
G01X16804037Y-1420939D01*
G01X16798449Y-1432369D01*
G01X16792607Y-1438211D01*
G01X16775589Y-1443799D01*
G01X16724027Y-1443799D02*
G01X16775589Y-1443799D01*
G01X16792607Y-1449641D01*
G01X16798449Y-1455229D01*
G01X16804037Y-1466659D01*
G01X16804037Y-1483931D01*
G01X16798449Y-1495361D01*
G01X16792607Y-1500949D01*
G01X16775589Y-1506791D01*
G01X16724027Y-1506791D01*
G01X16880491Y-1426781D02*
G01X16869061Y-1432369D01*
G01X16857631Y-1443799D01*
G01X16851789Y-1461071D01*
G01X16851789Y-1472501D01*
G01X16857631Y-1489519D01*
G01X16869061Y-1500949D01*
G01X16880491Y-1506791D01*
G01X16897509Y-1506791D01*
G01X16908939Y-1500949D01*
G01X16920369Y-1489519D01*
G01X16926211Y-1472501D01*
G01X16926211Y-1461071D01*
G01X16920369Y-1443799D01*
G01X16908939Y-1432369D01*
G01X16897509Y-1426781D01*
G01X16880491Y-1426781D01*
G01X16991235Y-1386649D02*
G01X16991235Y-1483931D01*
G01X16996823Y-1500949D01*
G01X17008253Y-1506791D01*
G01X17019683Y-1506791D01*
G01X16973963Y-1426781D02*
G01X17014095Y-1426781D01*
G01X17084707Y-1386649D02*
G01X17084707Y-1483931D01*
G01X17090295Y-1500949D01*
G01X17101725Y-1506791D01*
G01X17113155Y-1506791D01*
G01X17067435Y-1426781D02*
G01X17107567Y-1426781D01*
G01X17189609Y-1426781D02*
G01X17178179Y-1432369D01*
G01X17166749Y-1443799D01*
G01X17160907Y-1461071D01*
G01X17160907Y-1472501D01*
G01X17166749Y-1489519D01*
G01X17178179Y-1500949D01*
G01X17189609Y-1506791D01*
G01X17206627Y-1506791D01*
G01X17218057Y-1500949D01*
G01X17229487Y-1489519D01*
G01X17235329Y-1472501D01*
G01X17235329Y-1461071D01*
G01X17229487Y-1443799D01*
G01X17218057Y-1432369D01*
G01X17206627Y-1426781D01*
G01X17189609Y-1426781D01*
G01X17283081Y-1426781D02*
G01X17283081Y-1506791D01*
G01X17283081Y-1449641D02*
G01X17300353Y-1432369D01*
G01X17311783Y-1426781D01*
G01X17328801Y-1426781D01*
G01X17340231Y-1432369D01*
G01X17346073Y-1449641D01*
G01X17346073Y-1506791D01*
G01X17346073Y-1449641D02*
G01X17363091Y-1432369D01*
G01X17374521Y-1426781D01*
G01X17391793Y-1426781D01*
G01X17403223Y-1432369D01*
G01X17408811Y-1449641D01*
G01X17408811Y-1506791D01*
G01X17584579Y-1386649D02*
G01X17584579Y-1506791D01*
G01X17584579Y-1506791D02*
G01X17653159Y-1506791D01*
G01X17769491Y-1426781D02*
G01X17769491Y-1506791D01*
G01X17769491Y-1443799D02*
G01X17758061Y-1432369D01*
G01X17746631Y-1426781D01*
G01X17729613Y-1426781D01*
G01X17718183Y-1432369D01*
G01X17706753Y-1443799D01*
G01X17700911Y-1461071D01*
G01X17700911Y-1472501D01*
G01X17706753Y-1489519D01*
G01X17718183Y-1500949D01*
G01X17729613Y-1506791D01*
G01X17746631Y-1506791D01*
G01X17758061Y-1500949D01*
G01X17769491Y-1489519D01*
G01X17823085Y-1426781D02*
G01X17857375Y-1506791D01*
G01X17891665Y-1426781D02*
G01X17857375Y-1506791D01*
G01X17845945Y-1529651D01*
G01X17834515Y-1541081D01*
G01X17823085Y-1546669D01*
G01X17817243Y-1546669D01*
G01X17939417Y-1461071D02*
G01X18007997Y-1461071D01*
G01X18007997Y-1449641D01*
G01X18002409Y-1438211D01*
G01X17996567Y-1432369D01*
G01X17985137Y-1426781D01*
G01X17968119Y-1426781D01*
G01X17956689Y-1432369D01*
G01X17945259Y-1443799D01*
G01X17939417Y-1461071D01*
G01X17939417Y-1472501D01*
G01X17945259Y-1489519D01*
G01X17956689Y-1500949D01*
G01X17968119Y-1506791D01*
G01X17985137Y-1506791D01*
G01X17996567Y-1500949D01*
G01X18007997Y-1489519D01*
G01X18055749Y-1426781D02*
G01X18055749Y-1506791D01*
G01X18055749Y-1461071D02*
G01X18061591Y-1443799D01*
G01X18073021Y-1432369D01*
G01X18084451Y-1426781D01*
G01X18101469Y-1426781D01*
G01X3753916Y-1995922D02*
G01X3753916Y-1990080D01*
G01X3759504Y-1978650D01*
G01X3765346Y-1973062D01*
G01X3776776Y-1967220D01*
G01X3799636Y-1967220D01*
G01X3811066Y-1973062D01*
G01X3816654Y-1978650D01*
G01X3822496Y-1990080D01*
G01X3822496Y-2001510D01*
G01X3816654Y-2012940D01*
G01X3805224Y-2030212D01*
G01X3748074Y-2087362D01*
G01X3828084Y-2087362D01*
G01X5168080Y-1995922D02*
G01X5168080Y-1990080D01*
G01X5173668Y-1978650D01*
G01X5179510Y-1973062D01*
G01X5190940Y-1967220D01*
G01X5213800Y-1967220D01*
G01X5225230Y-1973062D01*
G01X5230818Y-1978650D01*
G01X5236660Y-1990080D01*
G01X5236660Y-2001510D01*
G01X5230818Y-2012940D01*
G01X5219388Y-2030212D01*
G01X5162238Y-2087362D01*
G01X5242248Y-2087362D01*
G01X5301430Y-1967220D02*
G01X5364422Y-1967220D01*
G01X5330132Y-2012940D01*
G01X5347150Y-2012940D01*
G01X5358580Y-2018782D01*
G01X5364422Y-2024370D01*
G01X5370010Y-2041642D01*
G01X5370010Y-2053072D01*
G01X5364422Y-2070090D01*
G01X5352992Y-2081520D01*
G01X5335720Y-2087362D01*
G01X5318702Y-2087362D01*
G01X5301430Y-2081520D01*
G01X5295842Y-2075932D01*
G01X5290000Y-2064502D01*
G01X5423604Y-2058660D02*
G01X5417762Y-2064502D01*
G01X5423604Y-2070090D01*
G01X5429192Y-2064502D01*
G01X5423604Y-2058660D01*
G01X5545524Y-1984492D02*
G01X5539936Y-1973062D01*
G01X5522664Y-1967220D01*
G01X5511234Y-1967220D01*
G01X5494216Y-1973062D01*
G01X5482786Y-1990080D01*
G01X5476944Y-2018782D01*
G01X5476944Y-2047230D01*
G01X5482786Y-2070090D01*
G01X5494216Y-2081520D01*
G01X5511234Y-2087362D01*
G01X5517076Y-2087362D01*
G01X5534094Y-2081520D01*
G01X5545524Y-2070090D01*
G01X5551366Y-2053072D01*
G01X5551366Y-2047230D01*
G01X5545524Y-2030212D01*
G01X5534094Y-2018782D01*
G01X5517076Y-2012940D01*
G01X5511234Y-2012940D01*
G01X5494216Y-2018782D01*
G01X5482786Y-2030212D01*
G01X5476944Y-2047230D01*
G01X5599118Y-2007352D02*
G01X5662110Y-2087362D01*
G01X5662110Y-2007352D02*
G01X5599118Y-2087362D01*
G01X5778442Y-1967220D02*
G01X5721292Y-1967220D01*
G01X5715704Y-2018782D01*
G01X5721292Y-2012940D01*
G01X5738564Y-2007352D01*
G01X5755582Y-2007352D01*
G01X5772854Y-2012940D01*
G01X5784284Y-2024370D01*
G01X5789872Y-2041642D01*
G01X5789872Y-2053072D01*
G01X5784284Y-2070090D01*
G01X5772854Y-2081520D01*
G01X5755582Y-2087362D01*
G01X5738564Y-2087362D01*
G01X5721292Y-2081520D01*
G01X5715704Y-2075932D01*
G01X5709862Y-2064502D01*
G01X5906204Y-1967220D02*
G01X5849054Y-1967220D01*
G01X5843466Y-2018782D01*
G01X5849054Y-2012940D01*
G01X5866326Y-2007352D01*
G01X5883344Y-2007352D01*
G01X5900616Y-2012940D01*
G01X5912046Y-2024370D01*
G01X5917634Y-2041642D01*
G01X5917634Y-2053072D01*
G01X5912046Y-2070090D01*
G01X5900616Y-2081520D01*
G01X5883344Y-2087362D01*
G01X5866326Y-2087362D01*
G01X5849054Y-2081520D01*
G01X5843466Y-2075932D01*
G01X5837624Y-2064502D01*
G01X5971228Y-2058660D02*
G01X5965386Y-2064502D01*
G01X5971228Y-2070090D01*
G01X5976816Y-2064502D01*
G01X5971228Y-2058660D01*
G01X6024568Y-1990080D02*
G01X6035998Y-1984492D01*
G01X6053270Y-1967220D01*
G01X6053270Y-2087362D01*
G01X6101022Y-2007352D02*
G01X6101022Y-2087362D01*
G01X6101022Y-2030212D02*
G01X6118294Y-2012940D01*
G01X6129724Y-2007352D01*
G01X6146742Y-2007352D01*
G01X6158172Y-2012940D01*
G01X6164014Y-2030212D01*
G01X6164014Y-2087362D01*
G01X6164014Y-2030212D02*
G01X6181032Y-2012940D01*
G01X6192462Y-2007352D01*
G01X6209734Y-2007352D01*
G01X6221164Y-2012940D01*
G01X6226752Y-2030212D01*
G01X6226752Y-2087362D01*
G01X6274504Y-1967220D02*
G01X6280346Y-1973062D01*
G01X6285934Y-1967220D01*
G01X6280346Y-1961632D01*
G01X6274504Y-1967220D01*
G01X6280346Y-2007352D02*
G01X6280346Y-2087362D01*
G01X6333686Y-1967220D02*
G01X6333686Y-2087362D01*
G01X6421570Y-1944360D02*
G01X6410140Y-1955790D01*
G01X6398710Y-1973062D01*
G01X6387280Y-1995922D01*
G01X6381438Y-2024370D01*
G01X6381438Y-2047230D01*
G01X6387280Y-2075932D01*
G01X6398710Y-2098792D01*
G01X6410140Y-2115810D01*
G01X6421570Y-2127240D01*
G01X6503612Y-1967220D02*
G01X6486594Y-1973062D01*
G01X6475164Y-1990080D01*
G01X6469322Y-2018782D01*
G01X6469322Y-2035800D01*
G01X6475164Y-2064502D01*
G01X6486594Y-2081520D01*
G01X6503612Y-2087362D01*
G01X6515042Y-2087362D01*
G01X6532314Y-2081520D01*
G01X6543744Y-2064502D01*
G01X6549332Y-2035800D01*
G01X6549332Y-2018782D01*
G01X6543744Y-1990080D01*
G01X6532314Y-1973062D01*
G01X6515042Y-1967220D01*
G01X6503612Y-1967220D01*
G01X6602926Y-2058660D02*
G01X6597084Y-2064502D01*
G01X6602926Y-2070090D01*
G01X6608514Y-2064502D01*
G01X6602926Y-2058660D01*
G01X6724846Y-1984492D02*
G01X6719258Y-1973062D01*
G01X6701986Y-1967220D01*
G01X6690556Y-1967220D01*
G01X6673538Y-1973062D01*
G01X6662108Y-1990080D01*
G01X6656266Y-2018782D01*
G01X6656266Y-2047230D01*
G01X6662108Y-2070090D01*
G01X6673538Y-2081520D01*
G01X6690556Y-2087362D01*
G01X6696398Y-2087362D01*
G01X6713416Y-2081520D01*
G01X6724846Y-2070090D01*
G01X6730688Y-2053072D01*
G01X6730688Y-2047230D01*
G01X6724846Y-2030212D01*
G01X6713416Y-2018782D01*
G01X6696398Y-2012940D01*
G01X6690556Y-2012940D01*
G01X6673538Y-2018782D01*
G01X6662108Y-2030212D01*
G01X6656266Y-2047230D01*
G01X6812730Y-1967220D02*
G01X6795712Y-1973062D01*
G01X6784282Y-1990080D01*
G01X6778440Y-2018782D01*
G01X6778440Y-2035800D01*
G01X6784282Y-2064502D01*
G01X6795712Y-2081520D01*
G01X6812730Y-2087362D01*
G01X6824160Y-2087362D01*
G01X6841432Y-2081520D01*
G01X6852862Y-2064502D01*
G01X6858450Y-2035800D01*
G01X6858450Y-2018782D01*
G01X6852862Y-1990080D01*
G01X6841432Y-1973062D01*
G01X6824160Y-1967220D01*
G01X6812730Y-1967220D01*
G01X6940492Y-1967220D02*
G01X6923474Y-1973062D01*
G01X6912044Y-1990080D01*
G01X6906202Y-2018782D01*
G01X6906202Y-2035800D01*
G01X6912044Y-2064502D01*
G01X6923474Y-2081520D01*
G01X6940492Y-2087362D01*
G01X6951922Y-2087362D01*
G01X6969194Y-2081520D01*
G01X6980624Y-2064502D01*
G01X6986212Y-2035800D01*
G01X6986212Y-2018782D01*
G01X6980624Y-1990080D01*
G01X6969194Y-1973062D01*
G01X6951922Y-1967220D01*
G01X6940492Y-1967220D01*
G01X7033964Y-2007352D02*
G01X7096956Y-2087362D01*
G01X7096956Y-2007352D02*
G01X7033964Y-2087362D01*
G01X7144708Y-1990080D02*
G01X7156138Y-1984492D01*
G01X7173410Y-1967220D01*
G01X7173410Y-2087362D01*
G01X7227004Y-2058660D02*
G01X7221162Y-2064502D01*
G01X7227004Y-2070090D01*
G01X7232592Y-2064502D01*
G01X7227004Y-2058660D01*
G01X7337494Y-1967220D02*
G01X7280344Y-2047230D01*
G01X7366196Y-2047230D01*
G01X7337494Y-1967220D02*
G01X7337494Y-2087362D01*
G01X7448238Y-1967220D02*
G01X7431220Y-1973062D01*
G01X7419790Y-1990080D01*
G01X7413948Y-2018782D01*
G01X7413948Y-2035800D01*
G01X7419790Y-2064502D01*
G01X7431220Y-2081520D01*
G01X7448238Y-2087362D01*
G01X7459668Y-2087362D01*
G01X7476940Y-2081520D01*
G01X7488370Y-2064502D01*
G01X7493958Y-2035800D01*
G01X7493958Y-2018782D01*
G01X7488370Y-1990080D01*
G01X7476940Y-1973062D01*
G01X7459668Y-1967220D01*
G01X7448238Y-1967220D01*
G01X7576000Y-1967220D02*
G01X7558982Y-1973062D01*
G01X7547552Y-1990080D01*
G01X7541710Y-2018782D01*
G01X7541710Y-2035800D01*
G01X7547552Y-2064502D01*
G01X7558982Y-2081520D01*
G01X7576000Y-2087362D01*
G01X7587430Y-2087362D01*
G01X7604702Y-2081520D01*
G01X7616132Y-2064502D01*
G01X7621720Y-2035800D01*
G01X7621720Y-2018782D01*
G01X7616132Y-1990080D01*
G01X7604702Y-1973062D01*
G01X7587430Y-1967220D01*
G01X7576000Y-1967220D01*
G01X7669472Y-2007352D02*
G01X7669472Y-2087362D01*
G01X7669472Y-2030212D02*
G01X7686744Y-2012940D01*
G01X7698174Y-2007352D01*
G01X7715192Y-2007352D01*
G01X7726622Y-2012940D01*
G01X7732464Y-2030212D01*
G01X7732464Y-2087362D01*
G01X7732464Y-2030212D02*
G01X7749482Y-2012940D01*
G01X7760912Y-2007352D01*
G01X7778184Y-2007352D01*
G01X7789614Y-2012940D01*
G01X7795202Y-2030212D01*
G01X7795202Y-2087362D01*
G01X7842954Y-2007352D02*
G01X7842954Y-2087362D01*
G01X7842954Y-2030212D02*
G01X7860226Y-2012940D01*
G01X7871656Y-2007352D01*
G01X7888674Y-2007352D01*
G01X7900104Y-2012940D01*
G01X7905946Y-2030212D01*
G01X7905946Y-2087362D01*
G01X7905946Y-2030212D02*
G01X7922964Y-2012940D01*
G01X7934394Y-2007352D01*
G01X7951666Y-2007352D01*
G01X7963096Y-2012940D01*
G01X7968684Y-2030212D01*
G01X7968684Y-2087362D01*
G01X8016436Y-1944360D02*
G01X8027866Y-1955790D01*
G01X8039296Y-1973062D01*
G01X8050726Y-1995922D01*
G01X8056568Y-2024370D01*
G01X8056568Y-2047230D01*
G01X8050726Y-2075932D01*
G01X8039296Y-2098792D01*
G01X8027866Y-2115810D01*
G01X8016436Y-2127240D01*
G01X9033343Y-1967220D02*
G01X9033343Y-2087362D01*
G01X9033343Y-1967220D02*
G01X9084905Y-1967220D01*
G01X9101923Y-1973062D01*
G01X9107765Y-1978650D01*
G01X9113353Y-1990080D01*
G01X9113353Y-2007352D01*
G01X9107765Y-2018782D01*
G01X9101923Y-2024370D01*
G01X9084905Y-2030212D01*
G01X9033343Y-2030212D01*
G01X9201237Y-1967220D02*
G01X9201237Y-2087362D01*
G01X9161105Y-1967220D02*
G01X9241115Y-1967220D01*
G01X9288867Y-1967220D02*
G01X9288867Y-2087362D01*
G01X9368877Y-1967220D02*
G01X9368877Y-2087362D01*
G01X9288867Y-2024370D02*
G01X9368877Y-2024370D01*
G01X10574760Y-1984492D02*
G01X10563330Y-1973062D01*
G01X10546312Y-1967220D01*
G01X10523452Y-1967220D01*
G01X10506180Y-1973062D01*
G01X10494750Y-1984492D01*
G01X10494750Y-1995922D01*
G01X10500592Y-2007352D01*
G01X10506180Y-2012940D01*
G01X10517610Y-2018782D01*
G01X10551900Y-2030212D01*
G01X10563330Y-2035800D01*
G01X10569172Y-2041642D01*
G01X10574760Y-2053072D01*
G01X10574760Y-2070090D01*
G01X10563330Y-2081520D01*
G01X10546312Y-2087362D01*
G01X10523452Y-2087362D01*
G01X10506180Y-2081520D01*
G01X10494750Y-2070090D01*
G01X10622512Y-1967220D02*
G01X10622512Y-2087362D01*
G01X10698966Y-2007352D02*
G01X10687536Y-2012940D01*
G01X10676106Y-2024370D01*
G01X10670264Y-2041642D01*
G01X10670264Y-2053072D01*
G01X10676106Y-2070090D01*
G01X10687536Y-2081520D01*
G01X10698966Y-2087362D01*
G01X10715984Y-2087362D01*
G01X10727414Y-2081520D01*
G01X10738844Y-2070090D01*
G01X10744686Y-2053072D01*
G01X10744686Y-2041642D01*
G01X10738844Y-2024370D01*
G01X10727414Y-2012940D01*
G01X10715984Y-2007352D01*
G01X10698966Y-2007352D01*
G01X10809710Y-1967220D02*
G01X10809710Y-2064502D01*
G01X10815298Y-2081520D01*
G01X10826728Y-2087362D01*
G01X10838158Y-2087362D01*
G01X10792438Y-2007352D02*
G01X10832570Y-2007352D01*
G01X11925931Y-1967220D02*
G01X11925931Y-2087362D01*
G01X11925931Y-1967220D02*
G01X11977493Y-1967220D01*
G01X11994511Y-1973062D01*
G01X12000353Y-1978650D01*
G01X12005941Y-1990080D01*
G01X12005941Y-2007352D01*
G01X12000353Y-2018782D01*
G01X11994511Y-2024370D01*
G01X11977493Y-2030212D01*
G01X11925931Y-2030212D01*
G01X12122273Y-2007352D02*
G01X12122273Y-2087362D01*
G01X12122273Y-2024370D02*
G01X12110843Y-2012940D01*
G01X12099413Y-2007352D01*
G01X12082395Y-2007352D01*
G01X12070965Y-2012940D01*
G01X12059535Y-2024370D01*
G01X12053693Y-2041642D01*
G01X12053693Y-2053072D01*
G01X12059535Y-2070090D01*
G01X12070965Y-2081520D01*
G01X12082395Y-2087362D01*
G01X12099413Y-2087362D01*
G01X12110843Y-2081520D01*
G01X12122273Y-2070090D01*
G01X12238605Y-1967220D02*
G01X12238605Y-2087362D01*
G01X12238605Y-2024370D02*
G01X12227175Y-2012940D01*
G01X12215745Y-2007352D01*
G01X12198727Y-2007352D01*
G01X12187297Y-2012940D01*
G01X12175867Y-2024370D01*
G01X12170025Y-2041642D01*
G01X12170025Y-2053072D01*
G01X12175867Y-2070090D01*
G01X12187297Y-2081520D01*
G01X12198727Y-2087362D01*
G01X12215745Y-2087362D01*
G01X12227175Y-2081520D01*
G01X12238605Y-2070090D01*
G01X13629400Y-1967220D02*
G01X13617970Y-1973062D01*
G01X13606540Y-1984492D01*
G01X13600952Y-1995922D01*
G01X13595110Y-2012940D01*
G01X13595110Y-2041642D01*
G01X13600952Y-2058660D01*
G01X13606540Y-2070090D01*
G01X13617970Y-2081520D01*
G01X13629400Y-2087362D01*
G01X13652260Y-2087362D01*
G01X13663690Y-2081520D01*
G01X13675120Y-2070090D01*
G01X13680962Y-2058660D01*
G01X13686550Y-2041642D01*
G01X13686550Y-2012940D01*
G01X13680962Y-1995922D01*
G01X13675120Y-1984492D01*
G01X13663690Y-1973062D01*
G01X13652260Y-1967220D01*
G01X13629400Y-1967220D01*
G01X13734302Y-2007352D02*
G01X13768592Y-2087362D01*
G01X13802882Y-2007352D02*
G01X13768592Y-2087362D01*
G01X13919214Y-2007352D02*
G01X13919214Y-2087362D01*
G01X13919214Y-2024370D02*
G01X13907784Y-2012940D01*
G01X13896354Y-2007352D01*
G01X13879336Y-2007352D01*
G01X13867906Y-2012940D01*
G01X13856476Y-2024370D01*
G01X13850634Y-2041642D01*
G01X13850634Y-2053072D01*
G01X13856476Y-2070090D01*
G01X13867906Y-2081520D01*
G01X13879336Y-2087362D01*
G01X13896354Y-2087362D01*
G01X13907784Y-2081520D01*
G01X13919214Y-2070090D01*
G01X13966966Y-1967220D02*
G01X13966966Y-2087362D01*
G01X15554611Y-1967220D02*
G01X15554611Y-2087362D01*
G01X15514479Y-1967220D02*
G01X15594489Y-1967220D01*
G01X15670943Y-2007352D02*
G01X15659513Y-2012940D01*
G01X15648083Y-2024370D01*
G01X15642241Y-2041642D01*
G01X15642241Y-2053072D01*
G01X15648083Y-2070090D01*
G01X15659513Y-2081520D01*
G01X15670943Y-2087362D01*
G01X15687961Y-2087362D01*
G01X15699391Y-2081520D01*
G01X15710821Y-2070090D01*
G01X15716663Y-2053072D01*
G01X15716663Y-2041642D01*
G01X15710821Y-2024370D01*
G01X15699391Y-2012940D01*
G01X15687961Y-2007352D01*
G01X15670943Y-2007352D01*
G01X15764415Y-2007352D02*
G01X15764415Y-2127240D01*
G01X15764415Y-2024370D02*
G01X15775845Y-2012940D01*
G01X15787275Y-2007352D01*
G01X15804547Y-2007352D01*
G01X15815977Y-2012940D01*
G01X15827407Y-2024370D01*
G01X15832995Y-2041642D01*
G01X15832995Y-2053072D01*
G01X15827407Y-2070090D01*
G01X15815977Y-2081520D01*
G01X15804547Y-2087362D01*
G01X15787275Y-2087362D01*
G01X15775845Y-2081520D01*
G01X15764415Y-2070090D01*
G01X16008763Y-1967220D02*
G01X16008763Y-2087362D01*
G01X16008763Y-2087362D02*
G01X16077343Y-2087362D01*
G01X16193675Y-2007352D02*
G01X16193675Y-2087362D01*
G01X16193675Y-2024370D02*
G01X16182245Y-2012940D01*
G01X16170815Y-2007352D01*
G01X16153797Y-2007352D01*
G01X16142367Y-2012940D01*
G01X16130937Y-2024370D01*
G01X16125095Y-2041642D01*
G01X16125095Y-2053072D01*
G01X16130937Y-2070090D01*
G01X16142367Y-2081520D01*
G01X16153797Y-2087362D01*
G01X16170815Y-2087362D01*
G01X16182245Y-2081520D01*
G01X16193675Y-2070090D01*
G01X16247269Y-2007352D02*
G01X16281559Y-2087362D01*
G01X16315849Y-2007352D02*
G01X16281559Y-2087362D01*
G01X16270129Y-2110222D01*
G01X16258699Y-2121652D01*
G01X16247269Y-2127240D01*
G01X16241427Y-2127240D01*
G01X16363601Y-2041642D02*
G01X16432181Y-2041642D01*
G01X16432181Y-2030212D01*
G01X16426593Y-2018782D01*
G01X16420751Y-2012940D01*
G01X16409321Y-2007352D01*
G01X16392303Y-2007352D01*
G01X16380873Y-2012940D01*
G01X16369443Y-2024370D01*
G01X16363601Y-2041642D01*
G01X16363601Y-2053072D01*
G01X16369443Y-2070090D01*
G01X16380873Y-2081520D01*
G01X16392303Y-2087362D01*
G01X16409321Y-2087362D01*
G01X16420751Y-2081520D01*
G01X16432181Y-2070090D01*
G01X16479933Y-2007352D02*
G01X16479933Y-2087362D01*
G01X16479933Y-2041642D02*
G01X16485775Y-2024370D01*
G01X16497205Y-2012940D01*
G01X16508635Y-2007352D01*
G01X16525653Y-2007352D01*
G01X16573405Y-2035800D02*
G01X16676275Y-2035800D01*
G01X16724027Y-1967220D02*
G01X16724027Y-2087362D01*
G01X16724027Y-1967220D02*
G01X16775589Y-1967220D01*
G01X16792607Y-1973062D01*
G01X16798449Y-1978650D01*
G01X16804037Y-1990080D01*
G01X16804037Y-2001510D01*
G01X16798449Y-2012940D01*
G01X16792607Y-2018782D01*
G01X16775589Y-2024370D01*
G01X16724027Y-2024370D02*
G01X16775589Y-2024370D01*
G01X16792607Y-2030212D01*
G01X16798449Y-2035800D01*
G01X16804037Y-2047230D01*
G01X16804037Y-2064502D01*
G01X16798449Y-2075932D01*
G01X16792607Y-2081520D01*
G01X16775589Y-2087362D01*
G01X16724027Y-2087362D01*
G01X16880491Y-2007352D02*
G01X16869061Y-2012940D01*
G01X16857631Y-2024370D01*
G01X16851789Y-2041642D01*
G01X16851789Y-2053072D01*
G01X16857631Y-2070090D01*
G01X16869061Y-2081520D01*
G01X16880491Y-2087362D01*
G01X16897509Y-2087362D01*
G01X16908939Y-2081520D01*
G01X16920369Y-2070090D01*
G01X16926211Y-2053072D01*
G01X16926211Y-2041642D01*
G01X16920369Y-2024370D01*
G01X16908939Y-2012940D01*
G01X16897509Y-2007352D01*
G01X16880491Y-2007352D01*
G01X16991235Y-1967220D02*
G01X16991235Y-2064502D01*
G01X16996823Y-2081520D01*
G01X17008253Y-2087362D01*
G01X17019683Y-2087362D01*
G01X16973963Y-2007352D02*
G01X17014095Y-2007352D01*
G01X17084707Y-1967220D02*
G01X17084707Y-2064502D01*
G01X17090295Y-2081520D01*
G01X17101725Y-2087362D01*
G01X17113155Y-2087362D01*
G01X17067435Y-2007352D02*
G01X17107567Y-2007352D01*
G01X17189609Y-2007352D02*
G01X17178179Y-2012940D01*
G01X17166749Y-2024370D01*
G01X17160907Y-2041642D01*
G01X17160907Y-2053072D01*
G01X17166749Y-2070090D01*
G01X17178179Y-2081520D01*
G01X17189609Y-2087362D01*
G01X17206627Y-2087362D01*
G01X17218057Y-2081520D01*
G01X17229487Y-2070090D01*
G01X17235329Y-2053072D01*
G01X17235329Y-2041642D01*
G01X17229487Y-2024370D01*
G01X17218057Y-2012940D01*
G01X17206627Y-2007352D01*
G01X17189609Y-2007352D01*
G01X17283081Y-2007352D02*
G01X17283081Y-2087362D01*
G01X17283081Y-2030212D02*
G01X17300353Y-2012940D01*
G01X17311783Y-2007352D01*
G01X17328801Y-2007352D01*
G01X17340231Y-2012940D01*
G01X17346073Y-2030212D01*
G01X17346073Y-2087362D01*
G01X17346073Y-2030212D02*
G01X17363091Y-2012940D01*
G01X17374521Y-2007352D01*
G01X17391793Y-2007352D01*
G01X17403223Y-2012940D01*
G01X17408811Y-2030212D01*
G01X17408811Y-2087362D01*
G01X17584579Y-1967220D02*
G01X17584579Y-2087362D01*
G01X17584579Y-2087362D02*
G01X17653159Y-2087362D01*
G01X17769491Y-2007352D02*
G01X17769491Y-2087362D01*
G01X17769491Y-2024370D02*
G01X17758061Y-2012940D01*
G01X17746631Y-2007352D01*
G01X17729613Y-2007352D01*
G01X17718183Y-2012940D01*
G01X17706753Y-2024370D01*
G01X17700911Y-2041642D01*
G01X17700911Y-2053072D01*
G01X17706753Y-2070090D01*
G01X17718183Y-2081520D01*
G01X17729613Y-2087362D01*
G01X17746631Y-2087362D01*
G01X17758061Y-2081520D01*
G01X17769491Y-2070090D01*
G01X17823085Y-2007352D02*
G01X17857375Y-2087362D01*
G01X17891665Y-2007352D02*
G01X17857375Y-2087362D01*
G01X17845945Y-2110222D01*
G01X17834515Y-2121652D01*
G01X17823085Y-2127240D01*
G01X17817243Y-2127240D01*
G01X17939417Y-2041642D02*
G01X18007997Y-2041642D01*
G01X18007997Y-2030212D01*
G01X18002409Y-2018782D01*
G01X17996567Y-2012940D01*
G01X17985137Y-2007352D01*
G01X17968119Y-2007352D01*
G01X17956689Y-2012940D01*
G01X17945259Y-2024370D01*
G01X17939417Y-2041642D01*
G01X17939417Y-2053072D01*
G01X17945259Y-2070090D01*
G01X17956689Y-2081520D01*
G01X17968119Y-2087362D01*
G01X17985137Y-2087362D01*
G01X17996567Y-2081520D01*
G01X18007997Y-2070090D01*
G01X18055749Y-2007352D02*
G01X18055749Y-2087362D01*
G01X18055749Y-2041642D02*
G01X18061591Y-2024370D01*
G01X18073021Y-2012940D01*
G01X18084451Y-2007352D01*
G01X18101469Y-2007352D01*
G01X3805224Y-2547792D02*
G01X3748074Y-2627802D01*
G01X3833926Y-2627802D01*
G01X3805224Y-2547792D02*
G01X3805224Y-2667934D01*
G01X5190940Y-2547792D02*
G01X5173668Y-2553634D01*
G01X5168080Y-2565064D01*
G01X5168080Y-2576494D01*
G01X5173668Y-2587924D01*
G01X5185098Y-2593512D01*
G01X5207958Y-2599354D01*
G01X5225230Y-2604942D01*
G01X5236660Y-2616372D01*
G01X5242248Y-2627802D01*
G01X5242248Y-2645074D01*
G01X5236660Y-2656504D01*
G01X5230818Y-2662092D01*
G01X5213800Y-2667934D01*
G01X5190940Y-2667934D01*
G01X5173668Y-2662092D01*
G01X5168080Y-2656504D01*
G01X5162238Y-2645074D01*
G01X5162238Y-2627802D01*
G01X5168080Y-2616372D01*
G01X5179510Y-2604942D01*
G01X5196528Y-2599354D01*
G01X5219388Y-2593512D01*
G01X5230818Y-2587924D01*
G01X5236660Y-2576494D01*
G01X5236660Y-2565064D01*
G01X5230818Y-2553634D01*
G01X5213800Y-2547792D01*
G01X5190940Y-2547792D01*
G01X5358580Y-2565064D02*
G01X5352992Y-2553634D01*
G01X5335720Y-2547792D01*
G01X5324290Y-2547792D01*
G01X5307272Y-2553634D01*
G01X5295842Y-2570652D01*
G01X5290000Y-2599354D01*
G01X5290000Y-2627802D01*
G01X5295842Y-2650662D01*
G01X5307272Y-2662092D01*
G01X5324290Y-2667934D01*
G01X5330132Y-2667934D01*
G01X5347150Y-2662092D01*
G01X5358580Y-2650662D01*
G01X5364422Y-2633644D01*
G01X5364422Y-2627802D01*
G01X5358580Y-2610784D01*
G01X5347150Y-2599354D01*
G01X5330132Y-2593512D01*
G01X5324290Y-2593512D01*
G01X5307272Y-2599354D01*
G01X5295842Y-2610784D01*
G01X5290000Y-2627802D01*
G01X5418016Y-2639232D02*
G01X5412174Y-2645074D01*
G01X5418016Y-2650662D01*
G01X5423604Y-2645074D01*
G01X5418016Y-2639232D01*
G01X5539936Y-2565064D02*
G01X5534348Y-2553634D01*
G01X5517076Y-2547792D01*
G01X5505646Y-2547792D01*
G01X5488628Y-2553634D01*
G01X5477198Y-2570652D01*
G01X5471356Y-2599354D01*
G01X5471356Y-2627802D01*
G01X5477198Y-2650662D01*
G01X5488628Y-2662092D01*
G01X5505646Y-2667934D01*
G01X5511488Y-2667934D01*
G01X5528506Y-2662092D01*
G01X5539936Y-2650662D01*
G01X5545778Y-2633644D01*
G01X5545778Y-2627802D01*
G01X5539936Y-2610784D01*
G01X5528506Y-2599354D01*
G01X5511488Y-2593512D01*
G01X5505646Y-2593512D01*
G01X5488628Y-2599354D01*
G01X5477198Y-2610784D01*
G01X5471356Y-2627802D01*
G01X5593530Y-2587924D02*
G01X5656522Y-2667934D01*
G01X5656522Y-2587924D02*
G01X5593530Y-2667934D01*
G01X5732976Y-2547792D02*
G01X5715704Y-2553634D01*
G01X5710116Y-2565064D01*
G01X5710116Y-2576494D01*
G01X5715704Y-2587924D01*
G01X5727134Y-2593512D01*
G01X5749994Y-2599354D01*
G01X5767266Y-2604942D01*
G01X5778696Y-2616372D01*
G01X5784284Y-2627802D01*
G01X5784284Y-2645074D01*
G01X5778696Y-2656504D01*
G01X5772854Y-2662092D01*
G01X5755836Y-2667934D01*
G01X5732976Y-2667934D01*
G01X5715704Y-2662092D01*
G01X5710116Y-2656504D01*
G01X5704274Y-2645074D01*
G01X5704274Y-2627802D01*
G01X5710116Y-2616372D01*
G01X5721546Y-2604942D01*
G01X5738564Y-2599354D01*
G01X5761424Y-2593512D01*
G01X5772854Y-2587924D01*
G01X5778696Y-2576494D01*
G01X5778696Y-2565064D01*
G01X5772854Y-2553634D01*
G01X5755836Y-2547792D01*
G01X5732976Y-2547792D01*
G01X5900616Y-2565064D02*
G01X5895028Y-2553634D01*
G01X5877756Y-2547792D01*
G01X5866326Y-2547792D01*
G01X5849308Y-2553634D01*
G01X5837878Y-2570652D01*
G01X5832036Y-2599354D01*
G01X5832036Y-2627802D01*
G01X5837878Y-2650662D01*
G01X5849308Y-2662092D01*
G01X5866326Y-2667934D01*
G01X5872168Y-2667934D01*
G01X5889186Y-2662092D01*
G01X5900616Y-2650662D01*
G01X5906458Y-2633644D01*
G01X5906458Y-2627802D01*
G01X5900616Y-2610784D01*
G01X5889186Y-2599354D01*
G01X5872168Y-2593512D01*
G01X5866326Y-2593512D01*
G01X5849308Y-2599354D01*
G01X5837878Y-2610784D01*
G01X5832036Y-2627802D01*
G01X5960052Y-2639232D02*
G01X5954210Y-2645074D01*
G01X5960052Y-2650662D01*
G01X5965640Y-2645074D01*
G01X5960052Y-2639232D01*
G01X6081972Y-2565064D02*
G01X6076384Y-2553634D01*
G01X6059112Y-2547792D01*
G01X6047682Y-2547792D01*
G01X6030664Y-2553634D01*
G01X6019234Y-2570652D01*
G01X6013392Y-2599354D01*
G01X6013392Y-2627802D01*
G01X6019234Y-2650662D01*
G01X6030664Y-2662092D01*
G01X6047682Y-2667934D01*
G01X6053524Y-2667934D01*
G01X6070542Y-2662092D01*
G01X6081972Y-2650662D01*
G01X6087814Y-2633644D01*
G01X6087814Y-2627802D01*
G01X6081972Y-2610784D01*
G01X6070542Y-2599354D01*
G01X6053524Y-2593512D01*
G01X6047682Y-2593512D01*
G01X6030664Y-2599354D01*
G01X6019234Y-2610784D01*
G01X6013392Y-2627802D01*
G01X6135566Y-2587924D02*
G01X6135566Y-2667934D01*
G01X6135566Y-2610784D02*
G01X6152838Y-2593512D01*
G01X6164268Y-2587924D01*
G01X6181286Y-2587924D01*
G01X6192716Y-2593512D01*
G01X6198558Y-2610784D01*
G01X6198558Y-2667934D01*
G01X6198558Y-2610784D02*
G01X6215576Y-2593512D01*
G01X6227006Y-2587924D01*
G01X6244278Y-2587924D01*
G01X6255708Y-2593512D01*
G01X6261296Y-2610784D01*
G01X6261296Y-2667934D01*
G01X6309048Y-2547792D02*
G01X6314890Y-2553634D01*
G01X6320478Y-2547792D01*
G01X6314890Y-2542204D01*
G01X6309048Y-2547792D01*
G01X6314890Y-2587924D02*
G01X6314890Y-2667934D01*
G01X6368230Y-2547792D02*
G01X6368230Y-2667934D01*
G01X6456114Y-2524932D02*
G01X6444684Y-2536362D01*
G01X6433254Y-2553634D01*
G01X6421824Y-2576494D01*
G01X6415982Y-2604942D01*
G01X6415982Y-2627802D01*
G01X6421824Y-2656504D01*
G01X6433254Y-2679364D01*
G01X6444684Y-2696382D01*
G01X6456114Y-2707812D01*
G01X6509708Y-2576494D02*
G01X6509708Y-2570652D01*
G01X6515296Y-2559222D01*
G01X6521138Y-2553634D01*
G01X6532568Y-2547792D01*
G01X6555428Y-2547792D01*
G01X6566858Y-2553634D01*
G01X6572446Y-2559222D01*
G01X6578288Y-2570652D01*
G01X6578288Y-2582082D01*
G01X6572446Y-2593512D01*
G01X6561016Y-2610784D01*
G01X6503866Y-2667934D01*
G01X6583876Y-2667934D01*
G01X6637470Y-2639232D02*
G01X6631628Y-2645074D01*
G01X6637470Y-2650662D01*
G01X6643058Y-2645074D01*
G01X6637470Y-2639232D01*
G01X6696652Y-2576494D02*
G01X6696652Y-2570652D01*
G01X6702240Y-2559222D01*
G01X6708082Y-2553634D01*
G01X6719512Y-2547792D01*
G01X6742372Y-2547792D01*
G01X6753802Y-2553634D01*
G01X6759390Y-2559222D01*
G01X6765232Y-2570652D01*
G01X6765232Y-2582082D01*
G01X6759390Y-2593512D01*
G01X6747960Y-2610784D01*
G01X6690810Y-2667934D01*
G01X6770820Y-2667934D01*
G01X6852862Y-2547792D02*
G01X6835844Y-2553634D01*
G01X6824414Y-2570652D01*
G01X6818572Y-2599354D01*
G01X6818572Y-2616372D01*
G01X6824414Y-2645074D01*
G01X6835844Y-2662092D01*
G01X6852862Y-2667934D01*
G01X6864292Y-2667934D01*
G01X6881564Y-2662092D01*
G01X6892994Y-2645074D01*
G01X6898582Y-2616372D01*
G01X6898582Y-2599354D01*
G01X6892994Y-2570652D01*
G01X6881564Y-2553634D01*
G01X6864292Y-2547792D01*
G01X6852862Y-2547792D01*
G01X6980624Y-2547792D02*
G01X6963606Y-2553634D01*
G01X6952176Y-2570652D01*
G01X6946334Y-2599354D01*
G01X6946334Y-2616372D01*
G01X6952176Y-2645074D01*
G01X6963606Y-2662092D01*
G01X6980624Y-2667934D01*
G01X6992054Y-2667934D01*
G01X7009326Y-2662092D01*
G01X7020756Y-2645074D01*
G01X7026344Y-2616372D01*
G01X7026344Y-2599354D01*
G01X7020756Y-2570652D01*
G01X7009326Y-2553634D01*
G01X6992054Y-2547792D01*
G01X6980624Y-2547792D01*
G01X7074096Y-2587924D02*
G01X7137088Y-2667934D01*
G01X7137088Y-2587924D02*
G01X7074096Y-2667934D01*
G01X7190682Y-2576494D02*
G01X7190682Y-2570652D01*
G01X7196270Y-2559222D01*
G01X7202112Y-2553634D01*
G01X7213542Y-2547792D01*
G01X7236402Y-2547792D01*
G01X7247832Y-2553634D01*
G01X7253420Y-2559222D01*
G01X7259262Y-2570652D01*
G01X7259262Y-2582082D01*
G01X7253420Y-2593512D01*
G01X7241990Y-2610784D01*
G01X7184840Y-2667934D01*
G01X7264850Y-2667934D01*
G01X7318444Y-2639232D02*
G01X7312602Y-2645074D01*
G01X7318444Y-2650662D01*
G01X7324032Y-2645074D01*
G01X7318444Y-2639232D01*
G01X7377626Y-2576494D02*
G01X7377626Y-2570652D01*
G01X7383214Y-2559222D01*
G01X7389056Y-2553634D01*
G01X7400486Y-2547792D01*
G01X7423346Y-2547792D01*
G01X7434776Y-2553634D01*
G01X7440364Y-2559222D01*
G01X7446206Y-2570652D01*
G01X7446206Y-2582082D01*
G01X7440364Y-2593512D01*
G01X7428934Y-2610784D01*
G01X7371784Y-2667934D01*
G01X7451794Y-2667934D01*
G01X7533836Y-2547792D02*
G01X7516818Y-2553634D01*
G01X7505388Y-2570652D01*
G01X7499546Y-2599354D01*
G01X7499546Y-2616372D01*
G01X7505388Y-2645074D01*
G01X7516818Y-2662092D01*
G01X7533836Y-2667934D01*
G01X7545266Y-2667934D01*
G01X7562538Y-2662092D01*
G01X7573968Y-2645074D01*
G01X7579556Y-2616372D01*
G01X7579556Y-2599354D01*
G01X7573968Y-2570652D01*
G01X7562538Y-2553634D01*
G01X7545266Y-2547792D01*
G01X7533836Y-2547792D01*
G01X7661598Y-2547792D02*
G01X7644580Y-2553634D01*
G01X7633150Y-2570652D01*
G01X7627308Y-2599354D01*
G01X7627308Y-2616372D01*
G01X7633150Y-2645074D01*
G01X7644580Y-2662092D01*
G01X7661598Y-2667934D01*
G01X7673028Y-2667934D01*
G01X7690300Y-2662092D01*
G01X7701730Y-2645074D01*
G01X7707318Y-2616372D01*
G01X7707318Y-2599354D01*
G01X7701730Y-2570652D01*
G01X7690300Y-2553634D01*
G01X7673028Y-2547792D01*
G01X7661598Y-2547792D01*
G01X7755070Y-2587924D02*
G01X7755070Y-2667934D01*
G01X7755070Y-2610784D02*
G01X7772342Y-2593512D01*
G01X7783772Y-2587924D01*
G01X7800790Y-2587924D01*
G01X7812220Y-2593512D01*
G01X7818062Y-2610784D01*
G01X7818062Y-2667934D01*
G01X7818062Y-2610784D02*
G01X7835080Y-2593512D01*
G01X7846510Y-2587924D01*
G01X7863782Y-2587924D01*
G01X7875212Y-2593512D01*
G01X7880800Y-2610784D01*
G01X7880800Y-2667934D01*
G01X7928552Y-2587924D02*
G01X7928552Y-2667934D01*
G01X7928552Y-2610784D02*
G01X7945824Y-2593512D01*
G01X7957254Y-2587924D01*
G01X7974272Y-2587924D01*
G01X7985702Y-2593512D01*
G01X7991544Y-2610784D01*
G01X7991544Y-2667934D01*
G01X7991544Y-2610784D02*
G01X8008562Y-2593512D01*
G01X8019992Y-2587924D01*
G01X8037264Y-2587924D01*
G01X8048694Y-2593512D01*
G01X8054282Y-2610784D01*
G01X8054282Y-2667934D01*
G01X8102034Y-2524932D02*
G01X8113464Y-2536362D01*
G01X8124894Y-2553634D01*
G01X8136324Y-2576494D01*
G01X8142166Y-2604942D01*
G01X8142166Y-2627802D01*
G01X8136324Y-2656504D01*
G01X8124894Y-2679364D01*
G01X8113464Y-2696382D01*
G01X8102034Y-2707812D01*
G01X9033343Y-2547792D02*
G01X9033343Y-2667934D01*
G01X9033343Y-2547792D02*
G01X9084905Y-2547792D01*
G01X9101923Y-2553634D01*
G01X9107765Y-2559222D01*
G01X9113353Y-2570652D01*
G01X9113353Y-2587924D01*
G01X9107765Y-2599354D01*
G01X9101923Y-2604942D01*
G01X9084905Y-2610784D01*
G01X9033343Y-2610784D01*
G01X9201237Y-2547792D02*
G01X9201237Y-2667934D01*
G01X9161105Y-2547792D02*
G01X9241115Y-2547792D01*
G01X9288867Y-2547792D02*
G01X9288867Y-2667934D01*
G01X9368877Y-2547792D02*
G01X9368877Y-2667934D01*
G01X9288867Y-2604942D02*
G01X9368877Y-2604942D01*
G01X10494750Y-2547792D02*
G01X10494750Y-2667934D01*
G01X10494750Y-2547792D02*
G01X10546312Y-2547792D01*
G01X10563330Y-2553634D01*
G01X10569172Y-2559222D01*
G01X10574760Y-2570652D01*
G01X10574760Y-2582082D01*
G01X10569172Y-2593512D01*
G01X10563330Y-2599354D01*
G01X10546312Y-2604942D01*
G01X10494750Y-2604942D01*
G01X10534882Y-2604942D02*
G01X10574760Y-2667934D01*
G01X10651214Y-2587924D02*
G01X10639784Y-2593512D01*
G01X10628354Y-2604942D01*
G01X10622512Y-2622214D01*
G01X10622512Y-2633644D01*
G01X10628354Y-2650662D01*
G01X10639784Y-2662092D01*
G01X10651214Y-2667934D01*
G01X10668232Y-2667934D01*
G01X10679662Y-2662092D01*
G01X10691092Y-2650662D01*
G01X10696934Y-2633644D01*
G01X10696934Y-2622214D01*
G01X10691092Y-2604942D01*
G01X10679662Y-2593512D01*
G01X10668232Y-2587924D01*
G01X10651214Y-2587924D01*
G01X10744686Y-2587924D02*
G01X10744686Y-2645074D01*
G01X10750528Y-2662092D01*
G01X10761958Y-2667934D01*
G01X10778976Y-2667934D01*
G01X10790406Y-2662092D01*
G01X10807678Y-2645074D01*
G01X10807678Y-2587924D02*
G01X10807678Y-2667934D01*
G01X10855430Y-2587924D02*
G01X10855430Y-2667934D01*
G01X10855430Y-2610784D02*
G01X10872702Y-2593512D01*
G01X10884132Y-2587924D01*
G01X10901150Y-2587924D01*
G01X10912580Y-2593512D01*
G01X10918422Y-2610784D01*
G01X10918422Y-2667934D01*
G01X11034754Y-2547792D02*
G01X11034754Y-2667934D01*
G01X11034754Y-2604942D02*
G01X11023324Y-2593512D01*
G01X11011894Y-2587924D01*
G01X10994876Y-2587924D01*
G01X10983446Y-2593512D01*
G01X10972016Y-2604942D01*
G01X10966174Y-2622214D01*
G01X10966174Y-2633644D01*
G01X10972016Y-2650662D01*
G01X10983446Y-2662092D01*
G01X10994876Y-2667934D01*
G01X11011894Y-2667934D01*
G01X11023324Y-2662092D01*
G01X11034754Y-2650662D01*
G01X11925931Y-2547792D02*
G01X11925931Y-2667934D01*
G01X11925931Y-2547792D02*
G01X11977493Y-2547792D01*
G01X11994511Y-2553634D01*
G01X12000353Y-2559222D01*
G01X12005941Y-2570652D01*
G01X12005941Y-2587924D01*
G01X12000353Y-2599354D01*
G01X11994511Y-2604942D01*
G01X11977493Y-2610784D01*
G01X11925931Y-2610784D01*
G01X12122273Y-2587924D02*
G01X12122273Y-2667934D01*
G01X12122273Y-2604942D02*
G01X12110843Y-2593512D01*
G01X12099413Y-2587924D01*
G01X12082395Y-2587924D01*
G01X12070965Y-2593512D01*
G01X12059535Y-2604942D01*
G01X12053693Y-2622214D01*
G01X12053693Y-2633644D01*
G01X12059535Y-2650662D01*
G01X12070965Y-2662092D01*
G01X12082395Y-2667934D01*
G01X12099413Y-2667934D01*
G01X12110843Y-2662092D01*
G01X12122273Y-2650662D01*
G01X12238605Y-2547792D02*
G01X12238605Y-2667934D01*
G01X12238605Y-2604942D02*
G01X12227175Y-2593512D01*
G01X12215745Y-2587924D01*
G01X12198727Y-2587924D01*
G01X12187297Y-2593512D01*
G01X12175867Y-2604942D01*
G01X12170025Y-2622214D01*
G01X12170025Y-2633644D01*
G01X12175867Y-2650662D01*
G01X12187297Y-2662092D01*
G01X12198727Y-2667934D01*
G01X12215745Y-2667934D01*
G01X12227175Y-2662092D01*
G01X12238605Y-2650662D01*
G01X13595110Y-2547792D02*
G01X13595110Y-2667934D01*
G01X13595110Y-2547792D02*
G01X13646672Y-2547792D01*
G01X13663690Y-2553634D01*
G01X13669532Y-2559222D01*
G01X13675120Y-2570652D01*
G01X13675120Y-2582082D01*
G01X13669532Y-2593512D01*
G01X13663690Y-2599354D01*
G01X13646672Y-2604942D01*
G01X13595110Y-2604942D01*
G01X13635242Y-2604942D02*
G01X13675120Y-2667934D01*
G01X13751574Y-2587924D02*
G01X13740144Y-2593512D01*
G01X13728714Y-2604942D01*
G01X13722872Y-2622214D01*
G01X13722872Y-2633644D01*
G01X13728714Y-2650662D01*
G01X13740144Y-2662092D01*
G01X13751574Y-2667934D01*
G01X13768592Y-2667934D01*
G01X13780022Y-2662092D01*
G01X13791452Y-2650662D01*
G01X13797294Y-2633644D01*
G01X13797294Y-2622214D01*
G01X13791452Y-2604942D01*
G01X13780022Y-2593512D01*
G01X13768592Y-2587924D01*
G01X13751574Y-2587924D01*
G01X13845046Y-2587924D02*
G01X13845046Y-2645074D01*
G01X13850888Y-2662092D01*
G01X13862318Y-2667934D01*
G01X13879336Y-2667934D01*
G01X13890766Y-2662092D01*
G01X13908038Y-2645074D01*
G01X13908038Y-2587924D02*
G01X13908038Y-2667934D01*
G01X13955790Y-2587924D02*
G01X13955790Y-2667934D01*
G01X13955790Y-2610784D02*
G01X13973062Y-2593512D01*
G01X13984492Y-2587924D01*
G01X14001510Y-2587924D01*
G01X14012940Y-2593512D01*
G01X14018782Y-2610784D01*
G01X14018782Y-2667934D01*
G01X14135114Y-2547792D02*
G01X14135114Y-2667934D01*
G01X14135114Y-2604942D02*
G01X14123684Y-2593512D01*
G01X14112254Y-2587924D01*
G01X14095236Y-2587924D01*
G01X14083806Y-2593512D01*
G01X14072376Y-2604942D01*
G01X14066534Y-2622214D01*
G01X14066534Y-2633644D01*
G01X14072376Y-2650662D01*
G01X14083806Y-2662092D01*
G01X14095236Y-2667934D01*
G01X14112254Y-2667934D01*
G01X14123684Y-2662092D01*
G01X14135114Y-2650662D01*
G01X15554611Y-2547792D02*
G01X15554611Y-2667934D01*
G01X15514479Y-2547792D02*
G01X15594489Y-2547792D01*
G01X15670943Y-2587924D02*
G01X15659513Y-2593512D01*
G01X15648083Y-2604942D01*
G01X15642241Y-2622214D01*
G01X15642241Y-2633644D01*
G01X15648083Y-2650662D01*
G01X15659513Y-2662092D01*
G01X15670943Y-2667934D01*
G01X15687961Y-2667934D01*
G01X15699391Y-2662092D01*
G01X15710821Y-2650662D01*
G01X15716663Y-2633644D01*
G01X15716663Y-2622214D01*
G01X15710821Y-2604942D01*
G01X15699391Y-2593512D01*
G01X15687961Y-2587924D01*
G01X15670943Y-2587924D01*
G01X15764415Y-2587924D02*
G01X15764415Y-2707812D01*
G01X15764415Y-2604942D02*
G01X15775845Y-2593512D01*
G01X15787275Y-2587924D01*
G01X15804547Y-2587924D01*
G01X15815977Y-2593512D01*
G01X15827407Y-2604942D01*
G01X15832995Y-2622214D01*
G01X15832995Y-2633644D01*
G01X15827407Y-2650662D01*
G01X15815977Y-2662092D01*
G01X15804547Y-2667934D01*
G01X15787275Y-2667934D01*
G01X15775845Y-2662092D01*
G01X15764415Y-2650662D01*
G01X16008763Y-2547792D02*
G01X16008763Y-2667934D01*
G01X16008763Y-2667934D02*
G01X16077343Y-2667934D01*
G01X16193675Y-2587924D02*
G01X16193675Y-2667934D01*
G01X16193675Y-2604942D02*
G01X16182245Y-2593512D01*
G01X16170815Y-2587924D01*
G01X16153797Y-2587924D01*
G01X16142367Y-2593512D01*
G01X16130937Y-2604942D01*
G01X16125095Y-2622214D01*
G01X16125095Y-2633644D01*
G01X16130937Y-2650662D01*
G01X16142367Y-2662092D01*
G01X16153797Y-2667934D01*
G01X16170815Y-2667934D01*
G01X16182245Y-2662092D01*
G01X16193675Y-2650662D01*
G01X16247269Y-2587924D02*
G01X16281559Y-2667934D01*
G01X16315849Y-2587924D02*
G01X16281559Y-2667934D01*
G01X16270129Y-2690794D01*
G01X16258699Y-2702224D01*
G01X16247269Y-2707812D01*
G01X16241427Y-2707812D01*
G01X16363601Y-2622214D02*
G01X16432181Y-2622214D01*
G01X16432181Y-2610784D01*
G01X16426593Y-2599354D01*
G01X16420751Y-2593512D01*
G01X16409321Y-2587924D01*
G01X16392303Y-2587924D01*
G01X16380873Y-2593512D01*
G01X16369443Y-2604942D01*
G01X16363601Y-2622214D01*
G01X16363601Y-2633644D01*
G01X16369443Y-2650662D01*
G01X16380873Y-2662092D01*
G01X16392303Y-2667934D01*
G01X16409321Y-2667934D01*
G01X16420751Y-2662092D01*
G01X16432181Y-2650662D01*
G01X16479933Y-2587924D02*
G01X16479933Y-2667934D01*
G01X16479933Y-2622214D02*
G01X16485775Y-2604942D01*
G01X16497205Y-2593512D01*
G01X16508635Y-2587924D01*
G01X16525653Y-2587924D01*
G01X16573405Y-2616372D02*
G01X16676275Y-2616372D01*
G01X16724027Y-2547792D02*
G01X16724027Y-2667934D01*
G01X16724027Y-2547792D02*
G01X16775589Y-2547792D01*
G01X16792607Y-2553634D01*
G01X16798449Y-2559222D01*
G01X16804037Y-2570652D01*
G01X16804037Y-2582082D01*
G01X16798449Y-2593512D01*
G01X16792607Y-2599354D01*
G01X16775589Y-2604942D01*
G01X16724027Y-2604942D02*
G01X16775589Y-2604942D01*
G01X16792607Y-2610784D01*
G01X16798449Y-2616372D01*
G01X16804037Y-2627802D01*
G01X16804037Y-2645074D01*
G01X16798449Y-2656504D01*
G01X16792607Y-2662092D01*
G01X16775589Y-2667934D01*
G01X16724027Y-2667934D01*
G01X16880491Y-2587924D02*
G01X16869061Y-2593512D01*
G01X16857631Y-2604942D01*
G01X16851789Y-2622214D01*
G01X16851789Y-2633644D01*
G01X16857631Y-2650662D01*
G01X16869061Y-2662092D01*
G01X16880491Y-2667934D01*
G01X16897509Y-2667934D01*
G01X16908939Y-2662092D01*
G01X16920369Y-2650662D01*
G01X16926211Y-2633644D01*
G01X16926211Y-2622214D01*
G01X16920369Y-2604942D01*
G01X16908939Y-2593512D01*
G01X16897509Y-2587924D01*
G01X16880491Y-2587924D01*
G01X16991235Y-2547792D02*
G01X16991235Y-2645074D01*
G01X16996823Y-2662092D01*
G01X17008253Y-2667934D01*
G01X17019683Y-2667934D01*
G01X16973963Y-2587924D02*
G01X17014095Y-2587924D01*
G01X17084707Y-2547792D02*
G01X17084707Y-2645074D01*
G01X17090295Y-2662092D01*
G01X17101725Y-2667934D01*
G01X17113155Y-2667934D01*
G01X17067435Y-2587924D02*
G01X17107567Y-2587924D01*
G01X17189609Y-2587924D02*
G01X17178179Y-2593512D01*
G01X17166749Y-2604942D01*
G01X17160907Y-2622214D01*
G01X17160907Y-2633644D01*
G01X17166749Y-2650662D01*
G01X17178179Y-2662092D01*
G01X17189609Y-2667934D01*
G01X17206627Y-2667934D01*
G01X17218057Y-2662092D01*
G01X17229487Y-2650662D01*
G01X17235329Y-2633644D01*
G01X17235329Y-2622214D01*
G01X17229487Y-2604942D01*
G01X17218057Y-2593512D01*
G01X17206627Y-2587924D01*
G01X17189609Y-2587924D01*
G01X17283081Y-2587924D02*
G01X17283081Y-2667934D01*
G01X17283081Y-2610784D02*
G01X17300353Y-2593512D01*
G01X17311783Y-2587924D01*
G01X17328801Y-2587924D01*
G01X17340231Y-2593512D01*
G01X17346073Y-2610784D01*
G01X17346073Y-2667934D01*
G01X17346073Y-2610784D02*
G01X17363091Y-2593512D01*
G01X17374521Y-2587924D01*
G01X17391793Y-2587924D01*
G01X17403223Y-2593512D01*
G01X17408811Y-2610784D01*
G01X17408811Y-2667934D01*
G01X17584579Y-2547792D02*
G01X17584579Y-2667934D01*
G01X17584579Y-2667934D02*
G01X17653159Y-2667934D01*
G01X17769491Y-2587924D02*
G01X17769491Y-2667934D01*
G01X17769491Y-2604942D02*
G01X17758061Y-2593512D01*
G01X17746631Y-2587924D01*
G01X17729613Y-2587924D01*
G01X17718183Y-2593512D01*
G01X17706753Y-2604942D01*
G01X17700911Y-2622214D01*
G01X17700911Y-2633644D01*
G01X17706753Y-2650662D01*
G01X17718183Y-2662092D01*
G01X17729613Y-2667934D01*
G01X17746631Y-2667934D01*
G01X17758061Y-2662092D01*
G01X17769491Y-2650662D01*
G01X17823085Y-2587924D02*
G01X17857375Y-2667934D01*
G01X17891665Y-2587924D02*
G01X17857375Y-2667934D01*
G01X17845945Y-2690794D01*
G01X17834515Y-2702224D01*
G01X17823085Y-2707812D01*
G01X17817243Y-2707812D01*
G01X17939417Y-2622214D02*
G01X18007997Y-2622214D01*
G01X18007997Y-2610784D01*
G01X18002409Y-2599354D01*
G01X17996567Y-2593512D01*
G01X17985137Y-2587924D01*
G01X17968119Y-2587924D01*
G01X17956689Y-2593512D01*
G01X17945259Y-2604942D01*
G01X17939417Y-2622214D01*
G01X17939417Y-2633644D01*
G01X17945259Y-2650662D01*
G01X17956689Y-2662092D01*
G01X17968119Y-2667934D01*
G01X17985137Y-2667934D01*
G01X17996567Y-2662092D01*
G01X18007997Y-2650662D01*
G01X18055749Y-2587924D02*
G01X18055749Y-2667934D01*
G01X18055749Y-2622214D02*
G01X18061591Y-2604942D01*
G01X18073021Y-2593512D01*
G01X18084451Y-2587924D01*
G01X18101469Y-2587924D01*
G01X3748074Y-3151223D02*
G01X3759504Y-3145635D01*
G01X3776776Y-3128363D01*
G01X3776776Y-3248505D01*
G01X3881678Y-3128363D02*
G01X3824528Y-3208373D01*
G01X3910380Y-3208373D01*
G01X3881678Y-3128363D02*
G01X3881678Y-3248505D01*
G01X5219388Y-3128363D02*
G01X5162238Y-3208373D01*
G01X5248090Y-3208373D01*
G01X5219388Y-3128363D02*
G01X5219388Y-3248505D01*
G01X5375852Y-3128363D02*
G01X5318702Y-3248505D01*
G01X5295842Y-3128363D02*
G01X5375852Y-3128363D01*
G01X5429446Y-3219803D02*
G01X5423604Y-3225645D01*
G01X5429446Y-3231233D01*
G01X5435034Y-3225645D01*
G01X5429446Y-3219803D01*
G01X5488628Y-3157065D02*
G01X5488628Y-3151223D01*
G01X5494216Y-3139793D01*
G01X5500058Y-3134205D01*
G01X5511488Y-3128363D01*
G01X5534348Y-3128363D01*
G01X5545778Y-3134205D01*
G01X5551366Y-3139793D01*
G01X5557208Y-3151223D01*
G01X5557208Y-3162653D01*
G01X5551366Y-3174083D01*
G01X5539936Y-3191355D01*
G01X5482786Y-3248505D01*
G01X5562796Y-3248505D01*
G01X5610548Y-3168495D02*
G01X5673540Y-3248505D01*
G01X5673540Y-3168495D02*
G01X5610548Y-3248505D01*
G01X5778442Y-3128363D02*
G01X5721292Y-3208373D01*
G01X5807144Y-3208373D01*
G01X5778442Y-3128363D02*
G01X5778442Y-3248505D01*
G01X5934906Y-3128363D02*
G01X5877756Y-3248505D01*
G01X5854896Y-3128363D02*
G01X5934906Y-3128363D01*
G01X5988500Y-3219803D02*
G01X5982658Y-3225645D01*
G01X5988500Y-3231233D01*
G01X5994088Y-3225645D01*
G01X5988500Y-3219803D01*
G01X6047682Y-3157065D02*
G01X6047682Y-3151223D01*
G01X6053270Y-3139793D01*
G01X6059112Y-3134205D01*
G01X6070542Y-3128363D01*
G01X6093402Y-3128363D01*
G01X6104832Y-3134205D01*
G01X6110420Y-3139793D01*
G01X6116262Y-3151223D01*
G01X6116262Y-3162653D01*
G01X6110420Y-3174083D01*
G01X6098990Y-3191355D01*
G01X6041840Y-3248505D01*
G01X6121850Y-3248505D01*
G01X6169602Y-3168495D02*
G01X6169602Y-3248505D01*
G01X6169602Y-3191355D02*
G01X6186874Y-3174083D01*
G01X6198304Y-3168495D01*
G01X6215322Y-3168495D01*
G01X6226752Y-3174083D01*
G01X6232594Y-3191355D01*
G01X6232594Y-3248505D01*
G01X6232594Y-3191355D02*
G01X6249612Y-3174083D01*
G01X6261042Y-3168495D01*
G01X6278314Y-3168495D01*
G01X6289744Y-3174083D01*
G01X6295332Y-3191355D01*
G01X6295332Y-3248505D01*
G01X6343084Y-3128363D02*
G01X6348926Y-3134205D01*
G01X6354514Y-3128363D01*
G01X6348926Y-3122775D01*
G01X6343084Y-3128363D01*
G01X6348926Y-3168495D02*
G01X6348926Y-3248505D01*
G01X6402266Y-3128363D02*
G01X6402266Y-3248505D01*
G01X6490150Y-3105503D02*
G01X6478720Y-3116933D01*
G01X6467290Y-3134205D01*
G01X6455860Y-3157065D01*
G01X6450018Y-3185513D01*
G01X6450018Y-3208373D01*
G01X6455860Y-3237075D01*
G01X6467290Y-3259935D01*
G01X6478720Y-3276953D01*
G01X6490150Y-3288383D01*
G01X6537902Y-3151223D02*
G01X6549332Y-3145635D01*
G01X6566604Y-3128363D01*
G01X6566604Y-3248505D01*
G01X6620198Y-3219803D02*
G01X6614356Y-3225645D01*
G01X6620198Y-3231233D01*
G01X6625786Y-3225645D01*
G01X6620198Y-3219803D01*
G01X6679380Y-3157065D02*
G01X6679380Y-3151223D01*
G01X6684968Y-3139793D01*
G01X6690810Y-3134205D01*
G01X6702240Y-3128363D01*
G01X6725100Y-3128363D01*
G01X6736530Y-3134205D01*
G01X6742118Y-3139793D01*
G01X6747960Y-3151223D01*
G01X6747960Y-3162653D01*
G01X6742118Y-3174083D01*
G01X6730688Y-3191355D01*
G01X6673538Y-3248505D01*
G01X6753548Y-3248505D01*
G01X6835590Y-3128363D02*
G01X6818572Y-3134205D01*
G01X6807142Y-3151223D01*
G01X6801300Y-3179925D01*
G01X6801300Y-3196943D01*
G01X6807142Y-3225645D01*
G01X6818572Y-3242663D01*
G01X6835590Y-3248505D01*
G01X6847020Y-3248505D01*
G01X6864292Y-3242663D01*
G01X6875722Y-3225645D01*
G01X6881310Y-3196943D01*
G01X6881310Y-3179925D01*
G01X6875722Y-3151223D01*
G01X6864292Y-3134205D01*
G01X6847020Y-3128363D01*
G01X6835590Y-3128363D01*
G01X6963352Y-3128363D02*
G01X6946334Y-3134205D01*
G01X6934904Y-3151223D01*
G01X6929062Y-3179925D01*
G01X6929062Y-3196943D01*
G01X6934904Y-3225645D01*
G01X6946334Y-3242663D01*
G01X6963352Y-3248505D01*
G01X6974782Y-3248505D01*
G01X6992054Y-3242663D01*
G01X7003484Y-3225645D01*
G01X7009072Y-3196943D01*
G01X7009072Y-3179925D01*
G01X7003484Y-3151223D01*
G01X6992054Y-3134205D01*
G01X6974782Y-3128363D01*
G01X6963352Y-3128363D01*
G01X7056824Y-3168495D02*
G01X7119816Y-3248505D01*
G01X7119816Y-3168495D02*
G01X7056824Y-3248505D01*
G01X7167568Y-3151223D02*
G01X7178998Y-3145635D01*
G01X7196270Y-3128363D01*
G01X7196270Y-3248505D01*
G01X7249864Y-3219803D02*
G01X7244022Y-3225645D01*
G01X7249864Y-3231233D01*
G01X7255452Y-3225645D01*
G01X7249864Y-3219803D01*
G01X7309046Y-3157065D02*
G01X7309046Y-3151223D01*
G01X7314634Y-3139793D01*
G01X7320476Y-3134205D01*
G01X7331906Y-3128363D01*
G01X7354766Y-3128363D01*
G01X7366196Y-3134205D01*
G01X7371784Y-3139793D01*
G01X7377626Y-3151223D01*
G01X7377626Y-3162653D01*
G01X7371784Y-3174083D01*
G01X7360354Y-3191355D01*
G01X7303204Y-3248505D01*
G01X7383214Y-3248505D01*
G01X7465256Y-3128363D02*
G01X7448238Y-3134205D01*
G01X7436808Y-3151223D01*
G01X7430966Y-3179925D01*
G01X7430966Y-3196943D01*
G01X7436808Y-3225645D01*
G01X7448238Y-3242663D01*
G01X7465256Y-3248505D01*
G01X7476686Y-3248505D01*
G01X7493958Y-3242663D01*
G01X7505388Y-3225645D01*
G01X7510976Y-3196943D01*
G01X7510976Y-3179925D01*
G01X7505388Y-3151223D01*
G01X7493958Y-3134205D01*
G01X7476686Y-3128363D01*
G01X7465256Y-3128363D01*
G01X7593018Y-3128363D02*
G01X7576000Y-3134205D01*
G01X7564570Y-3151223D01*
G01X7558728Y-3179925D01*
G01X7558728Y-3196943D01*
G01X7564570Y-3225645D01*
G01X7576000Y-3242663D01*
G01X7593018Y-3248505D01*
G01X7604448Y-3248505D01*
G01X7621720Y-3242663D01*
G01X7633150Y-3225645D01*
G01X7638738Y-3196943D01*
G01X7638738Y-3179925D01*
G01X7633150Y-3151223D01*
G01X7621720Y-3134205D01*
G01X7604448Y-3128363D01*
G01X7593018Y-3128363D01*
G01X7686490Y-3168495D02*
G01X7686490Y-3248505D01*
G01X7686490Y-3191355D02*
G01X7703762Y-3174083D01*
G01X7715192Y-3168495D01*
G01X7732210Y-3168495D01*
G01X7743640Y-3174083D01*
G01X7749482Y-3191355D01*
G01X7749482Y-3248505D01*
G01X7749482Y-3191355D02*
G01X7766500Y-3174083D01*
G01X7777930Y-3168495D01*
G01X7795202Y-3168495D01*
G01X7806632Y-3174083D01*
G01X7812220Y-3191355D01*
G01X7812220Y-3248505D01*
G01X7859972Y-3168495D02*
G01X7859972Y-3248505D01*
G01X7859972Y-3191355D02*
G01X7877244Y-3174083D01*
G01X7888674Y-3168495D01*
G01X7905692Y-3168495D01*
G01X7917122Y-3174083D01*
G01X7922964Y-3191355D01*
G01X7922964Y-3248505D01*
G01X7922964Y-3191355D02*
G01X7939982Y-3174083D01*
G01X7951412Y-3168495D01*
G01X7968684Y-3168495D01*
G01X7980114Y-3174083D01*
G01X7985702Y-3191355D01*
G01X7985702Y-3248505D01*
G01X8033454Y-3105503D02*
G01X8044884Y-3116933D01*
G01X8056314Y-3134205D01*
G01X8067744Y-3157065D01*
G01X8073586Y-3185513D01*
G01X8073586Y-3208373D01*
G01X8067744Y-3237075D01*
G01X8056314Y-3259935D01*
G01X8044884Y-3276953D01*
G01X8033454Y-3288383D01*
G01X9033343Y-3128363D02*
G01X9033343Y-3248505D01*
G01X9033343Y-3128363D02*
G01X9084905Y-3128363D01*
G01X9101923Y-3134205D01*
G01X9107765Y-3139793D01*
G01X9113353Y-3151223D01*
G01X9113353Y-3168495D01*
G01X9107765Y-3179925D01*
G01X9101923Y-3185513D01*
G01X9084905Y-3191355D01*
G01X9033343Y-3191355D01*
G01X9201237Y-3128363D02*
G01X9201237Y-3248505D01*
G01X9161105Y-3128363D02*
G01X9241115Y-3128363D01*
G01X9288867Y-3128363D02*
G01X9288867Y-3248505D01*
G01X9368877Y-3128363D02*
G01X9368877Y-3248505D01*
G01X9288867Y-3185513D02*
G01X9368877Y-3185513D01*
G01X10494750Y-3128363D02*
G01X10494750Y-3248505D01*
G01X10494750Y-3128363D02*
G01X10546312Y-3128363D01*
G01X10563330Y-3134205D01*
G01X10569172Y-3139793D01*
G01X10574760Y-3151223D01*
G01X10574760Y-3162653D01*
G01X10569172Y-3174083D01*
G01X10563330Y-3179925D01*
G01X10546312Y-3185513D01*
G01X10494750Y-3185513D01*
G01X10534882Y-3185513D02*
G01X10574760Y-3248505D01*
G01X10651214Y-3168495D02*
G01X10639784Y-3174083D01*
G01X10628354Y-3185513D01*
G01X10622512Y-3202785D01*
G01X10622512Y-3214215D01*
G01X10628354Y-3231233D01*
G01X10639784Y-3242663D01*
G01X10651214Y-3248505D01*
G01X10668232Y-3248505D01*
G01X10679662Y-3242663D01*
G01X10691092Y-3231233D01*
G01X10696934Y-3214215D01*
G01X10696934Y-3202785D01*
G01X10691092Y-3185513D01*
G01X10679662Y-3174083D01*
G01X10668232Y-3168495D01*
G01X10651214Y-3168495D01*
G01X10744686Y-3168495D02*
G01X10744686Y-3225645D01*
G01X10750528Y-3242663D01*
G01X10761958Y-3248505D01*
G01X10778976Y-3248505D01*
G01X10790406Y-3242663D01*
G01X10807678Y-3225645D01*
G01X10807678Y-3168495D02*
G01X10807678Y-3248505D01*
G01X10855430Y-3168495D02*
G01X10855430Y-3248505D01*
G01X10855430Y-3191355D02*
G01X10872702Y-3174083D01*
G01X10884132Y-3168495D01*
G01X10901150Y-3168495D01*
G01X10912580Y-3174083D01*
G01X10918422Y-3191355D01*
G01X10918422Y-3248505D01*
G01X11034754Y-3128363D02*
G01X11034754Y-3248505D01*
G01X11034754Y-3185513D02*
G01X11023324Y-3174083D01*
G01X11011894Y-3168495D01*
G01X10994876Y-3168495D01*
G01X10983446Y-3174083D01*
G01X10972016Y-3185513D01*
G01X10966174Y-3202785D01*
G01X10966174Y-3214215D01*
G01X10972016Y-3231233D01*
G01X10983446Y-3242663D01*
G01X10994876Y-3248505D01*
G01X11011894Y-3248505D01*
G01X11023324Y-3242663D01*
G01X11034754Y-3231233D01*
G01X11925931Y-3128363D02*
G01X11925931Y-3248505D01*
G01X11925931Y-3128363D02*
G01X11977493Y-3128363D01*
G01X11994511Y-3134205D01*
G01X12000353Y-3139793D01*
G01X12005941Y-3151223D01*
G01X12005941Y-3168495D01*
G01X12000353Y-3179925D01*
G01X11994511Y-3185513D01*
G01X11977493Y-3191355D01*
G01X11925931Y-3191355D01*
G01X12122273Y-3168495D02*
G01X12122273Y-3248505D01*
G01X12122273Y-3185513D02*
G01X12110843Y-3174083D01*
G01X12099413Y-3168495D01*
G01X12082395Y-3168495D01*
G01X12070965Y-3174083D01*
G01X12059535Y-3185513D01*
G01X12053693Y-3202785D01*
G01X12053693Y-3214215D01*
G01X12059535Y-3231233D01*
G01X12070965Y-3242663D01*
G01X12082395Y-3248505D01*
G01X12099413Y-3248505D01*
G01X12110843Y-3242663D01*
G01X12122273Y-3231233D01*
G01X12238605Y-3128363D02*
G01X12238605Y-3248505D01*
G01X12238605Y-3185513D02*
G01X12227175Y-3174083D01*
G01X12215745Y-3168495D01*
G01X12198727Y-3168495D01*
G01X12187297Y-3174083D01*
G01X12175867Y-3185513D01*
G01X12170025Y-3202785D01*
G01X12170025Y-3214215D01*
G01X12175867Y-3231233D01*
G01X12187297Y-3242663D01*
G01X12198727Y-3248505D01*
G01X12215745Y-3248505D01*
G01X12227175Y-3242663D01*
G01X12238605Y-3231233D01*
G01X13635242Y-3105503D02*
G01X13623812Y-3116933D01*
G01X13612382Y-3134205D01*
G01X13600952Y-3157065D01*
G01X13595110Y-3185513D01*
G01X13595110Y-3208373D01*
G01X13600952Y-3237075D01*
G01X13612382Y-3259935D01*
G01X13623812Y-3276953D01*
G01X13635242Y-3288383D01*
G01X13682994Y-3128363D02*
G01X13682994Y-3248505D01*
G01X13682994Y-3128363D02*
G01X13728714Y-3248505D01*
G01X13774434Y-3128363D02*
G01X13728714Y-3248505D01*
G01X13774434Y-3128363D02*
G01X13774434Y-3248505D01*
G01X13822186Y-3128363D02*
G01X13828028Y-3134205D01*
G01X13833616Y-3128363D01*
G01X13828028Y-3122775D01*
G01X13822186Y-3128363D01*
G01X13828028Y-3168495D02*
G01X13828028Y-3248505D01*
G01X13881368Y-3168495D02*
G01X13944360Y-3248505D01*
G01X13944360Y-3168495D02*
G01X13881368Y-3248505D01*
G01X13992112Y-3202785D02*
G01X14060692Y-3202785D01*
G01X14060692Y-3191355D01*
G01X14055104Y-3179925D01*
G01X14049262Y-3174083D01*
G01X14037832Y-3168495D01*
G01X14020814Y-3168495D01*
G01X14009384Y-3174083D01*
G01X13997954Y-3185513D01*
G01X13992112Y-3202785D01*
G01X13992112Y-3214215D01*
G01X13997954Y-3231233D01*
G01X14009384Y-3242663D01*
G01X14020814Y-3248505D01*
G01X14037832Y-3248505D01*
G01X14049262Y-3242663D01*
G01X14060692Y-3231233D01*
G01X14177024Y-3128363D02*
G01X14177024Y-3248505D01*
G01X14177024Y-3185513D02*
G01X14165594Y-3174083D01*
G01X14154164Y-3168495D01*
G01X14137146Y-3168495D01*
G01X14125716Y-3174083D01*
G01X14114286Y-3185513D01*
G01X14108444Y-3202785D01*
G01X14108444Y-3214215D01*
G01X14114286Y-3231233D01*
G01X14125716Y-3242663D01*
G01X14137146Y-3248505D01*
G01X14154164Y-3248505D01*
G01X14165594Y-3242663D01*
G01X14177024Y-3231233D01*
G01X14224776Y-3105503D02*
G01X14236206Y-3116933D01*
G01X14247636Y-3134205D01*
G01X14259066Y-3157065D01*
G01X14264908Y-3185513D01*
G01X14264908Y-3208373D01*
G01X14259066Y-3237075D01*
G01X14247636Y-3259935D01*
G01X14236206Y-3276953D01*
G01X14224776Y-3288383D01*
G01X15554611Y-3128363D02*
G01X15554611Y-3248505D01*
G01X15514479Y-3128363D02*
G01X15594489Y-3128363D01*
G01X15670943Y-3168495D02*
G01X15659513Y-3174083D01*
G01X15648083Y-3185513D01*
G01X15642241Y-3202785D01*
G01X15642241Y-3214215D01*
G01X15648083Y-3231233D01*
G01X15659513Y-3242663D01*
G01X15670943Y-3248505D01*
G01X15687961Y-3248505D01*
G01X15699391Y-3242663D01*
G01X15710821Y-3231233D01*
G01X15716663Y-3214215D01*
G01X15716663Y-3202785D01*
G01X15710821Y-3185513D01*
G01X15699391Y-3174083D01*
G01X15687961Y-3168495D01*
G01X15670943Y-3168495D01*
G01X15764415Y-3168495D02*
G01X15764415Y-3288383D01*
G01X15764415Y-3185513D02*
G01X15775845Y-3174083D01*
G01X15787275Y-3168495D01*
G01X15804547Y-3168495D01*
G01X15815977Y-3174083D01*
G01X15827407Y-3185513D01*
G01X15832995Y-3202785D01*
G01X15832995Y-3214215D01*
G01X15827407Y-3231233D01*
G01X15815977Y-3242663D01*
G01X15804547Y-3248505D01*
G01X15787275Y-3248505D01*
G01X15775845Y-3242663D01*
G01X15764415Y-3231233D01*
G01X16008763Y-3128363D02*
G01X16008763Y-3248505D01*
G01X16008763Y-3248505D02*
G01X16077343Y-3248505D01*
G01X16193675Y-3168495D02*
G01X16193675Y-3248505D01*
G01X16193675Y-3185513D02*
G01X16182245Y-3174083D01*
G01X16170815Y-3168495D01*
G01X16153797Y-3168495D01*
G01X16142367Y-3174083D01*
G01X16130937Y-3185513D01*
G01X16125095Y-3202785D01*
G01X16125095Y-3214215D01*
G01X16130937Y-3231233D01*
G01X16142367Y-3242663D01*
G01X16153797Y-3248505D01*
G01X16170815Y-3248505D01*
G01X16182245Y-3242663D01*
G01X16193675Y-3231233D01*
G01X16247269Y-3168495D02*
G01X16281559Y-3248505D01*
G01X16315849Y-3168495D02*
G01X16281559Y-3248505D01*
G01X16270129Y-3271365D01*
G01X16258699Y-3282795D01*
G01X16247269Y-3288383D01*
G01X16241427Y-3288383D01*
G01X16363601Y-3202785D02*
G01X16432181Y-3202785D01*
G01X16432181Y-3191355D01*
G01X16426593Y-3179925D01*
G01X16420751Y-3174083D01*
G01X16409321Y-3168495D01*
G01X16392303Y-3168495D01*
G01X16380873Y-3174083D01*
G01X16369443Y-3185513D01*
G01X16363601Y-3202785D01*
G01X16363601Y-3214215D01*
G01X16369443Y-3231233D01*
G01X16380873Y-3242663D01*
G01X16392303Y-3248505D01*
G01X16409321Y-3248505D01*
G01X16420751Y-3242663D01*
G01X16432181Y-3231233D01*
G01X16479933Y-3168495D02*
G01X16479933Y-3248505D01*
G01X16479933Y-3202785D02*
G01X16485775Y-3185513D01*
G01X16497205Y-3174083D01*
G01X16508635Y-3168495D01*
G01X16525653Y-3168495D01*
G01X16573405Y-3196943D02*
G01X16676275Y-3196943D01*
G01X16724027Y-3128363D02*
G01X16724027Y-3248505D01*
G01X16724027Y-3128363D02*
G01X16775589Y-3128363D01*
G01X16792607Y-3134205D01*
G01X16798449Y-3139793D01*
G01X16804037Y-3151223D01*
G01X16804037Y-3162653D01*
G01X16798449Y-3174083D01*
G01X16792607Y-3179925D01*
G01X16775589Y-3185513D01*
G01X16724027Y-3185513D02*
G01X16775589Y-3185513D01*
G01X16792607Y-3191355D01*
G01X16798449Y-3196943D01*
G01X16804037Y-3208373D01*
G01X16804037Y-3225645D01*
G01X16798449Y-3237075D01*
G01X16792607Y-3242663D01*
G01X16775589Y-3248505D01*
G01X16724027Y-3248505D01*
G01X16880491Y-3168495D02*
G01X16869061Y-3174083D01*
G01X16857631Y-3185513D01*
G01X16851789Y-3202785D01*
G01X16851789Y-3214215D01*
G01X16857631Y-3231233D01*
G01X16869061Y-3242663D01*
G01X16880491Y-3248505D01*
G01X16897509Y-3248505D01*
G01X16908939Y-3242663D01*
G01X16920369Y-3231233D01*
G01X16926211Y-3214215D01*
G01X16926211Y-3202785D01*
G01X16920369Y-3185513D01*
G01X16908939Y-3174083D01*
G01X16897509Y-3168495D01*
G01X16880491Y-3168495D01*
G01X16991235Y-3128363D02*
G01X16991235Y-3225645D01*
G01X16996823Y-3242663D01*
G01X17008253Y-3248505D01*
G01X17019683Y-3248505D01*
G01X16973963Y-3168495D02*
G01X17014095Y-3168495D01*
G01X17084707Y-3128363D02*
G01X17084707Y-3225645D01*
G01X17090295Y-3242663D01*
G01X17101725Y-3248505D01*
G01X17113155Y-3248505D01*
G01X17067435Y-3168495D02*
G01X17107567Y-3168495D01*
G01X17189609Y-3168495D02*
G01X17178179Y-3174083D01*
G01X17166749Y-3185513D01*
G01X17160907Y-3202785D01*
G01X17160907Y-3214215D01*
G01X17166749Y-3231233D01*
G01X17178179Y-3242663D01*
G01X17189609Y-3248505D01*
G01X17206627Y-3248505D01*
G01X17218057Y-3242663D01*
G01X17229487Y-3231233D01*
G01X17235329Y-3214215D01*
G01X17235329Y-3202785D01*
G01X17229487Y-3185513D01*
G01X17218057Y-3174083D01*
G01X17206627Y-3168495D01*
G01X17189609Y-3168495D01*
G01X17283081Y-3168495D02*
G01X17283081Y-3248505D01*
G01X17283081Y-3191355D02*
G01X17300353Y-3174083D01*
G01X17311783Y-3168495D01*
G01X17328801Y-3168495D01*
G01X17340231Y-3174083D01*
G01X17346073Y-3191355D01*
G01X17346073Y-3248505D01*
G01X17346073Y-3191355D02*
G01X17363091Y-3174083D01*
G01X17374521Y-3168495D01*
G01X17391793Y-3168495D01*
G01X17403223Y-3174083D01*
G01X17408811Y-3191355D01*
G01X17408811Y-3248505D01*
G01X17584579Y-3128363D02*
G01X17584579Y-3248505D01*
G01X17584579Y-3248505D02*
G01X17653159Y-3248505D01*
G01X17769491Y-3168495D02*
G01X17769491Y-3248505D01*
G01X17769491Y-3185513D02*
G01X17758061Y-3174083D01*
G01X17746631Y-3168495D01*
G01X17729613Y-3168495D01*
G01X17718183Y-3174083D01*
G01X17706753Y-3185513D01*
G01X17700911Y-3202785D01*
G01X17700911Y-3214215D01*
G01X17706753Y-3231233D01*
G01X17718183Y-3242663D01*
G01X17729613Y-3248505D01*
G01X17746631Y-3248505D01*
G01X17758061Y-3242663D01*
G01X17769491Y-3231233D01*
G01X17823085Y-3168495D02*
G01X17857375Y-3248505D01*
G01X17891665Y-3168495D02*
G01X17857375Y-3248505D01*
G01X17845945Y-3271365D01*
G01X17834515Y-3282795D01*
G01X17823085Y-3288383D01*
G01X17817243Y-3288383D01*
G01X17939417Y-3202785D02*
G01X18007997Y-3202785D01*
G01X18007997Y-3191355D01*
G01X18002409Y-3179925D01*
G01X17996567Y-3174083D01*
G01X17985137Y-3168495D01*
G01X17968119Y-3168495D01*
G01X17956689Y-3174083D01*
G01X17945259Y-3185513D01*
G01X17939417Y-3202785D01*
G01X17939417Y-3214215D01*
G01X17945259Y-3231233D01*
G01X17956689Y-3242663D01*
G01X17968119Y-3248505D01*
G01X17985137Y-3248505D01*
G01X17996567Y-3242663D01*
G01X18007997Y-3231233D01*
G01X18055749Y-3168495D02*
G01X18055749Y-3248505D01*
G01X18055749Y-3202785D02*
G01X18061591Y-3185513D01*
G01X18073021Y-3174083D01*
G01X18084451Y-3168495D01*
G01X18101469Y-3168495D01*
G01X3748074Y-3731794D02*
G01X3759504Y-3726206D01*
G01X3776776Y-3708934D01*
G01X3776776Y-3829076D01*
G01X3893108Y-3726206D02*
G01X3887520Y-3714776D01*
G01X3870248Y-3708934D01*
G01X3858818Y-3708934D01*
G01X3841800Y-3714776D01*
G01X3830370Y-3731794D01*
G01X3824528Y-3760496D01*
G01X3824528Y-3788944D01*
G01X3830370Y-3811804D01*
G01X3841800Y-3823234D01*
G01X3858818Y-3829076D01*
G01X3864660Y-3829076D01*
G01X3881678Y-3823234D01*
G01X3893108Y-3811804D01*
G01X3898950Y-3794786D01*
G01X3898950Y-3788944D01*
G01X3893108Y-3771926D01*
G01X3881678Y-3760496D01*
G01X3864660Y-3754654D01*
G01X3858818Y-3754654D01*
G01X3841800Y-3760496D01*
G01X3830370Y-3771926D01*
G01X3824528Y-3788944D01*
G01X5162238Y-3731794D02*
G01X5173668Y-3726206D01*
G01X5190940Y-3708934D01*
G01X5190940Y-3829076D01*
G01X5307272Y-3708934D02*
G01X5250122Y-3708934D01*
G01X5244534Y-3760496D01*
G01X5250122Y-3754654D01*
G01X5267394Y-3749066D01*
G01X5284412Y-3749066D01*
G01X5301684Y-3754654D01*
G01X5313114Y-3766084D01*
G01X5318702Y-3783356D01*
G01X5318702Y-3794786D01*
G01X5313114Y-3811804D01*
G01X5301684Y-3823234D01*
G01X5284412Y-3829076D01*
G01X5267394Y-3829076D01*
G01X5250122Y-3823234D01*
G01X5244534Y-3817646D01*
G01X5238692Y-3806216D01*
G01X5372296Y-3800374D02*
G01X5366454Y-3806216D01*
G01X5372296Y-3811804D01*
G01X5377884Y-3806216D01*
G01X5372296Y-3800374D01*
G01X5505646Y-3708934D02*
G01X5448496Y-3829076D01*
G01X5425636Y-3708934D02*
G01X5505646Y-3708934D01*
G01X5553398Y-3749066D02*
G01X5616390Y-3829076D01*
G01X5616390Y-3749066D02*
G01X5553398Y-3829076D01*
G01X5664142Y-3731794D02*
G01X5675572Y-3726206D01*
G01X5692844Y-3708934D01*
G01X5692844Y-3829076D01*
G01X5809176Y-3708934D02*
G01X5752026Y-3708934D01*
G01X5746438Y-3760496D01*
G01X5752026Y-3754654D01*
G01X5769298Y-3749066D01*
G01X5786316Y-3749066D01*
G01X5803588Y-3754654D01*
G01X5815018Y-3766084D01*
G01X5820606Y-3783356D01*
G01X5820606Y-3794786D01*
G01X5815018Y-3811804D01*
G01X5803588Y-3823234D01*
G01X5786316Y-3829076D01*
G01X5769298Y-3829076D01*
G01X5752026Y-3823234D01*
G01X5746438Y-3817646D01*
G01X5740596Y-3806216D01*
G01X5874200Y-3800374D02*
G01X5868358Y-3806216D01*
G01X5874200Y-3811804D01*
G01X5879788Y-3806216D01*
G01X5874200Y-3800374D01*
G01X5956242Y-3708934D02*
G01X5938970Y-3714776D01*
G01X5933382Y-3726206D01*
G01X5933382Y-3737636D01*
G01X5938970Y-3749066D01*
G01X5950400Y-3754654D01*
G01X5973260Y-3760496D01*
G01X5990532Y-3766084D01*
G01X6001962Y-3777514D01*
G01X6007550Y-3788944D01*
G01X6007550Y-3806216D01*
G01X6001962Y-3817646D01*
G01X5996120Y-3823234D01*
G01X5979102Y-3829076D01*
G01X5956242Y-3829076D01*
G01X5938970Y-3823234D01*
G01X5933382Y-3817646D01*
G01X5927540Y-3806216D01*
G01X5927540Y-3788944D01*
G01X5933382Y-3777514D01*
G01X5944812Y-3766084D01*
G01X5961830Y-3760496D01*
G01X5984690Y-3754654D01*
G01X5996120Y-3749066D01*
G01X6001962Y-3737636D01*
G01X6001962Y-3726206D01*
G01X5996120Y-3714776D01*
G01X5979102Y-3708934D01*
G01X5956242Y-3708934D01*
G01X6055302Y-3749066D02*
G01X6055302Y-3829076D01*
G01X6055302Y-3771926D02*
G01X6072574Y-3754654D01*
G01X6084004Y-3749066D01*
G01X6101022Y-3749066D01*
G01X6112452Y-3754654D01*
G01X6118294Y-3771926D01*
G01X6118294Y-3829076D01*
G01X6118294Y-3771926D02*
G01X6135312Y-3754654D01*
G01X6146742Y-3749066D01*
G01X6164014Y-3749066D01*
G01X6175444Y-3754654D01*
G01X6181032Y-3771926D01*
G01X6181032Y-3829076D01*
G01X6228784Y-3708934D02*
G01X6234626Y-3714776D01*
G01X6240214Y-3708934D01*
G01X6234626Y-3703346D01*
G01X6228784Y-3708934D01*
G01X6234626Y-3749066D02*
G01X6234626Y-3829076D01*
G01X6287966Y-3708934D02*
G01X6287966Y-3829076D01*
G01X6375850Y-3686074D02*
G01X6364420Y-3697504D01*
G01X6352990Y-3714776D01*
G01X6341560Y-3737636D01*
G01X6335718Y-3766084D01*
G01X6335718Y-3788944D01*
G01X6341560Y-3817646D01*
G01X6352990Y-3840506D01*
G01X6364420Y-3857524D01*
G01X6375850Y-3868954D01*
G01X6457892Y-3708934D02*
G01X6440874Y-3714776D01*
G01X6429444Y-3731794D01*
G01X6423602Y-3760496D01*
G01X6423602Y-3777514D01*
G01X6429444Y-3806216D01*
G01X6440874Y-3823234D01*
G01X6457892Y-3829076D01*
G01X6469322Y-3829076D01*
G01X6486594Y-3823234D01*
G01X6498024Y-3806216D01*
G01X6503612Y-3777514D01*
G01X6503612Y-3760496D01*
G01X6498024Y-3731794D01*
G01X6486594Y-3714776D01*
G01X6469322Y-3708934D01*
G01X6457892Y-3708934D01*
G01X6557206Y-3800374D02*
G01X6551364Y-3806216D01*
G01X6557206Y-3811804D01*
G01X6562794Y-3806216D01*
G01X6557206Y-3800374D01*
G01X6667696Y-3708934D02*
G01X6610546Y-3788944D01*
G01X6696398Y-3788944D01*
G01X6667696Y-3708934D02*
G01X6667696Y-3829076D01*
G01X6778440Y-3708934D02*
G01X6761422Y-3714776D01*
G01X6749992Y-3731794D01*
G01X6744150Y-3760496D01*
G01X6744150Y-3777514D01*
G01X6749992Y-3806216D01*
G01X6761422Y-3823234D01*
G01X6778440Y-3829076D01*
G01X6789870Y-3829076D01*
G01X6807142Y-3823234D01*
G01X6818572Y-3806216D01*
G01X6824160Y-3777514D01*
G01X6824160Y-3760496D01*
G01X6818572Y-3731794D01*
G01X6807142Y-3714776D01*
G01X6789870Y-3708934D01*
G01X6778440Y-3708934D01*
G01X6906202Y-3708934D02*
G01X6889184Y-3714776D01*
G01X6877754Y-3731794D01*
G01X6871912Y-3760496D01*
G01X6871912Y-3777514D01*
G01X6877754Y-3806216D01*
G01X6889184Y-3823234D01*
G01X6906202Y-3829076D01*
G01X6917632Y-3829076D01*
G01X6934904Y-3823234D01*
G01X6946334Y-3806216D01*
G01X6951922Y-3777514D01*
G01X6951922Y-3760496D01*
G01X6946334Y-3731794D01*
G01X6934904Y-3714776D01*
G01X6917632Y-3708934D01*
G01X6906202Y-3708934D01*
G01X6999674Y-3749066D02*
G01X7062666Y-3829076D01*
G01X7062666Y-3749066D02*
G01X6999674Y-3829076D01*
G01X7144708Y-3708934D02*
G01X7127690Y-3714776D01*
G01X7116260Y-3731794D01*
G01X7110418Y-3760496D01*
G01X7110418Y-3777514D01*
G01X7116260Y-3806216D01*
G01X7127690Y-3823234D01*
G01X7144708Y-3829076D01*
G01X7156138Y-3829076D01*
G01X7173410Y-3823234D01*
G01X7184840Y-3806216D01*
G01X7190428Y-3777514D01*
G01X7190428Y-3760496D01*
G01X7184840Y-3731794D01*
G01X7173410Y-3714776D01*
G01X7156138Y-3708934D01*
G01X7144708Y-3708934D01*
G01X7244022Y-3800374D02*
G01X7238180Y-3806216D01*
G01X7244022Y-3811804D01*
G01X7249610Y-3806216D01*
G01X7244022Y-3800374D01*
G01X7354512Y-3708934D02*
G01X7297362Y-3788944D01*
G01X7383214Y-3788944D01*
G01X7354512Y-3708934D02*
G01X7354512Y-3829076D01*
G01X7465256Y-3708934D02*
G01X7448238Y-3714776D01*
G01X7436808Y-3731794D01*
G01X7430966Y-3760496D01*
G01X7430966Y-3777514D01*
G01X7436808Y-3806216D01*
G01X7448238Y-3823234D01*
G01X7465256Y-3829076D01*
G01X7476686Y-3829076D01*
G01X7493958Y-3823234D01*
G01X7505388Y-3806216D01*
G01X7510976Y-3777514D01*
G01X7510976Y-3760496D01*
G01X7505388Y-3731794D01*
G01X7493958Y-3714776D01*
G01X7476686Y-3708934D01*
G01X7465256Y-3708934D01*
G01X7593018Y-3708934D02*
G01X7576000Y-3714776D01*
G01X7564570Y-3731794D01*
G01X7558728Y-3760496D01*
G01X7558728Y-3777514D01*
G01X7564570Y-3806216D01*
G01X7576000Y-3823234D01*
G01X7593018Y-3829076D01*
G01X7604448Y-3829076D01*
G01X7621720Y-3823234D01*
G01X7633150Y-3806216D01*
G01X7638738Y-3777514D01*
G01X7638738Y-3760496D01*
G01X7633150Y-3731794D01*
G01X7621720Y-3714776D01*
G01X7604448Y-3708934D01*
G01X7593018Y-3708934D01*
G01X7686490Y-3749066D02*
G01X7686490Y-3829076D01*
G01X7686490Y-3771926D02*
G01X7703762Y-3754654D01*
G01X7715192Y-3749066D01*
G01X7732210Y-3749066D01*
G01X7743640Y-3754654D01*
G01X7749482Y-3771926D01*
G01X7749482Y-3829076D01*
G01X7749482Y-3771926D02*
G01X7766500Y-3754654D01*
G01X7777930Y-3749066D01*
G01X7795202Y-3749066D01*
G01X7806632Y-3754654D01*
G01X7812220Y-3771926D01*
G01X7812220Y-3829076D01*
G01X7859972Y-3749066D02*
G01X7859972Y-3829076D01*
G01X7859972Y-3771926D02*
G01X7877244Y-3754654D01*
G01X7888674Y-3749066D01*
G01X7905692Y-3749066D01*
G01X7917122Y-3754654D01*
G01X7922964Y-3771926D01*
G01X7922964Y-3829076D01*
G01X7922964Y-3771926D02*
G01X7939982Y-3754654D01*
G01X7951412Y-3749066D01*
G01X7968684Y-3749066D01*
G01X7980114Y-3754654D01*
G01X7985702Y-3771926D01*
G01X7985702Y-3829076D01*
G01X8033454Y-3686074D02*
G01X8044884Y-3697504D01*
G01X8056314Y-3714776D01*
G01X8067744Y-3737636D01*
G01X8073586Y-3766084D01*
G01X8073586Y-3788944D01*
G01X8067744Y-3817646D01*
G01X8056314Y-3840506D01*
G01X8044884Y-3857524D01*
G01X8033454Y-3868954D01*
G01X9033343Y-3708934D02*
G01X9033343Y-3829076D01*
G01X9033343Y-3708934D02*
G01X9084905Y-3708934D01*
G01X9101923Y-3714776D01*
G01X9107765Y-3720364D01*
G01X9113353Y-3731794D01*
G01X9113353Y-3749066D01*
G01X9107765Y-3760496D01*
G01X9101923Y-3766084D01*
G01X9084905Y-3771926D01*
G01X9033343Y-3771926D01*
G01X9201237Y-3708934D02*
G01X9201237Y-3829076D01*
G01X9161105Y-3708934D02*
G01X9241115Y-3708934D01*
G01X9288867Y-3708934D02*
G01X9288867Y-3829076D01*
G01X9368877Y-3708934D02*
G01X9368877Y-3829076D01*
G01X9288867Y-3766084D02*
G01X9368877Y-3766084D01*
G01X10574760Y-3726206D02*
G01X10563330Y-3714776D01*
G01X10546312Y-3708934D01*
G01X10523452Y-3708934D01*
G01X10506180Y-3714776D01*
G01X10494750Y-3726206D01*
G01X10494750Y-3737636D01*
G01X10500592Y-3749066D01*
G01X10506180Y-3754654D01*
G01X10517610Y-3760496D01*
G01X10551900Y-3771926D01*
G01X10563330Y-3777514D01*
G01X10569172Y-3783356D01*
G01X10574760Y-3794786D01*
G01X10574760Y-3811804D01*
G01X10563330Y-3823234D01*
G01X10546312Y-3829076D01*
G01X10523452Y-3829076D01*
G01X10506180Y-3823234D01*
G01X10494750Y-3811804D01*
G01X10622512Y-3708934D02*
G01X10622512Y-3829076D01*
G01X10698966Y-3749066D02*
G01X10687536Y-3754654D01*
G01X10676106Y-3766084D01*
G01X10670264Y-3783356D01*
G01X10670264Y-3794786D01*
G01X10676106Y-3811804D01*
G01X10687536Y-3823234D01*
G01X10698966Y-3829076D01*
G01X10715984Y-3829076D01*
G01X10727414Y-3823234D01*
G01X10738844Y-3811804D01*
G01X10744686Y-3794786D01*
G01X10744686Y-3783356D01*
G01X10738844Y-3766084D01*
G01X10727414Y-3754654D01*
G01X10715984Y-3749066D01*
G01X10698966Y-3749066D01*
G01X10809710Y-3708934D02*
G01X10809710Y-3806216D01*
G01X10815298Y-3823234D01*
G01X10826728Y-3829076D01*
G01X10838158Y-3829076D01*
G01X10792438Y-3749066D02*
G01X10832570Y-3749066D01*
G01X11925931Y-3708934D02*
G01X11925931Y-3829076D01*
G01X11925931Y-3708934D02*
G01X11977493Y-3708934D01*
G01X11994511Y-3714776D01*
G01X12000353Y-3720364D01*
G01X12005941Y-3731794D01*
G01X12005941Y-3749066D01*
G01X12000353Y-3760496D01*
G01X11994511Y-3766084D01*
G01X11977493Y-3771926D01*
G01X11925931Y-3771926D01*
G01X12122273Y-3749066D02*
G01X12122273Y-3829076D01*
G01X12122273Y-3766084D02*
G01X12110843Y-3754654D01*
G01X12099413Y-3749066D01*
G01X12082395Y-3749066D01*
G01X12070965Y-3754654D01*
G01X12059535Y-3766084D01*
G01X12053693Y-3783356D01*
G01X12053693Y-3794786D01*
G01X12059535Y-3811804D01*
G01X12070965Y-3823234D01*
G01X12082395Y-3829076D01*
G01X12099413Y-3829076D01*
G01X12110843Y-3823234D01*
G01X12122273Y-3811804D01*
G01X12238605Y-3708934D02*
G01X12238605Y-3829076D01*
G01X12238605Y-3766084D02*
G01X12227175Y-3754654D01*
G01X12215745Y-3749066D01*
G01X12198727Y-3749066D01*
G01X12187297Y-3754654D01*
G01X12175867Y-3766084D01*
G01X12170025Y-3783356D01*
G01X12170025Y-3794786D01*
G01X12175867Y-3811804D01*
G01X12187297Y-3823234D01*
G01X12198727Y-3829076D01*
G01X12215745Y-3829076D01*
G01X12227175Y-3823234D01*
G01X12238605Y-3811804D01*
G01X13595110Y-3708934D02*
G01X13595110Y-3829076D01*
G01X13595110Y-3708934D02*
G01X13646672Y-3708934D01*
G01X13663690Y-3714776D01*
G01X13669532Y-3720364D01*
G01X13675120Y-3731794D01*
G01X13675120Y-3743224D01*
G01X13669532Y-3754654D01*
G01X13663690Y-3760496D01*
G01X13646672Y-3766084D01*
G01X13595110Y-3766084D01*
G01X13635242Y-3766084D02*
G01X13675120Y-3829076D01*
G01X13751574Y-3749066D02*
G01X13740144Y-3754654D01*
G01X13728714Y-3766084D01*
G01X13722872Y-3783356D01*
G01X13722872Y-3794786D01*
G01X13728714Y-3811804D01*
G01X13740144Y-3823234D01*
G01X13751574Y-3829076D01*
G01X13768592Y-3829076D01*
G01X13780022Y-3823234D01*
G01X13791452Y-3811804D01*
G01X13797294Y-3794786D01*
G01X13797294Y-3783356D01*
G01X13791452Y-3766084D01*
G01X13780022Y-3754654D01*
G01X13768592Y-3749066D01*
G01X13751574Y-3749066D01*
G01X13845046Y-3749066D02*
G01X13845046Y-3806216D01*
G01X13850888Y-3823234D01*
G01X13862318Y-3829076D01*
G01X13879336Y-3829076D01*
G01X13890766Y-3823234D01*
G01X13908038Y-3806216D01*
G01X13908038Y-3749066D02*
G01X13908038Y-3829076D01*
G01X13955790Y-3749066D02*
G01X13955790Y-3829076D01*
G01X13955790Y-3771926D02*
G01X13973062Y-3754654D01*
G01X13984492Y-3749066D01*
G01X14001510Y-3749066D01*
G01X14012940Y-3754654D01*
G01X14018782Y-3771926D01*
G01X14018782Y-3829076D01*
G01X14135114Y-3708934D02*
G01X14135114Y-3829076D01*
G01X14135114Y-3766084D02*
G01X14123684Y-3754654D01*
G01X14112254Y-3749066D01*
G01X14095236Y-3749066D01*
G01X14083806Y-3754654D01*
G01X14072376Y-3766084D01*
G01X14066534Y-3783356D01*
G01X14066534Y-3794786D01*
G01X14072376Y-3811804D01*
G01X14083806Y-3823234D01*
G01X14095236Y-3829076D01*
G01X14112254Y-3829076D01*
G01X14123684Y-3823234D01*
G01X14135114Y-3811804D01*
G01X15554611Y-3708934D02*
G01X15554611Y-3829076D01*
G01X15514479Y-3708934D02*
G01X15594489Y-3708934D01*
G01X15670943Y-3749066D02*
G01X15659513Y-3754654D01*
G01X15648083Y-3766084D01*
G01X15642241Y-3783356D01*
G01X15642241Y-3794786D01*
G01X15648083Y-3811804D01*
G01X15659513Y-3823234D01*
G01X15670943Y-3829076D01*
G01X15687961Y-3829076D01*
G01X15699391Y-3823234D01*
G01X15710821Y-3811804D01*
G01X15716663Y-3794786D01*
G01X15716663Y-3783356D01*
G01X15710821Y-3766084D01*
G01X15699391Y-3754654D01*
G01X15687961Y-3749066D01*
G01X15670943Y-3749066D01*
G01X15764415Y-3749066D02*
G01X15764415Y-3868954D01*
G01X15764415Y-3766084D02*
G01X15775845Y-3754654D01*
G01X15787275Y-3749066D01*
G01X15804547Y-3749066D01*
G01X15815977Y-3754654D01*
G01X15827407Y-3766084D01*
G01X15832995Y-3783356D01*
G01X15832995Y-3794786D01*
G01X15827407Y-3811804D01*
G01X15815977Y-3823234D01*
G01X15804547Y-3829076D01*
G01X15787275Y-3829076D01*
G01X15775845Y-3823234D01*
G01X15764415Y-3811804D01*
G01X16008763Y-3708934D02*
G01X16008763Y-3829076D01*
G01X16008763Y-3829076D02*
G01X16077343Y-3829076D01*
G01X16193675Y-3749066D02*
G01X16193675Y-3829076D01*
G01X16193675Y-3766084D02*
G01X16182245Y-3754654D01*
G01X16170815Y-3749066D01*
G01X16153797Y-3749066D01*
G01X16142367Y-3754654D01*
G01X16130937Y-3766084D01*
G01X16125095Y-3783356D01*
G01X16125095Y-3794786D01*
G01X16130937Y-3811804D01*
G01X16142367Y-3823234D01*
G01X16153797Y-3829076D01*
G01X16170815Y-3829076D01*
G01X16182245Y-3823234D01*
G01X16193675Y-3811804D01*
G01X16247269Y-3749066D02*
G01X16281559Y-3829076D01*
G01X16315849Y-3749066D02*
G01X16281559Y-3829076D01*
G01X16270129Y-3851936D01*
G01X16258699Y-3863366D01*
G01X16247269Y-3868954D01*
G01X16241427Y-3868954D01*
G01X16363601Y-3783356D02*
G01X16432181Y-3783356D01*
G01X16432181Y-3771926D01*
G01X16426593Y-3760496D01*
G01X16420751Y-3754654D01*
G01X16409321Y-3749066D01*
G01X16392303Y-3749066D01*
G01X16380873Y-3754654D01*
G01X16369443Y-3766084D01*
G01X16363601Y-3783356D01*
G01X16363601Y-3794786D01*
G01X16369443Y-3811804D01*
G01X16380873Y-3823234D01*
G01X16392303Y-3829076D01*
G01X16409321Y-3829076D01*
G01X16420751Y-3823234D01*
G01X16432181Y-3811804D01*
G01X16479933Y-3749066D02*
G01X16479933Y-3829076D01*
G01X16479933Y-3783356D02*
G01X16485775Y-3766084D01*
G01X16497205Y-3754654D01*
G01X16508635Y-3749066D01*
G01X16525653Y-3749066D01*
G01X16573405Y-3777514D02*
G01X16676275Y-3777514D01*
G01X16724027Y-3708934D02*
G01X16724027Y-3829076D01*
G01X16724027Y-3708934D02*
G01X16775589Y-3708934D01*
G01X16792607Y-3714776D01*
G01X16798449Y-3720364D01*
G01X16804037Y-3731794D01*
G01X16804037Y-3743224D01*
G01X16798449Y-3754654D01*
G01X16792607Y-3760496D01*
G01X16775589Y-3766084D01*
G01X16724027Y-3766084D02*
G01X16775589Y-3766084D01*
G01X16792607Y-3771926D01*
G01X16798449Y-3777514D01*
G01X16804037Y-3788944D01*
G01X16804037Y-3806216D01*
G01X16798449Y-3817646D01*
G01X16792607Y-3823234D01*
G01X16775589Y-3829076D01*
G01X16724027Y-3829076D01*
G01X16880491Y-3749066D02*
G01X16869061Y-3754654D01*
G01X16857631Y-3766084D01*
G01X16851789Y-3783356D01*
G01X16851789Y-3794786D01*
G01X16857631Y-3811804D01*
G01X16869061Y-3823234D01*
G01X16880491Y-3829076D01*
G01X16897509Y-3829076D01*
G01X16908939Y-3823234D01*
G01X16920369Y-3811804D01*
G01X16926211Y-3794786D01*
G01X16926211Y-3783356D01*
G01X16920369Y-3766084D01*
G01X16908939Y-3754654D01*
G01X16897509Y-3749066D01*
G01X16880491Y-3749066D01*
G01X16991235Y-3708934D02*
G01X16991235Y-3806216D01*
G01X16996823Y-3823234D01*
G01X17008253Y-3829076D01*
G01X17019683Y-3829076D01*
G01X16973963Y-3749066D02*
G01X17014095Y-3749066D01*
G01X17084707Y-3708934D02*
G01X17084707Y-3806216D01*
G01X17090295Y-3823234D01*
G01X17101725Y-3829076D01*
G01X17113155Y-3829076D01*
G01X17067435Y-3749066D02*
G01X17107567Y-3749066D01*
G01X17189609Y-3749066D02*
G01X17178179Y-3754654D01*
G01X17166749Y-3766084D01*
G01X17160907Y-3783356D01*
G01X17160907Y-3794786D01*
G01X17166749Y-3811804D01*
G01X17178179Y-3823234D01*
G01X17189609Y-3829076D01*
G01X17206627Y-3829076D01*
G01X17218057Y-3823234D01*
G01X17229487Y-3811804D01*
G01X17235329Y-3794786D01*
G01X17235329Y-3783356D01*
G01X17229487Y-3766084D01*
G01X17218057Y-3754654D01*
G01X17206627Y-3749066D01*
G01X17189609Y-3749066D01*
G01X17283081Y-3749066D02*
G01X17283081Y-3829076D01*
G01X17283081Y-3771926D02*
G01X17300353Y-3754654D01*
G01X17311783Y-3749066D01*
G01X17328801Y-3749066D01*
G01X17340231Y-3754654D01*
G01X17346073Y-3771926D01*
G01X17346073Y-3829076D01*
G01X17346073Y-3771926D02*
G01X17363091Y-3754654D01*
G01X17374521Y-3749066D01*
G01X17391793Y-3749066D01*
G01X17403223Y-3754654D01*
G01X17408811Y-3771926D01*
G01X17408811Y-3829076D01*
G01X17584579Y-3708934D02*
G01X17584579Y-3829076D01*
G01X17584579Y-3829076D02*
G01X17653159Y-3829076D01*
G01X17769491Y-3749066D02*
G01X17769491Y-3829076D01*
G01X17769491Y-3766084D02*
G01X17758061Y-3754654D01*
G01X17746631Y-3749066D01*
G01X17729613Y-3749066D01*
G01X17718183Y-3754654D01*
G01X17706753Y-3766084D01*
G01X17700911Y-3783356D01*
G01X17700911Y-3794786D01*
G01X17706753Y-3811804D01*
G01X17718183Y-3823234D01*
G01X17729613Y-3829076D01*
G01X17746631Y-3829076D01*
G01X17758061Y-3823234D01*
G01X17769491Y-3811804D01*
G01X17823085Y-3749066D02*
G01X17857375Y-3829076D01*
G01X17891665Y-3749066D02*
G01X17857375Y-3829076D01*
G01X17845945Y-3851936D01*
G01X17834515Y-3863366D01*
G01X17823085Y-3868954D01*
G01X17817243Y-3868954D01*
G01X17939417Y-3783356D02*
G01X18007997Y-3783356D01*
G01X18007997Y-3771926D01*
G01X18002409Y-3760496D01*
G01X17996567Y-3754654D01*
G01X17985137Y-3749066D01*
G01X17968119Y-3749066D01*
G01X17956689Y-3754654D01*
G01X17945259Y-3766084D01*
G01X17939417Y-3783356D01*
G01X17939417Y-3794786D01*
G01X17945259Y-3811804D01*
G01X17956689Y-3823234D01*
G01X17968119Y-3829076D01*
G01X17985137Y-3829076D01*
G01X17996567Y-3823234D01*
G01X18007997Y-3811804D01*
G01X18055749Y-3749066D02*
G01X18055749Y-3829076D01*
G01X18055749Y-3783356D02*
G01X18061591Y-3766084D01*
G01X18073021Y-3754654D01*
G01X18084451Y-3749066D01*
G01X18101469Y-3749066D01*
G01X3748074Y-4312366D02*
G01X3759504Y-4306778D01*
G01X3776776Y-4289506D01*
G01X3776776Y-4409648D01*
G01X3824528Y-4312366D02*
G01X3835958Y-4306778D01*
G01X3853230Y-4289506D01*
G01X3853230Y-4409648D01*
G01X3935272Y-4289506D02*
G01X3918254Y-4295348D01*
G01X3906824Y-4312366D01*
G01X3900982Y-4341068D01*
G01X3900982Y-4358086D01*
G01X3906824Y-4386788D01*
G01X3918254Y-4403806D01*
G01X3935272Y-4409648D01*
G01X3946702Y-4409648D01*
G01X3963974Y-4403806D01*
G01X3975404Y-4386788D01*
G01X3980992Y-4358086D01*
G01X3980992Y-4341068D01*
G01X3975404Y-4312366D01*
G01X3963974Y-4295348D01*
G01X3946702Y-4289506D01*
G01X3935272Y-4289506D01*
G01X5162238Y-4312366D02*
G01X5173668Y-4306778D01*
G01X5190940Y-4289506D01*
G01X5190940Y-4409648D01*
G01X5244534Y-4318208D02*
G01X5244534Y-4312366D01*
G01X5250122Y-4300936D01*
G01X5255964Y-4295348D01*
G01X5267394Y-4289506D01*
G01X5290254Y-4289506D01*
G01X5301684Y-4295348D01*
G01X5307272Y-4300936D01*
G01X5313114Y-4312366D01*
G01X5313114Y-4323796D01*
G01X5307272Y-4335226D01*
G01X5295842Y-4352498D01*
G01X5238692Y-4409648D01*
G01X5318702Y-4409648D01*
G01X5372296Y-4380946D02*
G01X5366454Y-4386788D01*
G01X5372296Y-4392376D01*
G01X5377884Y-4386788D01*
G01X5372296Y-4380946D01*
G01X5459926Y-4289506D02*
G01X5442908Y-4295348D01*
G01X5431478Y-4312366D01*
G01X5425636Y-4341068D01*
G01X5425636Y-4358086D01*
G01X5431478Y-4386788D01*
G01X5442908Y-4403806D01*
G01X5459926Y-4409648D01*
G01X5471356Y-4409648D01*
G01X5488628Y-4403806D01*
G01X5500058Y-4386788D01*
G01X5505646Y-4358086D01*
G01X5505646Y-4341068D01*
G01X5500058Y-4312366D01*
G01X5488628Y-4295348D01*
G01X5471356Y-4289506D01*
G01X5459926Y-4289506D01*
G01X5553398Y-4329638D02*
G01X5553398Y-4409648D01*
G01X5553398Y-4352498D02*
G01X5570670Y-4335226D01*
G01X5582100Y-4329638D01*
G01X5599118Y-4329638D01*
G01X5610548Y-4335226D01*
G01X5616390Y-4352498D01*
G01X5616390Y-4409648D01*
G01X5616390Y-4352498D02*
G01X5633408Y-4335226D01*
G01X5644838Y-4329638D01*
G01X5662110Y-4329638D01*
G01X5673540Y-4335226D01*
G01X5679128Y-4352498D01*
G01X5679128Y-4409648D01*
G01X5726880Y-4289506D02*
G01X5732722Y-4295348D01*
G01X5738310Y-4289506D01*
G01X5732722Y-4283918D01*
G01X5726880Y-4289506D01*
G01X5732722Y-4329638D02*
G01X5732722Y-4409648D01*
G01X5786062Y-4289506D02*
G01X5786062Y-4409648D01*
G01X5873946Y-4266646D02*
G01X5862516Y-4278076D01*
G01X5851086Y-4295348D01*
G01X5839656Y-4318208D01*
G01X5833814Y-4346656D01*
G01X5833814Y-4369516D01*
G01X5839656Y-4398218D01*
G01X5851086Y-4421078D01*
G01X5862516Y-4438096D01*
G01X5873946Y-4449526D01*
G01X5955988Y-4289506D02*
G01X5938970Y-4295348D01*
G01X5927540Y-4312366D01*
G01X5921698Y-4341068D01*
G01X5921698Y-4358086D01*
G01X5927540Y-4386788D01*
G01X5938970Y-4403806D01*
G01X5955988Y-4409648D01*
G01X5967418Y-4409648D01*
G01X5984690Y-4403806D01*
G01X5996120Y-4386788D01*
G01X6001708Y-4358086D01*
G01X6001708Y-4341068D01*
G01X5996120Y-4312366D01*
G01X5984690Y-4295348D01*
G01X5967418Y-4289506D01*
G01X5955988Y-4289506D01*
G01X6055302Y-4380946D02*
G01X6049460Y-4386788D01*
G01X6055302Y-4392376D01*
G01X6060890Y-4386788D01*
G01X6055302Y-4380946D01*
G01X6120072Y-4289506D02*
G01X6183064Y-4289506D01*
G01X6148774Y-4335226D01*
G01X6165792Y-4335226D01*
G01X6177222Y-4341068D01*
G01X6183064Y-4346656D01*
G01X6188652Y-4363928D01*
G01X6188652Y-4375358D01*
G01X6183064Y-4392376D01*
G01X6171634Y-4403806D01*
G01X6154362Y-4409648D01*
G01X6137344Y-4409648D01*
G01X6120072Y-4403806D01*
G01X6114484Y-4398218D01*
G01X6108642Y-4386788D01*
G01X6270694Y-4289506D02*
G01X6253676Y-4295348D01*
G01X6242246Y-4312366D01*
G01X6236404Y-4341068D01*
G01X6236404Y-4358086D01*
G01X6242246Y-4386788D01*
G01X6253676Y-4403806D01*
G01X6270694Y-4409648D01*
G01X6282124Y-4409648D01*
G01X6299396Y-4403806D01*
G01X6310826Y-4386788D01*
G01X6316414Y-4358086D01*
G01X6316414Y-4341068D01*
G01X6310826Y-4312366D01*
G01X6299396Y-4295348D01*
G01X6282124Y-4289506D01*
G01X6270694Y-4289506D01*
G01X6432746Y-4289506D02*
G01X6375596Y-4289506D01*
G01X6370008Y-4341068D01*
G01X6375596Y-4335226D01*
G01X6392868Y-4329638D01*
G01X6409886Y-4329638D01*
G01X6427158Y-4335226D01*
G01X6438588Y-4346656D01*
G01X6444176Y-4363928D01*
G01X6444176Y-4375358D01*
G01X6438588Y-4392376D01*
G01X6427158Y-4403806D01*
G01X6409886Y-4409648D01*
G01X6392868Y-4409648D01*
G01X6375596Y-4403806D01*
G01X6370008Y-4398218D01*
G01X6364166Y-4386788D01*
G01X6491928Y-4329638D02*
G01X6491928Y-4409648D01*
G01X6491928Y-4352498D02*
G01X6509200Y-4335226D01*
G01X6520630Y-4329638D01*
G01X6537648Y-4329638D01*
G01X6549078Y-4335226D01*
G01X6554920Y-4352498D01*
G01X6554920Y-4409648D01*
G01X6554920Y-4352498D02*
G01X6571938Y-4335226D01*
G01X6583368Y-4329638D01*
G01X6600640Y-4329638D01*
G01X6612070Y-4335226D01*
G01X6617658Y-4352498D01*
G01X6617658Y-4409648D01*
G01X6665410Y-4329638D02*
G01X6665410Y-4409648D01*
G01X6665410Y-4352498D02*
G01X6682682Y-4335226D01*
G01X6694112Y-4329638D01*
G01X6711130Y-4329638D01*
G01X6722560Y-4335226D01*
G01X6728402Y-4352498D01*
G01X6728402Y-4409648D01*
G01X6728402Y-4352498D02*
G01X6745420Y-4335226D01*
G01X6756850Y-4329638D01*
G01X6774122Y-4329638D01*
G01X6785552Y-4335226D01*
G01X6791140Y-4352498D01*
G01X6791140Y-4409648D01*
G01X6838892Y-4266646D02*
G01X6850322Y-4278076D01*
G01X6861752Y-4295348D01*
G01X6873182Y-4318208D01*
G01X6879024Y-4346656D01*
G01X6879024Y-4369516D01*
G01X6873182Y-4398218D01*
G01X6861752Y-4421078D01*
G01X6850322Y-4438096D01*
G01X6838892Y-4449526D01*
G01X9033343Y-4289506D02*
G01X9033343Y-4409648D01*
G01X9033343Y-4289506D02*
G01X9084905Y-4289506D01*
G01X9101923Y-4295348D01*
G01X9107765Y-4300936D01*
G01X9113353Y-4312366D01*
G01X9113353Y-4329638D01*
G01X9107765Y-4341068D01*
G01X9101923Y-4346656D01*
G01X9084905Y-4352498D01*
G01X9033343Y-4352498D01*
G01X9201237Y-4289506D02*
G01X9201237Y-4409648D01*
G01X9161105Y-4289506D02*
G01X9241115Y-4289506D01*
G01X9288867Y-4289506D02*
G01X9288867Y-4409648D01*
G01X9368877Y-4289506D02*
G01X9368877Y-4409648D01*
G01X9288867Y-4346656D02*
G01X9368877Y-4346656D01*
G01X10494750Y-4289506D02*
G01X10494750Y-4409648D01*
G01X10494750Y-4289506D02*
G01X10546312Y-4289506D01*
G01X10563330Y-4295348D01*
G01X10569172Y-4300936D01*
G01X10574760Y-4312366D01*
G01X10574760Y-4323796D01*
G01X10569172Y-4335226D01*
G01X10563330Y-4341068D01*
G01X10546312Y-4346656D01*
G01X10494750Y-4346656D01*
G01X10534882Y-4346656D02*
G01X10574760Y-4409648D01*
G01X10651214Y-4329638D02*
G01X10639784Y-4335226D01*
G01X10628354Y-4346656D01*
G01X10622512Y-4363928D01*
G01X10622512Y-4375358D01*
G01X10628354Y-4392376D01*
G01X10639784Y-4403806D01*
G01X10651214Y-4409648D01*
G01X10668232Y-4409648D01*
G01X10679662Y-4403806D01*
G01X10691092Y-4392376D01*
G01X10696934Y-4375358D01*
G01X10696934Y-4363928D01*
G01X10691092Y-4346656D01*
G01X10679662Y-4335226D01*
G01X10668232Y-4329638D01*
G01X10651214Y-4329638D01*
G01X10744686Y-4329638D02*
G01X10744686Y-4386788D01*
G01X10750528Y-4403806D01*
G01X10761958Y-4409648D01*
G01X10778976Y-4409648D01*
G01X10790406Y-4403806D01*
G01X10807678Y-4386788D01*
G01X10807678Y-4329638D02*
G01X10807678Y-4409648D01*
G01X10855430Y-4329638D02*
G01X10855430Y-4409648D01*
G01X10855430Y-4352498D02*
G01X10872702Y-4335226D01*
G01X10884132Y-4329638D01*
G01X10901150Y-4329638D01*
G01X10912580Y-4335226D01*
G01X10918422Y-4352498D01*
G01X10918422Y-4409648D01*
G01X11034754Y-4289506D02*
G01X11034754Y-4409648D01*
G01X11034754Y-4346656D02*
G01X11023324Y-4335226D01*
G01X11011894Y-4329638D01*
G01X10994876Y-4329638D01*
G01X10983446Y-4335226D01*
G01X10972016Y-4346656D01*
G01X10966174Y-4363928D01*
G01X10966174Y-4375358D01*
G01X10972016Y-4392376D01*
G01X10983446Y-4403806D01*
G01X10994876Y-4409648D01*
G01X11011894Y-4409648D01*
G01X11023324Y-4403806D01*
G01X11034754Y-4392376D01*
G01X11925931Y-4289506D02*
G01X11971651Y-4409648D01*
G01X12017371Y-4289506D02*
G01X11971651Y-4409648D01*
G01X12065123Y-4289506D02*
G01X12070965Y-4295348D01*
G01X12076553Y-4289506D01*
G01X12070965Y-4283918D01*
G01X12065123Y-4289506D01*
G01X12070965Y-4329638D02*
G01X12070965Y-4409648D01*
G01X12192885Y-4329638D02*
G01X12192885Y-4409648D01*
G01X12192885Y-4346656D02*
G01X12181455Y-4335226D01*
G01X12170025Y-4329638D01*
G01X12153007Y-4329638D01*
G01X12141577Y-4335226D01*
G01X12130147Y-4346656D01*
G01X12124305Y-4363928D01*
G01X12124305Y-4375358D01*
G01X12130147Y-4392376D01*
G01X12141577Y-4403806D01*
G01X12153007Y-4409648D01*
G01X12170025Y-4409648D01*
G01X12181455Y-4403806D01*
G01X12192885Y-4392376D01*
G01X15554611Y-4289506D02*
G01X15554611Y-4409648D01*
G01X15514479Y-4289506D02*
G01X15594489Y-4289506D01*
G01X15670943Y-4329638D02*
G01X15659513Y-4335226D01*
G01X15648083Y-4346656D01*
G01X15642241Y-4363928D01*
G01X15642241Y-4375358D01*
G01X15648083Y-4392376D01*
G01X15659513Y-4403806D01*
G01X15670943Y-4409648D01*
G01X15687961Y-4409648D01*
G01X15699391Y-4403806D01*
G01X15710821Y-4392376D01*
G01X15716663Y-4375358D01*
G01X15716663Y-4363928D01*
G01X15710821Y-4346656D01*
G01X15699391Y-4335226D01*
G01X15687961Y-4329638D01*
G01X15670943Y-4329638D01*
G01X15764415Y-4329638D02*
G01X15764415Y-4449526D01*
G01X15764415Y-4346656D02*
G01X15775845Y-4335226D01*
G01X15787275Y-4329638D01*
G01X15804547Y-4329638D01*
G01X15815977Y-4335226D01*
G01X15827407Y-4346656D01*
G01X15832995Y-4363928D01*
G01X15832995Y-4375358D01*
G01X15827407Y-4392376D01*
G01X15815977Y-4403806D01*
G01X15804547Y-4409648D01*
G01X15787275Y-4409648D01*
G01X15775845Y-4403806D01*
G01X15764415Y-4392376D01*
G01X16008763Y-4289506D02*
G01X16008763Y-4409648D01*
G01X16008763Y-4409648D02*
G01X16077343Y-4409648D01*
G01X16193675Y-4329638D02*
G01X16193675Y-4409648D01*
G01X16193675Y-4346656D02*
G01X16182245Y-4335226D01*
G01X16170815Y-4329638D01*
G01X16153797Y-4329638D01*
G01X16142367Y-4335226D01*
G01X16130937Y-4346656D01*
G01X16125095Y-4363928D01*
G01X16125095Y-4375358D01*
G01X16130937Y-4392376D01*
G01X16142367Y-4403806D01*
G01X16153797Y-4409648D01*
G01X16170815Y-4409648D01*
G01X16182245Y-4403806D01*
G01X16193675Y-4392376D01*
G01X16247269Y-4329638D02*
G01X16281559Y-4409648D01*
G01X16315849Y-4329638D02*
G01X16281559Y-4409648D01*
G01X16270129Y-4432508D01*
G01X16258699Y-4443938D01*
G01X16247269Y-4449526D01*
G01X16241427Y-4449526D01*
G01X16363601Y-4363928D02*
G01X16432181Y-4363928D01*
G01X16432181Y-4352498D01*
G01X16426593Y-4341068D01*
G01X16420751Y-4335226D01*
G01X16409321Y-4329638D01*
G01X16392303Y-4329638D01*
G01X16380873Y-4335226D01*
G01X16369443Y-4346656D01*
G01X16363601Y-4363928D01*
G01X16363601Y-4375358D01*
G01X16369443Y-4392376D01*
G01X16380873Y-4403806D01*
G01X16392303Y-4409648D01*
G01X16409321Y-4409648D01*
G01X16420751Y-4403806D01*
G01X16432181Y-4392376D01*
G01X16479933Y-4329638D02*
G01X16479933Y-4409648D01*
G01X16479933Y-4363928D02*
G01X16485775Y-4346656D01*
G01X16497205Y-4335226D01*
G01X16508635Y-4329638D01*
G01X16525653Y-4329638D01*
G01X16573405Y-4358086D02*
G01X16676275Y-4358086D01*
G01X16724027Y-4289506D02*
G01X16724027Y-4409648D01*
G01X16724027Y-4289506D02*
G01X16775589Y-4289506D01*
G01X16792607Y-4295348D01*
G01X16798449Y-4300936D01*
G01X16804037Y-4312366D01*
G01X16804037Y-4323796D01*
G01X16798449Y-4335226D01*
G01X16792607Y-4341068D01*
G01X16775589Y-4346656D01*
G01X16724027Y-4346656D02*
G01X16775589Y-4346656D01*
G01X16792607Y-4352498D01*
G01X16798449Y-4358086D01*
G01X16804037Y-4369516D01*
G01X16804037Y-4386788D01*
G01X16798449Y-4398218D01*
G01X16792607Y-4403806D01*
G01X16775589Y-4409648D01*
G01X16724027Y-4409648D01*
G01X16880491Y-4329638D02*
G01X16869061Y-4335226D01*
G01X16857631Y-4346656D01*
G01X16851789Y-4363928D01*
G01X16851789Y-4375358D01*
G01X16857631Y-4392376D01*
G01X16869061Y-4403806D01*
G01X16880491Y-4409648D01*
G01X16897509Y-4409648D01*
G01X16908939Y-4403806D01*
G01X16920369Y-4392376D01*
G01X16926211Y-4375358D01*
G01X16926211Y-4363928D01*
G01X16920369Y-4346656D01*
G01X16908939Y-4335226D01*
G01X16897509Y-4329638D01*
G01X16880491Y-4329638D01*
G01X16991235Y-4289506D02*
G01X16991235Y-4386788D01*
G01X16996823Y-4403806D01*
G01X17008253Y-4409648D01*
G01X17019683Y-4409648D01*
G01X16973963Y-4329638D02*
G01X17014095Y-4329638D01*
G01X17084707Y-4289506D02*
G01X17084707Y-4386788D01*
G01X17090295Y-4403806D01*
G01X17101725Y-4409648D01*
G01X17113155Y-4409648D01*
G01X17067435Y-4329638D02*
G01X17107567Y-4329638D01*
G01X17189609Y-4329638D02*
G01X17178179Y-4335226D01*
G01X17166749Y-4346656D01*
G01X17160907Y-4363928D01*
G01X17160907Y-4375358D01*
G01X17166749Y-4392376D01*
G01X17178179Y-4403806D01*
G01X17189609Y-4409648D01*
G01X17206627Y-4409648D01*
G01X17218057Y-4403806D01*
G01X17229487Y-4392376D01*
G01X17235329Y-4375358D01*
G01X17235329Y-4363928D01*
G01X17229487Y-4346656D01*
G01X17218057Y-4335226D01*
G01X17206627Y-4329638D01*
G01X17189609Y-4329638D01*
G01X17283081Y-4329638D02*
G01X17283081Y-4409648D01*
G01X17283081Y-4352498D02*
G01X17300353Y-4335226D01*
G01X17311783Y-4329638D01*
G01X17328801Y-4329638D01*
G01X17340231Y-4335226D01*
G01X17346073Y-4352498D01*
G01X17346073Y-4409648D01*
G01X17346073Y-4352498D02*
G01X17363091Y-4335226D01*
G01X17374521Y-4329638D01*
G01X17391793Y-4329638D01*
G01X17403223Y-4335226D01*
G01X17408811Y-4352498D01*
G01X17408811Y-4409648D01*
G01X17584579Y-4289506D02*
G01X17584579Y-4409648D01*
G01X17584579Y-4409648D02*
G01X17653159Y-4409648D01*
G01X17769491Y-4329638D02*
G01X17769491Y-4409648D01*
G01X17769491Y-4346656D02*
G01X17758061Y-4335226D01*
G01X17746631Y-4329638D01*
G01X17729613Y-4329638D01*
G01X17718183Y-4335226D01*
G01X17706753Y-4346656D01*
G01X17700911Y-4363928D01*
G01X17700911Y-4375358D01*
G01X17706753Y-4392376D01*
G01X17718183Y-4403806D01*
G01X17729613Y-4409648D01*
G01X17746631Y-4409648D01*
G01X17758061Y-4403806D01*
G01X17769491Y-4392376D01*
G01X17823085Y-4329638D02*
G01X17857375Y-4409648D01*
G01X17891665Y-4329638D02*
G01X17857375Y-4409648D01*
G01X17845945Y-4432508D01*
G01X17834515Y-4443938D01*
G01X17823085Y-4449526D01*
G01X17817243Y-4449526D01*
G01X17939417Y-4363928D02*
G01X18007997Y-4363928D01*
G01X18007997Y-4352498D01*
G01X18002409Y-4341068D01*
G01X17996567Y-4335226D01*
G01X17985137Y-4329638D01*
G01X17968119Y-4329638D01*
G01X17956689Y-4335226D01*
G01X17945259Y-4346656D01*
G01X17939417Y-4363928D01*
G01X17939417Y-4375358D01*
G01X17945259Y-4392376D01*
G01X17956689Y-4403806D01*
G01X17968119Y-4409648D01*
G01X17985137Y-4409648D01*
G01X17996567Y-4403806D01*
G01X18007997Y-4392376D01*
G01X18055749Y-4329638D02*
G01X18055749Y-4409648D01*
G01X18055749Y-4363928D02*
G01X18061591Y-4346656D01*
G01X18073021Y-4335226D01*
G01X18084451Y-4329638D01*
G01X18101469Y-4329638D01*

G04 Image Start*
G36*
G01X2583463Y-2728404D02*
G01X2477849Y-2716923D01*
G01X2434974Y-2814129D01*
G01X2392099Y-2716923D01*
G01X2286486Y-2728404D01*
G01X2349249Y-2642679D01*
G01X2309527Y-2588424D01*
G01X2341020Y-2588424D01*
G01X2380720Y-2642679D01*
G01X2341020Y-2696933D01*
G01X2407847Y-2689669D01*
G01X2407847Y-2689669D01*
G01X2434974Y-2751162D01*
G01X2462101Y-2689669D01*
G01X2528929Y-2696933D01*
G01X2489229Y-2642679D01*
G01X2528903Y-2588450D01*
G01X2462076Y-2595714D01*
G01X2434974Y-2534195D01*
G01X2407847Y-2595689D01*
G01X2341020Y-2588424D01*
G01X2309527Y-2588424D01*
G01X2286486Y-2556954D01*
G01X2392124Y-2568434D01*
G01X2434974Y-2471229D01*
G01X2477849Y-2568434D01*
G01X2583463Y-2556954D01*
G01X2520699Y-2642679D01*
G01X2583463Y-2728404D01*
G37*
G36*
G01X2454469Y-1614099D02*
G01X2446729Y-1614688D01*
G01X2438886Y-1614886D01*
G01X2431043Y-1614688D01*
G01X2423303Y-1614099D01*
G01X2415675Y-1613130D01*
G01X2408170Y-1611790D01*
G01X2393564Y-1608035D01*
G01X2379562Y-1602911D01*
G01X2366240Y-1596493D01*
G01X2353674Y-1588860D01*
G01X2341942Y-1580087D01*
G01X2331120Y-1570252D01*
G01X2321284Y-1559429D01*
G01X2312511Y-1547697D01*
G01X2304878Y-1535132D01*
G01X2298461Y-1521810D01*
G01X2293337Y-1507808D01*
G01X2289582Y-1493202D01*
G01X2288242Y-1485697D01*
G01X2287273Y-1478069D01*
G01X2286684Y-1470329D01*
G01X2286486Y-1462486D01*
G01X2311886Y-1462486D01*
G01X2312543Y-1475452D01*
G01X2314471Y-1488048D01*
G01X2317605Y-1500210D01*
G01X2321882Y-1511873D01*
G01X2327237Y-1522972D01*
G01X2333605Y-1533443D01*
G01X2340923Y-1543223D01*
G01X2349125Y-1552246D01*
G01X2358149Y-1560449D01*
G01X2367928Y-1567767D01*
G01X2378400Y-1574135D01*
G01X2389499Y-1579490D01*
G01X2401162Y-1583767D01*
G01X2413323Y-1586901D01*
G01X2413323Y-1586901D01*
G01X2425919Y-1588829D01*
G01X2438886Y-1589486D01*
G01X2451852Y-1588829D01*
G01X2464449Y-1586901D01*
G01X2476610Y-1583767D01*
G01X2488273Y-1579490D01*
G01X2499372Y-1574135D01*
G01X2509843Y-1567767D01*
G01X2519623Y-1560449D01*
G01X2528646Y-1552246D01*
G01X2536849Y-1543223D01*
G01X2544167Y-1533443D01*
G01X2550535Y-1522972D01*
G01X2555890Y-1511873D01*
G01X2560167Y-1500210D01*
G01X2563301Y-1488048D01*
G01X2565229Y-1475452D01*
G01X2565886Y-1462486D01*
G01X2565229Y-1449519D01*
G01X2563301Y-1436923D01*
G01X2560167Y-1424762D01*
G01X2555890Y-1413099D01*
G01X2550535Y-1402000D01*
G01X2544167Y-1391528D01*
G01X2536849Y-1381749D01*
G01X2528646Y-1372725D01*
G01X2519623Y-1364523D01*
G01X2509843Y-1357205D01*
G01X2499372Y-1350837D01*
G01X2488273Y-1345482D01*
G01X2476610Y-1341205D01*
G01X2464449Y-1338071D01*
G01X2451852Y-1336143D01*
G01X2438886Y-1335486D01*
G01X2425919Y-1336143D01*
G01X2413323Y-1338071D01*
G01X2401162Y-1341205D01*
G01X2389499Y-1345482D01*
G01X2378400Y-1350837D01*
G01X2367928Y-1357205D01*
G01X2358149Y-1364523D01*
G01X2349125Y-1372725D01*
G01X2340923Y-1381749D01*
G01X2333605Y-1391528D01*
G01X2327237Y-1402000D01*
G01X2321882Y-1413099D01*
G01X2317605Y-1424762D01*
G01X2314471Y-1436923D01*
G01X2312543Y-1449519D01*
G01X2311886Y-1462486D01*
G01X2286486Y-1462486D01*
G01X2286684Y-1454643D01*
G01X2287273Y-1446903D01*
G01X2288242Y-1439275D01*
G01X2289582Y-1431770D01*
G01X2293337Y-1417164D01*
G01X2298461Y-1403162D01*
G01X2304878Y-1389840D01*
G01X2312511Y-1377274D01*
G01X2321284Y-1365542D01*
G01X2331120Y-1354720D01*
G01X2341942Y-1344884D01*
G01X2353674Y-1336111D01*
G01X2366240Y-1328478D01*
G01X2379562Y-1322061D01*
G01X2393564Y-1316937D01*
G01X2408170Y-1313182D01*
G01X2415675Y-1311842D01*
G01X2423303Y-1310873D01*
G01X2431043Y-1310284D01*
G01X2438886Y-1310086D01*
G01X2446729Y-1310284D01*
G01X2454469Y-1310873D01*
G01X2462097Y-1311842D01*
G01X2469602Y-1313182D01*
G01X2484208Y-1316937D01*
G01X2498210Y-1322061D01*
G01X2511532Y-1328478D01*
G01X2524097Y-1336111D01*
G01X2535829Y-1344884D01*
G01X2546652Y-1354720D01*
G01X2556488Y-1365542D01*
G01X2565260Y-1377274D01*
G01X2572893Y-1389840D01*
G01X2579311Y-1403162D01*
G01X2584435Y-1417164D01*
G01X2588190Y-1431770D01*
G01X2589530Y-1439275D01*
G01X2590499Y-1446903D01*
G01X2591088Y-1454643D01*
G01X2591286Y-1462486D01*
G01X2591088Y-1470329D01*
G01X2590499Y-1478069D01*
G01X2589530Y-1485697D01*
G01X2588190Y-1493202D01*
G01X2584435Y-1507808D01*
G01X2579311Y-1521810D01*
G01X2572893Y-1535132D01*
G01X2565260Y-1547697D01*
G01X2556488Y-1559429D01*
G01X2546652Y-1570252D01*
G01X2535829Y-1580087D01*
G01X2524097Y-1588860D01*
G01X2511532Y-1596493D01*
G01X2498210Y-1602911D01*
G01X2484208Y-1608035D01*
G01X2469602Y-1611790D01*
G01X2462097Y-1613130D01*
G01X2454469Y-1614099D01*
G37*
G36*
G01X2591286Y-3854037D02*
G01X2508177Y-3854037D01*
G01X2508177Y-3937172D01*
G01X2369620Y-3937172D01*
G01X2369620Y-3854063D01*
G01X2286486Y-3854063D01*
G01X2286486Y-3740906D01*
G01X2311886Y-3740906D01*
G01X2311886Y-3828637D01*
G01X2395020Y-3828637D01*
G01X2395020Y-3911772D01*
G01X2395020Y-3911772D01*
G01X2482752Y-3911772D01*
G01X2482752Y-3828663D01*
G01X2565886Y-3828663D01*
G01X2565886Y-3740906D01*
G01X2482752Y-3740906D01*
G01X2482752Y-3657772D01*
G01X2395020Y-3657772D01*
G01X2395020Y-3740906D01*
G01X2311886Y-3740906D01*
G01X2286486Y-3740906D01*
G01X2286486Y-3715506D01*
G01X2369620Y-3715506D01*
G01X2369620Y-3632372D01*
G01X2508152Y-3632372D01*
G01X2508152Y-3715506D01*
G01X2591286Y-3715506D01*
G01X2591286Y-3854037D01*
G37*
G36*
G01X2591286Y-3051800D02*
G01X2521258Y-3204200D01*
G01X2591286Y-3356600D01*
G01X2438886Y-3286572D01*
G01X2286486Y-3356600D01*
G01X2310249Y-3304886D01*
G01X2338200Y-3304886D01*
G01X2428269Y-3263484D01*
G01X2438886Y-3258607D01*
G01X2449503Y-3263484D01*
G01X2539571Y-3304886D01*
G01X2498169Y-3214817D01*
G01X2493293Y-3204200D01*
G01X2498169Y-3193583D01*
G01X2539571Y-3103514D01*
G01X2449503Y-3144916D01*
G01X2438886Y-3149793D01*
G01X2428269Y-3144916D01*
G01X2338200Y-3103514D01*
G01X2379602Y-3193583D01*
G01X2384479Y-3204200D01*
G01X2384479Y-3204200D01*
G01X2379602Y-3214817D01*
G01X2338200Y-3304886D01*
G01X2310249Y-3304886D01*
G01X2356514Y-3204200D01*
G01X2286486Y-3051800D01*
G01X2438886Y-3121828D01*
G01X2591286Y-3051800D01*
G37*
G36*
G01X2286486Y-1890657D02*
G01X2591286Y-1890657D01*
G01X2438886Y-2154614D01*
G01X2301151Y-1916057D01*
G01X2330479Y-1916057D01*
G01X2438886Y-2103814D01*
G01X2547293Y-1916057D01*
G01X2547293Y-1916057D01*
G01X2330479Y-1916057D01*
G01X2301151Y-1916057D01*
G01X2286486Y-1890657D01*
G37*
G36*
G01X2565886Y-4492343D02*
G01X2464286Y-4492343D01*
G01X2426186Y-4416143D01*
G01X2388086Y-4492343D01*
G01X2286486Y-4492343D01*
G01X2286486Y-4466943D01*
G01X2311886Y-4466943D01*
G01X2372389Y-4466943D01*
G01X2403453Y-4404789D01*
G01X2426186Y-4359349D01*
G01X2448919Y-4404789D01*
G01X2479983Y-4466943D01*
G01X2540486Y-4466943D01*
G01X2540486Y-4406440D01*
G01X2478332Y-4375351D01*
G01X2432891Y-4352643D01*
G01X2478332Y-4329935D01*
G01X2540486Y-4298846D01*
G01X2540486Y-4238343D01*
G01X2479983Y-4238343D01*
G01X2448919Y-4300497D01*
G01X2426186Y-4345937D01*
G01X2403453Y-4300497D01*
G01X2372389Y-4238343D01*
G01X2311886Y-4238343D01*
G01X2311886Y-4298846D01*
G01X2374040Y-4329935D01*
G01X2419480Y-4352643D01*
G01X2374040Y-4375351D01*
G01X2311886Y-4406440D01*
G01X2311886Y-4466943D01*
G01X2311886Y-4466943D01*
G01X2286486Y-4466943D01*
G01X2286486Y-4390743D01*
G01X2362686Y-4352643D01*
G01X2286486Y-4314543D01*
G01X2286486Y-4212943D01*
G01X2388086Y-4212943D01*
G01X2426186Y-4289143D01*
G01X2464286Y-4212943D01*
G01X2565886Y-4212943D01*
G01X2565886Y-4314543D01*
G01X2489686Y-4352643D01*
G01X2565886Y-4390743D01*
G01X2565886Y-4492343D01*
G37*
G36*
G01X2286486Y-729514D02*
G01X2565886Y-729514D01*
G01X2565886Y-1008914D01*
G01X2286486Y-1008914D01*
G01X2286486Y-754914D01*
G01X2311886Y-754914D01*
G01X2311886Y-983514D01*
G01X2540486Y-983514D01*
G01X2540486Y-754914D01*
G01X2540486Y-754914D01*
G01X2311886Y-754914D01*
G01X2286486Y-754914D01*
G01X2286486Y-729514D01*
G37*

G04 PolygonModel Start*
G54D18*
G01X1996200Y-4648372D02*
G01X18692201Y-4648372D01*
G01X1996200Y-4067800D02*
G01X18692201Y-4067800D01*
G01X1996200Y-3487229D02*
G01X18692201Y-3487229D01*
G01X1996200Y-2906657D02*
G01X18692201Y-2906657D01*
G01X1996200Y-2326086D02*
G01X18692201Y-2326086D01*
G01X1996200Y-1745514D02*
G01X18692201Y-1745514D01*
G01X1996200Y-1164943D02*
G01X18692201Y-1164943D01*
G01X1996200Y-584372D02*
G01X18692201Y-584372D01*
G01X1996200Y-3800D02*
G01X18692201Y-3800D01*
G01X1996200Y-3800D02*
G01X1996200Y-4622972D01*
G01X3447629Y-3800D02*
G01X3447629Y-4622972D01*
G01X4861792Y-3800D02*
G01X4861792Y-4622972D01*
G01X8732897Y-3800D02*
G01X8732897Y-4622972D01*
G01X10194304Y-3800D02*
G01X10194304Y-4622972D01*
G01X11625485Y-3800D02*
G01X11625485Y-4622972D01*
G01X13294664Y-3800D02*
G01X13294664Y-4622972D01*
G01X15214034Y-3800D02*
G01X15214034Y-4622972D01*
G01X18692201Y-3800D02*
G01X18692201Y-4622972D01*

M02*

