G04 Layer: BottomLayer*
G04 EasyEDA Pro v3.2.148, 2026-07-06 14:14:55*
G04 Gerber Generator version 0.3*
G04 Scale: 100 percent, Rotated: No, Reflected: No*
G04 Dimensions in millimeters*
G04 Leading zeros omitted, absolute positions, 4 integers and 5 decimals*
G04 Generated by one-click*
G04 Object Configs: Pad,Via,Track,Text,Image,Dimension,BoardOutline,BoardCutout,CopperFilled,SolidRegion,FPCStiffener,Line,PlaneZone,ComponentProperty,ComponentSilkscreen,TearDrop*
G04 Layer Configs: 1,15,16,2,3,4,5,6,7,8,9,10,11,13,14,56*
G04 Copper Areas: 25*
%FSLAX45Y45*%
%MOMM*%
%AMRoundRect*1,1,$1,$2,$3*1,1,$1,$4,$5*1,1,$1,0-$2,0-$3*1,1,$1,0-$4,0-$5*20,1,$1,$2,$3,$4,$5,0*20,1,$1,$4,$5,0-$2,0-$3,0*20,1,$1,0-$2,0-$3,0-$4,0-$5,0*20,1,$1,0-$4,0-$5,$2,$3,0*4,1,4,$2,$3,$4,$5,0-$2,0-$3,0-$4,0-$5,$2,$3,0*%
%ADD10C,0.2032*%
%ADD11C,0.254*%
%ADD12RoundRect,0.3X-4.85X-4.85X-4.85X4.85*%
%ADD13C,4.0*%
%ADD14C,1.7*%
%ADD15R,1.8X1.8*%
%ADD16C,1.8*%
%ADD17C,0.64999*%
%ADD18O,0.89992X2.40005*%
%ADD19O,0.9044X1.70002*%
%ADD20O,0.89992X1.70002*%
%ADD21RoundRect,2.4X-13.8X13.8X13.8X13.8*%
%ADD22C,0.61*%
G75*


G04 Copper Start*
G36*
G01X-39614Y-39614D02*
G01X-39614Y-9967986D01*
G01X-9967986Y-9967986D01*
G01X-9967986Y-9677400D01*
G01X-9938614Y-9677400D01*
G01X-9936597Y-9708180D01*
G01X-9930579Y-9738433D01*
G01X-9920664Y-9767642D01*
G01X-9907021Y-9795307D01*
G01X-9889884Y-9820954D01*
G01X-9869546Y-9844146D01*
G01X-9846354Y-9864484D01*
G01X-9820707Y-9881621D01*
G01X-9793042Y-9895264D01*
G01X-9763833Y-9905179D01*
G01X-9733580Y-9911197D01*
G01X-9702800Y-9913214D01*
G01X-9672020Y-9911197D01*
G01X-9641767Y-9905179D01*
G01X-9612558Y-9895264D01*
G01X-9584893Y-9881621D01*
G01X-9559246Y-9864484D01*
G01X-9536054Y-9844146D01*
G01X-9515716Y-9820954D01*
G01X-9498579Y-9795307D01*
G01X-9484936Y-9767642D01*
G01X-9476062Y-9741500D01*
G01X-3756314Y-9741500D01*
G01X-3754661Y-9754056D01*
G01X-3749815Y-9765757D01*
G01X-3742105Y-9775804D01*
G01X-3731938Y-9785972D01*
G01X-3716919Y-9809199D01*
G01X-3698786Y-9830086D01*
G01X-3677899Y-9848219D01*
G01X-3654672Y-9863238D01*
G01X-3653805Y-9864105D01*
G01X-3643793Y-9871794D01*
G01X-3632136Y-9876639D01*
G01X-3619624Y-9878314D01*
G01X-3600071Y-9883462D01*
G01X-3580093Y-9886573D01*
G01X-3559900Y-9887614D01*
G01X-799900Y-9887614D01*
G01X-779708Y-9886574D01*
G01X-759729Y-9883462D01*
G01X-740177Y-9878314D01*
G01X-685800Y-9878314D01*
G01X-673244Y-9876661D01*
G01X-661543Y-9871814D01*
G01X-651495Y-9864105D01*
G01X-633535Y-9846144D01*
G01X-625825Y-9836096D01*
G01X-620978Y-9824396D01*
G01X-619325Y-9811839D01*
G01X-619325Y-9768474D01*
G01X-610579Y-9743508D01*
G01X-605267Y-9717594D01*
G01X-605126Y-9715500D01*
G01X-515214Y-9715500D01*
G01X-513197Y-9746280D01*
G01X-507179Y-9776533D01*
G01X-497264Y-9805742D01*
G01X-483621Y-9833407D01*
G01X-466484Y-9859054D01*
G01X-446146Y-9882246D01*
G01X-422954Y-9902584D01*
G01X-397307Y-9919721D01*
G01X-369642Y-9933364D01*
G01X-340433Y-9943279D01*
G01X-310180Y-9949297D01*
G01X-279400Y-9951314D01*
G01X-248620Y-9949297D01*
G01X-218367Y-9943279D01*
G01X-189158Y-9933364D01*
G01X-161493Y-9919721D01*
G01X-135846Y-9902584D01*
G01X-112654Y-9882246D01*
G01X-92316Y-9859054D01*
G01X-75179Y-9833407D01*
G01X-61536Y-9805742D01*
G01X-51621Y-9776533D01*
G01X-45603Y-9746280D01*
G01X-43586Y-9715500D01*
G01X-45603Y-9684720D01*
G01X-51621Y-9654467D01*
G01X-61536Y-9625258D01*
G01X-75179Y-9597593D01*
G01X-92316Y-9571946D01*
G01X-112654Y-9548754D01*
G01X-135846Y-9528416D01*
G01X-161493Y-9511279D01*
G01X-189158Y-9497636D01*
G01X-218367Y-9487721D01*
G01X-248620Y-9481703D01*
G01X-279400Y-9479686D01*
G01X-310180Y-9481703D01*
G01X-340433Y-9487721D01*
G01X-369642Y-9497636D01*
G01X-397307Y-9511279D01*
G01X-422954Y-9528416D01*
G01X-446146Y-9548754D01*
G01X-466484Y-9571946D01*
G01X-483621Y-9597593D01*
G01X-497264Y-9625258D01*
G01X-507179Y-9654467D01*
G01X-513197Y-9684720D01*
G01X-515214Y-9715500D01*
G01X-515214Y-9715500D01*
G01X-605126Y-9715500D01*
G01X-603486Y-9691200D01*
G01X-603486Y-6931200D01*
G01X-605132Y-6918671D01*
G01X-609957Y-6906992D01*
G01X-617636Y-6896955D01*
G01X-627646Y-6889242D01*
G01X-639308Y-6884376D01*
G01X-651831Y-6882686D01*
G01X-661221Y-6860163D01*
G01X-674013Y-6839382D01*
G01X-689893Y-6820854D01*
G01X-708470Y-6805031D01*
G01X-729290Y-6792303D01*
G01X-751842Y-6782982D01*
G01X-775573Y-6777297D01*
G01X-799900Y-6775386D01*
G01X-864564Y-6775386D01*
G01X-864564Y-6740366D01*
G01X-855466Y-6727995D01*
G01X-849457Y-6713863D01*
G01X-846860Y-6698727D01*
G01X-847815Y-6683400D01*
G01X-852269Y-6668704D01*
G01X-859984Y-6655426D01*
G01X-870546Y-6644279D01*
G01X-883389Y-6635860D01*
G01X-897825Y-6630621D01*
G01X-913078Y-6628843D01*
G01X-928332Y-6630621D01*
G01X-942767Y-6635860D01*
G01X-955610Y-6644279D01*
G01X-966173Y-6655426D01*
G01X-973888Y-6668704D01*
G01X-978342Y-6683400D01*
G01X-979296Y-6698727D01*
G01X-976699Y-6713863D01*
G01X-970690Y-6727995D01*
G01X-961592Y-6740366D01*
G01X-961592Y-6775386D01*
G01X-1151827Y-6775386D01*
G01X-1146950Y-6763654D01*
G01X-1145286Y-6751058D01*
G01X-1145286Y-6654800D01*
G01X-1147226Y-6641219D01*
G01X-1152889Y-6628725D01*
G01X-1154974Y-6612888D01*
G01X-1160786Y-6598010D01*
G01X-1169986Y-6584953D01*
G01X-1182042Y-6574474D01*
G01X-1196253Y-6567183D01*
G01X-1211796Y-6563501D01*
G01X-1227768Y-6563642D01*
G01X-1243243Y-6567598D01*
G01X-1257324Y-6575140D01*
G01X-1269192Y-6585830D01*
G01X-1278160Y-6599048D01*
G01X-1283707Y-6614027D01*
G01X-1285512Y-6629897D01*
G01X-1283470Y-6645739D01*
G01X-1277698Y-6660633D01*
G01X-1268533Y-6673715D01*
G01X-1256506Y-6684225D01*
G01X-1242314Y-6691555D01*
G01X-1242314Y-6730962D01*
G01X-1246137Y-6734786D01*
G01X-3524114Y-6734786D01*
G01X-3532111Y-6732694D01*
G01X-3540346Y-6731990D01*
G01X-3607175Y-6731990D01*
G01X-3619732Y-6733643D01*
G01X-3631432Y-6738489D01*
G01X-3641480Y-6746199D01*
G01X-3654165Y-6758885D01*
G01X-3674544Y-6771716D01*
G01X-3693200Y-6786944D01*
G01X-3709851Y-6804341D01*
G01X-3724249Y-6823645D01*
G01X-3736175Y-6844566D01*
G01X-3744899Y-6865217D01*
G01X-3751213Y-6886728D01*
G01X-3755035Y-6908818D01*
G01X-3756314Y-6931200D01*
G01X-3756314Y-9741500D01*
G01X-3756314Y-9741500D01*
G01X-9476062Y-9741500D01*
G01X-9475021Y-9738433D01*
G01X-9469003Y-9708180D01*
G01X-9466986Y-9677400D01*
G01X-9469003Y-9646620D01*
G01X-9475021Y-9616367D01*
G01X-9484936Y-9587158D01*
G01X-9498579Y-9559493D01*
G01X-9515716Y-9533846D01*
G01X-9523286Y-9525213D01*
G01X-9390621Y-9525213D01*
G01X-9390621Y-9605223D01*
G01X-9388855Y-9622025D01*
G01X-9383635Y-9638092D01*
G01X-9375188Y-9652722D01*
G01X-9363884Y-9665277D01*
G01X-9350216Y-9675207D01*
G01X-9334783Y-9682078D01*
G01X-9318258Y-9685591D01*
G01X-9301364Y-9685591D01*
G01X-9284840Y-9682078D01*
G01X-9269406Y-9675207D01*
G01X-9255739Y-9665277D01*
G01X-9244434Y-9652722D01*
G01X-9235988Y-9638092D01*
G01X-9230767Y-9622025D01*
G01X-9229001Y-9605223D01*
G01X-9229001Y-9525213D01*
G01X-9230767Y-9508412D01*
G01X-9235988Y-9492345D01*
G01X-9244434Y-9477714D01*
G01X-9255739Y-9465160D01*
G01X-9269406Y-9455230D01*
G01X-9284840Y-9448358D01*
G01X-9301364Y-9444846D01*
G01X-9318258Y-9444846D01*
G01X-9334783Y-9448358D01*
G01X-9350216Y-9455230D01*
G01X-9363884Y-9465160D01*
G01X-9375188Y-9477714D01*
G01X-9383635Y-9492345D01*
G01X-9388855Y-9508412D01*
G01X-9390621Y-9525213D01*
G01X-9390621Y-9525213D01*
G01X-9523286Y-9525213D01*
G01X-9536054Y-9510654D01*
G01X-9559246Y-9490316D01*
G01X-9584893Y-9473179D01*
G01X-9612558Y-9459536D01*
G01X-9641767Y-9449621D01*
G01X-9672020Y-9443603D01*
G01X-9702800Y-9441586D01*
G01X-9733580Y-9443603D01*
G01X-9763833Y-9449621D01*
G01X-9793042Y-9459536D01*
G01X-9820707Y-9473179D01*
G01X-9846354Y-9490316D01*
G01X-9869546Y-9510654D01*
G01X-9889884Y-9533846D01*
G01X-9907021Y-9559493D01*
G01X-9920664Y-9587158D01*
G01X-9930579Y-9616367D01*
G01X-9936597Y-9646620D01*
G01X-9938614Y-9677400D01*
G01X-9938614Y-9677400D01*
G01X-9967986Y-9677400D01*
G01X-9967986Y-9152214D01*
G01X-9390621Y-9152214D01*
G01X-9390621Y-9302227D01*
G01X-9388650Y-9319967D01*
G01X-9382833Y-9336841D01*
G01X-9373453Y-9352027D01*
G01X-9360968Y-9364783D01*
G01X-9345987Y-9374487D01*
G01X-9329241Y-9380666D01*
G01X-9311548Y-9383018D01*
G01X-9293770Y-9381429D01*
G01X-9276774Y-9375975D01*
G01X-9261390Y-9366924D01*
G01X-9248369Y-9354716D01*
G01X-9238345Y-9339947D01*
G01X-9231808Y-9323338D01*
G01X-9229076Y-9305699D01*
G01X-9218305Y-9316881D01*
G01X-9205287Y-9325341D01*
G01X-9190695Y-9330644D01*
G01X-9175283Y-9332515D01*
G01X-9159847Y-9330857D01*
G01X-9145183Y-9325757D01*
G01X-9132049Y-9317478D01*
G01X-9119109Y-9325664D01*
G01X-9104670Y-9330762D01*
G01X-9089459Y-9332516D01*
G01X-9074239Y-9330838D01*
G01X-9059775Y-9325812D01*
G01X-9046794Y-9317691D01*
G01X-9033864Y-9325787D01*
G01X-9019460Y-9330813D01*
G01X-9004300Y-9332516D01*
G01X-8989140Y-9330813D01*
G01X-8974736Y-9325787D01*
G01X-8961806Y-9317691D01*
G01X-8948874Y-9325789D01*
G01X-8934467Y-9330814D01*
G01X-8919303Y-9332516D01*
G01X-8904141Y-9330810D01*
G01X-8889735Y-9325782D01*
G01X-8876805Y-9317681D01*
G01X-8863874Y-9325782D01*
G01X-8849469Y-9330810D01*
G01X-8834306Y-9332516D01*
G01X-8819143Y-9330814D01*
G01X-8804736Y-9325789D01*
G01X-8791804Y-9317691D01*
G01X-8783833Y-9323151D01*
G01X-8775171Y-9327432D01*
G01X-8670307Y-9432296D01*
G01X-8670307Y-9432296D01*
G01X-8660260Y-9440005D01*
G01X-8648559Y-9444852D01*
G01X-8636003Y-9446505D01*
G01X-8463100Y-9446505D01*
G01X-8480104Y-9452528D01*
G01X-8495349Y-9462174D01*
G01X-8508074Y-9474961D01*
G01X-8517645Y-9490253D01*
G01X-8523585Y-9507286D01*
G01X-8525599Y-9525213D01*
G01X-8525599Y-9605223D01*
G01X-8523833Y-9622025D01*
G01X-8518612Y-9638092D01*
G01X-8510166Y-9652722D01*
G01X-8498861Y-9665277D01*
G01X-8485194Y-9675207D01*
G01X-8469760Y-9682078D01*
G01X-8453236Y-9685591D01*
G01X-8436342Y-9685591D01*
G01X-8419817Y-9682078D01*
G01X-8404384Y-9675207D01*
G01X-8390716Y-9665277D01*
G01X-8379412Y-9652722D01*
G01X-8370965Y-9638092D01*
G01X-8365745Y-9622025D01*
G01X-8363979Y-9605223D01*
G01X-8363979Y-9525213D01*
G01X-8365494Y-9509640D01*
G01X-8369981Y-9494650D01*
G01X-8377274Y-9480806D01*
G01X-8387097Y-9468627D01*
G01X-8399084Y-9458570D01*
G01X-8412784Y-9451011D01*
G01X-8427684Y-9446234D01*
G01X-8416978Y-9443852D01*
G01X-8407081Y-9439125D01*
G01X-8403280Y-9436100D01*
G01X-7205415Y-9436100D01*
G01X-7203579Y-9457079D01*
G01X-7198129Y-9477421D01*
G01X-7189229Y-9496507D01*
G01X-7177150Y-9513758D01*
G01X-7162259Y-9528649D01*
G01X-7145008Y-9540728D01*
G01X-7125922Y-9549628D01*
G01X-7105580Y-9555078D01*
G01X-7084601Y-9556914D01*
G01X-7063622Y-9555078D01*
G01X-7043280Y-9549628D01*
G01X-7024194Y-9540728D01*
G01X-7006943Y-9528649D01*
G01X-6992052Y-9513758D01*
G01X-6979973Y-9496507D01*
G01X-6971073Y-9477421D01*
G01X-6965623Y-9457079D01*
G01X-6963787Y-9436100D01*
G01X-6955415Y-9436100D01*
G01X-6953580Y-9457079D01*
G01X-6948129Y-9477421D01*
G01X-6939229Y-9496507D01*
G01X-6927150Y-9513758D01*
G01X-6912259Y-9528649D01*
G01X-6895008Y-9540728D01*
G01X-6875922Y-9549628D01*
G01X-6855581Y-9555078D01*
G01X-6834602Y-9556914D01*
G01X-6813622Y-9555078D01*
G01X-6793281Y-9549628D01*
G01X-6774195Y-9540728D01*
G01X-6756944Y-9528649D01*
G01X-6742053Y-9513758D01*
G01X-6729974Y-9496507D01*
G01X-6721074Y-9477421D01*
G01X-6715623Y-9457079D01*
G01X-6713788Y-9436100D01*
G01X-6715623Y-9415121D01*
G01X-6721074Y-9394779D01*
G01X-6729974Y-9375693D01*
G01X-6742053Y-9358442D01*
G01X-6756944Y-9343551D01*
G01X-6774195Y-9331472D01*
G01X-6793281Y-9322572D01*
G01X-6813622Y-9317122D01*
G01X-6834602Y-9315286D01*
G01X-6855581Y-9317122D01*
G01X-6875922Y-9322572D01*
G01X-6895008Y-9331472D01*
G01X-6912259Y-9343551D01*
G01X-6927150Y-9358442D01*
G01X-6939229Y-9375693D01*
G01X-6948129Y-9394779D01*
G01X-6953580Y-9415121D01*
G01X-6955415Y-9436100D01*
G01X-6955415Y-9436100D01*
G01X-6963787Y-9436100D01*
G01X-6965623Y-9415121D01*
G01X-6971073Y-9394779D01*
G01X-6979973Y-9375693D01*
G01X-6992052Y-9358442D01*
G01X-7006943Y-9343551D01*
G01X-7024194Y-9331472D01*
G01X-7043280Y-9322572D01*
G01X-7063622Y-9317122D01*
G01X-7084601Y-9315286D01*
G01X-7105580Y-9317122D01*
G01X-7125922Y-9322572D01*
G01X-7145008Y-9331472D01*
G01X-7162259Y-9343551D01*
G01X-7177150Y-9358442D01*
G01X-7189229Y-9375693D01*
G01X-7198129Y-9394779D01*
G01X-7203579Y-9415121D01*
G01X-7205415Y-9436100D01*
G01X-7205415Y-9436100D01*
G01X-8403280Y-9436100D01*
G01X-8398498Y-9432296D01*
G01X-8278067Y-9311864D01*
G01X-8262886Y-9309550D01*
G01X-8248644Y-9303806D01*
G01X-8236105Y-9294940D01*
G01X-8225942Y-9283427D01*
G01X-8218700Y-9269885D01*
G01X-8214766Y-9255041D01*
G01X-8214353Y-9239690D01*
G01X-8217481Y-9224655D01*
G01X-8223984Y-9210744D01*
G01X-8233513Y-9198701D01*
G01X-8245556Y-9189172D01*
G01X-8259467Y-9182669D01*
G01X-8274502Y-9179541D01*
G01X-8289853Y-9179954D01*
G01X-8304697Y-9183888D01*
G01X-8318239Y-9191130D01*
G01X-8329751Y-9201294D01*
G01X-8338618Y-9213832D01*
G01X-8344362Y-9228074D01*
G01X-8346676Y-9243255D01*
G01X-8363979Y-9260558D01*
G01X-8363979Y-9152214D01*
G01X-8365869Y-9134838D01*
G01X-8371451Y-9118275D01*
G01X-8380464Y-9103300D01*
G01X-8392487Y-9090613D01*
G01X-8406956Y-9080807D01*
G01X-8423195Y-9074343D01*
G01X-8440445Y-9071521D01*
G01X-8457897Y-9072474D01*
G01X-8474736Y-9077158D01*
G01X-8490175Y-9085353D01*
G01X-8503490Y-9096676D01*
G01X-8514059Y-9110598D01*
G01X-8518961Y-9098113D01*
G01X-8526208Y-9086827D01*
G01X-8535520Y-9077174D01*
G01X-8546539Y-9069527D01*
G01X-8558840Y-9064180D01*
G01X-8571949Y-9061340D01*
G01X-8585360Y-9061116D01*
G01X-8598556Y-9063517D01*
G01X-8611028Y-9068449D01*
G01X-8622297Y-9075724D01*
G01X-8635227Y-9067623D01*
G01X-8649633Y-9062594D01*
G01X-8664795Y-9060889D01*
G01X-8679959Y-9062591D01*
G01X-8694366Y-9067616D01*
G01X-8707298Y-9075714D01*
G01X-8719320Y-9068061D01*
G01X-8732668Y-9063070D01*
G01X-8746762Y-9060956D01*
G01X-8760987Y-9061812D01*
G01X-8774725Y-9065601D01*
G01X-8787378Y-9072158D01*
G01X-8792200Y-9059147D01*
G01X-8800508Y-9048032D01*
G01X-8856729Y-8991810D01*
G01X-8859044Y-8976629D01*
G01X-8864788Y-8962387D01*
G01X-8873654Y-8949849D01*
G01X-8885167Y-8939686D01*
G01X-8898708Y-8932443D01*
G01X-8913553Y-8928510D01*
G01X-8928904Y-8928096D01*
G01X-8943938Y-8931225D01*
G01X-8957850Y-8937727D01*
G01X-8969893Y-8947256D01*
G01X-8979422Y-8959299D01*
G01X-8985925Y-8973211D01*
G01X-8989053Y-8988245D01*
G01X-8988639Y-9003596D01*
G01X-8984706Y-9018441D01*
G01X-8977463Y-9031982D01*
G01X-8967300Y-9043495D01*
G01X-8954762Y-9052361D01*
G01X-8940520Y-9058105D01*
G01X-8925339Y-9060420D01*
G01X-8924694Y-9061065D01*
G01X-8938129Y-9063395D01*
G01X-8950833Y-9068347D01*
G01X-8962301Y-9075724D01*
G01X-8975231Y-9067623D01*
G01X-8989637Y-9062594D01*
G01X-9004800Y-9060889D01*
G01X-9019963Y-9062591D01*
G01X-9034370Y-9067616D01*
G01X-9047302Y-9075714D01*
G01X-9060234Y-9067616D01*
G01X-9074641Y-9062591D01*
G01X-9089805Y-9060889D01*
G01X-9104967Y-9062594D01*
G01X-9119373Y-9067623D01*
G01X-9132303Y-9075724D01*
G01X-9144907Y-9067781D01*
G01X-9158932Y-9062760D01*
G01X-9173712Y-9060897D01*
G01X-9188545Y-9062284D01*
G01X-9202724Y-9066852D01*
G01X-9215576Y-9074386D01*
G01X-9226490Y-9084526D01*
G01X-9234945Y-9096791D01*
G01X-9240541Y-9110598D01*
G01X-9251110Y-9096676D01*
G01X-9264425Y-9085353D01*
G01X-9279864Y-9077158D01*
G01X-9296703Y-9072474D01*
G01X-9314155Y-9071521D01*
G01X-9331405Y-9074343D01*
G01X-9347644Y-9080807D01*
G01X-9362113Y-9090613D01*
G01X-9374136Y-9103300D01*
G01X-9383149Y-9118275D01*
G01X-9388731Y-9134838D01*
G01X-9390621Y-9152214D01*
G01X-9967986Y-9152214D01*
G01X-9967986Y-8585200D01*
G01X-5095514Y-8585200D01*
G01X-5093587Y-8601070D01*
G01X-5087918Y-8616018D01*
G01X-5078837Y-8629174D01*
G01X-5066871Y-8639775D01*
G01X-5052715Y-8647205D01*
G01X-5037193Y-8651031D01*
G01X-5021207Y-8651031D01*
G01X-5005685Y-8647205D01*
G01X-4991529Y-8639775D01*
G01X-4979563Y-8629174D01*
G01X-4970482Y-8616018D01*
G01X-4964813Y-8601070D01*
G01X-4962886Y-8585200D01*
G01X-4964813Y-8569330D01*
G01X-4970482Y-8554382D01*
G01X-4979563Y-8541226D01*
G01X-4991529Y-8530625D01*
G01X-5005685Y-8523195D01*
G01X-5021207Y-8519369D01*
G01X-5037193Y-8519369D01*
G01X-5052715Y-8523195D01*
G01X-5066871Y-8530625D01*
G01X-5078837Y-8541226D01*
G01X-5087918Y-8554382D01*
G01X-5093587Y-8569330D01*
G01X-5095514Y-8585200D01*
G01X-5095514Y-8585200D01*
G01X-9967986Y-8585200D01*
G01X-9967986Y-7689105D01*
G01X-6625001Y-7689105D01*
G01X-6623074Y-7704974D01*
G01X-6617405Y-7719922D01*
G01X-6608324Y-7733079D01*
G01X-6596358Y-7743680D01*
G01X-6582202Y-7751109D01*
G01X-6566680Y-7754935D01*
G01X-6550694Y-7754935D01*
G01X-6535172Y-7751109D01*
G01X-6521016Y-7743680D01*
G01X-6509050Y-7733079D01*
G01X-6499969Y-7719922D01*
G01X-6494300Y-7704974D01*
G01X-6492373Y-7689105D01*
G01X-6494300Y-7673235D01*
G01X-6499969Y-7658287D01*
G01X-6509050Y-7645130D01*
G01X-6521016Y-7634529D01*
G01X-6535172Y-7627100D01*
G01X-6550694Y-7623274D01*
G01X-6566680Y-7623274D01*
G01X-6582202Y-7627100D01*
G01X-6596358Y-7634529D01*
G01X-6608324Y-7645130D01*
G01X-6617405Y-7658287D01*
G01X-6623074Y-7673235D01*
G01X-6625001Y-7689105D01*
G01X-6625001Y-7689105D01*
G01X-9967986Y-7689105D01*
G01X-9967986Y-7508405D01*
G01X-6650401Y-7508405D01*
G01X-6648474Y-7524275D01*
G01X-6642805Y-7539223D01*
G01X-6633724Y-7552379D01*
G01X-6621758Y-7562980D01*
G01X-6607602Y-7570410D01*
G01X-6592080Y-7574236D01*
G01X-6576094Y-7574236D01*
G01X-6560572Y-7570410D01*
G01X-6546416Y-7562980D01*
G01X-6534450Y-7552379D01*
G01X-6525369Y-7539223D01*
G01X-6519700Y-7524275D01*
G01X-6517773Y-7508405D01*
G01X-6519700Y-7492535D01*
G01X-6525369Y-7477587D01*
G01X-6534450Y-7464431D01*
G01X-6546416Y-7453830D01*
G01X-6560572Y-7446400D01*
G01X-6576094Y-7442575D01*
G01X-6592080Y-7442575D01*
G01X-6607602Y-7446400D01*
G01X-6621758Y-7453830D01*
G01X-6633724Y-7464431D01*
G01X-6642805Y-7477587D01*
G01X-6648474Y-7492535D01*
G01X-6650401Y-7508405D01*
G01X-6650401Y-7508405D01*
G01X-9967986Y-7508405D01*
G01X-9967986Y-7429500D01*
G01X-9858014Y-7429500D01*
G01X-9856087Y-7445370D01*
G01X-9850418Y-7460318D01*
G01X-9841337Y-7473474D01*
G01X-9829371Y-7484075D01*
G01X-9815215Y-7491505D01*
G01X-9799693Y-7495331D01*
G01X-9783707Y-7495331D01*
G01X-9768185Y-7491505D01*
G01X-9754029Y-7484075D01*
G01X-9742063Y-7473474D01*
G01X-9732982Y-7460318D01*
G01X-9727313Y-7445370D01*
G01X-9725386Y-7429500D01*
G01X-9727313Y-7413630D01*
G01X-9731779Y-7401855D01*
G01X-6734511Y-7401855D01*
G01X-6732584Y-7417725D01*
G01X-6726915Y-7432672D01*
G01X-6717833Y-7445829D01*
G01X-6705867Y-7456430D01*
G01X-6691712Y-7463859D01*
G01X-6676190Y-7467685D01*
G01X-6660203Y-7467685D01*
G01X-6644681Y-7463859D01*
G01X-6630526Y-7456430D01*
G01X-6618560Y-7445829D01*
G01X-6609479Y-7432672D01*
G01X-6603810Y-7417725D01*
G01X-6601883Y-7401855D01*
G01X-6603810Y-7385985D01*
G01X-6609479Y-7371037D01*
G01X-6618560Y-7357880D01*
G01X-6630526Y-7347279D01*
G01X-6644681Y-7339850D01*
G01X-6660203Y-7336024D01*
G01X-6676190Y-7336024D01*
G01X-6691712Y-7339850D01*
G01X-6705867Y-7347279D01*
G01X-6717833Y-7357880D01*
G01X-6726915Y-7371037D01*
G01X-6732584Y-7385985D01*
G01X-6734511Y-7401855D01*
G01X-6734511Y-7401855D01*
G01X-9731779Y-7401855D01*
G01X-9732982Y-7398682D01*
G01X-9742063Y-7385526D01*
G01X-9754029Y-7374925D01*
G01X-9768185Y-7367495D01*
G01X-9783707Y-7363669D01*
G01X-9799693Y-7363669D01*
G01X-9815215Y-7367495D01*
G01X-9829371Y-7374925D01*
G01X-9841337Y-7385526D01*
G01X-9850418Y-7398682D01*
G01X-9856087Y-7413630D01*
G01X-9858014Y-7429500D01*
G01X-9858014Y-7429500D01*
G01X-9967986Y-7429500D01*
G01X-9967986Y-7160616D01*
G01X-7930938Y-7160616D01*
G01X-7929011Y-7176486D01*
G01X-7923342Y-7191433D01*
G01X-7914261Y-7204590D01*
G01X-7902295Y-7215191D01*
G01X-7888140Y-7222620D01*
G01X-7872618Y-7226446D01*
G01X-7856631Y-7226446D01*
G01X-7841109Y-7222620D01*
G01X-7826954Y-7215191D01*
G01X-7814988Y-7204590D01*
G01X-7805906Y-7191433D01*
G01X-7800237Y-7176486D01*
G01X-7798310Y-7160616D01*
G01X-7800237Y-7144746D01*
G01X-7805906Y-7129798D01*
G01X-7814988Y-7116641D01*
G01X-7826954Y-7106040D01*
G01X-7841109Y-7098611D01*
G01X-7856631Y-7094785D01*
G01X-7872618Y-7094785D01*
G01X-7888140Y-7098611D01*
G01X-7902295Y-7106040D01*
G01X-7914261Y-7116641D01*
G01X-7923342Y-7129798D01*
G01X-7929011Y-7144746D01*
G01X-7930938Y-7160616D01*
G01X-7930938Y-7160616D01*
G01X-9967986Y-7160616D01*
G01X-9967986Y-6977906D01*
G01X-7336199Y-6977906D01*
G01X-7334272Y-6993776D01*
G01X-7328603Y-7008724D01*
G01X-7319522Y-7021880D01*
G01X-7307556Y-7032481D01*
G01X-7293401Y-7039911D01*
G01X-7277879Y-7043736D01*
G01X-7261892Y-7043736D01*
G01X-7246370Y-7039911D01*
G01X-7232215Y-7032481D01*
G01X-7224680Y-7025806D01*
G01X-6802801Y-7025806D01*
G01X-6800874Y-7041676D01*
G01X-6795205Y-7056623D01*
G01X-6786123Y-7069780D01*
G01X-6774157Y-7080381D01*
G01X-6760002Y-7087810D01*
G01X-6744480Y-7091636D01*
G01X-6728493Y-7091636D01*
G01X-6712971Y-7087810D01*
G01X-6698816Y-7080381D01*
G01X-6686850Y-7069780D01*
G01X-6677769Y-7056623D01*
G01X-6672100Y-7041676D01*
G01X-6670173Y-7025806D01*
G01X-6672100Y-7009936D01*
G01X-6677769Y-6994988D01*
G01X-6686850Y-6981832D01*
G01X-6698816Y-6971231D01*
G01X-6712971Y-6963801D01*
G01X-6728493Y-6959975D01*
G01X-6744480Y-6959975D01*
G01X-6760002Y-6963801D01*
G01X-6774157Y-6971231D01*
G01X-6786123Y-6981832D01*
G01X-6795205Y-6994988D01*
G01X-6800874Y-7009936D01*
G01X-6802801Y-7025806D01*
G01X-6802801Y-7025806D01*
G01X-7224680Y-7025806D01*
G01X-7220249Y-7021880D01*
G01X-7211167Y-7008724D01*
G01X-7205498Y-6993776D01*
G01X-7203571Y-6977906D01*
G01X-7205498Y-6962036D01*
G01X-7211167Y-6947088D01*
G01X-7220249Y-6933932D01*
G01X-7232215Y-6923331D01*
G01X-7246370Y-6915901D01*
G01X-7261892Y-6912076D01*
G01X-7277879Y-6912076D01*
G01X-7293401Y-6915901D01*
G01X-7307556Y-6923331D01*
G01X-7319522Y-6933932D01*
G01X-7328603Y-6947088D01*
G01X-7334272Y-6962036D01*
G01X-7336199Y-6977906D01*
G01X-7336199Y-6977906D01*
G01X-9967986Y-6977906D01*
G01X-9967986Y-6800850D01*
G01X-9793997Y-6800850D01*
G01X-9792086Y-6822697D01*
G01X-9786410Y-6843881D01*
G01X-9777142Y-6863757D01*
G01X-9764563Y-6881722D01*
G01X-9749055Y-6897229D01*
G01X-9731091Y-6909808D01*
G01X-9711214Y-6919076D01*
G01X-9690031Y-6924752D01*
G01X-9668184Y-6926664D01*
G01X-9646336Y-6924752D01*
G01X-9625153Y-6919076D01*
G01X-9605277Y-6909808D01*
G01X-9587312Y-6897229D01*
G01X-9571805Y-6881722D01*
G01X-9559226Y-6863757D01*
G01X-9549957Y-6843881D01*
G01X-9544281Y-6822697D01*
G01X-9542370Y-6800850D01*
G01X-9544281Y-6779003D01*
G01X-9549957Y-6757819D01*
G01X-9559226Y-6737943D01*
G01X-9571805Y-6719978D01*
G01X-9587312Y-6704471D01*
G01X-9605277Y-6691892D01*
G01X-9625153Y-6682624D01*
G01X-9646336Y-6676948D01*
G01X-9668184Y-6675036D01*
G01X-9668184Y-6675036D01*
G01X-9690031Y-6676948D01*
G01X-9711214Y-6682624D01*
G01X-9731091Y-6691892D01*
G01X-9749055Y-6704471D01*
G01X-9764563Y-6719978D01*
G01X-9777142Y-6737943D01*
G01X-9786410Y-6757819D01*
G01X-9792086Y-6779003D01*
G01X-9793997Y-6800850D01*
G01X-9967986Y-6800850D01*
G01X-9967986Y-6546850D01*
G01X-9793997Y-6546850D01*
G01X-9792086Y-6568697D01*
G01X-9786410Y-6589881D01*
G01X-9777142Y-6609757D01*
G01X-9764563Y-6627722D01*
G01X-9749055Y-6643229D01*
G01X-9731091Y-6655808D01*
G01X-9711214Y-6665076D01*
G01X-9690031Y-6670752D01*
G01X-9668184Y-6672664D01*
G01X-9646336Y-6670752D01*
G01X-9625153Y-6665076D01*
G01X-9605277Y-6655808D01*
G01X-9587312Y-6643229D01*
G01X-9571805Y-6627722D01*
G01X-9559226Y-6609757D01*
G01X-9549957Y-6589881D01*
G01X-9544281Y-6568697D01*
G01X-9542370Y-6546850D01*
G01X-9544281Y-6525003D01*
G01X-9549957Y-6503819D01*
G01X-9559226Y-6483943D01*
G01X-9571805Y-6465978D01*
G01X-9576039Y-6461744D01*
G01X-8124728Y-6461744D01*
G01X-8123198Y-6477641D01*
G01X-8117912Y-6492712D01*
G01X-8109176Y-6506082D01*
G01X-8097496Y-6516976D01*
G01X-8097496Y-6516976D01*
G01X-8083551Y-6524761D01*
G01X-8068149Y-6528986D01*
G01X-8052183Y-6529406D01*
G01X-8036580Y-6525997D01*
G01X-8022245Y-6518956D01*
G01X-8010009Y-6508692D01*
G01X-8000582Y-6495800D01*
G01X-7994510Y-6481028D01*
G01X-7992146Y-6465233D01*
G01X-7993628Y-6449330D01*
G01X-7998868Y-6434243D01*
G01X-8007563Y-6420847D01*
G01X-7992148Y-6425025D01*
G01X-7976182Y-6425397D01*
G01X-7960589Y-6421940D01*
G01X-7946275Y-6414855D01*
G01X-7934071Y-6404554D01*
G01X-7924683Y-6391633D01*
G01X-7918656Y-6376843D01*
G01X-7916340Y-6361041D01*
G01X-7917870Y-6345143D01*
G01X-7923157Y-6330072D01*
G01X-7931893Y-6316702D01*
G01X-7943572Y-6305809D01*
G01X-7957517Y-6298024D01*
G01X-7972920Y-6293799D01*
G01X-7988885Y-6293379D01*
G01X-8004488Y-6296788D01*
G01X-8018823Y-6303829D01*
G01X-8031060Y-6314093D01*
G01X-8040487Y-6326985D01*
G01X-8046559Y-6341757D01*
G01X-8048922Y-6357552D01*
G01X-8047441Y-6373454D01*
G01X-8042201Y-6388541D01*
G01X-8033505Y-6401937D01*
G01X-8048920Y-6397759D01*
G01X-8064887Y-6397388D01*
G01X-8080479Y-6400845D01*
G01X-8094793Y-6407929D01*
G01X-8106998Y-6418230D01*
G01X-8116386Y-6431151D01*
G01X-8122413Y-6445941D01*
G01X-8124728Y-6461744D01*
G01X-9576039Y-6461744D01*
G01X-9587312Y-6450471D01*
G01X-9605277Y-6437892D01*
G01X-9625153Y-6428624D01*
G01X-9646336Y-6422948D01*
G01X-9668184Y-6421036D01*
G01X-9668184Y-6421036D01*
G01X-9690031Y-6422948D01*
G01X-9711214Y-6428624D01*
G01X-9731091Y-6437892D01*
G01X-9749055Y-6450471D01*
G01X-9764563Y-6465978D01*
G01X-9777142Y-6483943D01*
G01X-9786410Y-6503819D01*
G01X-9792086Y-6525003D01*
G01X-9793997Y-6546850D01*
G01X-9967986Y-6546850D01*
G01X-9967986Y-6292850D01*
G01X-9793997Y-6292850D01*
G01X-9792086Y-6314697D01*
G01X-9786410Y-6335881D01*
G01X-9777142Y-6355757D01*
G01X-9764563Y-6373722D01*
G01X-9749055Y-6389229D01*
G01X-9731091Y-6401808D01*
G01X-9711214Y-6411076D01*
G01X-9690031Y-6416752D01*
G01X-9668184Y-6418664D01*
G01X-9646336Y-6416752D01*
G01X-9625153Y-6411076D01*
G01X-9605277Y-6401808D01*
G01X-9587312Y-6389229D01*
G01X-9571805Y-6373722D01*
G01X-9559226Y-6355757D01*
G01X-9549957Y-6335881D01*
G01X-9544281Y-6314697D01*
G01X-9543736Y-6308462D01*
G01X-8720932Y-6308462D01*
G01X-8717250Y-6324005D01*
G01X-8709958Y-6338216D01*
G01X-8699480Y-6350271D01*
G01X-8686422Y-6359472D01*
G01X-8671544Y-6365283D01*
G01X-8655708Y-6367368D01*
G01X-8643213Y-6373032D01*
G01X-8629633Y-6374971D01*
G01X-8172434Y-6374971D01*
G01X-8159877Y-6373318D01*
G01X-8148177Y-6368472D01*
G01X-8138129Y-6360762D01*
G01X-8050739Y-6273372D01*
G01X-7841336Y-6273372D01*
G01X-7843627Y-6287211D01*
G01X-7842955Y-6301223D01*
G01X-7839350Y-6314779D01*
G01X-7832975Y-6327275D01*
G01X-7824114Y-6338149D01*
G01X-7813164Y-6346917D01*
G01X-7800614Y-6353185D01*
G01X-7787027Y-6356673D01*
G01X-7773010Y-6357224D01*
G01X-7759191Y-6354815D01*
G01X-7763939Y-6364683D01*
G01X-7766999Y-6375197D01*
G01X-7768287Y-6386071D01*
G01X-7914119Y-6531902D01*
G01X-7921829Y-6541950D01*
G01X-7926675Y-6553650D01*
G01X-7928328Y-6566207D01*
G01X-7928328Y-6646692D01*
G01X-7940900Y-6638780D01*
G01X-7954918Y-6633864D01*
G01X-7969679Y-6632193D01*
G01X-7984441Y-6633848D01*
G01X-7998464Y-6638749D01*
G01X-8011044Y-6646648D01*
G01X-8021551Y-6657149D01*
G01X-8029456Y-6669725D01*
G01X-8034364Y-6683745D01*
G01X-8036028Y-6698507D01*
G01X-8034364Y-6713268D01*
G01X-8029456Y-6727288D01*
G01X-8021551Y-6739865D01*
G01X-8011044Y-6750366D01*
G01X-7998464Y-6758264D01*
G01X-7984441Y-6763165D01*
G01X-7969679Y-6764820D01*
G01X-7954918Y-6763149D01*
G01X-7940900Y-6758233D01*
G01X-7928328Y-6750321D01*
G01X-7928328Y-6765370D01*
G01X-7942459Y-6769863D01*
G01X-7955238Y-6777384D01*
G01X-7966026Y-6787556D01*
G01X-7974284Y-6799871D01*
G01X-7979600Y-6813713D01*
G01X-7981707Y-6828390D01*
G01X-7980500Y-6843168D01*
G01X-7976040Y-6857309D01*
G01X-7968549Y-6870106D01*
G01X-7958403Y-6880918D01*
G01X-7946107Y-6889205D01*
G01X-7932277Y-6894553D01*
G01X-7917605Y-6896694D01*
G01X-7902824Y-6895522D01*
G01X-7888673Y-6891095D01*
G01X-7875859Y-6883634D01*
G01X-7865023Y-6873513D01*
G01X-7856707Y-6861237D01*
G01X-7851327Y-6847420D01*
G01X-7849151Y-6832753D01*
G01X-7845510Y-6829111D01*
G01X-7837800Y-6819063D01*
G01X-7832953Y-6807363D01*
G01X-7831300Y-6794806D01*
G01X-7831300Y-6664197D01*
G01X-7744148Y-6664197D01*
G01X-7742222Y-6680067D01*
G01X-7736553Y-6695014D01*
G01X-7727471Y-6708171D01*
G01X-7715505Y-6718772D01*
G01X-7701350Y-6726201D01*
G01X-7685828Y-6730027D01*
G01X-7669841Y-6730027D01*
G01X-7654319Y-6726201D01*
G01X-7640164Y-6718772D01*
G01X-7628198Y-6708171D01*
G01X-7619116Y-6695014D01*
G01X-7613448Y-6680067D01*
G01X-7611521Y-6664197D01*
G01X-7613448Y-6648327D01*
G01X-7619116Y-6633379D01*
G01X-7628198Y-6620222D01*
G01X-7640164Y-6609621D01*
G01X-7654319Y-6602192D01*
G01X-7669841Y-6598366D01*
G01X-7685828Y-6598366D01*
G01X-7701350Y-6602192D01*
G01X-7715505Y-6609621D01*
G01X-7727471Y-6620222D01*
G01X-7736553Y-6633379D01*
G01X-7742222Y-6648327D01*
G01X-7744148Y-6664197D01*
G01X-7744148Y-6664197D01*
G01X-7831300Y-6664197D01*
G01X-7831300Y-6586302D01*
G01X-7699678Y-6454680D01*
G01X-7685651Y-6452671D01*
G01X-7672371Y-6447727D01*
G01X-7660444Y-6440074D01*
G01X-7650416Y-6430062D01*
G01X-7642744Y-6418148D01*
G01X-7534413Y-6526479D01*
G01X-7549822Y-6524901D01*
G01X-7565177Y-6526941D01*
G01X-7579639Y-6532488D01*
G01X-7592421Y-6541238D01*
G01X-7602823Y-6552715D01*
G01X-7610280Y-6566292D01*
G01X-7614384Y-6581228D01*
G01X-7614910Y-6596709D01*
G01X-7611831Y-6611889D01*
G01X-7605315Y-6625941D01*
G01X-7595716Y-6638099D01*
G01X-7583559Y-6647697D01*
G01X-7569507Y-6654214D01*
G01X-7554326Y-6657293D01*
G01X-7538845Y-6656766D01*
G01X-7523909Y-6652663D01*
G01X-7510332Y-6645206D01*
G01X-7498855Y-6634803D01*
G01X-7490105Y-6622022D01*
G01X-7484559Y-6607559D01*
G01X-7482518Y-6592204D01*
G01X-7484096Y-6576795D01*
G01X-7386498Y-6674393D01*
G01X-7384184Y-6689574D01*
G01X-7378439Y-6703816D01*
G01X-7369573Y-6716355D01*
G01X-7358061Y-6726518D01*
G01X-7344519Y-6733760D01*
G01X-7329675Y-6737694D01*
G01X-7314324Y-6738108D01*
G01X-7299289Y-6734979D01*
G01X-7285377Y-6728476D01*
G01X-7273334Y-6718948D01*
G01X-7263806Y-6706905D01*
G01X-7257303Y-6692993D01*
G01X-7254175Y-6677958D01*
G01X-7254588Y-6662607D01*
G01X-7258522Y-6647763D01*
G01X-7265764Y-6634221D01*
G01X-7275927Y-6622709D01*
G01X-7288466Y-6613843D01*
G01X-7302708Y-6608098D01*
G01X-7317889Y-6605784D01*
G01X-7330581Y-6593092D01*
G01X-7317420Y-6585994D01*
G01X-7306183Y-6576128D01*
G01X-7297443Y-6563995D01*
G01X-7291643Y-6550212D01*
G01X-7289079Y-6535480D01*
G01X-7289880Y-6520548D01*
G01X-7294007Y-6506176D01*
G01X-7283945Y-6496682D01*
G01X-7276071Y-6485307D01*
G01X-7270728Y-6472545D01*
G01X-7268149Y-6458953D01*
G01X-7268447Y-6445122D01*
G01X-7271608Y-6431653D01*
G01X-7277495Y-6419134D01*
G01X-7285851Y-6408108D01*
G01X-7296313Y-6399056D01*
G01X-7308426Y-6392372D01*
G01X-7321662Y-6388346D01*
G01X-7335445Y-6387154D01*
G01X-7331696Y-6372265D01*
G01X-7331472Y-6356913D01*
G01X-7334784Y-6341921D01*
G01X-7341456Y-6328093D01*
G01X-7351128Y-6316170D01*
G01X-7363284Y-6306790D01*
G01X-7377271Y-6300457D01*
G01X-7392339Y-6297511D01*
G01X-7407681Y-6298109D01*
G01X-7422474Y-6302219D01*
G01X-7435925Y-6309620D01*
G01X-7447314Y-6319917D01*
G01X-7456030Y-6332557D01*
G01X-7461605Y-6346863D01*
G01X-7463741Y-6362067D01*
G01X-7462323Y-6377355D01*
G01X-7457427Y-6391907D01*
G01X-7449316Y-6404943D01*
G01X-7466540Y-6404943D01*
G01X-7680930Y-6190553D01*
G01X-7680930Y-6190553D01*
G01X-7690978Y-6182843D01*
G01X-7702678Y-6177997D01*
G01X-7715235Y-6176344D01*
G01X-8070834Y-6176344D01*
G01X-8083390Y-6177997D01*
G01X-8095091Y-6182843D01*
G01X-8105138Y-6190553D01*
G01X-8144425Y-6229839D01*
G01X-8149144Y-6222282D01*
G01X-8154834Y-6215426D01*
G01X-8147481Y-6202374D01*
G01X-8143245Y-6188004D01*
G01X-8142342Y-6173051D01*
G01X-8144819Y-6158276D01*
G01X-8150549Y-6144435D01*
G01X-8159240Y-6132232D01*
G01X-8170448Y-6122292D01*
G01X-8183601Y-6115121D01*
G01X-8198028Y-6111086D01*
G01X-8212992Y-6110392D01*
G01X-8227731Y-6113074D01*
G01X-8241491Y-6118996D01*
G01X-8253571Y-6127856D01*
G01X-8263354Y-6139201D01*
G01X-8270341Y-6152453D01*
G01X-8274176Y-6166935D01*
G01X-8274661Y-6181908D01*
G01X-8271774Y-6196607D01*
G01X-8265660Y-6210284D01*
G01X-8256633Y-6222239D01*
G01X-8263840Y-6234947D01*
G01X-8268089Y-6248923D01*
G01X-8269175Y-6263491D01*
G01X-8267045Y-6277943D01*
G01X-8592878Y-6277943D01*
G01X-8600208Y-6263752D01*
G01X-8610718Y-6251724D01*
G01X-8623800Y-6242559D01*
G01X-8638694Y-6236788D01*
G01X-8654536Y-6234745D01*
G01X-8670406Y-6236550D01*
G01X-8685385Y-6242098D01*
G01X-8698603Y-6251066D01*
G01X-8709293Y-6262934D01*
G01X-8716835Y-6277014D01*
G01X-8720791Y-6292490D01*
G01X-8720932Y-6308462D01*
G01X-9543736Y-6308462D01*
G01X-9542370Y-6292850D01*
G01X-9544281Y-6271003D01*
G01X-9549957Y-6249819D01*
G01X-9559226Y-6229943D01*
G01X-9571805Y-6211978D01*
G01X-9587312Y-6196471D01*
G01X-9605277Y-6183892D01*
G01X-9625153Y-6174624D01*
G01X-9646336Y-6168948D01*
G01X-9668184Y-6167036D01*
G01X-9668184Y-6167036D01*
G01X-9690031Y-6168948D01*
G01X-9711214Y-6174624D01*
G01X-9731091Y-6183892D01*
G01X-9749055Y-6196471D01*
G01X-9764563Y-6211978D01*
G01X-9777142Y-6229943D01*
G01X-9786410Y-6249819D01*
G01X-9792086Y-6271003D01*
G01X-9793997Y-6292850D01*
G01X-9967986Y-6292850D01*
G01X-9967986Y-6038850D01*
G01X-9793997Y-6038850D01*
G01X-9792086Y-6060697D01*
G01X-9786410Y-6081881D01*
G01X-9777142Y-6101757D01*
G01X-9764563Y-6119722D01*
G01X-9749055Y-6135229D01*
G01X-9731091Y-6147808D01*
G01X-9711214Y-6157076D01*
G01X-9690031Y-6162752D01*
G01X-9668184Y-6164664D01*
G01X-9646336Y-6162752D01*
G01X-9625153Y-6157076D01*
G01X-9612460Y-6151158D01*
G01X-8554277Y-6151158D01*
G01X-8552350Y-6167028D01*
G01X-8546681Y-6181975D01*
G01X-8537600Y-6195132D01*
G01X-8525634Y-6205733D01*
G01X-8511478Y-6213162D01*
G01X-8495956Y-6216988D01*
G01X-8479970Y-6216988D01*
G01X-8464448Y-6213162D01*
G01X-8450292Y-6205733D01*
G01X-8438326Y-6195132D01*
G01X-8429245Y-6181975D01*
G01X-8423576Y-6167028D01*
G01X-8421649Y-6151158D01*
G01X-8423576Y-6135288D01*
G01X-8429245Y-6120340D01*
G01X-8438326Y-6107183D01*
G01X-8450292Y-6096582D01*
G01X-8464448Y-6089153D01*
G01X-8479970Y-6085327D01*
G01X-8495956Y-6085327D01*
G01X-8511478Y-6089153D01*
G01X-8525634Y-6096582D01*
G01X-8537600Y-6107183D01*
G01X-8546681Y-6120340D01*
G01X-8552350Y-6135288D01*
G01X-8554277Y-6151158D01*
G01X-8554277Y-6151158D01*
G01X-9612460Y-6151158D01*
G01X-9605277Y-6147808D01*
G01X-9587312Y-6135229D01*
G01X-9571805Y-6119722D01*
G01X-9559226Y-6101757D01*
G01X-9549957Y-6081881D01*
G01X-9544281Y-6060697D01*
G01X-9542370Y-6038850D01*
G01X-9544281Y-6017003D01*
G01X-9549957Y-5995819D01*
G01X-9556537Y-5981708D01*
G01X-8193018Y-5981708D01*
G01X-8191091Y-5997578D01*
G01X-8185422Y-6012526D01*
G01X-8176341Y-6025682D01*
G01X-8164375Y-6036283D01*
G01X-8150220Y-6043713D01*
G01X-8134698Y-6047539D01*
G01X-8118711Y-6047539D01*
G01X-8103189Y-6043713D01*
G01X-8089034Y-6036283D01*
G01X-8077068Y-6025682D01*
G01X-8067986Y-6012526D01*
G01X-8062317Y-5997578D01*
G01X-8060390Y-5981708D01*
G01X-8062317Y-5965838D01*
G01X-8067986Y-5950891D01*
G01X-8077068Y-5937734D01*
G01X-8089034Y-5927133D01*
G01X-8103189Y-5919704D01*
G01X-8118711Y-5915878D01*
G01X-8134698Y-5915878D01*
G01X-8150220Y-5919704D01*
G01X-8164375Y-5927133D01*
G01X-8176341Y-5937734D01*
G01X-8185422Y-5950891D01*
G01X-8191091Y-5965838D01*
G01X-8193018Y-5981708D01*
G01X-8193018Y-5981708D01*
G01X-9556537Y-5981708D01*
G01X-9559226Y-5975943D01*
G01X-9571805Y-5957978D01*
G01X-9587312Y-5942471D01*
G01X-9605277Y-5929892D01*
G01X-9625153Y-5920624D01*
G01X-9646336Y-5914948D01*
G01X-9668184Y-5913036D01*
G01X-9668184Y-5913036D01*
G01X-9690031Y-5914948D01*
G01X-9711214Y-5920624D01*
G01X-9731091Y-5929892D01*
G01X-9749055Y-5942471D01*
G01X-9764563Y-5957978D01*
G01X-9777142Y-5975943D01*
G01X-9786410Y-5995819D01*
G01X-9792086Y-6017003D01*
G01X-9793997Y-6038850D01*
G01X-9967986Y-6038850D01*
G01X-9967986Y-5784850D01*
G01X-9793997Y-5784850D01*
G01X-9792086Y-5806697D01*
G01X-9786410Y-5827881D01*
G01X-9777142Y-5847757D01*
G01X-9764563Y-5865722D01*
G01X-9749055Y-5881229D01*
G01X-9731091Y-5893808D01*
G01X-9711214Y-5903076D01*
G01X-9690031Y-5908752D01*
G01X-9668184Y-5910664D01*
G01X-9646336Y-5908752D01*
G01X-9625153Y-5903076D01*
G01X-9605277Y-5893808D01*
G01X-9587312Y-5881229D01*
G01X-9571805Y-5865722D01*
G01X-9559226Y-5847757D01*
G01X-9549957Y-5827881D01*
G01X-9544281Y-5806697D01*
G01X-9542370Y-5784850D01*
G01X-9544281Y-5763003D01*
G01X-9549957Y-5741819D01*
G01X-9559226Y-5721943D01*
G01X-9571805Y-5703978D01*
G01X-9587312Y-5688471D01*
G01X-9605277Y-5675892D01*
G01X-9625153Y-5666624D01*
G01X-9646336Y-5660948D01*
G01X-9668184Y-5659036D01*
G01X-9668184Y-5659036D01*
G01X-9690031Y-5660948D01*
G01X-9711214Y-5666624D01*
G01X-9731091Y-5675892D01*
G01X-9749055Y-5688471D01*
G01X-9764563Y-5703978D01*
G01X-9777142Y-5721943D01*
G01X-9786410Y-5741819D01*
G01X-9792086Y-5763003D01*
G01X-9793997Y-5784850D01*
G01X-9967986Y-5784850D01*
G01X-9967986Y-5530850D01*
G01X-9793997Y-5530850D01*
G01X-9792086Y-5552697D01*
G01X-9786410Y-5573881D01*
G01X-9777142Y-5593757D01*
G01X-9764563Y-5611722D01*
G01X-9749055Y-5627229D01*
G01X-9731091Y-5639808D01*
G01X-9711214Y-5649076D01*
G01X-9690031Y-5654752D01*
G01X-9668184Y-5656664D01*
G01X-9646336Y-5654752D01*
G01X-9625153Y-5649076D01*
G01X-9605277Y-5639808D01*
G01X-9587312Y-5627229D01*
G01X-9571805Y-5611722D01*
G01X-9559226Y-5593757D01*
G01X-9549957Y-5573881D01*
G01X-9544281Y-5552697D01*
G01X-9542370Y-5530850D01*
G01X-9544036Y-5511800D01*
G01X-8499114Y-5511800D01*
G01X-8497187Y-5527670D01*
G01X-8491518Y-5542618D01*
G01X-8482437Y-5555774D01*
G01X-8470471Y-5566375D01*
G01X-8456315Y-5573805D01*
G01X-8440793Y-5577631D01*
G01X-8424807Y-5577631D01*
G01X-8409285Y-5573805D01*
G01X-8395129Y-5566375D01*
G01X-8383163Y-5555774D01*
G01X-8374082Y-5542618D01*
G01X-8368413Y-5527670D01*
G01X-8366486Y-5511800D01*
G01X-8368413Y-5495930D01*
G01X-8374082Y-5480982D01*
G01X-8383163Y-5467826D01*
G01X-8395129Y-5457225D01*
G01X-8409285Y-5449795D01*
G01X-8424807Y-5445969D01*
G01X-8440793Y-5445969D01*
G01X-8456315Y-5449795D01*
G01X-8470471Y-5457225D01*
G01X-8482437Y-5467826D01*
G01X-8491518Y-5480982D01*
G01X-8497187Y-5495930D01*
G01X-8499114Y-5511800D01*
G01X-8499114Y-5511800D01*
G01X-9544036Y-5511800D01*
G01X-9544281Y-5509003D01*
G01X-9549957Y-5487819D01*
G01X-9559226Y-5467943D01*
G01X-9571805Y-5449978D01*
G01X-9587312Y-5434471D01*
G01X-9605277Y-5421892D01*
G01X-9625153Y-5412624D01*
G01X-9646336Y-5406948D01*
G01X-9668184Y-5405036D01*
G01X-9668184Y-5405036D01*
G01X-9690031Y-5406948D01*
G01X-9711214Y-5412624D01*
G01X-9731091Y-5421892D01*
G01X-9749055Y-5434471D01*
G01X-9764563Y-5449978D01*
G01X-9777142Y-5467943D01*
G01X-9786410Y-5487819D01*
G01X-9792086Y-5509003D01*
G01X-9793997Y-5530850D01*
G01X-9967986Y-5530850D01*
G01X-9967986Y-4637511D01*
G01X-9839354Y-4637511D01*
G01X-9839354Y-5077990D01*
G01X-9837701Y-5090546D01*
G01X-9832855Y-5102247D01*
G01X-9825145Y-5112294D01*
G01X-9753269Y-5184170D01*
G01X-9753269Y-5184170D01*
G01X-9767879Y-5200104D01*
G01X-9779546Y-5218305D01*
G01X-9787925Y-5238234D01*
G01X-9792768Y-5259303D01*
G01X-9793933Y-5280890D01*
G01X-9791385Y-5302358D01*
G01X-9785199Y-5323073D01*
G01X-9775558Y-5342423D01*
G01X-9762748Y-5359837D01*
G01X-9747145Y-5374800D01*
G01X-9729210Y-5386872D01*
G01X-9709474Y-5395695D01*
G01X-9688519Y-5401010D01*
G01X-9666963Y-5402658D01*
G01X-9645444Y-5400592D01*
G01X-9624596Y-5394872D01*
G01X-9605034Y-5385668D01*
G01X-9587338Y-5373250D01*
G01X-9572028Y-5357987D01*
G01X-9559557Y-5340328D01*
G01X-9550294Y-5320794D01*
G01X-9544511Y-5299963D01*
G01X-8228137Y-5299963D01*
G01X-8242088Y-5313915D01*
G01X-8249798Y-5323962D01*
G01X-8254645Y-5335663D01*
G01X-8256298Y-5348219D01*
G01X-8256298Y-5373619D01*
G01X-8254645Y-5386176D01*
G01X-8249798Y-5397876D01*
G01X-8242088Y-5407924D01*
G01X-6339845Y-7310167D01*
G01X-6355699Y-7312547D01*
G01X-6370517Y-7318662D01*
G01X-6383436Y-7328155D01*
G01X-6393698Y-7340470D01*
G01X-6400706Y-7354888D01*
G01X-6404049Y-7370567D01*
G01X-6403532Y-7386589D01*
G01X-6399185Y-7402020D01*
G01X-6391263Y-7415956D01*
G01X-6380227Y-7427584D01*
G01X-6366724Y-7436224D01*
G01X-6351542Y-7441371D01*
G01X-6335568Y-7442724D01*
G01X-6319736Y-7440205D01*
G01X-6304972Y-7433960D01*
G01X-6292137Y-7424355D01*
G01X-6281982Y-7411950D01*
G01X-6275101Y-7397471D01*
G01X-6275101Y-7690605D01*
G01X-6284200Y-7702976D01*
G01X-6290208Y-7717108D01*
G01X-6292805Y-7732244D01*
G01X-6291851Y-7747571D01*
G01X-6287397Y-7762267D01*
G01X-6279682Y-7775545D01*
G01X-6269119Y-7786693D01*
G01X-6256276Y-7795111D01*
G01X-6241841Y-7800350D01*
G01X-6226587Y-7802129D01*
G01X-6211334Y-7800350D01*
G01X-6196899Y-7795111D01*
G01X-6184056Y-7786693D01*
G01X-6173493Y-7775545D01*
G01X-6165778Y-7762267D01*
G01X-6161324Y-7747571D01*
G01X-6160370Y-7732244D01*
G01X-6162967Y-7717108D01*
G01X-6168975Y-7702976D01*
G01X-6178073Y-7690605D01*
G01X-6178073Y-7354815D01*
G01X-6179727Y-7342259D01*
G01X-6180414Y-7340600D01*
G01X-6073414Y-7340600D01*
G01X-6071487Y-7356470D01*
G01X-6065818Y-7371418D01*
G01X-6056737Y-7384574D01*
G01X-6044771Y-7395175D01*
G01X-6030615Y-7402605D01*
G01X-6015093Y-7406431D01*
G01X-5999107Y-7406431D01*
G01X-5983585Y-7402605D01*
G01X-5969429Y-7395175D01*
G01X-5957463Y-7384574D01*
G01X-5954454Y-7380215D01*
G01X-5861102Y-7380215D01*
G01X-5859175Y-7396085D01*
G01X-5853507Y-7411033D01*
G01X-5844425Y-7424190D01*
G01X-5832459Y-7434791D01*
G01X-5818304Y-7442220D01*
G01X-5802782Y-7446046D01*
G01X-5786795Y-7446046D01*
G01X-5771273Y-7442220D01*
G01X-5757118Y-7434791D01*
G01X-5745152Y-7424190D01*
G01X-5736070Y-7411033D01*
G01X-5730402Y-7396085D01*
G01X-5728475Y-7380215D01*
G01X-5730402Y-7364345D01*
G01X-5736070Y-7349398D01*
G01X-5745152Y-7336241D01*
G01X-5757118Y-7325640D01*
G01X-5771273Y-7318211D01*
G01X-5786795Y-7314385D01*
G01X-5802782Y-7314385D01*
G01X-5818304Y-7318211D01*
G01X-5832459Y-7325640D01*
G01X-5844425Y-7336241D01*
G01X-5853507Y-7349398D01*
G01X-5859175Y-7364345D01*
G01X-5861102Y-7380215D01*
G01X-5861102Y-7380215D01*
G01X-5954454Y-7380215D01*
G01X-5948382Y-7371418D01*
G01X-5942713Y-7356470D01*
G01X-5940786Y-7340600D01*
G01X-5942713Y-7324730D01*
G01X-5948382Y-7309782D01*
G01X-5957463Y-7296626D01*
G01X-5969429Y-7286025D01*
G01X-5983585Y-7278595D01*
G01X-5999107Y-7274769D01*
G01X-6015093Y-7274769D01*
G01X-6030615Y-7278595D01*
G01X-6044771Y-7286025D01*
G01X-6056737Y-7296626D01*
G01X-6065818Y-7309782D01*
G01X-6071487Y-7324730D01*
G01X-6073414Y-7340600D01*
G01X-6073414Y-7340600D01*
G01X-6180414Y-7340600D01*
G01X-6184573Y-7330558D01*
G01X-6192283Y-7320511D01*
G01X-6205835Y-7306958D01*
G01X-6190913Y-7307134D01*
G01X-6176329Y-7303968D01*
G01X-6162823Y-7297621D01*
G01X-6151078Y-7288415D01*
G01X-6141688Y-7276815D01*
G01X-6135615Y-7264400D01*
G01X-5273314Y-7264400D01*
G01X-5271387Y-7280270D01*
G01X-5265718Y-7295218D01*
G01X-5256637Y-7308374D01*
G01X-5244671Y-7318975D01*
G01X-5230515Y-7326405D01*
G01X-5214993Y-7330231D01*
G01X-5199007Y-7330231D01*
G01X-5183485Y-7326405D01*
G01X-5169329Y-7318975D01*
G01X-5157363Y-7308374D01*
G01X-5148282Y-7295218D01*
G01X-5142613Y-7280270D01*
G01X-5140686Y-7264400D01*
G01X-5142613Y-7248530D01*
G01X-5148282Y-7233582D01*
G01X-5157363Y-7220426D01*
G01X-5169329Y-7209825D01*
G01X-5183485Y-7202395D01*
G01X-5199007Y-7198569D01*
G01X-5214993Y-7198569D01*
G01X-5230515Y-7202395D01*
G01X-5244671Y-7209825D01*
G01X-5256637Y-7220426D01*
G01X-5265718Y-7233582D01*
G01X-5271387Y-7248530D01*
G01X-5273314Y-7264400D01*
G01X-5273314Y-7264400D01*
G01X-6135615Y-7264400D01*
G01X-6135131Y-7263410D01*
G01X-6131737Y-7248877D01*
G01X-6131678Y-7233954D01*
G01X-6134958Y-7219396D01*
G01X-6141411Y-7205939D01*
G01X-6150709Y-7194267D01*
G01X-6162382Y-7184969D01*
G01X-6175838Y-7178516D01*
G01X-6190396Y-7175236D01*
G01X-6205320Y-7175295D01*
G01X-6219852Y-7178688D01*
G01X-6233257Y-7185246D01*
G01X-6244857Y-7194635D01*
G01X-6254063Y-7206381D01*
G01X-6260410Y-7219887D01*
G01X-6263576Y-7234471D01*
G01X-6263401Y-7249393D01*
G01X-7136536Y-6376257D01*
G01X-777523Y-6376257D01*
G01X-775596Y-6392127D01*
G01X-769927Y-6407075D01*
G01X-760845Y-6420232D01*
G01X-748879Y-6430833D01*
G01X-734724Y-6438262D01*
G01X-719202Y-6442088D01*
G01X-703215Y-6442088D01*
G01X-687693Y-6438262D01*
G01X-673538Y-6430833D01*
G01X-661572Y-6420232D01*
G01X-652491Y-6407075D01*
G01X-646822Y-6392127D01*
G01X-644895Y-6376257D01*
G01X-646822Y-6360387D01*
G01X-652491Y-6345440D01*
G01X-661572Y-6332283D01*
G01X-673538Y-6321682D01*
G01X-687693Y-6314253D01*
G01X-703215Y-6310427D01*
G01X-719202Y-6310427D01*
G01X-734724Y-6314253D01*
G01X-748879Y-6321682D01*
G01X-760845Y-6332283D01*
G01X-769927Y-6345440D01*
G01X-775596Y-6360387D01*
G01X-777523Y-6376257D01*
G01X-777523Y-6376257D01*
G01X-7136536Y-6376257D01*
G01X-8013694Y-5499100D01*
G01X-7933812Y-5499100D01*
G01X-7931885Y-5514970D01*
G01X-7926216Y-5529918D01*
G01X-7917134Y-5543074D01*
G01X-7905168Y-5553675D01*
G01X-7891013Y-5561105D01*
G01X-7875491Y-5564931D01*
G01X-7859504Y-5564931D01*
G01X-7843982Y-5561105D01*
G01X-7834442Y-5556098D01*
G01X-7356114Y-5556098D01*
G01X-7354187Y-5571968D01*
G01X-7348518Y-5586915D01*
G01X-7339437Y-5600072D01*
G01X-7327471Y-5610673D01*
G01X-7313315Y-5618102D01*
G01X-7297793Y-5621928D01*
G01X-7281807Y-5621928D01*
G01X-7266285Y-5618102D01*
G01X-7252129Y-5610673D01*
G01X-7240163Y-5600072D01*
G01X-7231082Y-5586915D01*
G01X-7225413Y-5571968D01*
G01X-7223486Y-5556098D01*
G01X-7223737Y-5554029D01*
G01X-4477515Y-5554029D01*
G01X-4475588Y-5569899D01*
G01X-4469919Y-5584846D01*
G01X-4460838Y-5598003D01*
G01X-4448872Y-5608604D01*
G01X-4434716Y-5616033D01*
G01X-4419194Y-5619859D01*
G01X-4403208Y-5619859D01*
G01X-4387686Y-5616033D01*
G01X-4373531Y-5608604D01*
G01X-4361565Y-5598003D01*
G01X-4352483Y-5584846D01*
G01X-4346814Y-5569899D01*
G01X-4344887Y-5554029D01*
G01X-4346814Y-5538159D01*
G01X-4352483Y-5523211D01*
G01X-4361565Y-5510054D01*
G01X-4373531Y-5499453D01*
G01X-4387686Y-5492024D01*
G01X-4403208Y-5488198D01*
G01X-4419194Y-5488198D01*
G01X-4434716Y-5492024D01*
G01X-4448872Y-5499453D01*
G01X-4460838Y-5510054D01*
G01X-4469919Y-5523211D01*
G01X-4475588Y-5538159D01*
G01X-4477515Y-5554029D01*
G01X-4477515Y-5554029D01*
G01X-7223737Y-5554029D01*
G01X-7225413Y-5540228D01*
G01X-7231082Y-5525280D01*
G01X-7240163Y-5512123D01*
G01X-7252129Y-5501522D01*
G01X-7266285Y-5494093D01*
G01X-7281807Y-5490267D01*
G01X-7297793Y-5490267D01*
G01X-7313315Y-5494093D01*
G01X-7327471Y-5501522D01*
G01X-7339437Y-5512123D01*
G01X-7348518Y-5525280D01*
G01X-7354187Y-5540228D01*
G01X-7356114Y-5556098D01*
G01X-7356114Y-5556098D01*
G01X-7834442Y-5556098D01*
G01X-7829827Y-5553675D01*
G01X-7817861Y-5543074D01*
G01X-7808779Y-5529918D01*
G01X-7803111Y-5514970D01*
G01X-7801184Y-5499100D01*
G01X-7803111Y-5483230D01*
G01X-7808779Y-5468282D01*
G01X-7810735Y-5465449D01*
G01X-4732335Y-5465449D01*
G01X-4730408Y-5481319D01*
G01X-4724739Y-5496267D01*
G01X-4715657Y-5509423D01*
G01X-4703691Y-5520024D01*
G01X-4689536Y-5527454D01*
G01X-4674014Y-5531279D01*
G01X-4658027Y-5531279D01*
G01X-4642505Y-5527454D01*
G01X-4628350Y-5520024D01*
G01X-4616384Y-5509423D01*
G01X-4607303Y-5496267D01*
G01X-4601634Y-5481319D01*
G01X-4599707Y-5465449D01*
G01X-4601634Y-5449579D01*
G01X-4607303Y-5434631D01*
G01X-4616384Y-5421475D01*
G01X-4628350Y-5410874D01*
G01X-4642505Y-5403444D01*
G01X-4658027Y-5399619D01*
G01X-4674014Y-5399619D01*
G01X-4689536Y-5403444D01*
G01X-4703691Y-5410874D01*
G01X-4715657Y-5421475D01*
G01X-4724739Y-5434631D01*
G01X-4730408Y-5449579D01*
G01X-4732335Y-5465449D01*
G01X-4732335Y-5465449D01*
G01X-7810735Y-5465449D01*
G01X-7817861Y-5455126D01*
G01X-7829827Y-5444525D01*
G01X-7843982Y-5437095D01*
G01X-7859504Y-5433269D01*
G01X-7875491Y-5433269D01*
G01X-7891013Y-5437095D01*
G01X-7905168Y-5444525D01*
G01X-7917134Y-5455126D01*
G01X-7926216Y-5468282D01*
G01X-7931885Y-5483230D01*
G01X-7933812Y-5499100D01*
G01X-7933812Y-5499100D01*
G01X-8013694Y-5499100D01*
G01X-8135637Y-5377157D01*
G01X-8121396Y-5384726D01*
G01X-8105749Y-5388634D01*
G01X-8089621Y-5388649D01*
G01X-8073967Y-5384770D01*
G01X-8059711Y-5377227D01*
G01X-8047699Y-5366466D01*
G01X-8038639Y-5353123D01*
G01X-8036158Y-5355604D01*
G01X-8026111Y-5363314D01*
G01X-8014410Y-5368160D01*
G01X-8001854Y-5369813D01*
G01X-6804856Y-5369813D01*
G01X-6792300Y-5368160D01*
G01X-6780599Y-5363314D01*
G01X-6770552Y-5355604D01*
G01X-6682968Y-5268020D01*
G01X-6681666Y-5283801D01*
G01X-6676661Y-5298824D01*
G01X-6668236Y-5312232D01*
G01X-6656873Y-5323261D01*
G01X-6643219Y-5331281D01*
G01X-6628053Y-5335835D01*
G01X-6612239Y-5336664D01*
G01X-6596680Y-5333720D01*
G01X-6582263Y-5327171D01*
G01X-6569809Y-5317391D01*
G01X-6560029Y-5304937D01*
G01X-6558604Y-5301801D01*
G01X-4968251Y-5301801D01*
G01X-4965122Y-5316836D01*
G01X-4958620Y-5330748D01*
G01X-4949091Y-5342791D01*
G01X-4949091Y-5342791D01*
G01X-4937048Y-5352320D01*
G01X-4923136Y-5358822D01*
G01X-4908101Y-5361951D01*
G01X-4892750Y-5361537D01*
G01X-4877906Y-5357604D01*
G01X-4864364Y-5350361D01*
G01X-4852852Y-5340198D01*
G01X-4843986Y-5327659D01*
G01X-4841421Y-5321300D01*
G01X-4739914Y-5321300D01*
G01X-4737987Y-5337170D01*
G01X-4732318Y-5352118D01*
G01X-4723237Y-5365274D01*
G01X-4711271Y-5375875D01*
G01X-4697115Y-5383305D01*
G01X-4681593Y-5387131D01*
G01X-4665607Y-5387131D01*
G01X-4650085Y-5383305D01*
G01X-4635929Y-5375875D01*
G01X-4623963Y-5365274D01*
G01X-4614882Y-5352118D01*
G01X-4609213Y-5337170D01*
G01X-4607787Y-5325429D01*
G01X-4248916Y-5325429D01*
G01X-4246989Y-5341299D01*
G01X-4241320Y-5356247D01*
G01X-4232238Y-5369404D01*
G01X-4220272Y-5380005D01*
G01X-4206117Y-5387434D01*
G01X-4190595Y-5391260D01*
G01X-4174608Y-5391260D01*
G01X-4159086Y-5387434D01*
G01X-4144931Y-5380005D01*
G01X-4132965Y-5369404D01*
G01X-4123884Y-5356247D01*
G01X-4119512Y-5344720D01*
G01X-3761920Y-5344720D01*
G01X-3759323Y-5359856D01*
G01X-3753315Y-5373988D01*
G01X-3744217Y-5386359D01*
G01X-3744217Y-5595149D01*
G01X-3742277Y-5608730D01*
G01X-3736613Y-5621224D01*
G01X-3734528Y-5637061D01*
G01X-3728717Y-5651939D01*
G01X-3719516Y-5664996D01*
G01X-3707461Y-5675474D01*
G01X-3693249Y-5682766D01*
G01X-3677707Y-5686448D01*
G01X-3661734Y-5686307D01*
G01X-3646259Y-5682351D01*
G01X-3632179Y-5674809D01*
G01X-3620310Y-5664119D01*
G01X-3611342Y-5650901D01*
G01X-3605795Y-5635922D01*
G01X-3603990Y-5620052D01*
G01X-3606033Y-5604210D01*
G01X-3611804Y-5589316D01*
G01X-3620969Y-5576234D01*
G01X-3632997Y-5565723D01*
G01X-3647189Y-5558394D01*
G01X-3647189Y-5386359D01*
G01X-3647189Y-5386359D01*
G01X-3638090Y-5373988D01*
G01X-3632082Y-5359856D01*
G01X-3629485Y-5344720D01*
G01X-3630439Y-5329393D01*
G01X-3634893Y-5314697D01*
G01X-3642608Y-5301419D01*
G01X-3653171Y-5290271D01*
G01X-3666014Y-5281852D01*
G01X-3680449Y-5276614D01*
G01X-3695703Y-5274835D01*
G01X-3710956Y-5276614D01*
G01X-3725391Y-5281852D01*
G01X-3738235Y-5290271D01*
G01X-3748797Y-5301419D01*
G01X-3756512Y-5314697D01*
G01X-3760966Y-5329393D01*
G01X-3761920Y-5344720D01*
G01X-4119512Y-5344720D01*
G01X-4118215Y-5341299D01*
G01X-4116288Y-5325429D01*
G01X-4118215Y-5309559D01*
G01X-4123884Y-5294612D01*
G01X-4132965Y-5281455D01*
G01X-4144931Y-5270854D01*
G01X-4159086Y-5263425D01*
G01X-4174608Y-5259599D01*
G01X-4190595Y-5259599D01*
G01X-4206117Y-5263425D01*
G01X-4220272Y-5270854D01*
G01X-4232238Y-5281455D01*
G01X-4241320Y-5294612D01*
G01X-4246989Y-5309559D01*
G01X-4248916Y-5325429D01*
G01X-4248916Y-5325429D01*
G01X-4607787Y-5325429D01*
G01X-4607286Y-5321300D01*
G01X-4609213Y-5305430D01*
G01X-4614882Y-5290482D01*
G01X-4623963Y-5277326D01*
G01X-4635929Y-5266725D01*
G01X-4650085Y-5259295D01*
G01X-4665607Y-5255469D01*
G01X-4681593Y-5255469D01*
G01X-4697115Y-5259295D01*
G01X-4711271Y-5266725D01*
G01X-4723237Y-5277326D01*
G01X-4732318Y-5290482D01*
G01X-4737987Y-5305430D01*
G01X-4739914Y-5321300D01*
G01X-4739914Y-5321300D01*
G01X-4841421Y-5321300D01*
G01X-4838241Y-5313418D01*
G01X-4835927Y-5298236D01*
G01X-4647233Y-5109542D01*
G01X-4634082Y-5116426D01*
G01X-4619730Y-5120211D01*
G01X-4604895Y-5120709D01*
G01X-4590321Y-5117896D01*
G01X-4576737Y-5111910D01*
G01X-4564826Y-5103054D01*
G01X-4555182Y-5091770D01*
G01X-4548290Y-5078623D01*
G01X-4544495Y-5064273D01*
G01X-4543987Y-5049439D01*
G01X-4546791Y-5034863D01*
G01X-4552767Y-5021275D01*
G01X-4561616Y-5009358D01*
G01X-4571855Y-5000596D01*
G01X-4411165Y-5000596D01*
G01X-4409080Y-5015207D01*
G01X-4409080Y-5015207D01*
G01X-4403815Y-5028994D01*
G01X-4395630Y-5041276D01*
G01X-4384933Y-5051443D01*
G01X-4372251Y-5058992D01*
G01X-4358214Y-5063550D01*
G01X-4343516Y-5064890D01*
G01X-4328886Y-5062946D01*
G01X-4315048Y-5057814D01*
G01X-4302688Y-5049749D01*
G01X-4300751Y-5047750D01*
G01X-4047436Y-5047750D01*
G01X-4045509Y-5063620D01*
G01X-4039840Y-5078567D01*
G01X-4030759Y-5091724D01*
G01X-4018793Y-5102325D01*
G01X-4004637Y-5109754D01*
G01X-3989115Y-5113580D01*
G01X-3973129Y-5113580D01*
G01X-3957607Y-5109754D01*
G01X-3945940Y-5103631D01*
G01X-3752773Y-5103631D01*
G01X-3749645Y-5118666D01*
G01X-3743142Y-5132578D01*
G01X-3733614Y-5144621D01*
G01X-3721571Y-5154149D01*
G01X-3707659Y-5160652D01*
G01X-3692624Y-5163781D01*
G01X-3677273Y-5163367D01*
G01X-3662429Y-5159433D01*
G01X-3648887Y-5152191D01*
G01X-3637375Y-5142028D01*
G01X-3628509Y-5129489D01*
G01X-3622764Y-5115247D01*
G01X-3620450Y-5100066D01*
G01X-3565028Y-5044644D01*
G01X-3456798Y-5044644D01*
G01X-3461630Y-5058637D01*
G01X-3463237Y-5073353D01*
G01X-3461540Y-5088059D01*
G01X-3456622Y-5102022D01*
G01X-3448729Y-5114547D01*
G01X-3438255Y-5125008D01*
G01X-3425721Y-5132885D01*
G01X-3411751Y-5137785D01*
G01X-3397043Y-5139464D01*
G01X-3382329Y-5137838D01*
G01X-3368342Y-5132988D01*
G01X-3355779Y-5125157D01*
G01X-3345267Y-5114733D01*
G01X-3337329Y-5102238D01*
G01X-3332361Y-5088292D01*
G01X-3332140Y-5086430D01*
G01X-2777318Y-5086430D01*
G01X-2775540Y-5101683D01*
G01X-2770301Y-5116118D01*
G01X-2761882Y-5128962D01*
G01X-2750735Y-5139524D01*
G01X-2737457Y-5147239D01*
G01X-2722761Y-5151693D01*
G01X-2707434Y-5152647D01*
G01X-2692298Y-5150051D01*
G01X-2678166Y-5144042D01*
G01X-2665795Y-5134944D01*
G01X-2609405Y-5134944D01*
G01X-2596848Y-5133291D01*
G01X-2585148Y-5128444D01*
G01X-2575100Y-5120734D01*
G01X-1464071Y-4009705D01*
G01X-1448889Y-4007390D01*
G01X-1434648Y-4001646D01*
G01X-1422109Y-3992780D01*
G01X-1411946Y-3981267D01*
G01X-1404703Y-3967726D01*
G01X-1400770Y-3952882D01*
G01X-1400356Y-3937531D01*
G01X-1403485Y-3922496D01*
G01X-1409988Y-3908584D01*
G01X-1419516Y-3896541D01*
G01X-1431559Y-3887013D01*
G01X-1445471Y-3880510D01*
G01X-1460505Y-3877381D01*
G01X-1475857Y-3877795D01*
G01X-1490701Y-3881728D01*
G01X-1504242Y-3888971D01*
G01X-1515755Y-3899134D01*
G01X-1524621Y-3911673D01*
G01X-1530365Y-3925914D01*
G01X-1532680Y-3941096D01*
G01X-2340629Y-4749045D01*
G01X-2349794Y-4737197D01*
G01X-2361385Y-4727708D01*
G01X-2374810Y-4721063D01*
G01X-2389383Y-4717601D01*
G01X-2404362Y-4717498D01*
G01X-2418982Y-4720759D01*
G01X-2432497Y-4727219D01*
G01X-2444218Y-4736546D01*
G01X-2453546Y-4748267D01*
G01X-2460005Y-4761782D01*
G01X-2463266Y-4776402D01*
G01X-2463163Y-4791381D01*
G01X-2459701Y-4805954D01*
G01X-2453056Y-4819379D01*
G01X-2443567Y-4830970D01*
G01X-2431720Y-4840135D01*
G01X-2458402Y-4866818D01*
G01X-2458643Y-4850517D01*
G01X-2462853Y-4834767D01*
G01X-2470778Y-4820520D01*
G01X-2481940Y-4808638D01*
G01X-2495664Y-4799837D01*
G01X-2511121Y-4794651D01*
G01X-2527375Y-4793393D01*
G01X-2543445Y-4796139D01*
G01X-2558360Y-4802723D01*
G01X-2571217Y-4812746D01*
G01X-2581241Y-4825604D01*
G01X-2587825Y-4840518D01*
G01X-2590570Y-4856589D01*
G01X-2589312Y-4872843D01*
G01X-2584126Y-4888299D01*
G01X-2575326Y-4902023D01*
G01X-2563444Y-4913185D01*
G01X-2549197Y-4921111D01*
G01X-2533447Y-4925321D01*
G01X-2517145Y-4925561D01*
G01X-2629500Y-5037916D01*
G01X-2665795Y-5037916D01*
G01X-2665795Y-5037916D01*
G01X-2678166Y-5028818D01*
G01X-2692298Y-5022809D01*
G01X-2707434Y-5020212D01*
G01X-2722761Y-5021166D01*
G01X-2737457Y-5025620D01*
G01X-2750735Y-5033335D01*
G01X-2761882Y-5043898D01*
G01X-2770301Y-5056741D01*
G01X-2775540Y-5071176D01*
G01X-2777318Y-5086430D01*
G01X-3332140Y-5086430D01*
G01X-3330611Y-5073592D01*
G01X-3332165Y-5058871D01*
G01X-3336946Y-5044860D01*
G01X-3327256Y-5033667D01*
G01X-3320290Y-5020602D01*
G01X-3316396Y-5006318D01*
G01X-3315769Y-4991525D01*
G01X-3318440Y-4976962D01*
G01X-3324275Y-4963355D01*
G01X-3332983Y-4951381D01*
G01X-3344131Y-4941638D01*
G01X-3341159Y-4925984D01*
G01X-3342007Y-4910071D01*
G01X-3346626Y-4894821D01*
G01X-3354750Y-4881113D01*
G01X-3365909Y-4869738D01*
G01X-3379460Y-4861354D01*
G01X-3394619Y-4856444D01*
G01X-3410512Y-4855293D01*
G01X-3426221Y-4857966D01*
G01X-3440839Y-4864309D01*
G01X-3453521Y-4873956D01*
G01X-3463536Y-4886350D01*
G01X-3470306Y-4900775D01*
G01X-3473438Y-4916399D01*
G01X-3472754Y-4932319D01*
G01X-3468291Y-4947616D01*
G01X-3585123Y-4947616D01*
G01X-3597679Y-4949269D01*
G01X-3609380Y-4954116D01*
G01X-3619427Y-4961825D01*
G01X-3689059Y-5031457D01*
G01X-3689059Y-5031457D01*
G01X-3704240Y-5033771D01*
G01X-3718482Y-5039516D01*
G01X-3731021Y-5048382D01*
G01X-3741184Y-5059894D01*
G01X-3748426Y-5073436D01*
G01X-3752360Y-5088280D01*
G01X-3752773Y-5103631D01*
G01X-3945940Y-5103631D01*
G01X-3943451Y-5102325D01*
G01X-3931485Y-5091724D01*
G01X-3922404Y-5078567D01*
G01X-3916735Y-5063620D01*
G01X-3914808Y-5047750D01*
G01X-3916735Y-5031880D01*
G01X-3922404Y-5016932D01*
G01X-3931485Y-5003776D01*
G01X-3943451Y-4993175D01*
G01X-3957607Y-4985745D01*
G01X-3973129Y-4981919D01*
G01X-3989115Y-4981919D01*
G01X-4004637Y-4985745D01*
G01X-4018793Y-4993175D01*
G01X-4030759Y-5003776D01*
G01X-4039840Y-5016932D01*
G01X-4045509Y-5031880D01*
G01X-4047436Y-5047750D01*
G01X-4047436Y-5047750D01*
G01X-4300751Y-5047750D01*
G01X-4292418Y-5039150D01*
G01X-4278295Y-5043436D01*
G01X-4263575Y-5044491D01*
G01X-4248985Y-5042265D01*
G01X-4235249Y-5036867D01*
G01X-4223047Y-5028564D01*
G01X-4212984Y-5017768D01*
G01X-4205557Y-5005014D01*
G01X-4201136Y-4990934D01*
G01X-4199938Y-4976224D01*
G01X-4202023Y-4961613D01*
G01X-4207288Y-4947826D01*
G01X-4215473Y-4935544D01*
G01X-4226170Y-4925377D01*
G01X-4238852Y-4917828D01*
G01X-4252889Y-4913270D01*
G01X-4267587Y-4911930D01*
G01X-4282217Y-4913874D01*
G01X-4296055Y-4919006D01*
G01X-4308415Y-4927071D01*
G01X-4318685Y-4937670D01*
G01X-4332808Y-4933384D01*
G01X-4347528Y-4932329D01*
G01X-4362118Y-4934555D01*
G01X-4375854Y-4939953D01*
G01X-4388056Y-4948256D01*
G01X-4398119Y-4959052D01*
G01X-4405545Y-4971806D01*
G01X-4409967Y-4985886D01*
G01X-4411165Y-5000596D01*
G01X-4571855Y-5000596D01*
G01X-4572894Y-4999707D01*
G01X-4586036Y-4992806D01*
G01X-4600383Y-4989002D01*
G01X-4615217Y-4988484D01*
G01X-4629795Y-4991278D01*
G01X-4643387Y-4997245D01*
G01X-4655310Y-5006086D01*
G01X-4660900Y-5006086D01*
G01X-4673456Y-5007739D01*
G01X-4685157Y-5012586D01*
G01X-4695205Y-5020295D01*
G01X-4904536Y-5229627D01*
G01X-4919718Y-5231941D01*
G01X-4933959Y-5237686D01*
G01X-4946498Y-5246552D01*
G01X-4956661Y-5258064D01*
G01X-4963904Y-5271606D01*
G01X-4967837Y-5286450D01*
G01X-4968251Y-5301801D01*
G01X-6558604Y-5301801D01*
G01X-6553480Y-5290520D01*
G01X-6550536Y-5274961D01*
G01X-6551365Y-5259147D01*
G01X-6555919Y-5243981D01*
G01X-6563939Y-5230327D01*
G01X-6574968Y-5218964D01*
G01X-6588376Y-5210539D01*
G01X-6603399Y-5205534D01*
G01X-6619180Y-5204232D01*
G01X-6606962Y-5192014D01*
G01X-6468675Y-5192014D01*
G01X-6470314Y-5207689D01*
G01X-6468208Y-5223308D01*
G01X-6462475Y-5237989D01*
G01X-6453440Y-5250903D01*
G01X-6441613Y-5261319D01*
G01X-6427662Y-5268651D01*
G01X-6412374Y-5272483D01*
G01X-6396614Y-5272600D01*
G01X-6381272Y-5268994D01*
G01X-6367213Y-5261870D01*
G01X-6355234Y-5251629D01*
G01X-6346008Y-5238850D01*
G01X-6340060Y-5224256D01*
G01X-6337723Y-5208670D01*
G01X-6322771Y-5209759D01*
G01X-6307957Y-5207463D01*
G01X-6294038Y-5201898D01*
G01X-6281724Y-5193349D01*
G01X-6271645Y-5182252D01*
G01X-6264315Y-5169175D01*
G01X-6260111Y-5154786D01*
G01X-6259245Y-5139820D01*
G01X-6261764Y-5125042D01*
G01X-6267537Y-5111207D01*
G01X-6276270Y-5099023D01*
G01X-6287517Y-5089112D01*
G01X-6300703Y-5081979D01*
G01X-6315153Y-5077991D01*
G01X-6330130Y-5077351D01*
G01X-6344869Y-5080091D01*
G01X-6358615Y-5086071D01*
G01X-6370667Y-5094986D01*
G01X-6627057Y-5094986D01*
G01X-6639613Y-5096639D01*
G01X-6651314Y-5101485D01*
G01X-6661361Y-5109195D01*
G01X-6824951Y-5272785D01*
G01X-6881109Y-5272785D01*
G01X-6865855Y-5269683D01*
G01X-6851745Y-5263111D01*
G01X-6839555Y-5253430D01*
G01X-6829958Y-5241174D01*
G01X-6823482Y-5227019D01*
G01X-6820484Y-5211744D01*
G01X-6821130Y-5196191D01*
G01X-6825384Y-5181218D01*
G01X-6833011Y-5167648D01*
G01X-6843591Y-5156230D01*
G01X-6856541Y-5147593D01*
G01X-6871148Y-5142213D01*
G01X-6886606Y-5140386D01*
G01X-6902065Y-5142213D01*
G01X-6916672Y-5147593D01*
G01X-6929622Y-5156230D01*
G01X-6940202Y-5167648D01*
G01X-6947829Y-5181218D01*
G01X-6952082Y-5196191D01*
G01X-6952728Y-5211744D01*
G01X-6949730Y-5227019D01*
G01X-6943255Y-5241174D01*
G01X-6933657Y-5253430D01*
G01X-6921468Y-5263111D01*
G01X-6907357Y-5269683D01*
G01X-6892103Y-5272785D01*
G01X-7003852Y-5272785D01*
G01X-6999651Y-5259069D01*
G01X-6998498Y-5244770D01*
G01X-7000447Y-5230557D01*
G01X-7005406Y-5217097D01*
G01X-7013145Y-5205017D01*
G01X-7023300Y-5194885D01*
G01X-7035397Y-5187174D01*
G01X-7027250Y-5175556D01*
G01X-7021761Y-5162470D01*
G01X-7019182Y-5148517D01*
G01X-7019630Y-5134334D01*
G01X-7023086Y-5120571D01*
G01X-7029391Y-5107859D01*
G01X-7038256Y-5096779D01*
G01X-6907940Y-4966463D01*
G01X-6897694Y-4965300D01*
G01X-6887753Y-4962562D01*
G01X-6888881Y-4975903D01*
G01X-6887306Y-4989198D01*
G01X-6900630Y-4997391D01*
G01X-6911665Y-5008476D01*
G01X-6919796Y-5021838D01*
G01X-6924571Y-5036733D01*
G01X-6925725Y-5052331D01*
G01X-6923193Y-5067766D01*
G01X-6917117Y-5082179D01*
G01X-6907834Y-5094767D01*
G01X-6895860Y-5104831D01*
G01X-6881863Y-5111811D01*
G01X-6866620Y-5115318D01*
G01X-6850979Y-5115157D01*
G01X-6835811Y-5111338D01*
G01X-6821960Y-5104072D01*
G01X-6809419Y-5111153D01*
G01X-6795644Y-5115360D01*
G01X-6781286Y-5116494D01*
G01X-6767022Y-5114501D01*
G01X-6753525Y-5109475D01*
G01X-6741431Y-5101654D01*
G01X-6731311Y-5091406D01*
G01X-6723642Y-5079215D01*
G01X-6718786Y-5065655D01*
G01X-6716973Y-5051367D01*
G01X-6718287Y-5037025D01*
G01X-6722666Y-5023304D01*
G01X-6258473Y-5023304D01*
G01X-6152251Y-5129526D01*
G01X-6149936Y-5144707D01*
G01X-6144192Y-5158949D01*
G01X-6135326Y-5171488D01*
G01X-6123813Y-5181651D01*
G01X-6110272Y-5188893D01*
G01X-6095427Y-5192827D01*
G01X-6080076Y-5193240D01*
G01X-6065042Y-5190112D01*
G01X-6051130Y-5183609D01*
G01X-6039087Y-5174081D01*
G01X-6029558Y-5162038D01*
G01X-6023056Y-5148126D01*
G01X-6019927Y-5133091D01*
G01X-6020341Y-5117740D01*
G01X-6024274Y-5102896D01*
G01X-6031517Y-5089354D01*
G01X-6041680Y-5077842D01*
G01X-6054218Y-5068976D01*
G01X-6068460Y-5063231D01*
G01X-6083642Y-5060917D01*
G01X-6204073Y-4940486D01*
G01X-6214120Y-4932776D01*
G01X-6225821Y-4927929D01*
G01X-6238377Y-4926276D01*
G01X-6777367Y-4926276D01*
G01X-6789006Y-4917602D01*
G01X-6802253Y-4911667D01*
G01X-6816475Y-4908758D01*
G01X-6830989Y-4909012D01*
G01X-6845099Y-4912418D01*
G01X-6843967Y-4901020D01*
G01X-6844814Y-4889597D01*
G01X-6847614Y-4878489D01*
G01X-6834860Y-4885736D01*
G01X-6820824Y-4890002D01*
G01X-6806195Y-4891078D01*
G01X-6791687Y-4888911D01*
G01X-6778010Y-4883607D01*
G01X-6765834Y-4875427D01*
G01X-6755754Y-4864770D01*
G01X-6748264Y-4852157D01*
G01X-6743730Y-4838206D01*
G01X-6742558Y-4825590D01*
G01X-6457091Y-4825590D01*
G01X-6455164Y-4841460D01*
G01X-6449495Y-4856408D01*
G01X-6440414Y-4869565D01*
G01X-6428448Y-4880166D01*
G01X-6414292Y-4887595D01*
G01X-6398770Y-4891421D01*
G01X-6382784Y-4891421D01*
G01X-6367262Y-4887595D01*
G01X-6353107Y-4880166D01*
G01X-6341140Y-4869565D01*
G01X-6332059Y-4856408D01*
G01X-6326390Y-4841460D01*
G01X-6324463Y-4825590D01*
G01X-6326390Y-4809720D01*
G01X-6329693Y-4801010D01*
G01X-5856032Y-4801010D01*
G01X-5854105Y-4816880D01*
G01X-5848436Y-4831828D01*
G01X-5839355Y-4844985D01*
G01X-5827389Y-4855586D01*
G01X-5813234Y-4863015D01*
G01X-5797712Y-4866841D01*
G01X-5781725Y-4866841D01*
G01X-5766203Y-4863015D01*
G01X-5752048Y-4855586D01*
G01X-5740082Y-4844985D01*
G01X-5731000Y-4831828D01*
G01X-5725331Y-4816880D01*
G01X-5723404Y-4801010D01*
G01X-5725331Y-4785140D01*
G01X-5731000Y-4770193D01*
G01X-5740082Y-4757036D01*
G01X-5752048Y-4746435D01*
G01X-5766203Y-4739006D01*
G01X-5781725Y-4735180D01*
G01X-5797712Y-4735180D01*
G01X-5813234Y-4739006D01*
G01X-5827389Y-4746435D01*
G01X-5839355Y-4757036D01*
G01X-5848436Y-4770193D01*
G01X-5854105Y-4785140D01*
G01X-5856032Y-4801010D01*
G01X-5856032Y-4801010D01*
G01X-6329693Y-4801010D01*
G01X-6332059Y-4794773D01*
G01X-6341140Y-4781616D01*
G01X-6353107Y-4771015D01*
G01X-6367262Y-4763586D01*
G01X-6382784Y-4759760D01*
G01X-6398770Y-4759760D01*
G01X-6414292Y-4763586D01*
G01X-6428448Y-4771015D01*
G01X-6440414Y-4781616D01*
G01X-6449495Y-4794773D01*
G01X-6455164Y-4809720D01*
G01X-6457091Y-4825590D01*
G01X-6457091Y-4825590D01*
G01X-6742558Y-4825590D01*
G01X-6742374Y-4823600D01*
G01X-6744262Y-4809053D01*
G01X-6749302Y-4795277D01*
G01X-6740682Y-4784117D01*
G01X-6734617Y-4771387D01*
G01X-6731380Y-4757663D01*
G01X-6731119Y-4743564D01*
G01X-6733844Y-4729729D01*
G01X-6739433Y-4716783D01*
G01X-6747633Y-4705311D01*
G01X-6738067Y-4697905D01*
G01X-5050775Y-4697905D01*
G01X-4823213Y-4925467D01*
G01X-4820899Y-4940648D01*
G01X-4815154Y-4954890D01*
G01X-4806288Y-4967428D01*
G01X-4794776Y-4977591D01*
G01X-4781234Y-4984834D01*
G01X-4766390Y-4988767D01*
G01X-4751039Y-4989181D01*
G01X-4736004Y-4986052D01*
G01X-4722092Y-4979550D01*
G01X-4710049Y-4970021D01*
G01X-4700521Y-4957978D01*
G01X-4694018Y-4944066D01*
G01X-4690890Y-4929032D01*
G01X-4691303Y-4913681D01*
G01X-4695237Y-4898836D01*
G01X-4702479Y-4885295D01*
G01X-4712642Y-4873782D01*
G01X-4725181Y-4864916D01*
G01X-4739423Y-4859172D01*
G01X-4754604Y-4856857D01*
G01X-4842461Y-4769000D01*
G01X-4485915Y-4769000D01*
G01X-4483988Y-4784870D01*
G01X-4478319Y-4799818D01*
G01X-4469238Y-4812975D01*
G01X-4457272Y-4823576D01*
G01X-4443117Y-4831005D01*
G01X-4427595Y-4834831D01*
G01X-4411608Y-4834831D01*
G01X-4396086Y-4831005D01*
G01X-4381931Y-4823576D01*
G01X-4369965Y-4812975D01*
G01X-4360883Y-4799818D01*
G01X-4355214Y-4784870D01*
G01X-4353287Y-4769000D01*
G01X-4355214Y-4753130D01*
G01X-4360883Y-4738183D01*
G01X-4369965Y-4725026D01*
G01X-4381931Y-4714425D01*
G01X-4396086Y-4706996D01*
G01X-4411608Y-4703170D01*
G01X-4427595Y-4703170D01*
G01X-4443117Y-4706996D01*
G01X-4457272Y-4714425D01*
G01X-4469238Y-4725026D01*
G01X-4478319Y-4738183D01*
G01X-4483988Y-4753130D01*
G01X-4485915Y-4769000D01*
G01X-4485915Y-4769000D01*
G01X-4842461Y-4769000D01*
G01X-4996375Y-4615086D01*
G01X-5006423Y-4607376D01*
G01X-5018124Y-4602530D01*
G01X-5030680Y-4600877D01*
G01X-6247538Y-4600877D01*
G01X-6239569Y-4588312D01*
G01X-6234602Y-4574287D01*
G01X-6232886Y-4559507D01*
G01X-6234509Y-4544717D01*
G01X-6239389Y-4530661D01*
G01X-6247280Y-4518046D01*
G01X-6257785Y-4507509D01*
G01X-6270374Y-4499579D01*
G01X-6284415Y-4494655D01*
G01X-6299200Y-4492986D01*
G01X-6313985Y-4494655D01*
G01X-6328026Y-4499579D01*
G01X-6340615Y-4507509D01*
G01X-6351120Y-4518046D01*
G01X-6359011Y-4530661D01*
G01X-6363891Y-4544717D01*
G01X-6365514Y-4559507D01*
G01X-6363798Y-4574287D01*
G01X-6358831Y-4588312D01*
G01X-6350862Y-4600877D01*
G01X-6738067Y-4600877D01*
G01X-6747388Y-4593628D01*
G01X-6733788Y-4587660D01*
G01X-6721857Y-4578815D01*
G01X-6494287Y-4578815D01*
G01X-6481916Y-4587913D01*
G01X-6467783Y-4593922D01*
G01X-6452648Y-4596519D01*
G01X-6437321Y-4595564D01*
G01X-6422624Y-4591110D01*
G01X-6409346Y-4583395D01*
G01X-6398199Y-4572833D01*
G01X-6389780Y-4559990D01*
G01X-6384541Y-4545554D01*
G01X-6382763Y-4530301D01*
G01X-6384541Y-4515047D01*
G01X-6389780Y-4500612D01*
G01X-6398199Y-4487769D01*
G01X-6409346Y-4477206D01*
G01X-6422624Y-4469491D01*
G01X-6437321Y-4465037D01*
G01X-6452648Y-4464083D01*
G01X-6467783Y-4466680D01*
G01X-6481916Y-4472689D01*
G01X-6494287Y-4481787D01*
G01X-6721857Y-4481787D01*
G01X-6734519Y-4472524D01*
G01X-6749002Y-4466495D01*
G01X-6764497Y-4464037D01*
G01X-6780136Y-4465288D01*
G01X-6795043Y-4470177D01*
G01X-6808384Y-4478432D01*
G01X-6819413Y-4489590D01*
G01X-6827512Y-4503026D01*
G01X-6832228Y-4517989D01*
G01X-6833296Y-4533641D01*
G01X-6830658Y-4549107D01*
G01X-6824461Y-4563519D01*
G01X-6815051Y-4576072D01*
G01X-6802955Y-4586064D01*
G01X-6816407Y-4591946D01*
G01X-6828235Y-4600643D01*
G01X-6837859Y-4611730D01*
G01X-6844808Y-4624663D01*
G01X-6848740Y-4638808D01*
G01X-6849465Y-4653471D01*
G01X-6846945Y-4667934D01*
G01X-6841304Y-4681489D01*
G01X-6832820Y-4693470D01*
G01X-6845280Y-4703745D01*
G01X-6854888Y-4716727D01*
G01X-6861072Y-4731646D01*
G01X-6863467Y-4747618D01*
G01X-6861929Y-4763695D01*
G01X-6856551Y-4778924D01*
G01X-6865394Y-4790450D01*
G01X-6871515Y-4803625D01*
G01X-6874621Y-4817817D01*
G01X-6874561Y-4832345D01*
G01X-6871339Y-4846511D01*
G01X-6885236Y-4838785D01*
G01X-6900572Y-4834590D01*
G01X-6916467Y-4834166D01*
G01X-6932005Y-4837537D01*
G01X-6946294Y-4844510D01*
G01X-6958513Y-4854684D01*
G01X-6967958Y-4867475D01*
G01X-6974088Y-4882145D01*
G01X-6976549Y-4897854D01*
G01X-7108171Y-5029476D01*
G01X-7761004Y-5029476D01*
G01X-7710407Y-4978879D01*
G01X-7699888Y-4991011D01*
G01X-7686761Y-5000258D01*
G01X-7671796Y-5006079D01*
G01X-7655871Y-5008133D01*
G01X-7639919Y-5006298D01*
G01X-7624876Y-5000684D01*
G01X-7611623Y-4991618D01*
G01X-7600938Y-4979633D01*
G01X-7593446Y-4965430D01*
G01X-7589588Y-4949844D01*
G01X-7589589Y-4933787D01*
G01X-7593450Y-4918201D01*
G01X-7584920Y-4911405D01*
G01X-7283626Y-4610111D01*
G01X-7050021Y-4610111D01*
G01X-7048094Y-4625981D01*
G01X-7042425Y-4640928D01*
G01X-7033343Y-4654085D01*
G01X-7021377Y-4664686D01*
G01X-7007222Y-4672115D01*
G01X-6991700Y-4675941D01*
G01X-6975713Y-4675941D01*
G01X-6960191Y-4672115D01*
G01X-6946036Y-4664686D01*
G01X-6934070Y-4654085D01*
G01X-6924989Y-4640928D01*
G01X-6919320Y-4625981D01*
G01X-6917393Y-4610111D01*
G01X-6919320Y-4594241D01*
G01X-6924989Y-4579293D01*
G01X-6934070Y-4566136D01*
G01X-6946036Y-4555535D01*
G01X-6960191Y-4548106D01*
G01X-6975713Y-4544280D01*
G01X-6991700Y-4544280D01*
G01X-7007222Y-4548106D01*
G01X-7021377Y-4555535D01*
G01X-7033343Y-4566136D01*
G01X-7042425Y-4579293D01*
G01X-7048094Y-4594241D01*
G01X-7050021Y-4610111D01*
G01X-7050021Y-4610111D01*
G01X-7283626Y-4610111D01*
G01X-7229321Y-4555806D01*
G01X-7221611Y-4545758D01*
G01X-7216765Y-4534057D01*
G01X-7215112Y-4521501D01*
G01X-7215112Y-4439711D01*
G01X-7206188Y-4427645D01*
G01X-7200207Y-4413881D01*
G01X-7197473Y-4399125D01*
G01X-7198127Y-4384132D01*
G01X-7202136Y-4369671D01*
G01X-7209294Y-4356480D01*
G01X-7219234Y-4345237D01*
G01X-7231448Y-4336517D01*
G01X-7245309Y-4330767D01*
G01X-7260109Y-4328281D01*
G01X-7275089Y-4329186D01*
G01X-7289482Y-4333436D01*
G01X-7302550Y-4340813D01*
G01X-7313625Y-4350940D01*
G01X-7325357Y-4340343D01*
G01X-7339264Y-4332824D01*
G01X-7354555Y-4328811D01*
G01X-7370362Y-4328530D01*
G01X-7385785Y-4331999D01*
G01X-7399950Y-4339021D01*
G01X-7412050Y-4349195D01*
G01X-7421397Y-4361945D01*
G01X-7427462Y-4376545D01*
G01X-7429898Y-4392165D01*
G01X-7861779Y-4824046D01*
G01X-7869489Y-4834093D01*
G01X-7874335Y-4845794D01*
G01X-7875988Y-4858350D01*
G01X-7875988Y-4951955D01*
G01X-7898369Y-4974336D01*
G01X-9394086Y-4974336D01*
G01X-9551794Y-4816627D01*
G01X-9545615Y-4797241D01*
G01X-9542641Y-4777111D01*
G01X-9542952Y-4756765D01*
G01X-9546537Y-4736736D01*
G01X-9553305Y-4717546D01*
G01X-9563078Y-4699699D01*
G01X-9575600Y-4683660D01*
G01X-9590543Y-4669850D01*
G01X-9607517Y-4658629D01*
G01X-9626079Y-4650291D01*
G01X-9645741Y-4645054D01*
G01X-9665991Y-4643055D01*
G01X-9686298Y-4644347D01*
G01X-9706131Y-4648895D01*
G01X-9724971Y-4656581D01*
G01X-9742326Y-4667204D01*
G01X-9742326Y-4657606D01*
G01X-9715960Y-4631240D01*
G01X-9695383Y-4637689D01*
G01X-9674006Y-4640529D01*
G01X-9652459Y-4639677D01*
G01X-9631374Y-4635159D01*
G01X-9611370Y-4627105D01*
G01X-9593035Y-4615755D01*
G01X-9576907Y-4601439D01*
G01X-9563461Y-4584581D01*
G01X-9553092Y-4565673D01*
G01X-9546103Y-4545273D01*
G01X-9542701Y-4523979D01*
G01X-9542986Y-4502416D01*
G01X-9546948Y-4481219D01*
G01X-9554472Y-4461010D01*
G01X-9565336Y-4442383D01*
G01X-9579222Y-4425884D01*
G01X-9595721Y-4411999D01*
G01X-9614349Y-4401136D01*
G01X-9634558Y-4393613D01*
G01X-9655756Y-4389651D01*
G01X-9677318Y-4389368D01*
G01X-9698612Y-4392771D01*
G01X-9719012Y-4399761D01*
G01X-9737919Y-4410131D01*
G01X-9754777Y-4423578D01*
G01X-9769092Y-4439706D01*
G01X-9780442Y-4458041D01*
G01X-9788494Y-4478046D01*
G01X-9793012Y-4499131D01*
G01X-9793862Y-4520679D01*
G01X-9791021Y-4542055D01*
G01X-9784571Y-4562632D01*
G01X-9825145Y-4603206D01*
G01X-9832855Y-4613254D01*
G01X-9837701Y-4624954D01*
G01X-9839354Y-4637511D01*
G01X-9967986Y-4637511D01*
G01X-9967986Y-4260850D01*
G01X-9793997Y-4260850D01*
G01X-9792086Y-4282697D01*
G01X-9786410Y-4303881D01*
G01X-9777142Y-4323757D01*
G01X-9764563Y-4341722D01*
G01X-9749055Y-4357229D01*
G01X-9731091Y-4369808D01*
G01X-9711214Y-4379076D01*
G01X-9690031Y-4384752D01*
G01X-9668184Y-4386664D01*
G01X-9646336Y-4384752D01*
G01X-9625153Y-4379076D01*
G01X-9605277Y-4369808D01*
G01X-9587312Y-4357229D01*
G01X-9571805Y-4341722D01*
G01X-9559226Y-4323757D01*
G01X-9549957Y-4303881D01*
G01X-9544281Y-4282697D01*
G01X-9542925Y-4267200D01*
G01X-6733814Y-4267200D01*
G01X-6731887Y-4283070D01*
G01X-6726218Y-4298018D01*
G01X-6717137Y-4311174D01*
G01X-6705171Y-4321775D01*
G01X-6691015Y-4329205D01*
G01X-6675493Y-4333031D01*
G01X-6659507Y-4333031D01*
G01X-6643985Y-4329205D01*
G01X-6629829Y-4321775D01*
G01X-6617863Y-4311174D01*
G01X-6608782Y-4298018D01*
G01X-6603113Y-4283070D01*
G01X-6601186Y-4267200D01*
G01X-6603113Y-4251330D01*
G01X-6608782Y-4236382D01*
G01X-6617863Y-4223226D01*
G01X-6629829Y-4212625D01*
G01X-6643985Y-4205195D01*
G01X-6659507Y-4201369D01*
G01X-6675493Y-4201369D01*
G01X-6691015Y-4205195D01*
G01X-6705171Y-4212625D01*
G01X-6717137Y-4223226D01*
G01X-6726218Y-4236382D01*
G01X-6731887Y-4251330D01*
G01X-6733814Y-4267200D01*
G01X-6733814Y-4267200D01*
G01X-9542925Y-4267200D01*
G01X-9542370Y-4260850D01*
G01X-9544281Y-4239003D01*
G01X-9549957Y-4217819D01*
G01X-9559226Y-4197943D01*
G01X-9571805Y-4179978D01*
G01X-9587312Y-4164471D01*
G01X-9605277Y-4151892D01*
G01X-9625153Y-4142624D01*
G01X-9646336Y-4136948D01*
G01X-9668184Y-4135036D01*
G01X-9668184Y-4135036D01*
G01X-9690031Y-4136948D01*
G01X-9711214Y-4142624D01*
G01X-9731091Y-4151892D01*
G01X-9749055Y-4164471D01*
G01X-9764563Y-4179978D01*
G01X-9777142Y-4197943D01*
G01X-9786410Y-4217819D01*
G01X-9792086Y-4239003D01*
G01X-9793997Y-4260850D01*
G01X-9967986Y-4260850D01*
G01X-9967986Y-3997715D01*
G01X-9793665Y-3997715D01*
G01X-9793382Y-4019277D01*
G01X-9789421Y-4040474D01*
G01X-9781898Y-4060684D01*
G01X-9771035Y-4079312D01*
G01X-9757150Y-4095811D01*
G01X-9740652Y-4109697D01*
G01X-9722024Y-4120561D01*
G01X-9701815Y-4128085D01*
G01X-9680618Y-4132048D01*
G01X-9659056Y-4132332D01*
G01X-9637762Y-4128930D01*
G01X-9617361Y-4121942D01*
G01X-9598454Y-4111573D01*
G01X-9581595Y-4098127D01*
G01X-9567280Y-4082000D01*
G01X-9555929Y-4063665D01*
G01X-9547875Y-4043661D01*
G01X-9544069Y-4025900D01*
G01X-7762514Y-4025900D01*
G01X-7760587Y-4041770D01*
G01X-7754918Y-4056718D01*
G01X-7745837Y-4069874D01*
G01X-7733871Y-4080475D01*
G01X-7719715Y-4087905D01*
G01X-7704193Y-4091731D01*
G01X-7688207Y-4091731D01*
G01X-7672685Y-4087905D01*
G01X-7658529Y-4080475D01*
G01X-7646563Y-4069874D01*
G01X-7637482Y-4056718D01*
G01X-7631813Y-4041770D01*
G01X-7629886Y-4025900D01*
G01X-7631813Y-4010030D01*
G01X-7637482Y-3995082D01*
G01X-7646563Y-3981926D01*
G01X-7658529Y-3971325D01*
G01X-7672685Y-3963895D01*
G01X-7688207Y-3960069D01*
G01X-7704193Y-3960069D01*
G01X-7719715Y-3963895D01*
G01X-7733871Y-3971325D01*
G01X-7745837Y-3981926D01*
G01X-7754918Y-3995082D01*
G01X-7760587Y-4010030D01*
G01X-7762514Y-4025900D01*
G01X-7762514Y-4025900D01*
G01X-9544069Y-4025900D01*
G01X-9543356Y-4022575D01*
G01X-9542505Y-4001028D01*
G01X-9545345Y-3979652D01*
G01X-9551794Y-3959074D01*
G01X-9368686Y-3775967D01*
G01X-7652350Y-3775967D01*
G01X-7419128Y-4009188D01*
G01X-7416814Y-4024370D01*
G01X-7411069Y-4038611D01*
G01X-7402203Y-4051150D01*
G01X-7390691Y-4061313D01*
G01X-7377149Y-4068556D01*
G01X-7362305Y-4072489D01*
G01X-7346954Y-4072903D01*
G01X-7331919Y-4069774D01*
G01X-7318007Y-4063272D01*
G01X-7305964Y-4053743D01*
G01X-7305964Y-4053743D01*
G01X-7296436Y-4041700D01*
G01X-7289933Y-4027788D01*
G01X-7286804Y-4012754D01*
G01X-7287218Y-3997402D01*
G01X-7291152Y-3982558D01*
G01X-7298394Y-3969017D01*
G01X-7308557Y-3957504D01*
G01X-7321096Y-3948638D01*
G01X-7335338Y-3942894D01*
G01X-7350519Y-3940579D01*
G01X-7597950Y-3693148D01*
G01X-7607998Y-3685438D01*
G01X-7619698Y-3680592D01*
G01X-7632255Y-3678939D01*
G01X-9388781Y-3678939D01*
G01X-9401338Y-3680592D01*
G01X-9413038Y-3685438D01*
G01X-9423086Y-3693148D01*
G01X-9620401Y-3890463D01*
G01X-9640978Y-3884013D01*
G01X-9662354Y-3881171D01*
G01X-9683901Y-3882022D01*
G01X-9704987Y-3886539D01*
G01X-9724992Y-3894591D01*
G01X-9743327Y-3905941D01*
G01X-9759455Y-3920256D01*
G01X-9772902Y-3937114D01*
G01X-9783273Y-3956021D01*
G01X-9790262Y-3976421D01*
G01X-9793665Y-3997715D01*
G01X-9967986Y-3997715D01*
G01X-9967986Y-3752850D01*
G01X-9793997Y-3752850D01*
G01X-9792086Y-3774697D01*
G01X-9786410Y-3795881D01*
G01X-9777142Y-3815757D01*
G01X-9764563Y-3833722D01*
G01X-9749055Y-3849229D01*
G01X-9731091Y-3861808D01*
G01X-9711214Y-3871076D01*
G01X-9690031Y-3876752D01*
G01X-9668184Y-3878664D01*
G01X-9646336Y-3876752D01*
G01X-9625153Y-3871076D01*
G01X-9605277Y-3861808D01*
G01X-9587312Y-3849229D01*
G01X-9571805Y-3833722D01*
G01X-9559226Y-3815757D01*
G01X-9549957Y-3795881D01*
G01X-9544281Y-3774697D01*
G01X-9542370Y-3752850D01*
G01X-9544281Y-3731003D01*
G01X-9549957Y-3709819D01*
G01X-9559226Y-3689943D01*
G01X-9571805Y-3671978D01*
G01X-9587312Y-3656471D01*
G01X-9605277Y-3643892D01*
G01X-9625153Y-3634624D01*
G01X-9646336Y-3628948D01*
G01X-9668184Y-3627036D01*
G01X-9668184Y-3627036D01*
G01X-9690031Y-3628948D01*
G01X-9711214Y-3634624D01*
G01X-9731091Y-3643892D01*
G01X-9749055Y-3656471D01*
G01X-9764563Y-3671978D01*
G01X-9777142Y-3689943D01*
G01X-9786410Y-3709819D01*
G01X-9792086Y-3731003D01*
G01X-9793997Y-3752850D01*
G01X-9967986Y-3752850D01*
G01X-9967986Y-3588850D01*
G01X-9793997Y-3588850D01*
G01X-9792245Y-3599917D01*
G01X-9787158Y-3609901D01*
G01X-9779234Y-3617824D01*
G01X-9769251Y-3622911D01*
G01X-9758183Y-3624664D01*
G01X-9578184Y-3624664D01*
G01X-9567117Y-3622911D01*
G01X-9557133Y-3617824D01*
G01X-9549210Y-3609901D01*
G01X-9544123Y-3599917D01*
G01X-9542370Y-3588850D01*
G01X-9542370Y-3408850D01*
G01X-9544123Y-3397783D01*
G01X-9549210Y-3387799D01*
G01X-9557133Y-3379876D01*
G01X-9567117Y-3374789D01*
G01X-9578184Y-3373036D01*
G01X-9758183Y-3373036D01*
G01X-9769251Y-3374789D01*
G01X-9779234Y-3379876D01*
G01X-9787158Y-3387799D01*
G01X-9792245Y-3397783D01*
G01X-9793997Y-3408850D01*
G01X-9793997Y-3588850D01*
G01X-9793997Y-3588850D01*
G01X-9967986Y-3588850D01*
G01X-9967986Y-3225800D01*
G01X-9705614Y-3225800D01*
G01X-9703687Y-3241670D01*
G01X-9698018Y-3256618D01*
G01X-9688937Y-3269774D01*
G01X-9676971Y-3280375D01*
G01X-9662815Y-3287805D01*
G01X-9647293Y-3291631D01*
G01X-9631307Y-3291631D01*
G01X-9615785Y-3287805D01*
G01X-9601629Y-3280375D01*
G01X-9589663Y-3269774D01*
G01X-9580582Y-3256618D01*
G01X-9574913Y-3241670D01*
G01X-9572986Y-3225800D01*
G01X-9574913Y-3209930D01*
G01X-9580582Y-3194982D01*
G01X-9589663Y-3181826D01*
G01X-9601629Y-3171225D01*
G01X-9615785Y-3163795D01*
G01X-9631307Y-3159969D01*
G01X-9647293Y-3159969D01*
G01X-9662815Y-3163795D01*
G01X-9676971Y-3171225D01*
G01X-9688937Y-3181826D01*
G01X-9698018Y-3194982D01*
G01X-9703687Y-3209930D01*
G01X-9705614Y-3225800D01*
G01X-9705614Y-3225800D01*
G01X-9967986Y-3225800D01*
G01X-9967986Y-3150700D01*
G01X-9114714Y-3150700D01*
G01X-9112715Y-3178653D01*
G01X-9106758Y-3206037D01*
G01X-9096965Y-3232294D01*
G01X-9083534Y-3256890D01*
G01X-9066740Y-3279324D01*
G01X-9046924Y-3299140D01*
G01X-9024490Y-3315934D01*
G01X-8999894Y-3329365D01*
G01X-8973636Y-3339158D01*
G01X-8946253Y-3345115D01*
G01X-8918300Y-3347114D01*
G01X-8918300Y-3347114D01*
G01X-6158300Y-3347114D01*
G01X-6130347Y-3345115D01*
G01X-6102964Y-3339158D01*
G01X-6076707Y-3329365D01*
G01X-6052111Y-3315934D01*
G01X-6029676Y-3299140D01*
G01X-6009860Y-3279324D01*
G01X-5993066Y-3256890D01*
G01X-5979636Y-3232294D01*
G01X-5969842Y-3206037D01*
G01X-5963885Y-3178653D01*
G01X-5961886Y-3150700D01*
G01X-5961886Y-3125687D01*
G01X-5959418Y-3117047D01*
G01X-5958586Y-3108100D01*
G01X-5958586Y-2743200D01*
G01X-5959558Y-2733535D01*
G01X-5962437Y-2724258D01*
G01X-5967106Y-2715740D01*
G01X-5951942Y-2718870D01*
G01X-5936466Y-2718399D01*
G01X-5921521Y-2714352D01*
G01X-5907922Y-2706950D01*
G01X-5896410Y-2696596D01*
G01X-5887612Y-2683854D01*
G01X-5882009Y-2669420D01*
G01X-5879906Y-2654080D01*
G01X-5881418Y-2638671D01*
G01X-5886461Y-2624032D01*
G01X-5894762Y-2610962D01*
G01X-5905867Y-2600172D01*
G01X-5919172Y-2592252D01*
G01X-5933950Y-2587634D01*
G01X-5949397Y-2586567D01*
G01X-5964669Y-2589112D01*
G01X-5978936Y-2595129D01*
G01X-5991418Y-2604291D01*
G01X-6002486Y-2604291D01*
G01X-6002486Y-2448123D01*
G01X-5771057Y-2679552D01*
G01X-5771646Y-2693276D01*
G01X-5769396Y-2706827D01*
G01X-5764402Y-2719623D01*
G01X-5756878Y-2731116D01*
G01X-5747148Y-2740813D01*
G01X-5735629Y-2748296D01*
G01X-5722816Y-2753246D01*
G01X-5709257Y-2755450D01*
G01X-5695535Y-2754813D01*
G01X-5682239Y-2751363D01*
G01X-5669939Y-2745247D01*
G01X-5659163Y-2736728D01*
G01X-5647259Y-2744341D01*
G01X-5634013Y-2749258D01*
G01X-5620025Y-2751257D01*
G01X-4358935Y-4012347D01*
G01X-4358935Y-4480441D01*
G01X-4368463Y-4493578D01*
G01X-4374515Y-4508636D01*
G01X-4376729Y-4524712D01*
G01X-4374971Y-4540845D01*
G01X-4369348Y-4556068D01*
G01X-4360196Y-4569469D01*
G01X-4348062Y-4580247D01*
G01X-4354990Y-4594125D01*
G01X-4358505Y-4609234D01*
G01X-4358413Y-4624745D01*
G01X-4354721Y-4639811D01*
G01X-4347630Y-4653607D01*
G01X-4337527Y-4665378D01*
G01X-4324967Y-4674480D01*
G01X-4310636Y-4680415D01*
G01X-4295318Y-4682859D01*
G01X-4279851Y-4681677D01*
G01X-4268556Y-4678051D01*
G01X-4224336Y-4678051D01*
G01X-4222409Y-4693921D01*
G01X-4216740Y-4708868D01*
G01X-4207658Y-4722025D01*
G01X-4195692Y-4732626D01*
G01X-4181537Y-4740055D01*
G01X-4166015Y-4743881D01*
G01X-4150028Y-4743881D01*
G01X-4134506Y-4740055D01*
G01X-4120351Y-4732626D01*
G01X-4108385Y-4722025D01*
G01X-4099304Y-4708868D01*
G01X-4093635Y-4693921D01*
G01X-4091708Y-4678051D01*
G01X-4093635Y-4662181D01*
G01X-4099304Y-4647233D01*
G01X-4108385Y-4634076D01*
G01X-4120351Y-4623475D01*
G01X-4134506Y-4616046D01*
G01X-4150028Y-4612220D01*
G01X-4166015Y-4612220D01*
G01X-4181537Y-4616046D01*
G01X-4195692Y-4623475D01*
G01X-4207658Y-4634076D01*
G01X-4216740Y-4647233D01*
G01X-4222409Y-4662181D01*
G01X-4224336Y-4678051D01*
G01X-4224336Y-4678051D01*
G01X-4268556Y-4678051D01*
G01X-4265082Y-4676935D01*
G01X-4251819Y-4668891D01*
G01X-4240787Y-4657987D01*
G01X-4232590Y-4644818D01*
G01X-4227677Y-4630104D01*
G01X-4226316Y-4614652D01*
G01X-4228582Y-4599307D01*
G01X-4234351Y-4584908D01*
G01X-4243307Y-4572243D01*
G01X-4254961Y-4562005D01*
G01X-4248323Y-4548918D01*
G01X-4244727Y-4534692D01*
G01X-4244347Y-4520023D01*
G01X-4247202Y-4505630D01*
G01X-4253153Y-4492217D01*
G01X-4261907Y-4480441D01*
G01X-4261907Y-4332160D01*
G01X-4225452Y-4332160D01*
G01X-4225039Y-4347511D01*
G01X-4221105Y-4362355D01*
G01X-4213863Y-4375897D01*
G01X-4203700Y-4387409D01*
G01X-4191161Y-4396275D01*
G01X-4176919Y-4402020D01*
G01X-4161738Y-4404334D01*
G01X-3692275Y-4873797D01*
G01X-3691114Y-4884032D01*
G01X-3706503Y-4880855D01*
G01X-3722208Y-4881388D01*
G01X-3737347Y-4885601D01*
G01X-3751069Y-4893258D01*
G01X-3762605Y-4903929D01*
G01X-3771305Y-4917014D01*
G01X-3776683Y-4931780D01*
G01X-3778435Y-4947396D01*
G01X-3776464Y-4962986D01*
G01X-3770879Y-4977674D01*
G01X-3761996Y-4990636D01*
G01X-3750312Y-5001144D01*
G01X-3736484Y-5008607D01*
G01X-3721287Y-5012608D01*
G01X-3705576Y-5012920D01*
G01X-3690233Y-5009527D01*
G01X-3676119Y-5002619D01*
G01X-3664026Y-4992584D01*
G01X-3654635Y-4979986D01*
G01X-3648471Y-4965531D01*
G01X-3645881Y-4950032D01*
G01X-3647011Y-4934358D01*
G01X-3631971Y-4937505D01*
G01X-3616610Y-4937106D01*
G01X-3601753Y-4933181D01*
G01X-3588199Y-4925943D01*
G01X-3576674Y-4915780D01*
G01X-3567798Y-4903236D01*
G01X-3562047Y-4888987D01*
G01X-3559730Y-4873797D01*
G01X-3248867Y-4562934D01*
G01X-3233686Y-4560619D01*
G01X-3219444Y-4554875D01*
G01X-3206905Y-4546009D01*
G01X-3196742Y-4534496D01*
G01X-3189500Y-4520955D01*
G01X-3185566Y-4506111D01*
G01X-3185153Y-4490760D01*
G01X-3188281Y-4475725D01*
G01X-3194784Y-4461813D01*
G01X-3204313Y-4449770D01*
G01X-3216356Y-4440242D01*
G01X-3230267Y-4433739D01*
G01X-3245302Y-4430610D01*
G01X-3260653Y-4431024D01*
G01X-3275497Y-4434957D01*
G01X-3289039Y-4442200D01*
G01X-3300551Y-4452363D01*
G01X-3309418Y-4464902D01*
G01X-3315162Y-4479143D01*
G01X-3317476Y-4494325D01*
G01X-3626003Y-4802851D01*
G01X-3690190Y-4738664D01*
G01X-3673888Y-4738425D01*
G01X-3658137Y-4734216D01*
G01X-3643889Y-4726291D01*
G01X-3632005Y-4715129D01*
G01X-3623204Y-4701405D01*
G01X-3618017Y-4685949D01*
G01X-3616759Y-4669694D01*
G01X-3619504Y-4653623D01*
G01X-3626088Y-4638708D01*
G01X-3636112Y-4625850D01*
G01X-3648970Y-4615826D01*
G01X-3663885Y-4609242D01*
G01X-3679956Y-4606497D01*
G01X-3696211Y-4607755D01*
G01X-3711667Y-4612942D01*
G01X-3725391Y-4621743D01*
G01X-3736553Y-4633627D01*
G01X-3744478Y-4647875D01*
G01X-3748687Y-4663626D01*
G01X-3748926Y-4679928D01*
G01X-4085692Y-4343161D01*
G01X-3165109Y-4343161D01*
G01X-3163394Y-4359284D01*
G01X-3157818Y-4374509D01*
G01X-3148714Y-4387925D01*
G01X-3136627Y-4398731D01*
G01X-3139593Y-4414671D01*
G01X-3138602Y-4430854D01*
G01X-3133714Y-4446313D01*
G01X-3125221Y-4460124D01*
G01X-3113630Y-4471461D01*
G01X-3099634Y-4479647D01*
G01X-3084071Y-4484192D01*
G01X-3067869Y-4484824D01*
G01X-3051999Y-4481506D01*
G01X-3051999Y-4481506D01*
G01X-3037408Y-4474436D01*
G01X-3024969Y-4464036D01*
G01X-3015426Y-4450929D01*
G01X-3009348Y-4435898D01*
G01X-3007099Y-4419841D01*
G01X-3008814Y-4403719D01*
G01X-3014390Y-4388494D01*
G01X-3023494Y-4375078D01*
G01X-3035581Y-4364271D01*
G01X-3032615Y-4348331D01*
G01X-3033606Y-4332148D01*
G01X-3038494Y-4316689D01*
G01X-3046987Y-4302878D01*
G01X-3058578Y-4291541D01*
G01X-3072573Y-4283356D01*
G01X-3088137Y-4278811D01*
G01X-3104338Y-4278179D01*
G01X-3120208Y-4281497D01*
G01X-3134799Y-4288567D01*
G01X-3147238Y-4298966D01*
G01X-3156782Y-4312073D01*
G01X-3162860Y-4327105D01*
G01X-3165109Y-4343161D01*
G01X-4085692Y-4343161D01*
G01X-4093129Y-4335725D01*
G01X-4095443Y-4320544D01*
G01X-4101188Y-4306302D01*
G01X-4110054Y-4293763D01*
G01X-4121566Y-4283600D01*
G01X-4135108Y-4276358D01*
G01X-4149952Y-4272424D01*
G01X-4165303Y-4272011D01*
G01X-4180338Y-4275139D01*
G01X-4194250Y-4281642D01*
G01X-4206293Y-4291170D01*
G01X-4206293Y-4291170D01*
G01X-4215821Y-4303213D01*
G01X-4222324Y-4317125D01*
G01X-4225452Y-4332160D01*
G01X-4261907Y-4332160D01*
G01X-4261907Y-3992252D01*
G01X-4263560Y-3979696D01*
G01X-4268407Y-3967995D01*
G01X-4276117Y-3957948D01*
G01X-5551416Y-2682648D01*
G01X-5553708Y-2667548D01*
G01X-5559394Y-2653373D01*
G01X-5568172Y-2640875D01*
G01X-5579577Y-2630717D01*
G01X-5593003Y-2623437D01*
G01X-5607739Y-2619421D01*
G01X-5623002Y-2618884D01*
G01X-5637984Y-2621853D01*
G01X-5651889Y-2628170D01*
G01X-5663980Y-2637502D01*
G01X-5675439Y-2630113D01*
G01X-5688167Y-2625224D01*
G01X-5958586Y-2354805D01*
G01X-5958586Y-2105800D01*
G01X-1767714Y-2105800D01*
G01X-1767714Y-3075800D01*
G01X-1765983Y-3088952D01*
G01X-1760906Y-3101207D01*
G01X-1752831Y-3111731D01*
G01X-1742307Y-3119806D01*
G01X-1730052Y-3124883D01*
G01X-1716900Y-3126614D01*
G01X-1280411Y-3126614D01*
G01X-1280411Y-3573692D01*
G01X-1289510Y-3586064D01*
G01X-1295518Y-3600196D01*
G01X-1298115Y-3615331D01*
G01X-1297161Y-3630658D01*
G01X-1292707Y-3645355D01*
G01X-1284992Y-3658633D01*
G01X-1274429Y-3669780D01*
G01X-1261586Y-3678199D01*
G01X-1247151Y-3683438D01*
G01X-1231897Y-3685216D01*
G01X-1216644Y-3683438D01*
G01X-1202209Y-3678199D01*
G01X-1189365Y-3669780D01*
G01X-1178803Y-3658633D01*
G01X-1171088Y-3645355D01*
G01X-1166634Y-3630658D01*
G01X-1165680Y-3615331D01*
G01X-1168277Y-3600196D01*
G01X-1174285Y-3586064D01*
G01X-1183383Y-3573692D01*
G01X-1183383Y-3126614D01*
G01X-1183383Y-3126614D01*
G01X-746900Y-3126614D01*
G01X-733748Y-3124883D01*
G01X-721493Y-3119806D01*
G01X-710969Y-3111731D01*
G01X-702894Y-3101207D01*
G01X-697817Y-3088952D01*
G01X-696086Y-3075800D01*
G01X-696086Y-2105800D01*
G01X-697817Y-2092648D01*
G01X-702894Y-2080393D01*
G01X-710969Y-2069869D01*
G01X-721493Y-2061794D01*
G01X-733748Y-2056717D01*
G01X-746900Y-2054986D01*
G01X-1716900Y-2054986D01*
G01X-1730052Y-2056717D01*
G01X-1742307Y-2061794D01*
G01X-1752831Y-2069869D01*
G01X-1760906Y-2080393D01*
G01X-1765983Y-2092648D01*
G01X-1767714Y-2105800D01*
G01X-5958586Y-2105800D01*
G01X-5958586Y-1993900D01*
G01X-5959418Y-1984953D01*
G01X-5961886Y-1976313D01*
G01X-5961886Y-390700D01*
G01X-5963885Y-362748D01*
G01X-5969842Y-335364D01*
G01X-5979636Y-309107D01*
G01X-5988922Y-292100D01*
G01X-515214Y-292100D01*
G01X-513197Y-322880D01*
G01X-507179Y-353133D01*
G01X-497264Y-382342D01*
G01X-483621Y-410007D01*
G01X-466484Y-435654D01*
G01X-446146Y-458846D01*
G01X-422954Y-479184D01*
G01X-397307Y-496321D01*
G01X-369642Y-509964D01*
G01X-340433Y-519879D01*
G01X-310180Y-525897D01*
G01X-279400Y-527914D01*
G01X-248620Y-525897D01*
G01X-218367Y-519879D01*
G01X-189158Y-509964D01*
G01X-161493Y-496321D01*
G01X-135846Y-479184D01*
G01X-112654Y-458846D01*
G01X-92316Y-435654D01*
G01X-75179Y-410007D01*
G01X-61536Y-382342D01*
G01X-51621Y-353133D01*
G01X-45603Y-322880D01*
G01X-43586Y-292100D01*
G01X-45603Y-261320D01*
G01X-51621Y-231067D01*
G01X-61536Y-201858D01*
G01X-75179Y-174193D01*
G01X-92316Y-148546D01*
G01X-112654Y-125354D01*
G01X-135846Y-105016D01*
G01X-161493Y-87879D01*
G01X-189158Y-74236D01*
G01X-218367Y-64321D01*
G01X-248620Y-58303D01*
G01X-279400Y-56286D01*
G01X-310180Y-58303D01*
G01X-340433Y-64321D01*
G01X-369642Y-74236D01*
G01X-397307Y-87879D01*
G01X-422954Y-105016D01*
G01X-446146Y-125354D01*
G01X-466484Y-148546D01*
G01X-483621Y-174193D01*
G01X-497264Y-201858D01*
G01X-507179Y-231067D01*
G01X-513197Y-261320D01*
G01X-515214Y-292100D01*
G01X-515214Y-292100D01*
G01X-5988922Y-292100D01*
G01X-5993066Y-284511D01*
G01X-6009860Y-262076D01*
G01X-6029676Y-242260D01*
G01X-6052111Y-225466D01*
G01X-6076707Y-212036D01*
G01X-6102964Y-202242D01*
G01X-6130347Y-196285D01*
G01X-6158300Y-194286D01*
G01X-7747729Y-194286D01*
G01X-7759700Y-192786D01*
G01X-7785100Y-192786D01*
G01X-7797071Y-194286D01*
G01X-8918300Y-194286D01*
G01X-8946253Y-196285D01*
G01X-8973636Y-202242D01*
G01X-8999894Y-212036D01*
G01X-9024490Y-225466D01*
G01X-9046924Y-242260D01*
G01X-9066740Y-262076D01*
G01X-9083534Y-284511D01*
G01X-9096965Y-309107D01*
G01X-9106758Y-335364D01*
G01X-9112715Y-362748D01*
G01X-9114714Y-390700D01*
G01X-9114714Y-3150700D01*
G01X-9967986Y-3150700D01*
G01X-9967986Y-279400D01*
G01X-9951314Y-279400D01*
G01X-9949297Y-310180D01*
G01X-9943279Y-340433D01*
G01X-9933364Y-369642D01*
G01X-9919721Y-397307D01*
G01X-9902584Y-422954D01*
G01X-9882246Y-446146D01*
G01X-9859054Y-466484D01*
G01X-9833407Y-483621D01*
G01X-9805742Y-497264D01*
G01X-9776533Y-507179D01*
G01X-9746280Y-513197D01*
G01X-9715500Y-515214D01*
G01X-9684720Y-513197D01*
G01X-9654467Y-507179D01*
G01X-9625258Y-497264D01*
G01X-9597593Y-483621D01*
G01X-9571946Y-466484D01*
G01X-9548754Y-446146D01*
G01X-9528416Y-422954D01*
G01X-9511279Y-397307D01*
G01X-9497636Y-369642D01*
G01X-9487721Y-340433D01*
G01X-9481703Y-310180D01*
G01X-9479686Y-279400D01*
G01X-9481703Y-248620D01*
G01X-9487721Y-218367D01*
G01X-9497636Y-189158D01*
G01X-9511279Y-161493D01*
G01X-9528416Y-135846D01*
G01X-9548754Y-112654D01*
G01X-9571946Y-92316D01*
G01X-9597593Y-75179D01*
G01X-9625258Y-61536D01*
G01X-9654467Y-51621D01*
G01X-9684720Y-45603D01*
G01X-9715500Y-43586D01*
G01X-9746280Y-45603D01*
G01X-9776533Y-51621D01*
G01X-9805742Y-61536D01*
G01X-9833407Y-75179D01*
G01X-9859054Y-92316D01*
G01X-9882246Y-112654D01*
G01X-9902584Y-135846D01*
G01X-9919721Y-161493D01*
G01X-9933364Y-189158D01*
G01X-9943279Y-218367D01*
G01X-9949297Y-248620D01*
G01X-9951314Y-279400D01*
G01X-9951314Y-279400D01*
G01X-9967986Y-279400D01*
G01X-9967986Y-39614D01*
G01X-39614Y-39614D01*
G37*
G54D10*
G01X-39614Y-39614D02*
G01X-39614Y-9967986D01*
G01X-9967986Y-9967986D01*
G01X-9967986Y-39614D01*
G01X-39614Y-39614D01*
G01X-9951314Y-279400D02*
G03X-9479686Y-279400I235814J0D01*
G03X-9951314Y-279400I-235814J0D01*
G01X-9938614Y-9677400D02*
G03X-9466986Y-9677400I235814J0D01*
G03X-9938614Y-9677400I-235814J0D01*
G01X-9858014Y-7429500D02*
G03X-9725386Y-7429500I66314J0D01*
G03X-9858014Y-7429500I-66314J0D01*
G01X-9753269Y-5184170D02*
G03X-9729210Y-5386872I85086J-92680D01*
G03X-9544511Y-5299963I61027J110022D01*
G01X-8228137Y-5299963D01*
G01X-8242088Y-5313915D01*
G03X-8256298Y-5348219I34305J-34305D01*
G01X-8256298Y-5373619D01*
G03X-8242088Y-5407924I48514J0D01*
G01X-6339845Y-7310167D01*
G03X-6391263Y-7415956I1848J-66288D01*
G03X-6275101Y-7397471I53265J39501D01*
G01X-6275101Y-7690605D01*
G03X-6226587Y-7802129I48514J-45210D01*
G03X-6178073Y-7690605I0J66314D01*
G01X-6178073Y-7354815D01*
G03X-6192283Y-7320511I-48514J0D01*
G01X-6205835Y-7306958D01*
G03X-6150709Y-7194267I8235J65801D01*
G03X-6263401Y-7249393I-46891J-46891D01*
G01X-8135637Y-5377157D01*
G03X-8038639Y-5353123I38013J54337D01*
G01X-8036158Y-5355604D01*
G03X-8001854Y-5369813I34305J34305D01*
G01X-6804856Y-5369813D01*
G03X-6770552Y-5355604I0J48514D01*
G01X-6682968Y-5268020D01*
G03X-6569809Y-5317391I66268J-2480D01*
G03X-6619180Y-5204232I-46891J46891D01*
G01X-6606962Y-5192014D01*
G01X-6468675Y-5192014D01*
G03X-6412374Y-5272483I64667J-14686D01*
G03X-6337723Y-5208670I8367J65784D01*
G03X-6261764Y-5125042I12265J65170D01*
G03X-6370667Y-5094986I-63693J-18458D01*
G01X-6627057Y-5094986D01*
G03X-6661361Y-5109195I0J-48514D01*
G01X-6824951Y-5272785D01*
G01X-6881109Y-5272785D01*
G03X-6886606Y-5140386I-5497J66086D01*
G03X-6892103Y-5272785I0J-66314D01*
G01X-7003852Y-5272785D01*
G03X-7035397Y-5187174I-60933J26166D01*
G03X-7038256Y-5096779I-49910J43664D01*
G01X-6907940Y-4966463D01*
G03X-6887753Y-4962562I-2336J66273D01*
G03X-6887306Y-4989198I65177J-12228D01*
G03X-6917117Y-5082179I27830J-60192D01*
G03X-6821960Y-5104072I57641J32789D01*
G03X-6741431Y-5101654I38684J53862D01*
G03X-6722666Y-5023304I-41845J51444D01*
G01X-6258473Y-5023304D01*
G01X-6152251Y-5129526D01*
G03X-6039087Y-5174081I66273J2336D01*
G03X-6083642Y-5060917I-46891J46891D01*
G01X-6204073Y-4940486D01*
G03X-6238377Y-4926276I-34305J-34305D01*
G01X-6777367Y-4926276D01*
G03X-6845099Y-4912418I-45210J-48514D01*
G03X-6847614Y-4878489I-65177J12228D01*
G03X-6765834Y-4875427I38937J53679D01*
G03X-6749302Y-4795277I-42843J50617D01*
G03X-6747633Y-4705311I-47874J45887D01*
G03X-6738067Y-4697905I-35643J55920D01*
G01X-5050775Y-4697905D01*
G01X-4823213Y-4925467D01*
G03X-4710049Y-4970021I66273J2336D01*
G03X-4754604Y-4856857I-46891J46891D01*
G01X-4996375Y-4615086D01*
G03X-5030680Y-4600877I-34305J-34305D01*
G01X-6247538Y-4600877D01*
G03X-6299200Y-4492986I-51662J41577D01*
G03X-6350862Y-4600877I0J-66314D01*
G01X-6738067Y-4600877D01*
G03X-6747388Y-4593628I-45210J-48514D01*
G03X-6721857Y-4578815I-19679J63327D01*
G01X-6494287Y-4578815D01*
G03X-6382763Y-4530301I45210J48514D01*
G03X-6494287Y-4481787I-66314J0D01*
G01X-6721857Y-4481787D01*
G03X-6819413Y-4489590I-45210J-48514D01*
G03X-6802955Y-4586064I52346J-40711D01*
G03X-6832820Y-4693470I19679J-63327D01*
G03X-6856551Y-4778924I35643J-55920D01*
G03X-6871339Y-4846511I47874J-45887D01*
G03X-6976549Y-4897854I-38937J-53679D01*
G01X-7108171Y-5029476D01*
G01X-7761004Y-5029476D01*
G01X-7710407Y-4978879D01*
G03X-7624876Y-5000684I54992J37059D01*
G03X-7593450Y-4918201I-30539J58864D01*
G03X-7584920Y-4911405I-25775J41101D01*
G01X-7229321Y-4555806D01*
G03X-7215112Y-4521501I-34305J34305D01*
G01X-7215112Y-4439711D01*
G03X-7219234Y-4345237I-48514J45210D01*
G03X-7313625Y-4350940I-44392J-49264D01*
G03X-7429898Y-4392165I-50000J-43561D01*
G01X-7861779Y-4824046D01*
G03X-7875988Y-4858350I34305J-34305D01*
G01X-7875988Y-4951955D01*
G01X-7898369Y-4974336D01*
G01X-9394086Y-4974336D01*
G01X-9551794Y-4816627D01*
G03X-9590543Y-4669850I-116389J47777D01*
G03X-9742326Y-4667204I-77640J-99000D01*
G01X-9742326Y-4657606D01*
G01X-9715960Y-4631240D01*
G03X-9579222Y-4425884I47776J116390D01*
G03X-9784571Y-4562632I-88962J-88966D01*
G01X-9825145Y-4603206D01*
G03X-9839354Y-4637511I34305J-34305D01*
G01X-9839354Y-5077990D01*
G03X-9825145Y-5112294I48514J0D01*
G01X-9753269Y-5184170D01*
G01X-9793997Y-3588850D02*
G03X-9758183Y-3624664I35814J0D01*
G01X-9578184Y-3624664D01*
G03X-9542370Y-3588850I0J35814D01*
G01X-9542370Y-3408850D01*
G03X-9578184Y-3373036I-35814J0D01*
G01X-9758183Y-3373036D01*
G03X-9793997Y-3408850I0J-35814D01*
G01X-9793997Y-3588850D01*
G01X-9668184Y-4135036D02*
G03X-9668184Y-4386664I0J-125814D01*
G03X-9668184Y-4135036I0J125814D01*
G01X-9668184Y-3627036D02*
G03X-9668184Y-3878664I0J-125814D01*
G03X-9668184Y-3627036I0J125814D01*
G01X-7305964Y-4053743D02*
G03X-7350519Y-3940579I-46891J46891D01*
G01X-7597950Y-3693148D01*
G03X-7632255Y-3678939I-34305J-34305D01*
G01X-9388781Y-3678939D01*
G03X-9423086Y-3693148I0J-48514D01*
G01X-9620401Y-3890463D01*
G03X-9757150Y-4095811I-47783J-116387D01*
G03X-9551794Y-3959074I88967J88961D01*
G01X-9368686Y-3775967D01*
G01X-7652350Y-3775967D01*
G01X-7419128Y-4009188D01*
G03X-7305964Y-4053743I66273J2336D01*
G01X-9668184Y-5405036D02*
G03X-9668184Y-5656664I0J-125814D01*
G03X-9668184Y-5405036I0J125814D01*
G01X-9668184Y-5913036D02*
G03X-9668184Y-6164664I0J-125814D01*
G03X-9668184Y-5913036I0J125814D01*
G01X-9668184Y-5659036D02*
G03X-9668184Y-5910664I0J-125814D01*
G03X-9668184Y-5659036I0J125814D01*
G01X-9668184Y-6421036D02*
G03X-9668184Y-6672664I0J-125814D01*
G03X-9668184Y-6421036I0J125814D01*
G01X-9668184Y-6167036D02*
G03X-9668184Y-6418664I0J-125814D01*
G03X-9668184Y-6167036I0J125814D01*
G01X-9668184Y-6675036D02*
G03X-9668184Y-6926664I0J-125814D01*
G03X-9668184Y-6675036I0J125814D01*
G01X-9705614Y-3225800D02*
G03X-9572986Y-3225800I66314J0D01*
G03X-9705614Y-3225800I-66314J0D01*
G01X-9390621Y-9525213D02*
G01X-9390621Y-9605223D01*
G03X-9229001Y-9605223I80810J0D01*
G01X-9229001Y-9525213D01*
G03X-9390621Y-9525213I-80810J0D01*
G01X-8670307Y-9432296D02*
G03X-8636003Y-9446505I34305J34305D01*
G01X-8463100Y-9446505D01*
G03X-8525599Y-9525213I18311J-78708D01*
G01X-8525599Y-9605223D01*
G03X-8363979Y-9605223I80810J0D01*
G01X-8363979Y-9525213D01*
G03X-8427684Y-9446234I-80810J0D01*
G03X-8398498Y-9432296I-5119J48243D01*
G01X-8278067Y-9311864D01*
G03X-8233513Y-9198701I-2336J66273D01*
G03X-8346676Y-9243255I-46891J-46891D01*
G01X-8363979Y-9260558D01*
G01X-8363979Y-9152214D01*
G03X-8514059Y-9110598I-80810J0D01*
G03X-8558840Y-9064180I-65731J-18604D01*
G03X-8622297Y-9075724I-20949J-65022D01*
G03X-8707298Y-9075714I-42507J-53478D01*
G03X-8787378Y-9072158I-42494J-53488D01*
G03X-8800508Y-9048032I-47434J-10178D01*
G01X-8856729Y-8991810D01*
G03X-8969893Y-8947256I-66273J-2336D01*
G03X-8925339Y-9060420I46891J-46891D01*
G01X-8924694Y-9061065D01*
G03X-8962301Y-9075724I4899J-68137D01*
G03X-9047302Y-9075714I-42507J-53478D01*
G03X-9132303Y-9075724I-42494J-53488D01*
G03X-9240541Y-9110598I-42507J-53478D01*
G03X-9390621Y-9152214I-69270J-41617D01*
G01X-9390621Y-9302227D01*
G03X-9229076Y-9305699I80810J0D01*
G03X-9132049Y-9317478I54266J41496D01*
G03X-9046794Y-9317691I42761J53275D01*
G03X-8961806Y-9317691I42494J53488D01*
G03X-8919303Y-9332516I42494J53488D01*
G03X-8876805Y-9317681I-8J68313D01*
G03X-8791804Y-9317691I42507J53478D01*
G03X-8775171Y-9327432I42494J53488D01*
G01X-8670307Y-9432296D01*
G01X-8918300Y-3347114D02*
G01X-6158300Y-3347114D01*
G03X-5961886Y-3150700I0J196414D01*
G01X-5961886Y-3125687D01*
G03X-5958586Y-3108100I-45214J17587D01*
G01X-5958586Y-2743200D01*
G03X-5967106Y-2715740I-48514J0D01*
G03X-5881418Y-2638671I20898J62935D01*
G03X-5991418Y-2604291I-64790J-14134D01*
G01X-6002486Y-2604291D01*
G01X-6002486Y-2448123D01*
G01X-5771057Y-2679552D01*
G03X-5735629Y-2748296I65602J-9693D01*
G03X-5659163Y-2736728I30174J59051D01*
G03X-5620025Y-2751257I41475J51744D01*
G01X-4358935Y-4012347D01*
G01X-4358935Y-4480441D01*
G03X-4348062Y-4580247I48514J-45210D01*
G03X-4279851Y-4681677I55461J-36354D01*
G03X-4254961Y-4562005I-12750J65077D01*
G03X-4261907Y-4480441I-55461J36354D01*
G01X-4261907Y-3992252D01*
G03X-4276117Y-3957948I-48514J0D01*
G01X-5551416Y-2682648D01*
G03X-5593003Y-2623437I-66273J-2336D01*
G03X-5663980Y-2637502I-24685J-61548D01*
G03X-5688167Y-2625224I-41475J-51744D01*
G01X-5958586Y-2354805D01*
G01X-5958586Y-1993900D01*
G03X-5961886Y-1976313I-48514J0D01*
G01X-5961886Y-390700D01*
G03X-6158300Y-194286I-196414J0D01*
G01X-7747729Y-194286D01*
G03X-7759700Y-192786I-11971J-47014D01*
G01X-7785100Y-192786D01*
G03X-7797071Y-194286I0J-48514D01*
G01X-8918300Y-194286D01*
G03X-9114714Y-390700I0J-196414D01*
G01X-9114714Y-3150700D01*
G03X-8918300Y-3347114I196414J0D01*
G01X-7680930Y-6190553D02*
G03X-7715235Y-6176344I-34305J-34305D01*
G01X-8070834Y-6176344D01*
G03X-8105138Y-6190553I0J-48514D01*
G01X-8144425Y-6229839D01*
G03X-8154834Y-6215426I-58479J-31268D01*
G03X-8212992Y-6110392I-53729J38868D01*
G03X-8256633Y-6222239I4429J-66166D01*
G03X-8267045Y-6277943I53729J-38868D01*
G01X-8592878Y-6277943D01*
G03X-8709293Y-6262934I-62155J-23114D01*
G03X-8655708Y-6367368I54260J-38123D01*
G03X-8629633Y-6374971I26075J40911D01*
G01X-8172434Y-6374971D01*
G03X-8138129Y-6360762I0J48514D01*
G01X-8050739Y-6273372D01*
G01X-7841336Y-6273372D01*
G03X-7824114Y-6338149I63912J-17686D01*
G03X-7759191Y-6354815I46690J47092D01*
G03X-7768287Y-6386071I57176J-33592D01*
G01X-7914119Y-6531902D01*
G03X-7928328Y-6566207I34305J-34305D01*
G01X-7928328Y-6646692D01*
G03X-8036028Y-6698507I-41386J-51815D01*
G03X-7928328Y-6750321I66314J0D01*
G01X-7928328Y-6765370D01*
G03X-7958403Y-6880918I12904J-65046D01*
G03X-7849151Y-6832753I42978J50501D01*
G01X-7845510Y-6829111D01*
G03X-7831300Y-6794806I-34305J34304D01*
G01X-7831300Y-6586302D01*
G01X-7699678Y-6454680D01*
G03X-7642744Y-6418148I-2336J66273D01*
G01X-7534413Y-6526479D01*
G03X-7595716Y-6638099I-14412J-64729D01*
G03X-7484096Y-6576795I46891J46891D01*
G01X-7386498Y-6674393D01*
G03X-7273334Y-6718948I66273J2336D01*
G03X-7317889Y-6605784I-46891J46891D01*
G01X-7330581Y-6593092D01*
G03X-7294007Y-6506176I-24694J61545D01*
G03X-7271608Y-6431653I-40228J52719D01*
G03X-7335445Y-6387154I-62627J-21804D01*
G03X-7407681Y-6298109I-62000J23526D01*
G03X-7449316Y-6404943I10235J-65519D01*
G01X-7466540Y-6404943D01*
G01X-7680930Y-6190553D01*
G01X-8554277Y-6151158D02*
G03X-8421649Y-6151158I66314J0D01*
G03X-8554277Y-6151158I-66314J0D01*
G01X-8499114Y-5511800D02*
G03X-8366486Y-5511800I66314J0D01*
G03X-8499114Y-5511800I-66314J0D01*
G01X-8193018Y-5981708D02*
G03X-8060390Y-5981708I66314J0D01*
G03X-8193018Y-5981708I-66314J0D01*
G01X-8097496Y-6516976D02*
G03X-8007563Y-6420847I39062J53588D01*
G03X-7943572Y-6305809I24929J61450D01*
G03X-8033505Y-6401937I-39062J-53588D01*
G03X-8097496Y-6516976I-24929J-61450D01*
G01X-7933812Y-5499100D02*
G03X-7801184Y-5499100I66314J0D01*
G03X-7933812Y-5499100I-66314J0D01*
G01X-7930938Y-7160616D02*
G03X-7798310Y-7160616I66314J0D01*
G03X-7930938Y-7160616I-66314J0D01*
G01X-7762514Y-4025900D02*
G03X-7629886Y-4025900I66314J0D01*
G03X-7762514Y-4025900I-66314J0D01*
G01X-7744148Y-6664197D02*
G03X-7611521Y-6664197I66314J0D01*
G03X-7744148Y-6664197I-66314J0D01*
G01X-7356114Y-5556098D02*
G03X-7223486Y-5556098I66314J0D01*
G03X-7356114Y-5556098I-66314J0D01*
G01X-7336199Y-6977906D02*
G03X-7203571Y-6977906I66314J0D01*
G03X-7336199Y-6977906I-66314J0D01*
G01X-7205415Y-9436100D02*
G03X-6963787Y-9436100I120814J0D01*
G03X-7205415Y-9436100I-120814J0D01*
G01X-7050021Y-4610111D02*
G03X-6917393Y-4610111I66314J0D01*
G03X-7050021Y-4610111I-66314J0D01*
G01X-6955415Y-9436100D02*
G03X-6713788Y-9436100I120814J0D01*
G03X-6955415Y-9436100I-120814J0D01*
G01X-6802801Y-7025806D02*
G03X-6670173Y-7025806I66314J0D01*
G03X-6802801Y-7025806I-66314J0D01*
G01X-6734511Y-7401855D02*
G03X-6601883Y-7401855I66314J0D01*
G03X-6734511Y-7401855I-66314J0D01*
G01X-6733814Y-4267200D02*
G03X-6601186Y-4267200I66314J0D01*
G03X-6733814Y-4267200I-66314J0D01*
G01X-6650401Y-7508405D02*
G03X-6517773Y-7508405I66314J0D01*
G03X-6650401Y-7508405I-66314J0D01*
G01X-6625001Y-7689105D02*
G03X-6492373Y-7689105I66314J0D01*
G03X-6625001Y-7689105I-66314J0D01*
G01X-6457091Y-4825590D02*
G03X-6324463Y-4825590I66314J0D01*
G03X-6457091Y-4825590I-66314J0D01*
G01X-6073414Y-7340600D02*
G03X-5940786Y-7340600I66314J0D01*
G03X-6073414Y-7340600I-66314J0D01*
G01X-5861102Y-7380215D02*
G03X-5728475Y-7380215I66314J0D01*
G03X-5861102Y-7380215I-66314J0D01*
G01X-5856032Y-4801010D02*
G03X-5723404Y-4801010I66314J0D01*
G03X-5856032Y-4801010I-66314J0D01*
G01X-5273314Y-7264400D02*
G03X-5140686Y-7264400I66314J0D01*
G03X-5273314Y-7264400I-66314J0D01*
G01X-5095514Y-8585200D02*
G03X-4962886Y-8585200I66314J0D01*
G03X-5095514Y-8585200I-66314J0D01*
G01X-4949091Y-5342791D02*
G03X-4835927Y-5298236I46891J46891D01*
G01X-4647233Y-5109542D01*
G03X-4543987Y-5049439I37133J54942D01*
G03X-4655310Y-5006086I-66113J-5161D01*
G01X-4660900Y-5006086D01*
G03X-4695205Y-5020295I0J-48514D01*
G01X-4904536Y-5229627D01*
G03X-4949091Y-5342791I2336J-66273D01*
G01X-4739914Y-5321300D02*
G03X-4607286Y-5321300I66314J0D01*
G03X-4739914Y-5321300I-66314J0D01*
G01X-4732335Y-5465449D02*
G03X-4599707Y-5465449I66314J0D01*
G03X-4732335Y-5465449I-66314J0D01*
G01X-4485915Y-4769000D02*
G03X-4353287Y-4769000I66314J0D01*
G03X-4485915Y-4769000I-66314J0D01*
G01X-4477515Y-5554029D02*
G03X-4344887Y-5554029I66314J0D01*
G03X-4477515Y-5554029I-66314J0D01*
G01X-4409080Y-5015207D02*
G03X-4292418Y-5039150I64198J16617D01*
G03X-4202023Y-4961613I26196J60920D01*
G03X-4318685Y-4937670I-64198J-16617D01*
G03X-4409080Y-5015207I-26196J-60920D01*
G01X-4248916Y-5325429D02*
G03X-4116288Y-5325429I66314J0D01*
G03X-4248916Y-5325429I-66314J0D01*
G01X-4206293Y-4291170D02*
G03X-4161738Y-4404334I46891J-46891D01*
G01X-3692275Y-4873797D01*
G03X-3691114Y-4884032I66273J2336D01*
G03X-3761996Y-4990636I-21009J-62898D01*
G03X-3647011Y-4934358I49873J43706D01*
G03X-3559730Y-4873797I21009J62898D01*
G01X-3248867Y-4562934D01*
G03X-3204313Y-4449770I-2336J66273D01*
G03X-3317476Y-4494325I-46891J-46891D01*
G01X-3626003Y-4802851D01*
G01X-3690190Y-4738664D01*
G03X-3636112Y-4625850I7187J65923D01*
G03X-3748926Y-4679928I-46891J-46891D01*
G01X-4093129Y-4335725D01*
G03X-4206293Y-4291170I-66273J-2336D01*
G01X-4224336Y-4678051D02*
G03X-4091708Y-4678051I66314J0D01*
G03X-4224336Y-4678051I-66314J0D01*
G01X-4047436Y-5047750D02*
G03X-3914808Y-5047750I66314J0D01*
G03X-4047436Y-5047750I-66314J0D01*
G01X-3647189Y-5386359D02*
G03X-3695703Y-5274835I-48514J45210D01*
G03X-3744217Y-5386359I0J-66314D01*
G01X-3744217Y-5595149D01*
G03X-3736613Y-5621224I48514J0D01*
G03X-3632179Y-5674809I66310J676D01*
G03X-3647189Y-5558394I-38124J54260D01*
G01X-3647189Y-5386359D01*
G01X-3756314Y-9741500D02*
G03X-3742105Y-9775804I48514J0D01*
G01X-3731938Y-9785972D01*
G03X-3654672Y-9863238I172037J94771D01*
G01X-3653805Y-9864105D01*
G03X-3619624Y-9878314I34305J34305D01*
G03X-3559900Y-9887614I59724J187114D01*
G01X-799900Y-9887614D01*
G03X-740177Y-9878314I0J196414D01*
G01X-685800Y-9878314D01*
G03X-651495Y-9864105I0J48514D01*
G01X-633535Y-9846144D01*
G03X-619325Y-9811839I-34305J34305D01*
G01X-619325Y-9768474D01*
G03X-603486Y-9691200I-180575J77274D01*
G01X-603486Y-6931200D01*
G03X-651831Y-6882686I-48514J0D01*
G03X-799900Y-6775386I-148069J-48514D01*
G01X-864564Y-6775386D01*
G01X-864564Y-6740366D01*
G03X-913078Y-6628843I-48514J45210D01*
G03X-961592Y-6740366I0J-66314D01*
G01X-961592Y-6775386D01*
G01X-1151827Y-6775386D01*
G03X-1145286Y-6751058I-41973J24328D01*
G01X-1145286Y-6654800D01*
G03X-1152889Y-6628725I-48514J0D01*
G03X-1257324Y-6575140I-66311J-675D01*
G03X-1242314Y-6691555I38124J-54260D01*
G01X-1242314Y-6730962D01*
G01X-1246137Y-6734786D01*
G01X-3524114Y-6734786D01*
G03X-3540346Y-6731990I-16232J-45718D01*
G01X-3607175Y-6731990D01*
G03X-3641480Y-6746199I0J-48514D01*
G01X-3654165Y-6758885D01*
G03X-3736175Y-6844566I94265J-172315D01*
G03X-3756314Y-6931200I176275J-86634D01*
G01X-3756314Y-9741500D01*
G01X-3689059Y-5031457D02*
G03X-3733614Y-5144621I2336J-66273D01*
G03X-3620450Y-5100066I46891J46891D01*
G01X-3565028Y-5044644D01*
G01X-3456798Y-5044644D01*
G03X-3397043Y-5139464I59874J-28506D01*
G03X-3336946Y-5044860I120J66314D01*
G03X-3315769Y-4991525I-44977J48730D01*
G03X-3344131Y-4941638I-66154J-4605D01*
G03X-3410512Y-4855293I-63192J20108D01*
G03X-3468291Y-4947616I3189J-66237D01*
G01X-3585123Y-4947616D01*
G03X-3619427Y-4961825I0J-48514D01*
G01X-3689059Y-5031457D01*
G01X-3051999Y-4481506D02*
G03X-3035581Y-4364271I-21405J62764D01*
G03X-3120208Y-4281497I-63223J20010D01*
G03X-3136627Y-4398731I21405J-62764D01*
G03X-3051999Y-4481506I63223J-20010D01*
G01X-2665795Y-5037916D02*
G03X-2777318Y-5086430I-45210J-48514D01*
G03X-2665795Y-5134944I66314J0D01*
G01X-2609405Y-5134944D01*
G03X-2575100Y-5120734I0J48514D01*
G01X-1464071Y-4009705D01*
G03X-1419516Y-3896541I-2336J66273D01*
G03X-1532680Y-3941096I-46891J-46891D01*
G01X-2340629Y-4749045D01*
G03X-2444218Y-4736546I-56698J-34393D01*
G03X-2431720Y-4840135I46891J-46891D01*
G01X-2458402Y-4866818D01*
G03X-2571217Y-4812746I-65924J7181D01*
G03X-2517145Y-4925561I46891J-46891D01*
G01X-2629500Y-5037916D01*
G01X-2665795Y-5037916D01*
G01X-1183383Y-3126614D02*
G01X-746900Y-3126614D01*
G03X-696086Y-3075800I0J50814D01*
G01X-696086Y-2105800D01*
G03X-746900Y-2054986I-50814J0D01*
G01X-1716900Y-2054986D01*
G03X-1767714Y-2105800I0J-50814D01*
G01X-1767714Y-3075800D01*
G03X-1716900Y-3126614I50814J0D01*
G01X-1280411Y-3126614D01*
G01X-1280411Y-3573692D01*
G03X-1231897Y-3685216I48514J-45210D01*
G03X-1183383Y-3573692I0J66314D01*
G01X-1183383Y-3126614D01*
G01X-777523Y-6376257D02*
G03X-644895Y-6376257I66314J0D01*
G03X-777523Y-6376257I-66314J0D01*
G01X-515214Y-292100D02*
G03X-43586Y-292100I235814J0D01*
G03X-515214Y-292100I-235814J0D01*
G01X-515214Y-9715500D02*
G03X-43586Y-9715500I235814J0D01*
G03X-515214Y-9715500I-235814J0D01*
G54D11*
G01X-9668184Y-3752850D02*
G01X-9668184Y-3637196D01*
G01X-9668184Y-3752850D02*
G01X-9668184Y-3868504D01*
G01X-9668184Y-3752850D02*
G01X-9552530Y-3752850D01*
G01X-9668184Y-3752850D02*
G01X-9783837Y-3752850D01*
G01X-9309811Y-9227221D02*
G01X-9380461Y-9227221D01*
G01X-9309811Y-9227221D02*
G01X-9309811Y-9081564D01*
G01X-9309811Y-9227221D02*
G01X-9309811Y-9372877D01*
G01X-9309811Y-9565218D02*
G01X-9380461Y-9565218D01*
G01X-9309811Y-9565218D02*
G01X-9239161Y-9565218D01*
G01X-9309811Y-9565218D02*
G01X-9309811Y-9454563D01*
G01X-9309811Y-9565218D02*
G01X-9309811Y-9675873D01*
G01X-9174810Y-9264203D02*
G01X-9174810Y-9322356D01*
G01X-9174810Y-9129202D02*
G01X-9174810Y-9071049D01*
G01X-9089796Y-9129202D02*
G01X-9089796Y-9071049D01*
G01X-9089288Y-9264203D02*
G01X-9089288Y-9322356D01*
G01X-8444789Y-9565218D02*
G01X-8515439Y-9565218D01*
G01X-8444789Y-9565218D02*
G01X-8374139Y-9565218D01*
G01X-8444789Y-9565218D02*
G01X-8444789Y-9675873D01*
G01X-8444789Y-9227221D02*
G01X-8374139Y-9227221D01*
G01X-8444789Y-9227221D02*
G01X-8444789Y-9081564D01*
G01X-6834602Y-9436100D02*
G01X-6945255Y-9436100D01*
G01X-6834602Y-9436100D02*
G01X-6723948Y-9436100D01*
G01X-6834602Y-9436100D02*
G01X-6834602Y-9325446D01*
G01X-6834602Y-9436100D02*
G01X-6834602Y-9546754D01*
G04 Copper End*

G04 Pad Start*
G54D12*
G01X-1231900Y-2590800D03*
G54D13*
G01X-9715500Y-279400D03*
G01X-9702800Y-9677400D03*
G01X-279400Y-9715500D03*
G01X-279400Y-292100D03*
G54D14*
G01X-7084601Y-9436100D03*
G01X-6834602Y-9436100D03*
G54D15*
G01X-9668184Y-3498850D03*
G54D16*
G01X-9668184Y-3752850D03*
G01X-9668184Y-4006850D03*
G01X-9668184Y-4260850D03*
G01X-9668184Y-4514850D03*
G01X-9668184Y-4768850D03*
G01X-9668184Y-5022850D03*
G01X-9668184Y-5276850D03*
G01X-9668184Y-5530850D03*
G01X-9668184Y-5784850D03*
G01X-9668184Y-6038850D03*
G01X-9668184Y-6292850D03*
G01X-9668184Y-6546850D03*
G01X-9668184Y-6800850D03*
G54D17*
G01X-9004808Y-9129202D03*
G01X-9174810Y-9129202D03*
G01X-9089796Y-9129202D03*
G01X-8919794Y-9129202D03*
G01X-8834806Y-9129202D03*
G01X-8749792Y-9129202D03*
G01X-8664804Y-9129202D03*
G01X-8579790Y-9129202D03*
G01X-9174810Y-9264203D03*
G01X-9089288Y-9264203D03*
G01X-9004300Y-9264203D03*
G01X-8919312Y-9264203D03*
G01X-8834298Y-9264203D03*
G01X-8749309Y-9264203D03*
G01X-8664296Y-9264203D03*
G01X-8579307Y-9264203D03*
G54D18*
G01X-9309811Y-9227221D03*
G01X-8444789Y-9227221D03*
G54D20*
G01X-9309811Y-9565218D03*
G01X-8444789Y-9565218D03*
G54D21*
G01X-2179900Y-8311200D03*
G01X-7538300Y-1770700D03*
G04 Pad End*

G04 Via Start*
G54D22*
G01X-6797176Y-4749391D03*
G01X-6390777Y-4825590D03*
G01X-1231897Y-3618902D03*
G01X-913078Y-6695157D03*
G01X-6783277Y-4649391D03*
G01X-4756940Y-4923130D03*
G01X-6886606Y-5206700D03*
G01X-6404007Y-5206700D03*
G01X-4182602Y-5325429D03*
G01X-4411201Y-5554029D03*
G01X-3695703Y-5341149D03*
G01X-3670303Y-5620549D03*
G01X-5946208Y-2652805D03*
G01X-6859476Y-5049390D03*
G01X-4344881Y-4998590D03*
G01X-6783277Y-5050210D03*
G01X-4266222Y-4978230D03*
G01X-6822576Y-4974790D03*
G01X-6085978Y-5127190D03*
G01X-4292602Y-4616601D03*
G01X-4419601Y-4769000D03*
G01X-6668197Y-7401855D03*
G01X-6337997Y-7376455D03*
G01X-2524326Y-4859637D03*
G01X-2397327Y-4783437D03*
G01X-8487963Y-6151158D03*
G01X-8208563Y-6176558D03*
G01X-8280404Y-9245592D03*
G01X-3686723Y-5097730D03*
G01X-3381923Y-4996130D03*
G01X-7677835Y-6664197D03*
G01X-7982634Y-6359397D03*
G01X-3981122Y-5047750D03*
G01X-3396923Y-5073150D03*
G01X-3712123Y-4946930D03*
G01X-3407323Y-4921530D03*
G01X-2711004Y-5086430D03*
G01X-1466407Y-3943432D03*
G01X-7263626Y-4394501D03*
G01X-7777424Y-6291058D03*
G01X-7320225Y-6672057D03*
G01X-7548825Y-6591208D03*
G01X-7397445Y-6363628D03*
G01X-7363625Y-4394501D03*
G01X-7643915Y-4801010D03*
G01X-5789718Y-4801010D03*
G01X-7702015Y-6388407D03*
G01X-7915424Y-6830416D03*
G01X-7864624Y-7160616D03*
G01X-7352855Y-4006852D03*
G01X-6910276Y-4900190D03*
G01X-6808677Y-4824810D03*
G01X-8202904Y-6261107D03*
G01X-7085306Y-5143510D03*
G01X-6325457Y-5143500D03*
G01X-8126704Y-5981708D03*
G01X-6983707Y-4610111D03*
G01X-5794789Y-7380215D03*
G01X-7064786Y-5246619D03*
G01X-8058434Y-6463387D03*
G01X-7355276Y-6531547D03*
G01X-6584087Y-7508405D03*
G01X-6736487Y-7025806D03*
G01X-7334235Y-6453457D03*
G01X-8655033Y-6301058D03*
G01X-6558687Y-7689105D03*
G01X-7269885Y-6977906D03*
G01X-7969714Y-6698507D03*
G01X-6449077Y-4530301D03*
G01X-6767066Y-4530301D03*
G01X-6226587Y-7735815D03*
G01X-8097624Y-5322819D03*
G01X-7655415Y-4941820D03*
G01X-8923002Y-8994147D03*
G01X-3098804Y-4344261D03*
G01X-3251204Y-4496661D03*
G01X-3626003Y-4871460D03*
G01X-4159402Y-4338061D03*
G01X-711209Y-6376257D03*
G01X-3073404Y-4418741D03*
G01X-3683003Y-4672741D03*
G01X-4158022Y-4678051D03*
G01X-4310421Y-4525651D03*
G01X-5617689Y-2684985D03*
G01X-4666021Y-5465449D03*
G01X-6616700Y-5270500D03*
G01X-4902200Y-5295900D03*
G01X-4610100Y-5054600D03*
G01X-9639300Y-3225800D03*
G01X-5705455Y-2689245D03*
G01X-7594600Y-4381500D03*
G01X-7696200Y-4025900D03*
G01X-7867498Y-5499100D03*
G01X-8432800Y-5511800D03*
G01X-9791700Y-7429500D03*
G01X-7455029Y-6731000D03*
G01X-7785100Y-5956300D03*
G01X-7289800Y-5556098D03*
G01X-7391400Y-5588000D03*
G01X-6731000Y-5359400D03*
G01X-6007100Y-7340600D03*
G01X-6197600Y-7241158D03*
G01X-5207000Y-7264400D03*
G01X-5029200Y-8585200D03*
G01X-2184400Y-5041900D03*
G01X-4673600Y-5321300D03*
G01X-4051300Y-5778500D03*
G01X-6299200Y-4559300D03*
G01X-6667500Y-4267200D03*
G01X-1219200Y-6629400D03*
G04 Via End*

G04 Track Start*
G54D11*
G01X-3692636Y-6865964D02*
G02X-3625136Y-6798464I132735J-65236D01*
G01X-3707800Y-6931200D02*
G02X-3692636Y-6865964I147900J0D01*
G01X-3692413Y-9756887D02*
G01X-3707800Y-9741500D01*
G01X-3625587Y-9823713D02*
G02X-3692413Y-9756887I65687J132513D01*
G01X-3619500Y-9829800D02*
G01X-3625587Y-9823713D01*
G01X-3611519Y-9829800D02*
G01X-3619500Y-9829800D01*
G01X-3559900Y-9839100D02*
G02X-3611519Y-9829800I0J147900D01*
G01X-799900Y-9839100D02*
G01X-3559900Y-9839100D01*
G01X-748281Y-9829800D02*
G02X-799900Y-9839100I-51619J138600D01*
G01X-685800Y-9829800D02*
G01X-748281Y-9829800D01*
G01X-667839Y-9811839D02*
G01X-685800Y-9829800D01*
G01X-667839Y-9757792D02*
G01X-667839Y-9811839D01*
G01X-652000Y-9691200D02*
G02X-667839Y-9757792I-147900J0D01*
G01X-652000Y-6931200D02*
G01X-652000Y-9691200D01*
G01X-3707800Y-9741500D02*
G01X-3707800Y-6931200D01*
G01X-3625136Y-6798464D02*
G01X-3607175Y-6780504D01*
G01X-3540346Y-6780504D01*
G01X-3537550Y-6783300D01*
G01X-7786600Y-242800D02*
G01X-7785100Y-241300D01*
G01X-8918300Y-242800D02*
G01X-7786600Y-242800D01*
G01X-9066200Y-390700D02*
G02X-8918300Y-242800I147900J0D01*
G01X-9066200Y-3150700D02*
G01X-9066200Y-390700D01*
G01X-8918300Y-3298600D02*
G02X-9066200Y-3150700I0J147900D01*
G01X-6007100Y-2743200D02*
G01X-6007100Y-3108100D01*
G01X-6158300Y-3298600D02*
G01X-8918300Y-3298600D01*
G01X-6010400Y-3150700D02*
G02X-6158300Y-3298600I-147900J0D01*
G01X-6010400Y-3111400D02*
G01X-6010400Y-3150700D01*
G01X-6007100Y-3108100D02*
G01X-6010400Y-3111400D01*
G01X-7785100Y-241300D02*
G01X-7759700Y-241300D01*
G01X-6007100Y-1993900D02*
G01X-6007100Y-2374900D01*
G01X-7759700Y-241300D02*
G01X-7758200Y-242800D01*
G01X-6158300Y-242800D01*
G02X-6010400Y-390700I0J-147900D01*
G01X-6010400Y-1990600D01*
G01X-6007100Y-1993900D01*
G01X-1231897Y-3618902D02*
G01X-1231897Y-2590803D01*
G01X-913078Y-6695157D02*
G01X-913078Y-7044386D01*
G01X-2179896Y-8311203D01*
G01X-6783277Y-4649391D02*
G01X-5030680Y-4649391D01*
G01X-4756940Y-4923130D01*
G01X-3695703Y-5341149D02*
G01X-3695703Y-5595149D01*
G01X-3670303Y-5620549D01*
G01X-5946208Y-2652805D02*
G01X-6656197Y-2652805D01*
G01X-7538305Y-1770696D01*
G01X-6822576Y-4974790D02*
G01X-6238377Y-4974790D01*
G01X-6085978Y-5127190D01*
G01X-8280404Y-9245592D02*
G01X-8432803Y-9397991D01*
G01X-8636003Y-9397991D01*
G01X-8749312Y-9284681D01*
G01X-8749312Y-9264201D01*
G01X-3686723Y-5097730D02*
G01X-3585123Y-4996130D01*
G01X-3381923Y-4996130D01*
G01X-2711004Y-5086430D02*
G01X-2609405Y-5086430D01*
G01X-1466407Y-3943432D01*
G01X-7263626Y-4394501D02*
G01X-7263626Y-4521501D01*
G01X-7619225Y-4877100D01*
G01X-7677237Y-4877100D01*
G01X-7880437Y-5080300D01*
G01X-9610731Y-5080300D01*
G01X-9668181Y-5022850D01*
G01X-7777424Y-6291058D02*
G01X-7701225Y-6291058D01*
G01X-7320225Y-6672057D01*
G01X-7363625Y-4394501D02*
G01X-7827474Y-4858350D01*
G01X-7827474Y-4972050D01*
G01X-7878274Y-5022850D01*
G01X-9414181Y-5022850D01*
G01X-9668181Y-4768851D01*
G01X-7702015Y-6388407D02*
G01X-7879814Y-6566207D01*
G01X-7879814Y-6794806D01*
G01X-7915424Y-6830416D01*
G01X-7352855Y-4006852D02*
G01X-7632255Y-3727453D01*
G01X-9388781Y-3727453D01*
G01X-9668181Y-4006852D01*
G01X-6910276Y-4900190D02*
G01X-7088076Y-5077990D01*
G01X-7799274Y-5077990D01*
G01X-7875474Y-5154190D01*
G01X-9714640Y-5154190D01*
G01X-9790840Y-5077990D01*
G01X-9790840Y-4637511D01*
G01X-9668181Y-4514851D01*
G01X-6325457Y-5143500D02*
G01X-6627057Y-5143500D01*
G01X-6804856Y-5321299D01*
G01X-8001854Y-5321299D01*
G01X-8071704Y-5251449D01*
G01X-9642781Y-5251449D01*
G01X-9668181Y-5276849D01*
G01X-7334235Y-6453457D02*
G01X-7486635Y-6453457D01*
G01X-7715235Y-6224858D01*
G01X-8070834Y-6224858D01*
G01X-8172434Y-6326457D01*
G01X-8629633Y-6326457D01*
G01X-8655033Y-6301058D01*
G01X-6449077Y-4530301D02*
G01X-6767066Y-4530301D01*
G01X-6226587Y-7735815D02*
G01X-6226587Y-7354815D01*
G01X-8207784Y-5373619D01*
G01X-8207784Y-5348219D01*
G01X-8182384Y-5322819D01*
G01X-8097624Y-5322819D01*
G01X-8834812Y-9129202D02*
G01X-8834812Y-9082337D01*
G01X-8923002Y-8994147D01*
G01X-8919312Y-9264201D02*
G01X-8919312Y-9238801D01*
G01X-8834812Y-9154302D01*
G01X-8834812Y-9129202D01*
G01X-3251204Y-4496661D02*
G01X-3626003Y-4871460D01*
G01X-4159402Y-4338061D01*
G01X-4310421Y-4525651D02*
G01X-4310421Y-3992252D01*
G01X-5617689Y-2684985D01*
G01X-4902200Y-5295900D02*
G01X-4660900Y-5054600D01*
G01X-4610100Y-5054600D01*
G01X-3537550Y-6783300D02*
G01X-1226042Y-6783300D01*
G01X-1193800Y-6751058D01*
G01X-1193800Y-6654800D02*
G01X-1219200Y-6629400D01*
G01X-1193800Y-6751058D02*
G01X-1193800Y-6654800D01*
G01X-5705455Y-2689245D02*
G01X-5705455Y-2676545D01*
G01X-6007100Y-2374900D01*
G04 Track End*

M02*

