G04 Layer: TopSolderMaskLayer*
G04 EasyEDA Pro v3.2.148, 2026-07-06 14:14:55*
G04 Gerber Generator version 0.3*
G04 Scale: 100 percent, Rotated: No, Reflected: No*
G04 Dimensions in millimeters*
G04 Leading zeros omitted, absolute positions, 4 integers and 5 decimals*
G04 Generated by one-click*
G04 Object Configs: Pad,Via,Track,Text,Image,Dimension,BoardOutline,BoardCutout,CopperFilled,SolidRegion,FPCStiffener,Line,PlaneZone,ComponentProperty,ComponentSilkscreen,TearDrop*
G04 Layer Configs: 1,15,16,2,3,4,5,6,7,8,9,10,11,13,14,56*
G04 Copper Areas: 0*
%FSLAX45Y45*%
%MOMM*%
%AMRoundRect*1,1,$1,$2,$3*1,1,$1,$4,$5*1,1,$1,0-$2,0-$3*1,1,$1,0-$4,0-$5*20,1,$1,$2,$3,$4,$5,0*20,1,$1,$4,$5,0-$2,0-$3,0*20,1,$1,0-$2,0-$3,0-$4,0-$5,0*20,1,$1,0-$4,0-$5,$2,$3,0*4,1,4,$2,$3,$4,$5,0-$2,0-$3,0-$4,0-$5,$2,$3,0*%
%ADD10C,4.1016*%
%ADD11RoundRect,0.1016X-0.45X-0.4X-0.45X0.4*%
%ADD12RoundRect,0.1016X-0.4X0.45X0.4X0.45*%
%ADD13RoundRect,0.10003X-1.55999X-0.50999X-1.55999X0.50999*%
%ADD14C,1.8016*%
%ADD15RoundRect,0.1034X-0.432X-0.4X-0.432X0.4*%
%ADD16RoundRect,0.1016X-0.432X-0.4X-0.432X0.4*%
%ADD17RoundRect,0.1016X-0.4X0.432X0.4X0.432*%
%ADD18RoundRect,0.1016X-0.69977X-0.5X-0.69977X0.5*%
%ADD19RoundRect,0.1016X-0.40324X0.432X0.40324X0.432*%
%ADD20RoundRect,0.1016X-0.432X-0.40324X-0.432X0.40324*%
%ADD21RoundRect,0.1016X-0.75X-1.15X-0.75X1.15*%
%ADD22O,0.95001X0.38001*%
%ADD23O,0.38001X0.95001*%
%ADD24RoundRect,0.1016X-0.14X-0.3325X-0.14X0.3325*%
%ADD25RoundRect,0.1016X-1.0X-0.6X-1.0X0.6*%
%ADD26RoundRect,0.1016X-0.2X0.45X0.2X0.45*%
%ADD27O,1.6016X0.4016*%
%ADD28O,0.4016X1.6016*%
%ADD29RoundRect,0.1016X-0.9X-0.9X-0.9X0.9*%
%ADD30C,1.9016*%
%ADD31C,0.75001*%
%ADD32O,0.99995X2.50007*%
%ADD33O,0.99995X1.80005*%
%ADD34RoundRect,0.10003X-1.35X-0.762X-1.35X0.762*%
%ADD35RoundRect,0.1016X-0.45X-0.2X-0.45X0.2*%
%ADD36O,1.6716X0.38161*%
%ADD37O,0.38161X1.6716*%
%ADD38RoundRect,0.1016X-0.42501X0.85X0.42501X0.85*%
%ADD39RoundRect,0.1016X-0.35X-0.62501X-0.35X0.62501*%
%ADD40RoundRect,0.1016X-0.75X-1.25X-0.75X1.25*%
%ADD41RoundRect,0.1016X-0.56627X0.68851X0.56627X0.68851*%
%ADD42RoundRect,0.1016X-0.68851X-0.56627X-0.68851X0.56627*%
G75*


G04 Pad Start*
G54D10*
G01X-9715500Y-279400D03*
G01X-9702800Y-9677400D03*
G01X-279400Y-9715500D03*
G01X-279400Y-292100D03*
G54D11*
G01X-7183230Y-6910649D03*
G01X-7183230Y-7050654D03*
G01X-6829837Y-7050654D03*
G01X-6829837Y-6910649D03*
G01X-6959600Y-5696102D03*
G01X-6959600Y-5556098D03*
G54D12*
G01X-7836029Y-7679155D03*
G01X-7976034Y-7679155D03*
G54D11*
G01X-6343931Y-7241158D03*
G01X-6343931Y-7101153D03*
G01X-5495878Y-7131492D03*
G01X-5495878Y-6991487D03*
G01X-7890026Y-7050662D03*
G01X-7890026Y-6910657D03*
G01X-8147331Y-6980655D03*
G01X-8147331Y-7120660D03*
G01X-5575300Y-2266798D03*
G01X-5575300Y-2406802D03*
G01X-1993900Y-5143500D03*
G01X-1993900Y-5003495D03*
G54D12*
G01X-3485998Y-5194300D03*
G01X-3626002Y-5194300D03*
G01X-3485998Y-4991100D03*
G01X-3626002Y-4991100D03*
G54D11*
G01X-911583Y-6191048D03*
G01X-911583Y-6051043D03*
G54D13*
G01X-9154401Y-8623300D03*
G01X-9692399Y-8623300D03*
G01X-9154401Y-8369300D03*
G01X-9692399Y-8369300D03*
G01X-9154401Y-8115300D03*
G01X-9692399Y-8115300D03*
G01X-9154401Y-7861300D03*
G01X-9692399Y-7861300D03*
G01X-9154401Y-7607300D03*
G01X-9692399Y-7607300D03*
G54D14*
G01X-7084601Y-9436100D03*
G01X-6834602Y-9436100D03*
G54D16*
G01X-5208217Y-6988754D03*
G01X-5208217Y-7128734D03*
G54D17*
G01X-7848742Y-7425155D03*
G01X-7988721Y-7425155D03*
G54D18*
G01X-8839200Y-6279642D03*
G01X-8839200Y-6489700D03*
G01X-8843564Y-5712503D03*
G01X-8843564Y-5922561D03*
G54D19*
G01X-7971259Y-6193255D03*
G01X-8121931Y-6193255D03*
G54D20*
G01X-7397441Y-6209807D03*
G01X-7397441Y-6059134D03*
G01X-3289300Y-4990236D03*
G01X-3289300Y-4839564D03*
G01X-3289300Y-5195164D03*
G01X-3289300Y-5345836D03*
G54D19*
G01X-4344264Y-5854700D03*
G01X-4494936Y-5854700D03*
G54D20*
G01X-2184400Y-4179164D03*
G01X-2184400Y-4329836D03*
G01X-2946400Y-4191864D03*
G01X-2946400Y-4342536D03*
G01X-876300Y-3607664D03*
G01X-876300Y-3758336D03*
G01X-1082276Y-6590934D03*
G01X-1082276Y-6440261D03*
G54D21*
G01X-5838406Y-9738690D03*
G01X-5838380Y-8828710D03*
G01X-5388394Y-9738690D03*
G01X-5388394Y-8828710D03*
G01X-4575594Y-8828710D03*
G01X-4575619Y-9738690D03*
G01X-5025606Y-8828710D03*
G01X-5025606Y-9738690D03*
G54D22*
G01X-7977836Y-6463384D03*
G01X-7977836Y-6513397D03*
G01X-7977836Y-6563384D03*
G01X-7977836Y-6613397D03*
G54D23*
G01X-7902830Y-6688403D03*
G01X-7852818Y-6688403D03*
G01X-7802830Y-6688403D03*
G01X-7752818Y-6688403D03*
G54D22*
G01X-7677837Y-6613397D03*
G01X-7677837Y-6563384D03*
G01X-7677837Y-6513397D03*
G01X-7677837Y-6463384D03*
G54D23*
G01X-7752818Y-6388404D03*
G01X-7802830Y-6388404D03*
G01X-7852818Y-6388404D03*
G01X-7902830Y-6388404D03*
G36*
G01X-7870323Y-6448389D02*
G01X-7742825Y-6448392D01*
G02X-7737826Y-6453392I0J-5000D01*
G01X-7737826Y-6623392D01*
G02X-7742826Y-6628392I-5000J0D01*
G01X-7912825Y-6628392D01*
G02X-7917825Y-6623392I0J5000D01*
G01X-7917825Y-6495891D01*
G02X-7916361Y-6492356I5000J0D01*
G01X-7873859Y-6449854D01*
G02X-7870323Y-6448389I3536J-3536D01*
G37*
G54D24*
G01X-6307884Y-7457609D03*
G01X-6357896Y-7457609D03*
G01X-6407884Y-7457609D03*
G01X-6457896Y-7457609D03*
G01X-6507883Y-7457609D03*
G01X-6307884Y-7689105D03*
G01X-6357896Y-7689105D03*
G01X-6407884Y-7689105D03*
G01X-6457896Y-7689105D03*
G01X-6507883Y-7689105D03*
G54D25*
G01X-6407884Y-7573357D03*
G54D26*
G01X-913087Y-6366638D03*
G01X-783090Y-6366638D03*
G01X-783090Y-6586653D03*
G01X-848088Y-6586653D03*
G01X-913087Y-6586653D03*
G54D27*
G01X-7782420Y-4425594D03*
G01X-7782420Y-4475607D03*
G01X-7782420Y-4525594D03*
G01X-7782420Y-4575607D03*
G01X-7782420Y-4625594D03*
G01X-7782420Y-4675607D03*
G01X-7782420Y-4725594D03*
G01X-7782420Y-4775606D03*
G01X-7782420Y-4825594D03*
G01X-7782420Y-4875606D03*
G01X-7782420Y-4925593D03*
G01X-7782420Y-4975606D03*
G01X-7782420Y-5025593D03*
G01X-7782420Y-5075606D03*
G01X-7782420Y-5125593D03*
G01X-7782420Y-5175606D03*
G54D28*
G01X-7587424Y-5370601D03*
G01X-7537412Y-5370601D03*
G01X-7487425Y-5370601D03*
G01X-7437412Y-5370601D03*
G01X-7387425Y-5370601D03*
G01X-7337412Y-5370601D03*
G01X-7287425Y-5370601D03*
G01X-7237412Y-5370601D03*
G01X-7187425Y-5370601D03*
G01X-7137413Y-5370601D03*
G01X-7087425Y-5370601D03*
G01X-7037413Y-5370601D03*
G01X-6987426Y-5370601D03*
G01X-6937413Y-5370601D03*
G01X-6887426Y-5370601D03*
G01X-6837413Y-5370601D03*
G54D27*
G01X-6644780Y-5175606D03*
G01X-6644780Y-5125593D03*
G01X-6644780Y-5075606D03*
G01X-6644780Y-5025593D03*
G01X-6644780Y-4975606D03*
G01X-6644780Y-4925593D03*
G01X-6644780Y-4875606D03*
G01X-6644780Y-4825594D03*
G01X-6644780Y-4775606D03*
G01X-6644780Y-4725594D03*
G01X-6644780Y-4675607D03*
G01X-6644780Y-4625594D03*
G01X-6644780Y-4575607D03*
G01X-6644780Y-4525594D03*
G01X-6644780Y-4475607D03*
G01X-6644780Y-4425594D03*
G54D28*
G01X-6837413Y-4230599D03*
G01X-6887426Y-4230599D03*
G01X-6937413Y-4230599D03*
G01X-6987426Y-4230599D03*
G01X-7037413Y-4230599D03*
G01X-7087425Y-4230599D03*
G01X-7137413Y-4230599D03*
G01X-7187425Y-4230599D03*
G01X-7237412Y-4230599D03*
G01X-7287425Y-4230599D03*
G01X-7337412Y-4230599D03*
G01X-7387425Y-4230599D03*
G01X-7437412Y-4230599D03*
G01X-7487425Y-4230599D03*
G01X-7537412Y-4230599D03*
G01X-7587424Y-4230599D03*
G54D29*
G01X-9668184Y-3498850D03*
G54D30*
G01X-9668184Y-3752850D03*
G01X-9668184Y-4006850D03*
G01X-9668184Y-4260850D03*
G01X-9668184Y-4514850D03*
G01X-9668184Y-4768850D03*
G01X-9668184Y-5022850D03*
G01X-9668184Y-5276850D03*
G01X-9668184Y-5530850D03*
G01X-9668184Y-5784850D03*
G01X-9668184Y-6038850D03*
G01X-9668184Y-6292850D03*
G01X-9668184Y-6546850D03*
G01X-9668184Y-6800850D03*
G54D31*
G01X-9004808Y-9129202D03*
G01X-9174810Y-9129202D03*
G01X-9089796Y-9129202D03*
G01X-8919794Y-9129202D03*
G01X-8834806Y-9129202D03*
G01X-8749792Y-9129202D03*
G01X-8664804Y-9129202D03*
G01X-8579790Y-9129202D03*
G01X-9174810Y-9264203D03*
G01X-9089288Y-9264203D03*
G01X-9004300Y-9264203D03*
G01X-8919312Y-9264203D03*
G01X-8834298Y-9264203D03*
G01X-8749309Y-9264203D03*
G01X-8664296Y-9264203D03*
G01X-8579307Y-9264203D03*
G54D32*
G01X-9309811Y-9227221D03*
G01X-8444789Y-9227221D03*
G54D33*
G01X-9309811Y-9565218D03*
G01X-8444789Y-9565218D03*
G54D34*
G01X-8089900Y-4550105D03*
G01X-8089900Y-4822495D03*
G54D20*
G01X-4889500Y-3085236D03*
G01X-4889500Y-2934564D03*
G54D35*
G01X-5617693Y-2627396D03*
G01X-5617693Y-2757394D03*
G01X-5837707Y-2757394D03*
G01X-5837707Y-2692395D03*
G01X-5837707Y-2627396D03*
G54D36*
G01X-3839117Y-5298542D03*
G01X-3839117Y-5248530D03*
G01X-3839117Y-5198542D03*
G01X-3839117Y-5148530D03*
G01X-3839117Y-5098543D03*
G01X-3839117Y-5048530D03*
G01X-3839117Y-4998543D03*
G01X-3839117Y-4948530D03*
G54D37*
G01X-3982601Y-4805046D03*
G01X-4032614Y-4805046D03*
G01X-4082601Y-4805046D03*
G01X-4132614Y-4805046D03*
G01X-4182601Y-4805046D03*
G01X-4232614Y-4805046D03*
G01X-4282601Y-4805046D03*
G01X-4332613Y-4805046D03*
G54D36*
G01X-4476098Y-4948530D03*
G01X-4476098Y-4998543D03*
G01X-4476098Y-5048530D03*
G01X-4476098Y-5098543D03*
G01X-4476098Y-5148530D03*
G01X-4476098Y-5198542D03*
G01X-4476098Y-5248530D03*
G01X-4476098Y-5298542D03*
G54D37*
G01X-4332613Y-5442027D03*
G01X-4282601Y-5442027D03*
G01X-4232614Y-5442027D03*
G01X-4182601Y-5442027D03*
G01X-4132614Y-5442027D03*
G01X-4082601Y-5442027D03*
G01X-4032614Y-5442027D03*
G01X-3982601Y-5442027D03*
G54D11*
G01X-4191000Y-4565802D03*
G01X-4191000Y-4425798D03*
G54D12*
G01X-3745005Y-4577432D03*
G01X-3605000Y-4577432D03*
G54D11*
G01X-6781800Y-5556098D03*
G01X-6781800Y-5696102D03*
G54D12*
G01X-6445397Y-4432296D03*
G01X-6305393Y-4432296D03*
G54D11*
G01X-7543800Y-4007002D03*
G01X-7543800Y-3866998D03*
G01X-7137400Y-5696102D03*
G01X-7137400Y-5556098D03*
G54D12*
G01X-7867498Y-5346700D03*
G01X-8007502Y-5346700D03*
G01X-7981798Y-5054600D03*
G01X-8121802Y-5054600D03*
G01X-3808510Y-4780636D03*
G01X-3668505Y-4780636D03*
G54D11*
G01X-2628900Y-4190695D03*
G01X-2628900Y-4330700D03*
G01X-3941707Y-5815839D03*
G01X-3941707Y-5675834D03*
G01X-7962900Y-3879698D03*
G01X-7962900Y-4019702D03*
G01X-8179899Y-3892394D03*
G01X-8179899Y-4032399D03*
G54D38*
G01X-7950200Y-4241800D03*
G01X-8181198Y-4241800D03*
G54D39*
G01X-1340104Y-3519500D03*
G01X-1530096Y-3519500D03*
G01X-1435100Y-3719500D03*
G54D11*
G01X-6661431Y-7507553D03*
G01X-6661431Y-7647558D03*
G01X-6140731Y-7571358D03*
G01X-6140731Y-7431353D03*
G01X-7124700Y-8032902D03*
G01X-7124700Y-7892898D03*
G01X-5797782Y-6986853D03*
G01X-5797782Y-7126858D03*
G01X-3975100Y-4565802D03*
G01X-3975100Y-4425798D03*
G01X-2400304Y-4324497D03*
G01X-2400304Y-4184493D03*
G01X-4406900Y-4438498D03*
G01X-4406900Y-4578502D03*
G54D40*
G01X-7225982Y-7564850D03*
G01X-6845998Y-7564850D03*
G54D41*
G01X-406400Y-6654800D03*
G01X-606400Y-6654800D03*
G54D42*
G01X-5689600Y-3171800D03*
G01X-5689600Y-2971800D03*
G54D11*
G01X-7715531Y-6065951D03*
G01X-7715531Y-6205955D03*
G01X-7536623Y-7050654D03*
G01X-7536623Y-6910649D03*
G01X-7455029Y-6593458D03*
G01X-7455029Y-6453453D03*
G54D20*
G01X-7756539Y-9194800D03*
G01X-7756539Y-9345473D03*
G01X-8102600Y-9194800D03*
G01X-8102600Y-9345473D03*
G01X-7050389Y-6531554D03*
G01X-7050389Y-6682227D03*
G54D19*
G01X-8364959Y-6840955D03*
G01X-8515631Y-6840955D03*
G01X-7977327Y-5867400D03*
G01X-8128000Y-5867400D03*
G54D20*
G01X-8432800Y-5245964D03*
G01X-8432800Y-5396636D03*
G54D19*
G01X-6654800Y-3975100D03*
G01X-6504127Y-3975100D03*
G54D20*
G01X-7061200Y-3999636D03*
G01X-7061200Y-3848964D03*
G54D19*
G01X-6339027Y-4203700D03*
G01X-6489700Y-4203700D03*
G54D12*
G01X-8363906Y-4597404D03*
G01X-8503911Y-4597404D03*
G01X-8362798Y-4813300D03*
G01X-8502802Y-4813300D03*
G54D20*
G01X-7180898Y-6349507D03*
G01X-7180898Y-6198834D03*
G54D19*
G01X-5893664Y-4838700D03*
G01X-6044336Y-4838700D03*
G54D11*
G01X-4140200Y-5683098D03*
G01X-4140200Y-5823102D03*
G54D12*
G01X-4642002Y-4787900D03*
G01X-4501998Y-4787900D03*
G54D11*
G01X-3542416Y-5641013D03*
G01X-3542416Y-5501009D03*
G01X-3746500Y-5645302D03*
G01X-3746500Y-5505298D03*
G54D12*
G01X-4349598Y-5676900D03*
G01X-4489602Y-5676900D03*
G54D11*
G01X-2336805Y-4997606D03*
G01X-2336805Y-4857601D03*
G01X-2336795Y-5175094D03*
G01X-2336795Y-5315099D03*
G54D20*
G01X-2603500Y-5002073D03*
G01X-2603500Y-4851400D03*
G01X-2602636Y-5169764D03*
G01X-2602636Y-5320436D03*
G04 Pad End*

M02*

