G04 Layer: TopSilkscreenLayer*
G04 EasyEDA Pro v3.2.148, 2026-07-06 14:14:55*
G04 Gerber Generator version 0.3*
G04 Scale: 100 percent, Rotated: No, Reflected: No*
G04 Dimensions in millimeters*
G04 Leading zeros omitted, absolute positions, 4 integers and 5 decimals*
G04 Generated by one-click*
G04 Object Configs: Pad,Via,Track,Text,Image,Dimension,BoardOutline,BoardCutout,CopperFilled,SolidRegion,FPCStiffener,Line,PlaneZone,ComponentProperty,ComponentSilkscreen,TearDrop*
G04 Layer Configs: 1,15,16,2,3,4,5,6,7,8,9,10,11,13,14,56*
G04 Copper Areas: 0*
%FSLAX45Y45*%
%MOMM*%
%ADD10C,0.1524*%
%ADD11C,0.254*%
%ADD12C,0.15199*%
%ADD13C,0.2*%
%ADD14C,0.3*%
%ADD15C,0.6*%
%ADD16C,0.1392*%
%ADD17C,0.127*%
G75*


G04 Text Start*
G54D10*
G01X-7375171Y-7167853D02*
G01X-7381521Y-7170901D01*
G01X-7387617Y-7177251D01*
G01X-7390665Y-7183347D01*
G01X-7390665Y-7195793D01*
G01X-7387617Y-7201889D01*
G01X-7381521Y-7208239D01*
G01X-7375171Y-7211287D01*
G01X-7366027Y-7214335D01*
G01X-7350533Y-7214335D01*
G01X-7341135Y-7211287D01*
G01X-7335039Y-7208239D01*
G01X-7328689Y-7201889D01*
G01X-7325641Y-7195793D01*
G01X-7325641Y-7183347D01*
G01X-7328689Y-7177251D01*
G01X-7335039Y-7170901D01*
G01X-7341135Y-7167853D01*
G01X-7378219Y-7137627D02*
G01X-7381521Y-7131531D01*
G01X-7390665Y-7122387D01*
G01X-7325641Y-7122387D01*
G01X-7375171Y-7089113D02*
G01X-7378219Y-7089113D01*
G01X-7384569Y-7086065D01*
G01X-7387617Y-7083017D01*
G01X-7390665Y-7076921D01*
G01X-7390665Y-7064475D01*
G01X-7387617Y-7058125D01*
G01X-7384569Y-7055077D01*
G01X-7378219Y-7052029D01*
G01X-7372123Y-7052029D01*
G01X-7366027Y-7055077D01*
G01X-7356629Y-7061427D01*
G01X-7325641Y-7092161D01*
G01X-7325641Y-7048981D01*
G01X-6760491Y-6691857D02*
G01X-6754141Y-6688809D01*
G01X-6748045Y-6682459D01*
G01X-6744997Y-6676363D01*
G01X-6744997Y-6663917D01*
G01X-6748045Y-6657821D01*
G01X-6754141Y-6651471D01*
G01X-6760491Y-6648423D01*
G01X-6769635Y-6645375D01*
G01X-6785129Y-6645375D01*
G01X-6794527Y-6648423D01*
G01X-6800623Y-6651471D01*
G01X-6806973Y-6657821D01*
G01X-6810021Y-6663917D01*
G01X-6810021Y-6676363D01*
G01X-6806973Y-6682459D01*
G01X-6800623Y-6688809D01*
G01X-6794527Y-6691857D01*
G01X-6757443Y-6722083D02*
G01X-6754141Y-6728179D01*
G01X-6744997Y-6737323D01*
G01X-6810021Y-6737323D01*
G01X-6744997Y-6786091D02*
G01X-6748045Y-6776693D01*
G01X-6757443Y-6770597D01*
G01X-6772683Y-6767549D01*
G01X-6782081Y-6767549D01*
G01X-6797575Y-6770597D01*
G01X-6806973Y-6776693D01*
G01X-6810021Y-6786091D01*
G01X-6810021Y-6792187D01*
G01X-6806973Y-6801585D01*
G01X-6797575Y-6807681D01*
G01X-6782081Y-6810729D01*
G01X-6772683Y-6810729D01*
G01X-6757443Y-6807681D01*
G01X-6748045Y-6801585D01*
G01X-6744997Y-6792187D01*
G01X-6744997Y-6786091D01*
G01X-6974840Y-5965698D02*
G01X-6981190Y-5968746D01*
G01X-6987286Y-5975096D01*
G01X-6990334Y-5981192D01*
G01X-6990334Y-5993638D01*
G01X-6987286Y-5999734D01*
G01X-6981190Y-6006084D01*
G01X-6974840Y-6009132D01*
G01X-6965696Y-6012180D01*
G01X-6950202Y-6012180D01*
G01X-6940804Y-6009132D01*
G01X-6934708Y-6006084D01*
G01X-6928358Y-5999734D01*
G01X-6925310Y-5993638D01*
G01X-6925310Y-5981192D01*
G01X-6928358Y-5975096D01*
G01X-6934708Y-5968746D01*
G01X-6940804Y-5965698D01*
G01X-6974840Y-5932424D02*
G01X-6977888Y-5932424D01*
G01X-6984238Y-5929376D01*
G01X-6987286Y-5926328D01*
G01X-6990334Y-5920232D01*
G01X-6990334Y-5907786D01*
G01X-6987286Y-5901436D01*
G01X-6984238Y-5898388D01*
G01X-6977888Y-5895340D01*
G01X-6971792Y-5895340D01*
G01X-6965696Y-5898388D01*
G01X-6956298Y-5904738D01*
G01X-6925310Y-5935472D01*
G01X-6925310Y-5892292D01*
G01X-6990334Y-5855970D02*
G01X-6990334Y-5821934D01*
G01X-6965696Y-5840476D01*
G01X-6965696Y-5831332D01*
G01X-6962648Y-5824982D01*
G01X-6959346Y-5821934D01*
G01X-6950202Y-5818886D01*
G01X-6943852Y-5818886D01*
G01X-6934708Y-5821934D01*
G01X-6928358Y-5828030D01*
G01X-6925310Y-5837428D01*
G01X-6925310Y-5846826D01*
G01X-6928358Y-5855970D01*
G01X-6931660Y-5859018D01*
G01X-6937756Y-5862066D01*
G01X-7674129Y-7651215D02*
G01X-7677177Y-7644865D01*
G01X-7683527Y-7638769D01*
G01X-7689623Y-7635721D01*
G01X-7702069Y-7635721D01*
G01X-7708165Y-7638769D01*
G01X-7714515Y-7644865D01*
G01X-7717563Y-7651215D01*
G01X-7720611Y-7660359D01*
G01X-7720611Y-7675853D01*
G01X-7717563Y-7685251D01*
G01X-7714515Y-7691347D01*
G01X-7708165Y-7697697D01*
G01X-7702069Y-7700745D01*
G01X-7689623Y-7700745D01*
G01X-7683527Y-7697697D01*
G01X-7677177Y-7691347D01*
G01X-7674129Y-7685251D01*
G01X-7643903Y-7648167D02*
G01X-7637807Y-7644865D01*
G01X-7628663Y-7635721D01*
G01X-7628663Y-7700745D01*
G01X-7567703Y-7635721D02*
G01X-7598437Y-7678901D01*
G01X-7552209Y-7678901D01*
G01X-7567703Y-7635721D02*
G01X-7567703Y-7700745D01*
G01X-6156960Y-7051802D02*
G01X-6150610Y-7048754D01*
G01X-6144514Y-7042404D01*
G01X-6141466Y-7036308D01*
G01X-6141466Y-7023862D01*
G01X-6144514Y-7017766D01*
G01X-6150610Y-7011416D01*
G01X-6156960Y-7008368D01*
G01X-6166104Y-7005320D01*
G01X-6181598Y-7005320D01*
G01X-6190996Y-7008368D01*
G01X-6197092Y-7011416D01*
G01X-6203442Y-7017766D01*
G01X-6206490Y-7023862D01*
G01X-6206490Y-7036308D01*
G01X-6203442Y-7042404D01*
G01X-6197092Y-7048754D01*
G01X-6190996Y-7051802D01*
G01X-6141466Y-7112762D02*
G01X-6184646Y-7082028D01*
G01X-6184646Y-7128256D01*
G01X-6141466Y-7112762D02*
G01X-6206490Y-7112762D01*
G01X-5490491Y-6755357D02*
G01X-5484141Y-6752309D01*
G01X-5478045Y-6745959D01*
G01X-5474997Y-6739863D01*
G01X-5474997Y-6727417D01*
G01X-5478045Y-6721321D01*
G01X-5484141Y-6714971D01*
G01X-5490491Y-6711923D01*
G01X-5499635Y-6708875D01*
G01X-5515129Y-6708875D01*
G01X-5524527Y-6711923D01*
G01X-5530623Y-6714971D01*
G01X-5536973Y-6721321D01*
G01X-5540021Y-6727417D01*
G01X-5540021Y-6739863D01*
G01X-5536973Y-6745959D01*
G01X-5530623Y-6752309D01*
G01X-5524527Y-6755357D01*
G01X-5487443Y-6785583D02*
G01X-5484141Y-6791679D01*
G01X-5474997Y-6800823D01*
G01X-5540021Y-6800823D01*
G01X-7712991Y-7034757D02*
G01X-7706641Y-7031709D01*
G01X-7700545Y-7025359D01*
G01X-7697497Y-7019263D01*
G01X-7697497Y-7006817D01*
G01X-7700545Y-7000721D01*
G01X-7706641Y-6994371D01*
G01X-7712991Y-6991323D01*
G01X-7722135Y-6988275D01*
G01X-7737629Y-6988275D01*
G01X-7747027Y-6991323D01*
G01X-7753123Y-6994371D01*
G01X-7759473Y-7000721D01*
G01X-7762521Y-7006817D01*
G01X-7762521Y-7019263D01*
G01X-7759473Y-7025359D01*
G01X-7753123Y-7031709D01*
G01X-7747027Y-7034757D01*
G01X-7697497Y-7080223D02*
G01X-7700545Y-7071079D01*
G01X-7706641Y-7068031D01*
G01X-7712991Y-7068031D01*
G01X-7719087Y-7071079D01*
G01X-7722135Y-7077175D01*
G01X-7725183Y-7089621D01*
G01X-7728485Y-7099019D01*
G01X-7734581Y-7105115D01*
G01X-7740677Y-7108163D01*
G01X-7750075Y-7108163D01*
G01X-7756171Y-7105115D01*
G01X-7759473Y-7102067D01*
G01X-7762521Y-7092669D01*
G01X-7762521Y-7080223D01*
G01X-7759473Y-7071079D01*
G01X-7756171Y-7068031D01*
G01X-7750075Y-7064983D01*
G01X-7740677Y-7064983D01*
G01X-7734581Y-7068031D01*
G01X-7728485Y-7074127D01*
G01X-7725183Y-7083525D01*
G01X-7722135Y-7095717D01*
G01X-7719087Y-7102067D01*
G01X-7712991Y-7105115D01*
G01X-7706641Y-7105115D01*
G01X-7700545Y-7102067D01*
G01X-7697497Y-7092669D01*
G01X-7697497Y-7080223D01*
G01X-8371840Y-7159498D02*
G01X-8378190Y-7162546D01*
G01X-8384286Y-7168896D01*
G01X-8387334Y-7174992D01*
G01X-8387334Y-7187438D01*
G01X-8384286Y-7193534D01*
G01X-8378190Y-7199884D01*
G01X-8371840Y-7202932D01*
G01X-8362696Y-7205980D01*
G01X-8347202Y-7205980D01*
G01X-8337804Y-7202932D01*
G01X-8331708Y-7199884D01*
G01X-8325358Y-7193534D01*
G01X-8322310Y-7187438D01*
G01X-8322310Y-7174992D01*
G01X-8325358Y-7168896D01*
G01X-8331708Y-7162546D01*
G01X-8337804Y-7159498D01*
G01X-8374888Y-7129272D02*
G01X-8378190Y-7123176D01*
G01X-8387334Y-7114032D01*
G01X-8322310Y-7114032D01*
G01X-8387334Y-7077710D02*
G01X-8387334Y-7043674D01*
G01X-8362696Y-7062216D01*
G01X-8362696Y-7053072D01*
G01X-8359648Y-7046722D01*
G01X-8356346Y-7043674D01*
G01X-8347202Y-7040626D01*
G01X-8340852Y-7040626D01*
G01X-8331708Y-7043674D01*
G01X-8325358Y-7049770D01*
G01X-8322310Y-7059168D01*
G01X-8322310Y-7068566D01*
G01X-8325358Y-7077710D01*
G01X-8328660Y-7080758D01*
G01X-8334756Y-7083806D01*
G01X-5349240Y-2358898D02*
G01X-5355590Y-2361946D01*
G01X-5361686Y-2368296D01*
G01X-5364734Y-2374392D01*
G01X-5364734Y-2386838D01*
G01X-5361686Y-2392934D01*
G01X-5355590Y-2399284D01*
G01X-5349240Y-2402332D01*
G01X-5340096Y-2405380D01*
G01X-5324602Y-2405380D01*
G01X-5315204Y-2402332D01*
G01X-5309108Y-2399284D01*
G01X-5302758Y-2392934D01*
G01X-5299710Y-2386838D01*
G01X-5299710Y-2374392D01*
G01X-5302758Y-2368296D01*
G01X-5309108Y-2361946D01*
G01X-5315204Y-2358898D01*
G01X-5349240Y-2325624D02*
G01X-5352288Y-2325624D01*
G01X-5358638Y-2322576D01*
G01X-5361686Y-2319528D01*
G01X-5364734Y-2313432D01*
G01X-5364734Y-2300986D01*
G01X-5361686Y-2294636D01*
G01X-5358638Y-2291588D01*
G01X-5352288Y-2288540D01*
G01X-5346192Y-2288540D01*
G01X-5340096Y-2291588D01*
G01X-5330698Y-2297938D01*
G01X-5299710Y-2328672D01*
G01X-5299710Y-2285492D01*
G01X-5364734Y-2212086D02*
G01X-5299710Y-2243074D01*
G01X-5364734Y-2255266D02*
G01X-5364734Y-2212086D01*
G01X-1826260Y-5032502D02*
G01X-1819910Y-5029454D01*
G01X-1813814Y-5023104D01*
G01X-1810766Y-5017008D01*
G01X-1810766Y-5004562D01*
G01X-1813814Y-4998466D01*
G01X-1819910Y-4992116D01*
G01X-1826260Y-4989068D01*
G01X-1835404Y-4986020D01*
G01X-1850898Y-4986020D01*
G01X-1860296Y-4989068D01*
G01X-1866392Y-4992116D01*
G01X-1872742Y-4998466D01*
G01X-1875790Y-5004562D01*
G01X-1875790Y-5017008D01*
G01X-1872742Y-5023104D01*
G01X-1866392Y-5029454D01*
G01X-1860296Y-5032502D01*
G01X-1810766Y-5068824D02*
G01X-1810766Y-5102860D01*
G01X-1835404Y-5084318D01*
G01X-1835404Y-5093462D01*
G01X-1838452Y-5099812D01*
G01X-1841754Y-5102860D01*
G01X-1850898Y-5105908D01*
G01X-1857248Y-5105908D01*
G01X-1866392Y-5102860D01*
G01X-1872742Y-5096764D01*
G01X-1875790Y-5087366D01*
G01X-1875790Y-5077968D01*
G01X-1872742Y-5068824D01*
G01X-1869440Y-5065776D01*
G01X-1863344Y-5062728D01*
G01X-1810766Y-5154676D02*
G01X-1813814Y-5145278D01*
G01X-1823212Y-5139182D01*
G01X-1838452Y-5136134D01*
G01X-1847850Y-5136134D01*
G01X-1863344Y-5139182D01*
G01X-1872742Y-5145278D01*
G01X-1875790Y-5154676D01*
G01X-1875790Y-5160772D01*
G01X-1872742Y-5170170D01*
G01X-1863344Y-5176266D01*
G01X-1847850Y-5179314D01*
G01X-1838452Y-5179314D01*
G01X-1823212Y-5176266D01*
G01X-1813814Y-5170170D01*
G01X-1810766Y-5160772D01*
G01X-1810766Y-5154676D01*
G01X-3603498Y-5318760D02*
G01X-3606546Y-5312410D01*
G01X-3612896Y-5306314D01*
G01X-3618992Y-5303266D01*
G01X-3631438Y-5303266D01*
G01X-3637534Y-5306314D01*
G01X-3643884Y-5312410D01*
G01X-3646932Y-5318760D01*
G01X-3649980Y-5327904D01*
G01X-3649980Y-5343398D01*
G01X-3646932Y-5352796D01*
G01X-3643884Y-5358892D01*
G01X-3637534Y-5365242D01*
G01X-3631438Y-5368290D01*
G01X-3618992Y-5368290D01*
G01X-3612896Y-5365242D01*
G01X-3606546Y-5358892D01*
G01X-3603498Y-5352796D01*
G01X-3567176Y-5303266D02*
G01X-3533140Y-5303266D01*
G01X-3551682Y-5327904D01*
G01X-3542538Y-5327904D01*
G01X-3536188Y-5330952D01*
G01X-3533140Y-5334254D01*
G01X-3530092Y-5343398D01*
G01X-3530092Y-5349748D01*
G01X-3533140Y-5358892D01*
G01X-3539236Y-5365242D01*
G01X-3548634Y-5368290D01*
G01X-3558032Y-5368290D01*
G01X-3567176Y-5365242D01*
G01X-3570224Y-5361940D01*
G01X-3573272Y-5355844D01*
G01X-3496818Y-5318760D02*
G01X-3496818Y-5315712D01*
G01X-3493770Y-5309362D01*
G01X-3490722Y-5306314D01*
G01X-3484626Y-5303266D01*
G01X-3472180Y-5303266D01*
G01X-3465830Y-5306314D01*
G01X-3462782Y-5309362D01*
G01X-3459734Y-5315712D01*
G01X-3459734Y-5321808D01*
G01X-3462782Y-5327904D01*
G01X-3469132Y-5337302D01*
G01X-3499866Y-5368290D01*
G01X-3456686Y-5368290D01*
G01X-3527298Y-4798060D02*
G01X-3530346Y-4791710D01*
G01X-3536696Y-4785614D01*
G01X-3542792Y-4782566D01*
G01X-3555238Y-4782566D01*
G01X-3561334Y-4785614D01*
G01X-3567684Y-4791710D01*
G01X-3570732Y-4798060D01*
G01X-3573780Y-4807204D01*
G01X-3573780Y-4822698D01*
G01X-3570732Y-4832096D01*
G01X-3567684Y-4838192D01*
G01X-3561334Y-4844542D01*
G01X-3555238Y-4847590D01*
G01X-3542792Y-4847590D01*
G01X-3536696Y-4844542D01*
G01X-3530346Y-4838192D01*
G01X-3527298Y-4832096D01*
G01X-3490976Y-4782566D02*
G01X-3456940Y-4782566D01*
G01X-3475482Y-4807204D01*
G01X-3466338Y-4807204D01*
G01X-3459988Y-4810252D01*
G01X-3456940Y-4813554D01*
G01X-3453892Y-4822698D01*
G01X-3453892Y-4829048D01*
G01X-3456940Y-4838192D01*
G01X-3463036Y-4844542D01*
G01X-3472434Y-4847590D01*
G01X-3481832Y-4847590D01*
G01X-3490976Y-4844542D01*
G01X-3494024Y-4841240D01*
G01X-3497072Y-4835144D01*
G01X-3392932Y-4782566D02*
G01X-3423666Y-4825746D01*
G01X-3377438Y-4825746D01*
G01X-3392932Y-4782566D02*
G01X-3392932Y-4847590D01*
G01X-736432Y-6023456D02*
G01X-730082Y-6020408D01*
G01X-723986Y-6014058D01*
G01X-720938Y-6007962D01*
G01X-720938Y-5995516D01*
G01X-723986Y-5989420D01*
G01X-730082Y-5983070D01*
G01X-736432Y-5980022D01*
G01X-745576Y-5976974D01*
G01X-761070Y-5976974D01*
G01X-770468Y-5980022D01*
G01X-776564Y-5983070D01*
G01X-782914Y-5989420D01*
G01X-785962Y-5995516D01*
G01X-785962Y-6007962D01*
G01X-782914Y-6014058D01*
G01X-776564Y-6020408D01*
G01X-770468Y-6023456D01*
G01X-736432Y-6056730D02*
G01X-733384Y-6056730D01*
G01X-727034Y-6059778D01*
G01X-723986Y-6062826D01*
G01X-720938Y-6068922D01*
G01X-720938Y-6081368D01*
G01X-723986Y-6087718D01*
G01X-727034Y-6090766D01*
G01X-733384Y-6093814D01*
G01X-739480Y-6093814D01*
G01X-745576Y-6090766D01*
G01X-754974Y-6084416D01*
G01X-785962Y-6053682D01*
G01X-785962Y-6096862D01*
G01X-730082Y-6164172D02*
G01X-723986Y-6161124D01*
G01X-720938Y-6151726D01*
G01X-720938Y-6145630D01*
G01X-723986Y-6136232D01*
G01X-733384Y-6130136D01*
G01X-748624Y-6127088D01*
G01X-764118Y-6127088D01*
G01X-776564Y-6130136D01*
G01X-782914Y-6136232D01*
G01X-785962Y-6145630D01*
G01X-785962Y-6148678D01*
G01X-782914Y-6157822D01*
G01X-776564Y-6164172D01*
G01X-767420Y-6167220D01*
G01X-764118Y-6167220D01*
G01X-754974Y-6164172D01*
G01X-748624Y-6157822D01*
G01X-745576Y-6148678D01*
G01X-745576Y-6145630D01*
G01X-748624Y-6136232D01*
G01X-754974Y-6130136D01*
G01X-764118Y-6127088D01*
G01X-8823960Y-7394702D02*
G01X-8817610Y-7391654D01*
G01X-8811514Y-7385304D01*
G01X-8808466Y-7379208D01*
G01X-8808466Y-7366762D01*
G01X-8811514Y-7360666D01*
G01X-8817610Y-7354316D01*
G01X-8823960Y-7351268D01*
G01X-8833104Y-7348220D01*
G01X-8848598Y-7348220D01*
G01X-8857996Y-7351268D01*
G01X-8864092Y-7354316D01*
G01X-8870442Y-7360666D01*
G01X-8873490Y-7366762D01*
G01X-8873490Y-7379208D01*
G01X-8870442Y-7385304D01*
G01X-8864092Y-7391654D01*
G01X-8857996Y-7394702D01*
G01X-8808466Y-7424928D02*
G01X-8873490Y-7424928D01*
G01X-8808466Y-7424928D02*
G01X-8873490Y-7468108D01*
G01X-8808466Y-7468108D02*
G01X-8873490Y-7468108D01*
G01X-8820912Y-7498334D02*
G01X-8817610Y-7504430D01*
G01X-8808466Y-7513574D01*
G01X-8873490Y-7513574D01*
G01X-6632448Y-9886495D02*
G01X-6629400Y-9892845D01*
G01X-6623050Y-9898941D01*
G01X-6616954Y-9901989D01*
G01X-6604508Y-9901989D01*
G01X-6598412Y-9898941D01*
G01X-6592062Y-9892845D01*
G01X-6589014Y-9886495D01*
G01X-6585966Y-9877351D01*
G01X-6585966Y-9861857D01*
G01X-6589014Y-9852459D01*
G01X-6592062Y-9846363D01*
G01X-6598412Y-9840013D01*
G01X-6604508Y-9836965D01*
G01X-6616954Y-9836965D01*
G01X-6623050Y-9840013D01*
G01X-6629400Y-9846363D01*
G01X-6632448Y-9852459D01*
G01X-6662674Y-9901989D02*
G01X-6662674Y-9836965D01*
G01X-6662674Y-9901989D02*
G01X-6705854Y-9836965D01*
G01X-6705854Y-9901989D02*
G01X-6705854Y-9836965D01*
G01X-6739128Y-9886495D02*
G01X-6739128Y-9889543D01*
G01X-6742176Y-9895893D01*
G01X-6745224Y-9898941D01*
G01X-6751320Y-9901989D01*
G01X-6763766Y-9901989D01*
G01X-6770116Y-9898941D01*
G01X-6773164Y-9895893D01*
G01X-6776212Y-9889543D01*
G01X-6776212Y-9883447D01*
G01X-6773164Y-9877351D01*
G01X-6766814Y-9867953D01*
G01X-6736080Y-9836965D01*
G01X-6779260Y-9836965D01*
G01X-5028665Y-6916334D02*
G01X-5093689Y-6916334D01*
G01X-5028665Y-6916334D02*
G01X-5028665Y-6956466D01*
G01X-5059653Y-6916334D02*
G01X-5059653Y-6941226D01*
G01X-5028665Y-6986692D02*
G01X-5093689Y-6986692D01*
G01X-5028665Y-6986692D02*
G01X-5028665Y-7014378D01*
G01X-5031713Y-7023776D01*
G01X-5034761Y-7026824D01*
G01X-5041111Y-7029872D01*
G01X-5047207Y-7029872D01*
G01X-5053303Y-7026824D01*
G01X-5056351Y-7023776D01*
G01X-5059653Y-7014378D01*
G01X-5059653Y-6986692D02*
G01X-5059653Y-7014378D01*
G01X-5062701Y-7023776D01*
G01X-5065749Y-7026824D01*
G01X-5071845Y-7029872D01*
G01X-5081243Y-7029872D01*
G01X-5087339Y-7026824D01*
G01X-5090641Y-7023776D01*
G01X-5093689Y-7014378D01*
G01X-5093689Y-6986692D01*
G01X-5041111Y-7060098D02*
G01X-5037809Y-7066194D01*
G01X-5028665Y-7075338D01*
G01X-5093689Y-7075338D01*
G01X-7614920Y-7447534D02*
G01X-7614920Y-7382510D01*
G01X-7614920Y-7382510D02*
G01X-7652004Y-7382510D01*
G01X-7685278Y-7432040D02*
G01X-7685278Y-7435088D01*
G01X-7688326Y-7441438D01*
G01X-7691374Y-7444486D01*
G01X-7697470Y-7447534D01*
G01X-7709916Y-7447534D01*
G01X-7716266Y-7444486D01*
G01X-7719314Y-7441438D01*
G01X-7722362Y-7435088D01*
G01X-7722362Y-7428992D01*
G01X-7719314Y-7422896D01*
G01X-7712964Y-7413498D01*
G01X-7682230Y-7382510D01*
G01X-7725410Y-7382510D01*
G01X-9049766Y-6256020D02*
G01X-9114790Y-6256020D01*
G01X-9114790Y-6256020D02*
G01X-9114790Y-6293104D01*
G01X-9049766Y-6323330D02*
G01X-9114790Y-6323330D01*
G01X-9049766Y-6323330D02*
G01X-9049766Y-6363462D01*
G01X-9080754Y-6323330D02*
G01X-9080754Y-6347968D01*
G01X-9114790Y-6323330D02*
G01X-9114790Y-6363462D01*
G01X-9049766Y-6393688D02*
G01X-9114790Y-6393688D01*
G01X-9049766Y-6393688D02*
G01X-9049766Y-6415278D01*
G01X-9052814Y-6424422D01*
G01X-9058910Y-6430772D01*
G01X-9065260Y-6433820D01*
G01X-9074404Y-6436868D01*
G01X-9089898Y-6436868D01*
G01X-9099296Y-6433820D01*
G01X-9105392Y-6430772D01*
G01X-9111742Y-6424422D01*
G01X-9114790Y-6415278D01*
G01X-9114790Y-6393688D01*
G01X-9065260Y-6470142D02*
G01X-9062212Y-6470142D01*
G01X-9055862Y-6473190D01*
G01X-9052814Y-6476238D01*
G01X-9049766Y-6482334D01*
G01X-9049766Y-6494780D01*
G01X-9052814Y-6501130D01*
G01X-9055862Y-6504178D01*
G01X-9062212Y-6507226D01*
G01X-9068308Y-6507226D01*
G01X-9074404Y-6504178D01*
G01X-9083802Y-6497828D01*
G01X-9114790Y-6467094D01*
G01X-9114790Y-6510274D01*
G01X-9043697Y-5692875D02*
G01X-9108721Y-5692875D01*
G01X-9108721Y-5692875D02*
G01X-9108721Y-5729959D01*
G01X-9043697Y-5760185D02*
G01X-9108721Y-5760185D01*
G01X-9043697Y-5760185D02*
G01X-9043697Y-5800317D01*
G01X-9074685Y-5760185D02*
G01X-9074685Y-5784823D01*
G01X-9108721Y-5760185D02*
G01X-9108721Y-5800317D01*
G01X-9043697Y-5830543D02*
G01X-9108721Y-5830543D01*
G01X-9043697Y-5830543D02*
G01X-9043697Y-5852133D01*
G01X-9046745Y-5861277D01*
G01X-9052841Y-5867627D01*
G01X-9059191Y-5870675D01*
G01X-9068335Y-5873723D01*
G01X-9083829Y-5873723D01*
G01X-9093227Y-5870675D01*
G01X-9099323Y-5867627D01*
G01X-9105673Y-5861277D01*
G01X-9108721Y-5852133D01*
G01X-9108721Y-5830543D01*
G01X-9056143Y-5903949D02*
G01X-9052841Y-5910045D01*
G01X-9043697Y-5919189D01*
G01X-9108721Y-5919189D01*
G01X-8152411Y-6010121D02*
G01X-8152411Y-6075145D01*
G01X-8152411Y-6010121D02*
G01X-8124471Y-6010121D01*
G01X-8115327Y-6013169D01*
G01X-8112279Y-6016217D01*
G01X-8108977Y-6022567D01*
G01X-8108977Y-6028663D01*
G01X-8112279Y-6034759D01*
G01X-8115327Y-6037807D01*
G01X-8124471Y-6041109D01*
G01X-8152411Y-6041109D01*
G01X-8130821Y-6041109D02*
G01X-8108977Y-6075145D01*
G01X-8072655Y-6010121D02*
G01X-8038619Y-6010121D01*
G01X-8057161Y-6034759D01*
G01X-8048017Y-6034759D01*
G01X-8041667Y-6037807D01*
G01X-8038619Y-6041109D01*
G01X-8035571Y-6050253D01*
G01X-8035571Y-6056603D01*
G01X-8038619Y-6065747D01*
G01X-8044715Y-6072097D01*
G01X-8054113Y-6075145D01*
G01X-8063511Y-6075145D01*
G01X-8072655Y-6072097D01*
G01X-8075703Y-6068795D01*
G01X-8078751Y-6062699D01*
G01X-7354597Y-5807175D02*
G01X-7419621Y-5807175D01*
G01X-7354597Y-5807175D02*
G01X-7354597Y-5835115D01*
G01X-7357645Y-5844259D01*
G01X-7360693Y-5847307D01*
G01X-7367043Y-5850609D01*
G01X-7373139Y-5850609D01*
G01X-7379235Y-5847307D01*
G01X-7382283Y-5844259D01*
G01X-7385585Y-5835115D01*
G01X-7385585Y-5807175D01*
G01X-7385585Y-5828765D02*
G01X-7419621Y-5850609D01*
G01X-7354597Y-5911569D02*
G01X-7397777Y-5880835D01*
G01X-7397777Y-5927063D01*
G01X-7354597Y-5911569D02*
G01X-7419621Y-5911569D01*
G01X-3118866Y-4706620D02*
G01X-3183890Y-4706620D01*
G01X-3118866Y-4706620D02*
G01X-3118866Y-4734560D01*
G01X-3121914Y-4743704D01*
G01X-3124962Y-4746752D01*
G01X-3131312Y-4750054D01*
G01X-3137408Y-4750054D01*
G01X-3143504Y-4746752D01*
G01X-3146552Y-4743704D01*
G01X-3149854Y-4734560D01*
G01X-3149854Y-4706620D01*
G01X-3149854Y-4728210D02*
G01X-3183890Y-4750054D01*
G01X-3134360Y-4783328D02*
G01X-3131312Y-4783328D01*
G01X-3124962Y-4786376D01*
G01X-3121914Y-4789424D01*
G01X-3118866Y-4795520D01*
G01X-3118866Y-4807966D01*
G01X-3121914Y-4814316D01*
G01X-3124962Y-4817364D01*
G01X-3131312Y-4820412D01*
G01X-3137408Y-4820412D01*
G01X-3143504Y-4817364D01*
G01X-3152902Y-4811014D01*
G01X-3183890Y-4780280D01*
G01X-3183890Y-4823460D01*
G01X-3118866Y-4890770D02*
G01X-3118866Y-4859782D01*
G01X-3146552Y-4856734D01*
G01X-3143504Y-4859782D01*
G01X-3140456Y-4868926D01*
G01X-3140456Y-4878324D01*
G01X-3143504Y-4887722D01*
G01X-3149854Y-4893818D01*
G01X-3158998Y-4896866D01*
G01X-3165348Y-4896866D01*
G01X-3174492Y-4893818D01*
G01X-3180842Y-4887722D01*
G01X-3183890Y-4878324D01*
G01X-3183890Y-4868926D01*
G01X-3180842Y-4859782D01*
G01X-3177540Y-4856734D01*
G01X-3171444Y-4853686D01*
G01X-3180334Y-5377180D02*
G01X-3115310Y-5377180D01*
G01X-3180334Y-5377180D02*
G01X-3180334Y-5349240D01*
G01X-3177286Y-5340096D01*
G01X-3174238Y-5337048D01*
G01X-3167888Y-5333746D01*
G01X-3161792Y-5333746D01*
G01X-3155696Y-5337048D01*
G01X-3152648Y-5340096D01*
G01X-3149346Y-5349240D01*
G01X-3149346Y-5377180D01*
G01X-3149346Y-5355590D02*
G01X-3115310Y-5333746D01*
G01X-3164840Y-5300472D02*
G01X-3167888Y-5300472D01*
G01X-3174238Y-5297424D01*
G01X-3177286Y-5294376D01*
G01X-3180334Y-5288280D01*
G01X-3180334Y-5275834D01*
G01X-3177286Y-5269484D01*
G01X-3174238Y-5266436D01*
G01X-3167888Y-5263388D01*
G01X-3161792Y-5263388D01*
G01X-3155696Y-5266436D01*
G01X-3146298Y-5272786D01*
G01X-3115310Y-5303520D01*
G01X-3115310Y-5260340D01*
G01X-3180334Y-5224018D02*
G01X-3180334Y-5189982D01*
G01X-3155696Y-5208524D01*
G01X-3155696Y-5199380D01*
G01X-3152648Y-5193030D01*
G01X-3149346Y-5189982D01*
G01X-3140202Y-5186934D01*
G01X-3133852Y-5186934D01*
G01X-3124708Y-5189982D01*
G01X-3118358Y-5196078D01*
G01X-3115310Y-5205476D01*
G01X-3115310Y-5214874D01*
G01X-3118358Y-5224018D01*
G01X-3121660Y-5227066D01*
G01X-3127756Y-5230114D01*
G01X-4792980Y-5823966D02*
G01X-4792980Y-5888990D01*
G01X-4792980Y-5823966D02*
G01X-4765040Y-5823966D01*
G01X-4755896Y-5827014D01*
G01X-4752848Y-5830062D01*
G01X-4749546Y-5836412D01*
G01X-4749546Y-5842508D01*
G01X-4752848Y-5848604D01*
G01X-4755896Y-5851652D01*
G01X-4765040Y-5854954D01*
G01X-4792980Y-5854954D01*
G01X-4771390Y-5854954D02*
G01X-4749546Y-5888990D01*
G01X-4716272Y-5839460D02*
G01X-4716272Y-5836412D01*
G01X-4713224Y-5830062D01*
G01X-4710176Y-5827014D01*
G01X-4704080Y-5823966D01*
G01X-4691634Y-5823966D01*
G01X-4685284Y-5827014D01*
G01X-4682236Y-5830062D01*
G01X-4679188Y-5836412D01*
G01X-4679188Y-5842508D01*
G01X-4682236Y-5848604D01*
G01X-4688586Y-5858002D01*
G01X-4719320Y-5888990D01*
G01X-4676140Y-5888990D01*
G01X-4615180Y-5823966D02*
G01X-4645914Y-5867146D01*
G01X-4599686Y-5867146D01*
G01X-4615180Y-5823966D02*
G01X-4615180Y-5888990D01*
G01X-2227834Y-4043680D02*
G01X-2162810Y-4043680D01*
G01X-2227834Y-4043680D02*
G01X-2227834Y-4015740D01*
G01X-2224786Y-4006596D01*
G01X-2221738Y-4003548D01*
G01X-2215388Y-4000246D01*
G01X-2209292Y-4000246D01*
G01X-2203196Y-4003548D01*
G01X-2200148Y-4006596D01*
G01X-2196846Y-4015740D01*
G01X-2196846Y-4043680D01*
G01X-2196846Y-4022090D02*
G01X-2162810Y-4000246D01*
G01X-2212340Y-3966972D02*
G01X-2215388Y-3966972D01*
G01X-2221738Y-3963924D01*
G01X-2224786Y-3960876D01*
G01X-2227834Y-3954780D01*
G01X-2227834Y-3942334D01*
G01X-2224786Y-3935984D01*
G01X-2221738Y-3932936D01*
G01X-2215388Y-3929888D01*
G01X-2209292Y-3929888D01*
G01X-2203196Y-3932936D01*
G01X-2193798Y-3939286D01*
G01X-2162810Y-3970020D01*
G01X-2162810Y-3926840D01*
G01X-2215388Y-3896614D02*
G01X-2218690Y-3890518D01*
G01X-2227834Y-3881374D01*
G01X-2162810Y-3881374D01*
G01X-2977134Y-4069080D02*
G01X-2912110Y-4069080D01*
G01X-2977134Y-4069080D02*
G01X-2977134Y-4041140D01*
G01X-2974086Y-4031996D01*
G01X-2971038Y-4028948D01*
G01X-2964688Y-4025646D01*
G01X-2958592Y-4025646D01*
G01X-2952496Y-4028948D01*
G01X-2949448Y-4031996D01*
G01X-2946146Y-4041140D01*
G01X-2946146Y-4069080D01*
G01X-2946146Y-4047490D02*
G01X-2912110Y-4025646D01*
G01X-2961640Y-3992372D02*
G01X-2964688Y-3992372D01*
G01X-2971038Y-3989324D01*
G01X-2974086Y-3986276D01*
G01X-2977134Y-3980180D01*
G01X-2977134Y-3967734D01*
G01X-2974086Y-3961384D01*
G01X-2971038Y-3958336D01*
G01X-2964688Y-3955288D01*
G01X-2958592Y-3955288D01*
G01X-2952496Y-3958336D01*
G01X-2943098Y-3964686D01*
G01X-2912110Y-3995420D01*
G01X-2912110Y-3952240D01*
G01X-2977134Y-3903472D02*
G01X-2974086Y-3912870D01*
G01X-2964688Y-3918966D01*
G01X-2949448Y-3922014D01*
G01X-2940050Y-3922014D01*
G01X-2924556Y-3918966D01*
G01X-2915158Y-3912870D01*
G01X-2912110Y-3903472D01*
G01X-2912110Y-3897376D01*
G01X-2915158Y-3887978D01*
G01X-2924556Y-3881882D01*
G01X-2940050Y-3878834D01*
G01X-2949448Y-3878834D01*
G01X-2964688Y-3881882D01*
G01X-2974086Y-3887978D01*
G01X-2977134Y-3897376D01*
G01X-2977134Y-3903472D01*
G01X-919734Y-4081780D02*
G01X-854710Y-4081780D01*
G01X-919734Y-4081780D02*
G01X-919734Y-4053840D01*
G01X-916686Y-4044696D01*
G01X-913638Y-4041648D01*
G01X-907288Y-4038346D01*
G01X-901192Y-4038346D01*
G01X-895096Y-4041648D01*
G01X-892048Y-4044696D01*
G01X-888746Y-4053840D01*
G01X-888746Y-4081780D01*
G01X-888746Y-4060190D02*
G01X-854710Y-4038346D01*
G01X-904240Y-4005072D02*
G01X-907288Y-4005072D01*
G01X-913638Y-4002024D01*
G01X-916686Y-3998976D01*
G01X-919734Y-3992880D01*
G01X-919734Y-3980434D01*
G01X-916686Y-3974084D01*
G01X-913638Y-3971036D01*
G01X-907288Y-3967988D01*
G01X-901192Y-3967988D01*
G01X-895096Y-3971036D01*
G01X-885698Y-3977386D01*
G01X-854710Y-4008120D01*
G01X-854710Y-3964940D01*
G01X-904240Y-3931666D02*
G01X-907288Y-3931666D01*
G01X-913638Y-3928618D01*
G01X-916686Y-3925570D01*
G01X-919734Y-3919474D01*
G01X-919734Y-3907028D01*
G01X-916686Y-3900678D01*
G01X-913638Y-3897630D01*
G01X-907288Y-3894582D01*
G01X-901192Y-3894582D01*
G01X-895096Y-3897630D01*
G01X-885698Y-3903980D01*
G01X-854710Y-3934714D01*
G01X-854710Y-3891534D01*
G01X-1277366Y-6421120D02*
G01X-1342390Y-6421120D01*
G01X-1277366Y-6421120D02*
G01X-1277366Y-6449060D01*
G01X-1280414Y-6458204D01*
G01X-1283462Y-6461252D01*
G01X-1289812Y-6464554D01*
G01X-1295908Y-6464554D01*
G01X-1302004Y-6461252D01*
G01X-1305052Y-6458204D01*
G01X-1308354Y-6449060D01*
G01X-1308354Y-6421120D01*
G01X-1308354Y-6442710D02*
G01X-1342390Y-6464554D01*
G01X-1289812Y-6494780D02*
G01X-1286510Y-6500876D01*
G01X-1277366Y-6510020D01*
G01X-1342390Y-6510020D01*
G01X-1286510Y-6577330D02*
G01X-1280414Y-6574282D01*
G01X-1277366Y-6564884D01*
G01X-1277366Y-6558788D01*
G01X-1280414Y-6549390D01*
G01X-1289812Y-6543294D01*
G01X-1305052Y-6540246D01*
G01X-1320546Y-6540246D01*
G01X-1332992Y-6543294D01*
G01X-1339342Y-6549390D01*
G01X-1342390Y-6558788D01*
G01X-1342390Y-6561836D01*
G01X-1339342Y-6570980D01*
G01X-1332992Y-6577330D01*
G01X-1323848Y-6580378D01*
G01X-1320546Y-6580378D01*
G01X-1311402Y-6577330D01*
G01X-1305052Y-6570980D01*
G01X-1302004Y-6561836D01*
G01X-1302004Y-6558788D01*
G01X-1305052Y-6549390D01*
G01X-1311402Y-6543294D01*
G01X-1320546Y-6540246D01*
G01X-6156388Y-9263620D02*
G01X-6162738Y-9257524D01*
G01X-6171882Y-9254476D01*
G01X-6184328Y-9254476D01*
G01X-6193726Y-9257524D01*
G01X-6199822Y-9263620D01*
G01X-6199822Y-9269970D01*
G01X-6196774Y-9276066D01*
G01X-6193726Y-9279114D01*
G01X-6187376Y-9282162D01*
G01X-6168834Y-9288512D01*
G01X-6162738Y-9291560D01*
G01X-6159690Y-9294608D01*
G01X-6156388Y-9300958D01*
G01X-6156388Y-9310102D01*
G01X-6162738Y-9316452D01*
G01X-6171882Y-9319500D01*
G01X-6184328Y-9319500D01*
G01X-6193726Y-9316452D01*
G01X-6199822Y-9310102D01*
G01X-6126162Y-9254476D02*
G01X-6110922Y-9319500D01*
G01X-6095428Y-9254476D02*
G01X-6110922Y-9319500D01*
G01X-6095428Y-9254476D02*
G01X-6079934Y-9319500D01*
G01X-6064440Y-9254476D02*
G01X-6079934Y-9319500D01*
G01X-6031166Y-9269970D02*
G01X-6031166Y-9266922D01*
G01X-6028118Y-9260572D01*
G01X-6025070Y-9257524D01*
G01X-6018974Y-9254476D01*
G01X-6006528Y-9254476D01*
G01X-6000178Y-9257524D01*
G01X-5997130Y-9260572D01*
G01X-5994082Y-9266922D01*
G01X-5994082Y-9273018D01*
G01X-5997130Y-9279114D01*
G01X-6003480Y-9288512D01*
G01X-6034214Y-9319500D01*
G01X-5991034Y-9319500D01*
G01X-4362628Y-9279114D02*
G01X-4368978Y-9273018D01*
G01X-4378122Y-9269970D01*
G01X-4390568Y-9269970D01*
G01X-4399966Y-9273018D01*
G01X-4406062Y-9279114D01*
G01X-4406062Y-9285464D01*
G01X-4403014Y-9291560D01*
G01X-4399966Y-9294608D01*
G01X-4393616Y-9297656D01*
G01X-4375074Y-9304006D01*
G01X-4368978Y-9307054D01*
G01X-4365930Y-9310102D01*
G01X-4362628Y-9316452D01*
G01X-4362628Y-9325596D01*
G01X-4368978Y-9331946D01*
G01X-4378122Y-9334994D01*
G01X-4390568Y-9334994D01*
G01X-4399966Y-9331946D01*
G01X-4406062Y-9325596D01*
G01X-4332402Y-9269970D02*
G01X-4317162Y-9334994D01*
G01X-4301668Y-9269970D02*
G01X-4317162Y-9334994D01*
G01X-4301668Y-9269970D02*
G01X-4286174Y-9334994D01*
G01X-4270680Y-9269970D02*
G01X-4286174Y-9334994D01*
G01X-4240454Y-9282416D02*
G01X-4234358Y-9279114D01*
G01X-4225214Y-9269970D01*
G01X-4225214Y-9334994D01*
G01X-7631711Y-6695921D02*
G01X-7631711Y-6742403D01*
G01X-7628663Y-6751547D01*
G01X-7622313Y-6757897D01*
G01X-7613169Y-6760945D01*
G01X-7606819Y-6760945D01*
G01X-7597675Y-6757897D01*
G01X-7591579Y-6751547D01*
G01X-7588277Y-6742403D01*
G01X-7588277Y-6695921D01*
G01X-7555003Y-6711415D02*
G01X-7555003Y-6708367D01*
G01X-7551955Y-6702017D01*
G01X-7548907Y-6698969D01*
G01X-7542811Y-6695921D01*
G01X-7530365Y-6695921D01*
G01X-7524015Y-6698969D01*
G01X-7520967Y-6702017D01*
G01X-7517919Y-6708367D01*
G01X-7517919Y-6714463D01*
G01X-7520967Y-6720559D01*
G01X-7527317Y-6729957D01*
G01X-7558051Y-6760945D01*
G01X-7514871Y-6760945D01*
G01X-6160797Y-7686775D02*
G01X-6207279Y-7686775D01*
G01X-6216423Y-7689823D01*
G01X-6222773Y-7696173D01*
G01X-6225821Y-7705317D01*
G01X-6225821Y-7711667D01*
G01X-6222773Y-7720811D01*
G01X-6216423Y-7726907D01*
G01X-6207279Y-7730209D01*
G01X-6160797Y-7730209D01*
G01X-6173243Y-7760435D02*
G01X-6169941Y-7766531D01*
G01X-6160797Y-7775675D01*
G01X-6225821Y-7775675D01*
G01X-613446Y-6329258D02*
G01X-659928Y-6329258D01*
G01X-669072Y-6332306D01*
G01X-675422Y-6338656D01*
G01X-678470Y-6347800D01*
G01X-678470Y-6354150D01*
G01X-675422Y-6363294D01*
G01X-669072Y-6369390D01*
G01X-659928Y-6372692D01*
G01X-613446Y-6372692D01*
G01X-613446Y-6433652D02*
G01X-656626Y-6402918D01*
G01X-656626Y-6449146D01*
G01X-613446Y-6433652D02*
G01X-678470Y-6433652D01*
G01X-6687566Y-4084320D02*
G01X-6734048Y-4084320D01*
G01X-6743192Y-4087368D01*
G01X-6749542Y-4093718D01*
G01X-6752590Y-4102862D01*
G01X-6752590Y-4109212D01*
G01X-6749542Y-4118356D01*
G01X-6743192Y-4124452D01*
G01X-6734048Y-4127754D01*
G01X-6687566Y-4127754D01*
G01X-6687566Y-4164076D02*
G01X-6687566Y-4198112D01*
G01X-6712204Y-4179570D01*
G01X-6712204Y-4188714D01*
G01X-6715252Y-4195064D01*
G01X-6718554Y-4198112D01*
G01X-6727698Y-4201160D01*
G01X-6734048Y-4201160D01*
G01X-6743192Y-4198112D01*
G01X-6749542Y-4192016D01*
G01X-6752590Y-4182618D01*
G01X-6752590Y-4173220D01*
G01X-6749542Y-4164076D01*
G01X-6746240Y-4161028D01*
G01X-6740144Y-4157980D01*
G01X-9414582Y-3328670D02*
G01X-9461064Y-3328670D01*
G01X-9470208Y-3331718D01*
G01X-9476558Y-3338068D01*
G01X-9479606Y-3347212D01*
G01X-9479606Y-3353562D01*
G01X-9476558Y-3362706D01*
G01X-9470208Y-3368802D01*
G01X-9461064Y-3372104D01*
G01X-9414582Y-3372104D01*
G01X-9414582Y-3439414D02*
G01X-9414582Y-3408426D01*
G01X-9442268Y-3405378D01*
G01X-9439220Y-3408426D01*
G01X-9436172Y-3417570D01*
G01X-9436172Y-3426968D01*
G01X-9439220Y-3436366D01*
G01X-9445570Y-3442462D01*
G01X-9454714Y-3445510D01*
G01X-9461064Y-3445510D01*
G01X-9470208Y-3442462D01*
G01X-9476558Y-3436366D01*
G01X-9479606Y-3426968D01*
G01X-9479606Y-3417570D01*
G01X-9476558Y-3408426D01*
G01X-9473256Y-3405378D01*
G01X-9467160Y-3402330D01*
G01X-8983980Y-8910066D02*
G01X-8983980Y-8956548D01*
G01X-8980932Y-8965692D01*
G01X-8974582Y-8972042D01*
G01X-8965438Y-8975090D01*
G01X-8959088Y-8975090D01*
G01X-8949944Y-8972042D01*
G01X-8943848Y-8965692D01*
G01X-8940546Y-8956548D01*
G01X-8940546Y-8910066D01*
G01X-8867140Y-8919210D02*
G01X-8873236Y-8913114D01*
G01X-8882634Y-8910066D01*
G01X-8895080Y-8910066D01*
G01X-8904224Y-8913114D01*
G01X-8910320Y-8919210D01*
G01X-8910320Y-8925560D01*
G01X-8907272Y-8931656D01*
G01X-8904224Y-8934704D01*
G01X-8898128Y-8937752D01*
G01X-8879586Y-8944102D01*
G01X-8873236Y-8947150D01*
G01X-8870188Y-8950198D01*
G01X-8867140Y-8956548D01*
G01X-8867140Y-8965692D01*
G01X-8873236Y-8972042D01*
G01X-8882634Y-8975090D01*
G01X-8895080Y-8975090D01*
G01X-8904224Y-8972042D01*
G01X-8910320Y-8965692D01*
G01X-8836914Y-8910066D02*
G01X-8836914Y-8975090D01*
G01X-8836914Y-8910066D02*
G01X-8809228Y-8910066D01*
G01X-8799830Y-8913114D01*
G01X-8796782Y-8916162D01*
G01X-8793734Y-8922512D01*
G01X-8793734Y-8928608D01*
G01X-8796782Y-8934704D01*
G01X-8799830Y-8937752D01*
G01X-8809228Y-8941054D01*
G01X-8836914Y-8941054D02*
G01X-8809228Y-8941054D01*
G01X-8799830Y-8944102D01*
G01X-8796782Y-8947150D01*
G01X-8793734Y-8953246D01*
G01X-8793734Y-8962644D01*
G01X-8796782Y-8968740D01*
G01X-8799830Y-8972042D01*
G01X-8809228Y-8975090D01*
G01X-8836914Y-8975090D01*
G01X-8763508Y-8922512D02*
G01X-8757412Y-8919210D01*
G01X-8748268Y-8910066D01*
G01X-8748268Y-8975090D01*
G01X-8408670Y-4372356D02*
G01X-8365236Y-4437380D01*
G01X-8365236Y-4372356D02*
G01X-8408670Y-4437380D01*
G01X-8331962Y-4387850D02*
G01X-8331962Y-4384802D01*
G01X-8328914Y-4378452D01*
G01X-8325866Y-4375404D01*
G01X-8319770Y-4372356D01*
G01X-8307324Y-4372356D01*
G01X-8300974Y-4375404D01*
G01X-8297926Y-4378452D01*
G01X-8294878Y-4384802D01*
G01X-8294878Y-4390898D01*
G01X-8297926Y-4396994D01*
G01X-8304276Y-4406392D01*
G01X-8335010Y-4437380D01*
G01X-8291830Y-4437380D01*
G01X-4680966Y-2915920D02*
G01X-4745990Y-2915920D01*
G01X-4680966Y-2915920D02*
G01X-4680966Y-2943860D01*
G01X-4684014Y-2953004D01*
G01X-4687062Y-2956052D01*
G01X-4693412Y-2959354D01*
G01X-4699508Y-2959354D01*
G01X-4705604Y-2956052D01*
G01X-4708652Y-2953004D01*
G01X-4711954Y-2943860D01*
G01X-4711954Y-2915920D01*
G01X-4711954Y-2937510D02*
G01X-4745990Y-2959354D01*
G01X-4693412Y-2989580D02*
G01X-4690110Y-2995676D01*
G01X-4680966Y-3004820D01*
G01X-4745990Y-3004820D01*
G01X-4702556Y-3075178D02*
G01X-4711954Y-3072130D01*
G01X-4718050Y-3065780D01*
G01X-4721098Y-3056636D01*
G01X-4721098Y-3053588D01*
G01X-4718050Y-3044190D01*
G01X-4711954Y-3038094D01*
G01X-4702556Y-3035046D01*
G01X-4699508Y-3035046D01*
G01X-4690110Y-3038094D01*
G01X-4684014Y-3044190D01*
G01X-4680966Y-3053588D01*
G01X-4680966Y-3056636D01*
G01X-4684014Y-3065780D01*
G01X-4690110Y-3072130D01*
G01X-4702556Y-3075178D01*
G01X-4718050Y-3075178D01*
G01X-4733544Y-3072130D01*
G01X-4742942Y-3065780D01*
G01X-4745990Y-3056636D01*
G01X-4745990Y-3050286D01*
G01X-4742942Y-3041142D01*
G01X-4736592Y-3038094D01*
G01X-5405120Y-2989834D02*
G01X-5405120Y-2943352D01*
G01X-5408168Y-2934208D01*
G01X-5414518Y-2927858D01*
G01X-5423662Y-2924810D01*
G01X-5430012Y-2924810D01*
G01X-5439156Y-2927858D01*
G01X-5445252Y-2934208D01*
G01X-5448554Y-2943352D01*
G01X-5448554Y-2989834D01*
G01X-5515864Y-2980690D02*
G01X-5512816Y-2986786D01*
G01X-5503418Y-2989834D01*
G01X-5497322Y-2989834D01*
G01X-5487924Y-2986786D01*
G01X-5481828Y-2977388D01*
G01X-5478780Y-2962148D01*
G01X-5478780Y-2946654D01*
G01X-5481828Y-2934208D01*
G01X-5487924Y-2927858D01*
G01X-5497322Y-2924810D01*
G01X-5500370Y-2924810D01*
G01X-5509514Y-2927858D01*
G01X-5515864Y-2934208D01*
G01X-5518912Y-2943352D01*
G01X-5518912Y-2946654D01*
G01X-5515864Y-2955798D01*
G01X-5509514Y-2962148D01*
G01X-5500370Y-2965196D01*
G01X-5497322Y-2965196D01*
G01X-5487924Y-2962148D01*
G01X-5481828Y-2955798D01*
G01X-5478780Y-2946654D01*
G01X-4554220Y-5504434D02*
G01X-4554220Y-5457952D01*
G01X-4557268Y-5448808D01*
G01X-4563618Y-5442458D01*
G01X-4572762Y-5439410D01*
G01X-4579112Y-5439410D01*
G01X-4588256Y-5442458D01*
G01X-4594352Y-5448808D01*
G01X-4597654Y-5457952D01*
G01X-4597654Y-5504434D01*
G01X-4643120Y-5504434D02*
G01X-4633976Y-5501386D01*
G01X-4630928Y-5495290D01*
G01X-4630928Y-5488940D01*
G01X-4633976Y-5482844D01*
G01X-4640072Y-5479796D01*
G01X-4652518Y-5476748D01*
G01X-4661916Y-5473446D01*
G01X-4668012Y-5467350D01*
G01X-4671060Y-5461254D01*
G01X-4671060Y-5451856D01*
G01X-4668012Y-5445760D01*
G01X-4664964Y-5442458D01*
G01X-4655566Y-5439410D01*
G01X-4643120Y-5439410D01*
G01X-4633976Y-5442458D01*
G01X-4630928Y-5445760D01*
G01X-4627880Y-5451856D01*
G01X-4627880Y-5461254D01*
G01X-4630928Y-5467350D01*
G01X-4637024Y-5473446D01*
G01X-4646422Y-5476748D01*
G01X-4658614Y-5479796D01*
G01X-4664964Y-5482844D01*
G01X-4668012Y-5488940D01*
G01X-4668012Y-5495290D01*
G01X-4664964Y-5501386D01*
G01X-4655566Y-5504434D01*
G01X-4643120Y-5504434D01*
G01X-3002280Y-6598666D02*
G01X-3002280Y-6663690D01*
G01X-3002280Y-6598666D02*
G01X-2962148Y-6598666D01*
G01X-3002280Y-6629654D02*
G01X-2977388Y-6629654D01*
G01X-3002280Y-6663690D02*
G01X-2962148Y-6663690D01*
G01X-2931922Y-6611112D02*
G01X-2925826Y-6607810D01*
G01X-2916682Y-6598666D01*
G01X-2916682Y-6663690D01*
G01X-5859780Y-451866D02*
G01X-5859780Y-516890D01*
G01X-5859780Y-451866D02*
G01X-5819648Y-451866D01*
G01X-5859780Y-482854D02*
G01X-5834888Y-482854D01*
G01X-5859780Y-516890D02*
G01X-5819648Y-516890D01*
G01X-5786374Y-467360D02*
G01X-5786374Y-464312D01*
G01X-5783326Y-457962D01*
G01X-5780278Y-454914D01*
G01X-5774182Y-451866D01*
G01X-5761736Y-451866D01*
G01X-5755386Y-454914D01*
G01X-5752338Y-457962D01*
G01X-5749290Y-464312D01*
G01X-5749290Y-470408D01*
G01X-5752338Y-476504D01*
G01X-5758688Y-485902D01*
G01X-5789422Y-516890D01*
G01X-5746242Y-516890D01*
G01X-4175760Y-4143502D02*
G01X-4169410Y-4140454D01*
G01X-4163314Y-4134104D01*
G01X-4160266Y-4128008D01*
G01X-4160266Y-4115562D01*
G01X-4163314Y-4109466D01*
G01X-4169410Y-4103116D01*
G01X-4175760Y-4100068D01*
G01X-4184904Y-4097020D01*
G01X-4200398Y-4097020D01*
G01X-4209796Y-4100068D01*
G01X-4215892Y-4103116D01*
G01X-4222242Y-4109466D01*
G01X-4225290Y-4115562D01*
G01X-4225290Y-4128008D01*
G01X-4222242Y-4134104D01*
G01X-4215892Y-4140454D01*
G01X-4209796Y-4143502D01*
G01X-4160266Y-4179824D02*
G01X-4160266Y-4213860D01*
G01X-4184904Y-4195318D01*
G01X-4184904Y-4204462D01*
G01X-4187952Y-4210812D01*
G01X-4191254Y-4213860D01*
G01X-4200398Y-4216908D01*
G01X-4206748Y-4216908D01*
G01X-4215892Y-4213860D01*
G01X-4222242Y-4207764D01*
G01X-4225290Y-4198366D01*
G01X-4225290Y-4188968D01*
G01X-4222242Y-4179824D01*
G01X-4218940Y-4176776D01*
G01X-4212844Y-4173728D01*
G01X-4160266Y-4290314D02*
G01X-4225290Y-4259326D01*
G01X-4160266Y-4247134D02*
G01X-4160266Y-4290314D01*
G01X-3533902Y-4434840D02*
G01X-3530854Y-4441190D01*
G01X-3524504Y-4447286D01*
G01X-3518408Y-4450334D01*
G01X-3505962Y-4450334D01*
G01X-3499866Y-4447286D01*
G01X-3493516Y-4441190D01*
G01X-3490468Y-4434840D01*
G01X-3487420Y-4425696D01*
G01X-3487420Y-4410202D01*
G01X-3490468Y-4400804D01*
G01X-3493516Y-4394708D01*
G01X-3499866Y-4388358D01*
G01X-3505962Y-4385310D01*
G01X-3518408Y-4385310D01*
G01X-3524504Y-4388358D01*
G01X-3530854Y-4394708D01*
G01X-3533902Y-4400804D01*
G01X-3570224Y-4450334D02*
G01X-3604260Y-4450334D01*
G01X-3585718Y-4425696D01*
G01X-3594862Y-4425696D01*
G01X-3601212Y-4422648D01*
G01X-3604260Y-4419346D01*
G01X-3607308Y-4410202D01*
G01X-3607308Y-4403852D01*
G01X-3604260Y-4394708D01*
G01X-3598164Y-4388358D01*
G01X-3588766Y-4385310D01*
G01X-3579368Y-4385310D01*
G01X-3570224Y-4388358D01*
G01X-3567176Y-4391660D01*
G01X-3564128Y-4397756D01*
G01X-3674618Y-4441190D02*
G01X-3671570Y-4447286D01*
G01X-3662172Y-4450334D01*
G01X-3656076Y-4450334D01*
G01X-3646678Y-4447286D01*
G01X-3640582Y-4437888D01*
G01X-3637534Y-4422648D01*
G01X-3637534Y-4407154D01*
G01X-3640582Y-4394708D01*
G01X-3646678Y-4388358D01*
G01X-3656076Y-4385310D01*
G01X-3659124Y-4385310D01*
G01X-3668268Y-4388358D01*
G01X-3674618Y-4394708D01*
G01X-3677666Y-4403852D01*
G01X-3677666Y-4407154D01*
G01X-3674618Y-4416298D01*
G01X-3668268Y-4422648D01*
G01X-3659124Y-4425696D01*
G01X-3656076Y-4425696D01*
G01X-3646678Y-4422648D01*
G01X-3640582Y-4416298D01*
G01X-3637534Y-4407154D01*
G01X-6797040Y-5952998D02*
G01X-6803390Y-5956046D01*
G01X-6809486Y-5962396D01*
G01X-6812534Y-5968492D01*
G01X-6812534Y-5980938D01*
G01X-6809486Y-5987034D01*
G01X-6803390Y-5993384D01*
G01X-6797040Y-5996432D01*
G01X-6787896Y-5999480D01*
G01X-6772402Y-5999480D01*
G01X-6763004Y-5996432D01*
G01X-6756908Y-5993384D01*
G01X-6750558Y-5987034D01*
G01X-6747510Y-5980938D01*
G01X-6747510Y-5968492D01*
G01X-6750558Y-5962396D01*
G01X-6756908Y-5956046D01*
G01X-6763004Y-5952998D01*
G01X-6797040Y-5919724D02*
G01X-6800088Y-5919724D01*
G01X-6806438Y-5916676D01*
G01X-6809486Y-5913628D01*
G01X-6812534Y-5907532D01*
G01X-6812534Y-5895086D01*
G01X-6809486Y-5888736D01*
G01X-6806438Y-5885688D01*
G01X-6800088Y-5882640D01*
G01X-6793992Y-5882640D01*
G01X-6787896Y-5885688D01*
G01X-6778498Y-5892038D01*
G01X-6747510Y-5922772D01*
G01X-6747510Y-5879592D01*
G01X-6812534Y-5812282D02*
G01X-6812534Y-5843270D01*
G01X-6784848Y-5846318D01*
G01X-6787896Y-5843270D01*
G01X-6790944Y-5834126D01*
G01X-6790944Y-5824728D01*
G01X-6787896Y-5815330D01*
G01X-6781546Y-5809234D01*
G01X-6772402Y-5806186D01*
G01X-6766052Y-5806186D01*
G01X-6756908Y-5809234D01*
G01X-6750558Y-5815330D01*
G01X-6747510Y-5824728D01*
G01X-6747510Y-5834126D01*
G01X-6750558Y-5843270D01*
G01X-6753860Y-5846318D01*
G01X-6759956Y-5849366D01*
G01X-6073902Y-4498340D02*
G01X-6070854Y-4504690D01*
G01X-6064504Y-4510786D01*
G01X-6058408Y-4513834D01*
G01X-6045962Y-4513834D01*
G01X-6039866Y-4510786D01*
G01X-6033516Y-4504690D01*
G01X-6030468Y-4498340D01*
G01X-6027420Y-4489196D01*
G01X-6027420Y-4473702D01*
G01X-6030468Y-4464304D01*
G01X-6033516Y-4458208D01*
G01X-6039866Y-4451858D01*
G01X-6045962Y-4448810D01*
G01X-6058408Y-4448810D01*
G01X-6064504Y-4451858D01*
G01X-6070854Y-4458208D01*
G01X-6073902Y-4464304D01*
G01X-6104128Y-4501388D02*
G01X-6110224Y-4504690D01*
G01X-6119368Y-4513834D01*
G01X-6119368Y-4448810D01*
G01X-6192774Y-4513834D02*
G01X-6161786Y-4448810D01*
G01X-6149594Y-4513834D02*
G01X-6192774Y-4513834D01*
G01X-7376160Y-3838702D02*
G01X-7369810Y-3835654D01*
G01X-7363714Y-3829304D01*
G01X-7360666Y-3823208D01*
G01X-7360666Y-3810762D01*
G01X-7363714Y-3804666D01*
G01X-7369810Y-3798316D01*
G01X-7376160Y-3795268D01*
G01X-7385304Y-3792220D01*
G01X-7400798Y-3792220D01*
G01X-7410196Y-3795268D01*
G01X-7416292Y-3798316D01*
G01X-7422642Y-3804666D01*
G01X-7425690Y-3810762D01*
G01X-7425690Y-3823208D01*
G01X-7422642Y-3829304D01*
G01X-7416292Y-3835654D01*
G01X-7410196Y-3838702D01*
G01X-7373112Y-3868928D02*
G01X-7369810Y-3875024D01*
G01X-7360666Y-3884168D01*
G01X-7425690Y-3884168D01*
G01X-7369810Y-3951478D02*
G01X-7363714Y-3948430D01*
G01X-7360666Y-3939032D01*
G01X-7360666Y-3932936D01*
G01X-7363714Y-3923538D01*
G01X-7373112Y-3917442D01*
G01X-7388352Y-3914394D01*
G01X-7403846Y-3914394D01*
G01X-7416292Y-3917442D01*
G01X-7422642Y-3923538D01*
G01X-7425690Y-3932936D01*
G01X-7425690Y-3935984D01*
G01X-7422642Y-3945128D01*
G01X-7416292Y-3951478D01*
G01X-7407148Y-3954526D01*
G01X-7403846Y-3954526D01*
G01X-7394702Y-3951478D01*
G01X-7388352Y-3945128D01*
G01X-7385304Y-3935984D01*
G01X-7385304Y-3932936D01*
G01X-7388352Y-3923538D01*
G01X-7394702Y-3917442D01*
G01X-7403846Y-3914394D01*
G01X-7152640Y-5965698D02*
G01X-7158990Y-5968746D01*
G01X-7165086Y-5975096D01*
G01X-7168134Y-5981192D01*
G01X-7168134Y-5993638D01*
G01X-7165086Y-5999734D01*
G01X-7158990Y-6006084D01*
G01X-7152640Y-6009132D01*
G01X-7143496Y-6012180D01*
G01X-7128002Y-6012180D01*
G01X-7118604Y-6009132D01*
G01X-7112508Y-6006084D01*
G01X-7106158Y-5999734D01*
G01X-7103110Y-5993638D01*
G01X-7103110Y-5981192D01*
G01X-7106158Y-5975096D01*
G01X-7112508Y-5968746D01*
G01X-7118604Y-5965698D01*
G01X-7152640Y-5932424D02*
G01X-7155688Y-5932424D01*
G01X-7162038Y-5929376D01*
G01X-7165086Y-5926328D01*
G01X-7168134Y-5920232D01*
G01X-7168134Y-5907786D01*
G01X-7165086Y-5901436D01*
G01X-7162038Y-5898388D01*
G01X-7155688Y-5895340D01*
G01X-7149592Y-5895340D01*
G01X-7143496Y-5898388D01*
G01X-7134098Y-5904738D01*
G01X-7103110Y-5935472D01*
G01X-7103110Y-5892292D01*
G01X-7168134Y-5831332D02*
G01X-7124954Y-5862066D01*
G01X-7124954Y-5815838D01*
G01X-7168134Y-5831332D02*
G01X-7103110Y-5831332D01*
G01X-8124698Y-5458460D02*
G01X-8127746Y-5452110D01*
G01X-8134096Y-5446014D01*
G01X-8140192Y-5442966D01*
G01X-8152638Y-5442966D01*
G01X-8158734Y-5446014D01*
G01X-8165084Y-5452110D01*
G01X-8168132Y-5458460D01*
G01X-8171180Y-5467604D01*
G01X-8171180Y-5483098D01*
G01X-8168132Y-5492496D01*
G01X-8165084Y-5498592D01*
G01X-8158734Y-5504942D01*
G01X-8152638Y-5507990D01*
G01X-8140192Y-5507990D01*
G01X-8134096Y-5504942D01*
G01X-8127746Y-5498592D01*
G01X-8124698Y-5492496D01*
G01X-8091424Y-5458460D02*
G01X-8091424Y-5455412D01*
G01X-8088376Y-5449062D01*
G01X-8085328Y-5446014D01*
G01X-8079232Y-5442966D01*
G01X-8066786Y-5442966D01*
G01X-8060436Y-5446014D01*
G01X-8057388Y-5449062D01*
G01X-8054340Y-5455412D01*
G01X-8054340Y-5461508D01*
G01X-8057388Y-5467604D01*
G01X-8063738Y-5477002D01*
G01X-8094472Y-5507990D01*
G01X-8051292Y-5507990D01*
G01X-8018018Y-5458460D02*
G01X-8018018Y-5455412D01*
G01X-8014970Y-5449062D01*
G01X-8011922Y-5446014D01*
G01X-8005826Y-5442966D01*
G01X-7993380Y-5442966D01*
G01X-7987030Y-5446014D01*
G01X-7983982Y-5449062D01*
G01X-7980934Y-5455412D01*
G01X-7980934Y-5461508D01*
G01X-7983982Y-5467604D01*
G01X-7990332Y-5477002D01*
G01X-8021066Y-5507990D01*
G01X-7977886Y-5507990D01*
G01X-8365998Y-5026660D02*
G01X-8369046Y-5020310D01*
G01X-8375396Y-5014214D01*
G01X-8381492Y-5011166D01*
G01X-8393938Y-5011166D01*
G01X-8400034Y-5014214D01*
G01X-8406384Y-5020310D01*
G01X-8409432Y-5026660D01*
G01X-8412480Y-5035804D01*
G01X-8412480Y-5051298D01*
G01X-8409432Y-5060696D01*
G01X-8406384Y-5066792D01*
G01X-8400034Y-5073142D01*
G01X-8393938Y-5076190D01*
G01X-8381492Y-5076190D01*
G01X-8375396Y-5073142D01*
G01X-8369046Y-5066792D01*
G01X-8365998Y-5060696D01*
G01X-8335772Y-5023612D02*
G01X-8329676Y-5020310D01*
G01X-8320532Y-5011166D01*
G01X-8320532Y-5076190D01*
G01X-8253222Y-5011166D02*
G01X-8284210Y-5011166D01*
G01X-8287258Y-5038852D01*
G01X-8284210Y-5035804D01*
G01X-8275066Y-5032756D01*
G01X-8265668Y-5032756D01*
G01X-8256270Y-5035804D01*
G01X-8250174Y-5042154D01*
G01X-8247126Y-5051298D01*
G01X-8247126Y-5057648D01*
G01X-8250174Y-5066792D01*
G01X-8256270Y-5073142D01*
G01X-8265668Y-5076190D01*
G01X-8275066Y-5076190D01*
G01X-8284210Y-5073142D01*
G01X-8287258Y-5069840D01*
G01X-8290306Y-5063744D01*
G01X-3318002Y-4714240D02*
G01X-3314954Y-4720590D01*
G01X-3308604Y-4726686D01*
G01X-3302508Y-4729734D01*
G01X-3290062Y-4729734D01*
G01X-3283966Y-4726686D01*
G01X-3277616Y-4720590D01*
G01X-3274568Y-4714240D01*
G01X-3271520Y-4705096D01*
G01X-3271520Y-4689602D01*
G01X-3274568Y-4680204D01*
G01X-3277616Y-4674108D01*
G01X-3283966Y-4667758D01*
G01X-3290062Y-4664710D01*
G01X-3302508Y-4664710D01*
G01X-3308604Y-4667758D01*
G01X-3314954Y-4674108D01*
G01X-3318002Y-4680204D01*
G01X-3354324Y-4729734D02*
G01X-3388360Y-4729734D01*
G01X-3369818Y-4705096D01*
G01X-3378962Y-4705096D01*
G01X-3385312Y-4702048D01*
G01X-3388360Y-4698746D01*
G01X-3391408Y-4689602D01*
G01X-3391408Y-4683252D01*
G01X-3388360Y-4674108D01*
G01X-3382264Y-4667758D01*
G01X-3372866Y-4664710D01*
G01X-3363468Y-4664710D01*
G01X-3354324Y-4667758D01*
G01X-3351276Y-4671060D01*
G01X-3348228Y-4677156D01*
G01X-3436874Y-4729734D02*
G01X-3427730Y-4726686D01*
G01X-3424682Y-4720590D01*
G01X-3424682Y-4714240D01*
G01X-3427730Y-4708144D01*
G01X-3433826Y-4705096D01*
G01X-3446272Y-4702048D01*
G01X-3455670Y-4698746D01*
G01X-3461766Y-4692650D01*
G01X-3464814Y-4686554D01*
G01X-3464814Y-4677156D01*
G01X-3461766Y-4671060D01*
G01X-3458718Y-4667758D01*
G01X-3449320Y-4664710D01*
G01X-3436874Y-4664710D01*
G01X-3427730Y-4667758D01*
G01X-3424682Y-4671060D01*
G01X-3421634Y-4677156D01*
G01X-3421634Y-4686554D01*
G01X-3424682Y-4692650D01*
G01X-3430778Y-4698746D01*
G01X-3440176Y-4702048D01*
G01X-3452368Y-4705096D01*
G01X-3458718Y-4708144D01*
G01X-3461766Y-4714240D01*
G01X-3461766Y-4720590D01*
G01X-3458718Y-4726686D01*
G01X-3449320Y-4729734D01*
G01X-3436874Y-4729734D01*
G01X-2656840Y-4009898D02*
G01X-2663190Y-4012946D01*
G01X-2669286Y-4019296D01*
G01X-2672334Y-4025392D01*
G01X-2672334Y-4037838D01*
G01X-2669286Y-4043934D01*
G01X-2663190Y-4050284D01*
G01X-2656840Y-4053332D01*
G01X-2647696Y-4056380D01*
G01X-2632202Y-4056380D01*
G01X-2622804Y-4053332D01*
G01X-2616708Y-4050284D01*
G01X-2610358Y-4043934D01*
G01X-2607310Y-4037838D01*
G01X-2607310Y-4025392D01*
G01X-2610358Y-4019296D01*
G01X-2616708Y-4012946D01*
G01X-2622804Y-4009898D01*
G01X-2656840Y-3976624D02*
G01X-2659888Y-3976624D01*
G01X-2666238Y-3973576D01*
G01X-2669286Y-3970528D01*
G01X-2672334Y-3964432D01*
G01X-2672334Y-3951986D01*
G01X-2669286Y-3945636D01*
G01X-2666238Y-3942588D01*
G01X-2659888Y-3939540D01*
G01X-2653792Y-3939540D01*
G01X-2647696Y-3942588D01*
G01X-2638298Y-3948938D01*
G01X-2607310Y-3979672D01*
G01X-2607310Y-3936492D01*
G01X-2650744Y-3866134D02*
G01X-2641346Y-3869182D01*
G01X-2635250Y-3875532D01*
G01X-2632202Y-3884676D01*
G01X-2632202Y-3887724D01*
G01X-2635250Y-3897122D01*
G01X-2641346Y-3903218D01*
G01X-2650744Y-3906266D01*
G01X-2653792Y-3906266D01*
G01X-2663190Y-3903218D01*
G01X-2669286Y-3897122D01*
G01X-2672334Y-3887724D01*
G01X-2672334Y-3884676D01*
G01X-2669286Y-3875532D01*
G01X-2663190Y-3869182D01*
G01X-2650744Y-3866134D01*
G01X-2635250Y-3866134D01*
G01X-2619756Y-3869182D01*
G01X-2610358Y-3875532D01*
G01X-2607310Y-3884676D01*
G01X-2607310Y-3891026D01*
G01X-2610358Y-3900170D01*
G01X-2616708Y-3903218D01*
G01X-3909060Y-5985002D02*
G01X-3902710Y-5981954D01*
G01X-3896614Y-5975604D01*
G01X-3893566Y-5969508D01*
G01X-3893566Y-5957062D01*
G01X-3896614Y-5950966D01*
G01X-3902710Y-5944616D01*
G01X-3909060Y-5941568D01*
G01X-3918204Y-5938520D01*
G01X-3933698Y-5938520D01*
G01X-3943096Y-5941568D01*
G01X-3949192Y-5944616D01*
G01X-3955542Y-5950966D01*
G01X-3958590Y-5957062D01*
G01X-3958590Y-5969508D01*
G01X-3955542Y-5975604D01*
G01X-3949192Y-5981954D01*
G01X-3943096Y-5985002D01*
G01X-3893566Y-6021324D02*
G01X-3893566Y-6055360D01*
G01X-3918204Y-6036818D01*
G01X-3918204Y-6045962D01*
G01X-3921252Y-6052312D01*
G01X-3924554Y-6055360D01*
G01X-3933698Y-6058408D01*
G01X-3940048Y-6058408D01*
G01X-3949192Y-6055360D01*
G01X-3955542Y-6049264D01*
G01X-3958590Y-6039866D01*
G01X-3958590Y-6030468D01*
G01X-3955542Y-6021324D01*
G01X-3952240Y-6018276D01*
G01X-3946144Y-6015228D01*
G01X-3906012Y-6088634D02*
G01X-3902710Y-6094730D01*
G01X-3893566Y-6103874D01*
G01X-3958590Y-6103874D01*
G01X-7800340Y-3895598D02*
G01X-7806690Y-3898646D01*
G01X-7812786Y-3904996D01*
G01X-7815834Y-3911092D01*
G01X-7815834Y-3923538D01*
G01X-7812786Y-3929634D01*
G01X-7806690Y-3935984D01*
G01X-7800340Y-3939032D01*
G01X-7791196Y-3942080D01*
G01X-7775702Y-3942080D01*
G01X-7766304Y-3939032D01*
G01X-7760208Y-3935984D01*
G01X-7753858Y-3929634D01*
G01X-7750810Y-3923538D01*
G01X-7750810Y-3911092D01*
G01X-7753858Y-3904996D01*
G01X-7760208Y-3898646D01*
G01X-7766304Y-3895598D01*
G01X-7803388Y-3865372D02*
G01X-7806690Y-3859276D01*
G01X-7815834Y-3850132D01*
G01X-7750810Y-3850132D01*
G01X-7815834Y-3804666D02*
G01X-7812786Y-3813810D01*
G01X-7806690Y-3816858D01*
G01X-7800340Y-3816858D01*
G01X-7794244Y-3813810D01*
G01X-7791196Y-3807714D01*
G01X-7788148Y-3795268D01*
G01X-7784846Y-3785870D01*
G01X-7778750Y-3779774D01*
G01X-7772654Y-3776726D01*
G01X-7763256Y-3776726D01*
G01X-7757160Y-3779774D01*
G01X-7753858Y-3782822D01*
G01X-7750810Y-3792220D01*
G01X-7750810Y-3804666D01*
G01X-7753858Y-3813810D01*
G01X-7757160Y-3816858D01*
G01X-7763256Y-3819906D01*
G01X-7772654Y-3819906D01*
G01X-7778750Y-3816858D01*
G01X-7784846Y-3810762D01*
G01X-7788148Y-3801364D01*
G01X-7791196Y-3789172D01*
G01X-7794244Y-3782822D01*
G01X-7800340Y-3779774D01*
G01X-7806690Y-3779774D01*
G01X-7812786Y-3782822D01*
G01X-7815834Y-3792220D01*
G01X-7815834Y-3804666D01*
G01X-8359140Y-4009898D02*
G01X-8365490Y-4012946D01*
G01X-8371586Y-4019296D01*
G01X-8374634Y-4025392D01*
G01X-8374634Y-4037838D01*
G01X-8371586Y-4043934D01*
G01X-8365490Y-4050284D01*
G01X-8359140Y-4053332D01*
G01X-8349996Y-4056380D01*
G01X-8334502Y-4056380D01*
G01X-8325104Y-4053332D01*
G01X-8319008Y-4050284D01*
G01X-8312658Y-4043934D01*
G01X-8309610Y-4037838D01*
G01X-8309610Y-4025392D01*
G01X-8312658Y-4019296D01*
G01X-8319008Y-4012946D01*
G01X-8325104Y-4009898D01*
G01X-8362188Y-3979672D02*
G01X-8365490Y-3973576D01*
G01X-8374634Y-3964432D01*
G01X-8309610Y-3964432D01*
G01X-8353044Y-3894074D02*
G01X-8343646Y-3897122D01*
G01X-8337550Y-3903472D01*
G01X-8334502Y-3912616D01*
G01X-8334502Y-3915664D01*
G01X-8337550Y-3925062D01*
G01X-8343646Y-3931158D01*
G01X-8353044Y-3934206D01*
G01X-8356092Y-3934206D01*
G01X-8365490Y-3931158D01*
G01X-8371586Y-3925062D01*
G01X-8374634Y-3915664D01*
G01X-8374634Y-3912616D01*
G01X-8371586Y-3903472D01*
G01X-8365490Y-3897122D01*
G01X-8353044Y-3894074D01*
G01X-8337550Y-3894074D01*
G01X-8322056Y-3897122D01*
G01X-8312658Y-3903472D01*
G01X-8309610Y-3912616D01*
G01X-8309610Y-3918966D01*
G01X-8312658Y-3928110D01*
G01X-8319008Y-3931158D01*
G01X-8402320Y-4172966D02*
G01X-8358886Y-4237990D01*
G01X-8358886Y-4172966D02*
G01X-8402320Y-4237990D01*
G01X-8328660Y-4185412D02*
G01X-8322564Y-4182110D01*
G01X-8313420Y-4172966D01*
G01X-8313420Y-4237990D01*
G01X-1702275Y-3774380D02*
G01X-1655793Y-3774380D01*
G01X-1646649Y-3771332D01*
G01X-1640299Y-3764982D01*
G01X-1637251Y-3755838D01*
G01X-1637251Y-3749488D01*
G01X-1640299Y-3740344D01*
G01X-1646649Y-3734248D01*
G01X-1655793Y-3730946D01*
G01X-1702275Y-3730946D01*
G01X-1702275Y-3657540D02*
G01X-1637251Y-3688528D01*
G01X-1702275Y-3700720D02*
G01X-1702275Y-3657540D01*
G01X-6670040Y-7857998D02*
G01X-6676390Y-7861046D01*
G01X-6682486Y-7867396D01*
G01X-6685534Y-7873492D01*
G01X-6685534Y-7885938D01*
G01X-6682486Y-7892034D01*
G01X-6676390Y-7898384D01*
G01X-6670040Y-7901432D01*
G01X-6660896Y-7904480D01*
G01X-6645402Y-7904480D01*
G01X-6636004Y-7901432D01*
G01X-6629908Y-7898384D01*
G01X-6623558Y-7892034D01*
G01X-6620510Y-7885938D01*
G01X-6620510Y-7873492D01*
G01X-6623558Y-7867396D01*
G01X-6629908Y-7861046D01*
G01X-6636004Y-7857998D01*
G01X-6676390Y-7790688D02*
G01X-6682486Y-7793736D01*
G01X-6685534Y-7803134D01*
G01X-6685534Y-7809230D01*
G01X-6682486Y-7818628D01*
G01X-6673088Y-7824724D01*
G01X-6657848Y-7827772D01*
G01X-6642354Y-7827772D01*
G01X-6629908Y-7824724D01*
G01X-6623558Y-7818628D01*
G01X-6620510Y-7809230D01*
G01X-6620510Y-7806182D01*
G01X-6623558Y-7797038D01*
G01X-6629908Y-7790688D01*
G01X-6639052Y-7787640D01*
G01X-6642354Y-7787640D01*
G01X-6651498Y-7790688D01*
G01X-6657848Y-7797038D01*
G01X-6660896Y-7806182D01*
G01X-6660896Y-7809230D01*
G01X-6657848Y-7818628D01*
G01X-6651498Y-7824724D01*
G01X-6642354Y-7827772D01*
G01X-5915660Y-7610602D02*
G01X-5909310Y-7607554D01*
G01X-5903214Y-7601204D01*
G01X-5900166Y-7595108D01*
G01X-5900166Y-7582662D01*
G01X-5903214Y-7576566D01*
G01X-5909310Y-7570216D01*
G01X-5915660Y-7567168D01*
G01X-5924804Y-7564120D01*
G01X-5940298Y-7564120D01*
G01X-5949696Y-7567168D01*
G01X-5955792Y-7570216D01*
G01X-5962142Y-7576566D01*
G01X-5965190Y-7582662D01*
G01X-5965190Y-7595108D01*
G01X-5962142Y-7601204D01*
G01X-5955792Y-7607554D01*
G01X-5949696Y-7610602D01*
G01X-5900166Y-7646924D02*
G01X-5900166Y-7680960D01*
G01X-5924804Y-7662418D01*
G01X-5924804Y-7671562D01*
G01X-5927852Y-7677912D01*
G01X-5931154Y-7680960D01*
G01X-5940298Y-7684008D01*
G01X-5946648Y-7684008D01*
G01X-5955792Y-7680960D01*
G01X-5962142Y-7674864D01*
G01X-5965190Y-7665466D01*
G01X-5965190Y-7656068D01*
G01X-5962142Y-7646924D01*
G01X-5958840Y-7643876D01*
G01X-5952744Y-7640828D01*
G01X-7274560Y-8029702D02*
G01X-7268210Y-8026654D01*
G01X-7262114Y-8020304D01*
G01X-7259066Y-8014208D01*
G01X-7259066Y-8001762D01*
G01X-7262114Y-7995666D01*
G01X-7268210Y-7989316D01*
G01X-7274560Y-7986268D01*
G01X-7283704Y-7983220D01*
G01X-7299198Y-7983220D01*
G01X-7308596Y-7986268D01*
G01X-7314692Y-7989316D01*
G01X-7321042Y-7995666D01*
G01X-7324090Y-8001762D01*
G01X-7324090Y-8014208D01*
G01X-7321042Y-8020304D01*
G01X-7314692Y-8026654D01*
G01X-7308596Y-8029702D01*
G01X-7259066Y-8097012D02*
G01X-7259066Y-8066024D01*
G01X-7286752Y-8062976D01*
G01X-7283704Y-8066024D01*
G01X-7280656Y-8075168D01*
G01X-7280656Y-8084566D01*
G01X-7283704Y-8093964D01*
G01X-7290054Y-8100060D01*
G01X-7299198Y-8103108D01*
G01X-7305548Y-8103108D01*
G01X-7314692Y-8100060D01*
G01X-7321042Y-8093964D01*
G01X-7324090Y-8084566D01*
G01X-7324090Y-8075168D01*
G01X-7321042Y-8066024D01*
G01X-7317740Y-8062976D01*
G01X-7311644Y-8059928D01*
G01X-5831840Y-6765798D02*
G01X-5838190Y-6768846D01*
G01X-5844286Y-6775196D01*
G01X-5847334Y-6781292D01*
G01X-5847334Y-6793738D01*
G01X-5844286Y-6799834D01*
G01X-5838190Y-6806184D01*
G01X-5831840Y-6809232D01*
G01X-5822696Y-6812280D01*
G01X-5807202Y-6812280D01*
G01X-5797804Y-6809232D01*
G01X-5791708Y-6806184D01*
G01X-5785358Y-6799834D01*
G01X-5782310Y-6793738D01*
G01X-5782310Y-6781292D01*
G01X-5785358Y-6775196D01*
G01X-5791708Y-6768846D01*
G01X-5797804Y-6765798D01*
G01X-5831840Y-6732524D02*
G01X-5834888Y-6732524D01*
G01X-5841238Y-6729476D01*
G01X-5844286Y-6726428D01*
G01X-5847334Y-6720332D01*
G01X-5847334Y-6707886D01*
G01X-5844286Y-6701536D01*
G01X-5841238Y-6698488D01*
G01X-5834888Y-6695440D01*
G01X-5828792Y-6695440D01*
G01X-5822696Y-6698488D01*
G01X-5813298Y-6704838D01*
G01X-5782310Y-6735572D01*
G01X-5782310Y-6692392D01*
G01X-3782060Y-4295902D02*
G01X-3775710Y-4292854D01*
G01X-3769614Y-4286504D01*
G01X-3766566Y-4280408D01*
G01X-3766566Y-4267962D01*
G01X-3769614Y-4261866D01*
G01X-3775710Y-4255516D01*
G01X-3782060Y-4252468D01*
G01X-3791204Y-4249420D01*
G01X-3806698Y-4249420D01*
G01X-3816096Y-4252468D01*
G01X-3822192Y-4255516D01*
G01X-3828542Y-4261866D01*
G01X-3831590Y-4267962D01*
G01X-3831590Y-4280408D01*
G01X-3828542Y-4286504D01*
G01X-3822192Y-4292854D01*
G01X-3816096Y-4295902D01*
G01X-3766566Y-4332224D02*
G01X-3766566Y-4366260D01*
G01X-3791204Y-4347718D01*
G01X-3791204Y-4356862D01*
G01X-3794252Y-4363212D01*
G01X-3797554Y-4366260D01*
G01X-3806698Y-4369308D01*
G01X-3813048Y-4369308D01*
G01X-3822192Y-4366260D01*
G01X-3828542Y-4360164D01*
G01X-3831590Y-4350766D01*
G01X-3831590Y-4341368D01*
G01X-3828542Y-4332224D01*
G01X-3825240Y-4329176D01*
G01X-3819144Y-4326128D01*
G01X-3766566Y-4436618D02*
G01X-3766566Y-4405630D01*
G01X-3794252Y-4402582D01*
G01X-3791204Y-4405630D01*
G01X-3788156Y-4414774D01*
G01X-3788156Y-4424172D01*
G01X-3791204Y-4433570D01*
G01X-3797554Y-4439666D01*
G01X-3806698Y-4442714D01*
G01X-3813048Y-4442714D01*
G01X-3822192Y-4439666D01*
G01X-3828542Y-4433570D01*
G01X-3831590Y-4424172D01*
G01X-3831590Y-4414774D01*
G01X-3828542Y-4405630D01*
G01X-3825240Y-4402582D01*
G01X-3819144Y-4399534D01*
G01X-2385060Y-3902202D02*
G01X-2378710Y-3899154D01*
G01X-2372614Y-3892804D01*
G01X-2369566Y-3886708D01*
G01X-2369566Y-3874262D01*
G01X-2372614Y-3868166D01*
G01X-2378710Y-3861816D01*
G01X-2385060Y-3858768D01*
G01X-2394204Y-3855720D01*
G01X-2409698Y-3855720D01*
G01X-2419096Y-3858768D01*
G01X-2425192Y-3861816D01*
G01X-2431542Y-3868166D01*
G01X-2434590Y-3874262D01*
G01X-2434590Y-3886708D01*
G01X-2431542Y-3892804D01*
G01X-2425192Y-3899154D01*
G01X-2419096Y-3902202D01*
G01X-2385060Y-3935476D02*
G01X-2382012Y-3935476D01*
G01X-2375662Y-3938524D01*
G01X-2372614Y-3941572D01*
G01X-2369566Y-3947668D01*
G01X-2369566Y-3960114D01*
G01X-2372614Y-3966464D01*
G01X-2375662Y-3969512D01*
G01X-2382012Y-3972560D01*
G01X-2388108Y-3972560D01*
G01X-2394204Y-3969512D01*
G01X-2403602Y-3963162D01*
G01X-2434590Y-3932428D01*
G01X-2434590Y-3975608D01*
G01X-2369566Y-4021074D02*
G01X-2372614Y-4011930D01*
G01X-2378710Y-4008882D01*
G01X-2385060Y-4008882D01*
G01X-2391156Y-4011930D01*
G01X-2394204Y-4018026D01*
G01X-2397252Y-4030472D01*
G01X-2400554Y-4039870D01*
G01X-2406650Y-4045966D01*
G01X-2412746Y-4049014D01*
G01X-2422144Y-4049014D01*
G01X-2428240Y-4045966D01*
G01X-2431542Y-4042918D01*
G01X-2434590Y-4033520D01*
G01X-2434590Y-4021074D01*
G01X-2431542Y-4011930D01*
G01X-2428240Y-4008882D01*
G01X-2422144Y-4005834D01*
G01X-2412746Y-4005834D01*
G01X-2406650Y-4008882D01*
G01X-2400554Y-4014978D01*
G01X-2397252Y-4024376D01*
G01X-2394204Y-4036568D01*
G01X-2391156Y-4042918D01*
G01X-2385060Y-4045966D01*
G01X-2378710Y-4045966D01*
G01X-2372614Y-4042918D01*
G01X-2369566Y-4033520D01*
G01X-2369566Y-4021074D01*
G01X-4612640Y-4555998D02*
G01X-4618990Y-4559046D01*
G01X-4625086Y-4565396D01*
G01X-4628134Y-4571492D01*
G01X-4628134Y-4583938D01*
G01X-4625086Y-4590034D01*
G01X-4618990Y-4596384D01*
G01X-4612640Y-4599432D01*
G01X-4603496Y-4602480D01*
G01X-4588002Y-4602480D01*
G01X-4578604Y-4599432D01*
G01X-4572508Y-4596384D01*
G01X-4566158Y-4590034D01*
G01X-4563110Y-4583938D01*
G01X-4563110Y-4571492D01*
G01X-4566158Y-4565396D01*
G01X-4572508Y-4559046D01*
G01X-4578604Y-4555998D01*
G01X-4628134Y-4519676D02*
G01X-4628134Y-4485640D01*
G01X-4603496Y-4504182D01*
G01X-4603496Y-4495038D01*
G01X-4600448Y-4488688D01*
G01X-4597146Y-4485640D01*
G01X-4588002Y-4482592D01*
G01X-4581652Y-4482592D01*
G01X-4572508Y-4485640D01*
G01X-4566158Y-4491736D01*
G01X-4563110Y-4501134D01*
G01X-4563110Y-4510532D01*
G01X-4566158Y-4519676D01*
G01X-4569460Y-4522724D01*
G01X-4575556Y-4525772D01*
G01X-4606544Y-4412234D02*
G01X-4597146Y-4415282D01*
G01X-4591050Y-4421632D01*
G01X-4588002Y-4430776D01*
G01X-4588002Y-4433824D01*
G01X-4591050Y-4443222D01*
G01X-4597146Y-4449318D01*
G01X-4606544Y-4452366D01*
G01X-4609592Y-4452366D01*
G01X-4618990Y-4449318D01*
G01X-4625086Y-4443222D01*
G01X-4628134Y-4433824D01*
G01X-4628134Y-4430776D01*
G01X-4625086Y-4421632D01*
G01X-4618990Y-4415282D01*
G01X-4606544Y-4412234D01*
G01X-4591050Y-4412234D01*
G01X-4575556Y-4415282D01*
G01X-4566158Y-4421632D01*
G01X-4563110Y-4430776D01*
G01X-4563110Y-4437126D01*
G01X-4566158Y-4446270D01*
G01X-4572508Y-4449318D01*
G01X-7149111Y-7254721D02*
G01X-7149111Y-7319745D01*
G01X-7149111Y-7319745D02*
G01X-7112027Y-7319745D01*
G01X-7081801Y-7267167D02*
G01X-7075705Y-7263865D01*
G01X-7066561Y-7254721D01*
G01X-7066561Y-7319745D01*
G01X-551180Y-6357366D02*
G01X-551180Y-6422390D01*
G01X-551180Y-6357366D02*
G01X-523240Y-6357366D01*
G01X-514096Y-6360414D01*
G01X-511048Y-6363462D01*
G01X-507746Y-6369812D01*
G01X-507746Y-6375908D01*
G01X-511048Y-6382004D01*
G01X-514096Y-6385052D01*
G01X-523240Y-6388354D01*
G01X-551180Y-6388354D01*
G01X-529590Y-6388354D02*
G01X-507746Y-6422390D01*
G01X-477520Y-6369812D02*
G01X-471424Y-6366510D01*
G01X-462280Y-6357366D01*
G01X-462280Y-6422390D01*
G01X-394970Y-6357366D02*
G01X-425958Y-6357366D01*
G01X-429006Y-6385052D01*
G01X-425958Y-6382004D01*
G01X-416814Y-6378956D01*
G01X-407416Y-6378956D01*
G01X-398018Y-6382004D01*
G01X-391922Y-6388354D01*
G01X-388874Y-6397498D01*
G01X-388874Y-6403848D01*
G01X-391922Y-6412992D01*
G01X-398018Y-6419342D01*
G01X-407416Y-6422390D01*
G01X-416814Y-6422390D01*
G01X-425958Y-6419342D01*
G01X-429006Y-6416040D01*
G01X-432054Y-6409944D01*
G01X-5874766Y-2876220D02*
G01X-5939790Y-2876220D01*
G01X-5874766Y-2876220D02*
G01X-5874766Y-2904160D01*
G01X-5877814Y-2913304D01*
G01X-5880862Y-2916352D01*
G01X-5887212Y-2919654D01*
G01X-5893308Y-2919654D01*
G01X-5899404Y-2916352D01*
G01X-5902452Y-2913304D01*
G01X-5905754Y-2904160D01*
G01X-5905754Y-2876220D01*
G01X-5905754Y-2897810D02*
G01X-5939790Y-2919654D01*
G01X-5887212Y-2949880D02*
G01X-5883910Y-2955976D01*
G01X-5874766Y-2965120D01*
G01X-5939790Y-2965120D01*
G01X-5874766Y-3010586D02*
G01X-5877814Y-3001442D01*
G01X-5883910Y-2998394D01*
G01X-5890260Y-2998394D01*
G01X-5896356Y-3001442D01*
G01X-5899404Y-3007538D01*
G01X-5902452Y-3019984D01*
G01X-5905754Y-3029382D01*
G01X-5911850Y-3035478D01*
G01X-5917946Y-3038526D01*
G01X-5927344Y-3038526D01*
G01X-5933440Y-3035478D01*
G01X-5936742Y-3032430D01*
G01X-5939790Y-3023032D01*
G01X-5939790Y-3010586D01*
G01X-5936742Y-3001442D01*
G01X-5933440Y-2998394D01*
G01X-5927344Y-2995346D01*
G01X-5917946Y-2995346D01*
G01X-5911850Y-2998394D01*
G01X-5905754Y-3004490D01*
G01X-5902452Y-3013888D01*
G01X-5899404Y-3026080D01*
G01X-5896356Y-3032430D01*
G01X-5890260Y-3035478D01*
G01X-5883910Y-3035478D01*
G01X-5877814Y-3032430D01*
G01X-5874766Y-3023032D01*
G01X-5874766Y-3010586D01*
G01X-7749540Y-5876798D02*
G01X-7755890Y-5879846D01*
G01X-7761986Y-5886196D01*
G01X-7765034Y-5892292D01*
G01X-7765034Y-5904738D01*
G01X-7761986Y-5910834D01*
G01X-7755890Y-5917184D01*
G01X-7749540Y-5920232D01*
G01X-7740396Y-5923280D01*
G01X-7724902Y-5923280D01*
G01X-7715504Y-5920232D01*
G01X-7709408Y-5917184D01*
G01X-7703058Y-5910834D01*
G01X-7700010Y-5904738D01*
G01X-7700010Y-5892292D01*
G01X-7703058Y-5886196D01*
G01X-7709408Y-5879846D01*
G01X-7715504Y-5876798D01*
G01X-7765034Y-5803392D02*
G01X-7700010Y-5834380D01*
G01X-7765034Y-5846572D02*
G01X-7765034Y-5803392D01*
G01X-7361472Y-6883062D02*
G01X-7355122Y-6880014D01*
G01X-7349026Y-6873664D01*
G01X-7345978Y-6867568D01*
G01X-7345978Y-6855122D01*
G01X-7349026Y-6849026D01*
G01X-7355122Y-6842676D01*
G01X-7361472Y-6839628D01*
G01X-7370616Y-6836580D01*
G01X-7386110Y-6836580D01*
G01X-7395508Y-6839628D01*
G01X-7401604Y-6842676D01*
G01X-7407954Y-6849026D01*
G01X-7411002Y-6855122D01*
G01X-7411002Y-6867568D01*
G01X-7407954Y-6873664D01*
G01X-7401604Y-6880014D01*
G01X-7395508Y-6883062D01*
G01X-7358424Y-6913288D02*
G01X-7355122Y-6919384D01*
G01X-7345978Y-6928528D01*
G01X-7411002Y-6928528D01*
G01X-7358424Y-6958754D02*
G01X-7355122Y-6964850D01*
G01X-7345978Y-6973994D01*
G01X-7411002Y-6973994D01*
G01X-7268491Y-6539457D02*
G01X-7262141Y-6536409D01*
G01X-7256045Y-6530059D01*
G01X-7252997Y-6523963D01*
G01X-7252997Y-6511517D01*
G01X-7256045Y-6505421D01*
G01X-7262141Y-6499071D01*
G01X-7268491Y-6496023D01*
G01X-7277635Y-6492975D01*
G01X-7293129Y-6492975D01*
G01X-7302527Y-6496023D01*
G01X-7308623Y-6499071D01*
G01X-7314973Y-6505421D01*
G01X-7318021Y-6511517D01*
G01X-7318021Y-6523963D01*
G01X-7314973Y-6530059D01*
G01X-7308623Y-6536409D01*
G01X-7302527Y-6539457D01*
G01X-7274587Y-6609815D02*
G01X-7283985Y-6606767D01*
G01X-7290081Y-6600417D01*
G01X-7293129Y-6591273D01*
G01X-7293129Y-6588225D01*
G01X-7290081Y-6578827D01*
G01X-7283985Y-6572731D01*
G01X-7274587Y-6569683D01*
G01X-7271539Y-6569683D01*
G01X-7262141Y-6572731D01*
G01X-7256045Y-6578827D01*
G01X-7252997Y-6588225D01*
G01X-7252997Y-6591273D01*
G01X-7256045Y-6600417D01*
G01X-7262141Y-6606767D01*
G01X-7274587Y-6609815D01*
G01X-7290081Y-6609815D01*
G01X-7305575Y-6606767D01*
G01X-7314973Y-6600417D01*
G01X-7318021Y-6591273D01*
G01X-7318021Y-6584923D01*
G01X-7314973Y-6575779D01*
G01X-7308623Y-6572731D01*
G01X-7803134Y-9593580D02*
G01X-7738110Y-9593580D01*
G01X-7803134Y-9593580D02*
G01X-7803134Y-9565640D01*
G01X-7800086Y-9556496D01*
G01X-7797038Y-9553448D01*
G01X-7790688Y-9550146D01*
G01X-7784592Y-9550146D01*
G01X-7778496Y-9553448D01*
G01X-7775448Y-9556496D01*
G01X-7772146Y-9565640D01*
G01X-7772146Y-9593580D01*
G01X-7772146Y-9571990D02*
G01X-7738110Y-9550146D01*
G01X-7781544Y-9479788D02*
G01X-7772146Y-9482836D01*
G01X-7766050Y-9489186D01*
G01X-7763002Y-9498330D01*
G01X-7763002Y-9501378D01*
G01X-7766050Y-9510776D01*
G01X-7772146Y-9516872D01*
G01X-7781544Y-9519920D01*
G01X-7784592Y-9519920D01*
G01X-7793990Y-9516872D01*
G01X-7800086Y-9510776D01*
G01X-7803134Y-9501378D01*
G01X-7803134Y-9498330D01*
G01X-7800086Y-9489186D01*
G01X-7793990Y-9482836D01*
G01X-7781544Y-9479788D01*
G01X-7766050Y-9479788D01*
G01X-7750556Y-9482836D01*
G01X-7741158Y-9489186D01*
G01X-7738110Y-9498330D01*
G01X-7738110Y-9504680D01*
G01X-7741158Y-9513824D01*
G01X-7747508Y-9516872D01*
G01X-8133334Y-9631680D02*
G01X-8068310Y-9631680D01*
G01X-8133334Y-9631680D02*
G01X-8133334Y-9603740D01*
G01X-8130286Y-9594596D01*
G01X-8127238Y-9591548D01*
G01X-8120888Y-9588246D01*
G01X-8114792Y-9588246D01*
G01X-8108696Y-9591548D01*
G01X-8105648Y-9594596D01*
G01X-8102346Y-9603740D01*
G01X-8102346Y-9631680D01*
G01X-8102346Y-9610090D02*
G01X-8068310Y-9588246D01*
G01X-8120888Y-9558020D02*
G01X-8124190Y-9551924D01*
G01X-8133334Y-9542780D01*
G01X-8068310Y-9542780D01*
G01X-8133334Y-9494012D02*
G01X-8130286Y-9503410D01*
G01X-8120888Y-9509506D01*
G01X-8105648Y-9512554D01*
G01X-8096250Y-9512554D01*
G01X-8080756Y-9509506D01*
G01X-8071358Y-9503410D01*
G01X-8068310Y-9494012D01*
G01X-8068310Y-9487916D01*
G01X-8071358Y-9478518D01*
G01X-8080756Y-9472422D01*
G01X-8096250Y-9469374D01*
G01X-8105648Y-9469374D01*
G01X-8120888Y-9472422D01*
G01X-8130286Y-9478518D01*
G01X-8133334Y-9487916D01*
G01X-8133334Y-9494012D01*
G01X-7060465Y-6896835D02*
G01X-6995441Y-6896835D01*
G01X-7060465Y-6896835D02*
G01X-7060465Y-6868895D01*
G01X-7057417Y-6859751D01*
G01X-7054369Y-6856703D01*
G01X-7048019Y-6853401D01*
G01X-7041923Y-6853401D01*
G01X-7035827Y-6856703D01*
G01X-7032779Y-6859751D01*
G01X-7029477Y-6868895D01*
G01X-7029477Y-6896835D01*
G01X-7029477Y-6875245D02*
G01X-6995441Y-6853401D01*
G01X-7048019Y-6823175D02*
G01X-7051321Y-6817079D01*
G01X-7060465Y-6807935D01*
G01X-6995441Y-6807935D01*
G01X-8488680Y-6636766D02*
G01X-8488680Y-6701790D01*
G01X-8488680Y-6636766D02*
G01X-8460740Y-6636766D01*
G01X-8451596Y-6639814D01*
G01X-8448548Y-6642862D01*
G01X-8445246Y-6649212D01*
G01X-8445246Y-6655308D01*
G01X-8448548Y-6661404D01*
G01X-8451596Y-6664452D01*
G01X-8460740Y-6667754D01*
G01X-8488680Y-6667754D01*
G01X-8467090Y-6667754D02*
G01X-8445246Y-6701790D01*
G01X-8411972Y-6652260D02*
G01X-8411972Y-6649212D01*
G01X-8408924Y-6642862D01*
G01X-8405876Y-6639814D01*
G01X-8399780Y-6636766D01*
G01X-8387334Y-6636766D01*
G01X-8380984Y-6639814D01*
G01X-8377936Y-6642862D01*
G01X-8374888Y-6649212D01*
G01X-8374888Y-6655308D01*
G01X-8377936Y-6661404D01*
G01X-8384286Y-6670802D01*
G01X-8415020Y-6701790D01*
G01X-8371840Y-6701790D01*
G01X-8070444Y-5671566D02*
G01X-8070444Y-5736590D01*
G01X-8070444Y-5671566D02*
G01X-8042504Y-5671566D01*
G01X-8033360Y-5674614D01*
G01X-8030312Y-5677662D01*
G01X-8027010Y-5684012D01*
G01X-8027010Y-5690108D01*
G01X-8030312Y-5696204D01*
G01X-8033360Y-5699252D01*
G01X-8042504Y-5702554D01*
G01X-8070444Y-5702554D01*
G01X-8048854Y-5702554D02*
G01X-8027010Y-5736590D01*
G01X-7959700Y-5680710D02*
G01X-7962748Y-5674614D01*
G01X-7972146Y-5671566D01*
G01X-7978242Y-5671566D01*
G01X-7987640Y-5674614D01*
G01X-7993736Y-5684012D01*
G01X-7996784Y-5699252D01*
G01X-7996784Y-5714746D01*
G01X-7993736Y-5727192D01*
G01X-7987640Y-5733542D01*
G01X-7978242Y-5736590D01*
G01X-7975194Y-5736590D01*
G01X-7966050Y-5733542D01*
G01X-7959700Y-5727192D01*
G01X-7956652Y-5718048D01*
G01X-7956652Y-5714746D01*
G01X-7959700Y-5705602D01*
G01X-7966050Y-5699252D01*
G01X-7975194Y-5696204D01*
G01X-7978242Y-5696204D01*
G01X-7987640Y-5699252D01*
G01X-7993736Y-5705602D01*
G01X-7996784Y-5714746D01*
G01X-8628634Y-5389880D02*
G01X-8563610Y-5389880D01*
G01X-8628634Y-5389880D02*
G01X-8628634Y-5361940D01*
G01X-8625586Y-5352796D01*
G01X-8622538Y-5349748D01*
G01X-8616188Y-5346446D01*
G01X-8610092Y-5346446D01*
G01X-8603996Y-5349748D01*
G01X-8600948Y-5352796D01*
G01X-8597646Y-5361940D01*
G01X-8597646Y-5389880D01*
G01X-8597646Y-5368290D02*
G01X-8563610Y-5346446D01*
G01X-8616188Y-5316220D02*
G01X-8619490Y-5310124D01*
G01X-8628634Y-5300980D01*
G01X-8563610Y-5300980D01*
G01X-8616188Y-5270754D02*
G01X-8619490Y-5264658D01*
G01X-8628634Y-5255514D01*
G01X-8563610Y-5255514D01*
G01X-6497320Y-3777234D02*
G01X-6497320Y-3712210D01*
G01X-6497320Y-3777234D02*
G01X-6525260Y-3777234D01*
G01X-6534404Y-3774186D01*
G01X-6537452Y-3771138D01*
G01X-6540754Y-3764788D01*
G01X-6540754Y-3758692D01*
G01X-6537452Y-3752596D01*
G01X-6534404Y-3749548D01*
G01X-6525260Y-3746246D01*
G01X-6497320Y-3746246D01*
G01X-6518910Y-3746246D02*
G01X-6540754Y-3712210D01*
G01X-6570980Y-3764788D02*
G01X-6577076Y-3768090D01*
G01X-6586220Y-3777234D01*
G01X-6586220Y-3712210D01*
G01X-6619494Y-3761740D02*
G01X-6619494Y-3764788D01*
G01X-6622542Y-3771138D01*
G01X-6625590Y-3774186D01*
G01X-6631686Y-3777234D01*
G01X-6644132Y-3777234D01*
G01X-6650482Y-3774186D01*
G01X-6653530Y-3771138D01*
G01X-6656578Y-3764788D01*
G01X-6656578Y-3758692D01*
G01X-6653530Y-3752596D01*
G01X-6647180Y-3743198D01*
G01X-6616446Y-3712210D01*
G01X-6659626Y-3712210D01*
G01X-6865366Y-3843020D02*
G01X-6930390Y-3843020D01*
G01X-6865366Y-3843020D02*
G01X-6865366Y-3870960D01*
G01X-6868414Y-3880104D01*
G01X-6871462Y-3883152D01*
G01X-6877812Y-3886454D01*
G01X-6883908Y-3886454D01*
G01X-6890004Y-3883152D01*
G01X-6893052Y-3880104D01*
G01X-6896354Y-3870960D01*
G01X-6896354Y-3843020D01*
G01X-6896354Y-3864610D02*
G01X-6930390Y-3886454D01*
G01X-6877812Y-3916680D02*
G01X-6874510Y-3922776D01*
G01X-6865366Y-3931920D01*
G01X-6930390Y-3931920D01*
G01X-6865366Y-3968242D02*
G01X-6865366Y-4002278D01*
G01X-6890004Y-3983736D01*
G01X-6890004Y-3992880D01*
G01X-6893052Y-3999230D01*
G01X-6896354Y-4002278D01*
G01X-6905498Y-4005326D01*
G01X-6911848Y-4005326D01*
G01X-6920992Y-4002278D01*
G01X-6927342Y-3996182D01*
G01X-6930390Y-3986784D01*
G01X-6930390Y-3977386D01*
G01X-6927342Y-3968242D01*
G01X-6924040Y-3965194D01*
G01X-6917944Y-3962146D01*
G01X-6228080Y-4122166D02*
G01X-6228080Y-4187190D01*
G01X-6228080Y-4122166D02*
G01X-6200140Y-4122166D01*
G01X-6190996Y-4125214D01*
G01X-6187948Y-4128262D01*
G01X-6184646Y-4134612D01*
G01X-6184646Y-4140708D01*
G01X-6187948Y-4146804D01*
G01X-6190996Y-4149852D01*
G01X-6200140Y-4153154D01*
G01X-6228080Y-4153154D01*
G01X-6206490Y-4153154D02*
G01X-6184646Y-4187190D01*
G01X-6154420Y-4134612D02*
G01X-6148324Y-4131310D01*
G01X-6139180Y-4122166D01*
G01X-6139180Y-4187190D01*
G01X-6078220Y-4122166D02*
G01X-6108954Y-4165346D01*
G01X-6062726Y-4165346D01*
G01X-6078220Y-4122166D02*
G01X-6078220Y-4187190D01*
G01X-8785098Y-4582160D02*
G01X-8788146Y-4575810D01*
G01X-8794496Y-4569714D01*
G01X-8800592Y-4566666D01*
G01X-8813038Y-4566666D01*
G01X-8819134Y-4569714D01*
G01X-8825484Y-4575810D01*
G01X-8828532Y-4582160D01*
G01X-8831580Y-4591304D01*
G01X-8831580Y-4606798D01*
G01X-8828532Y-4616196D01*
G01X-8825484Y-4622292D01*
G01X-8819134Y-4628642D01*
G01X-8813038Y-4631690D01*
G01X-8800592Y-4631690D01*
G01X-8794496Y-4628642D01*
G01X-8788146Y-4622292D01*
G01X-8785098Y-4616196D01*
G01X-8751824Y-4582160D02*
G01X-8751824Y-4579112D01*
G01X-8748776Y-4572762D01*
G01X-8745728Y-4569714D01*
G01X-8739632Y-4566666D01*
G01X-8727186Y-4566666D01*
G01X-8720836Y-4569714D01*
G01X-8717788Y-4572762D01*
G01X-8714740Y-4579112D01*
G01X-8714740Y-4585208D01*
G01X-8717788Y-4591304D01*
G01X-8724138Y-4600702D01*
G01X-8754872Y-4631690D01*
G01X-8711692Y-4631690D01*
G01X-8662924Y-4566666D02*
G01X-8672322Y-4569714D01*
G01X-8678418Y-4579112D01*
G01X-8681466Y-4594352D01*
G01X-8681466Y-4603750D01*
G01X-8678418Y-4619244D01*
G01X-8672322Y-4628642D01*
G01X-8662924Y-4631690D01*
G01X-8656828Y-4631690D01*
G01X-8647430Y-4628642D01*
G01X-8641334Y-4619244D01*
G01X-8638286Y-4603750D01*
G01X-8638286Y-4594352D01*
G01X-8641334Y-4579112D01*
G01X-8647430Y-4569714D01*
G01X-8656828Y-4566666D01*
G01X-8662924Y-4566666D01*
G01X-8746998Y-4798060D02*
G01X-8750046Y-4791710D01*
G01X-8756396Y-4785614D01*
G01X-8762492Y-4782566D01*
G01X-8774938Y-4782566D01*
G01X-8781034Y-4785614D01*
G01X-8787384Y-4791710D01*
G01X-8790432Y-4798060D01*
G01X-8793480Y-4807204D01*
G01X-8793480Y-4822698D01*
G01X-8790432Y-4832096D01*
G01X-8787384Y-4838192D01*
G01X-8781034Y-4844542D01*
G01X-8774938Y-4847590D01*
G01X-8762492Y-4847590D01*
G01X-8756396Y-4844542D01*
G01X-8750046Y-4838192D01*
G01X-8746998Y-4832096D01*
G01X-8713724Y-4798060D02*
G01X-8713724Y-4795012D01*
G01X-8710676Y-4788662D01*
G01X-8707628Y-4785614D01*
G01X-8701532Y-4782566D01*
G01X-8689086Y-4782566D01*
G01X-8682736Y-4785614D01*
G01X-8679688Y-4788662D01*
G01X-8676640Y-4795012D01*
G01X-8676640Y-4801108D01*
G01X-8679688Y-4807204D01*
G01X-8686038Y-4816602D01*
G01X-8716772Y-4847590D01*
G01X-8673592Y-4847590D01*
G01X-8643366Y-4795012D02*
G01X-8637270Y-4791710D01*
G01X-8628126Y-4782566D01*
G01X-8628126Y-4847590D01*
G01X-7000284Y-6135662D02*
G01X-7065308Y-6135662D01*
G01X-7000284Y-6135662D02*
G01X-7000284Y-6163602D01*
G01X-7003332Y-6172746D01*
G01X-7006380Y-6175794D01*
G01X-7012730Y-6179096D01*
G01X-7018826Y-6179096D01*
G01X-7024922Y-6175794D01*
G01X-7027970Y-6172746D01*
G01X-7031272Y-6163602D01*
G01X-7031272Y-6135662D01*
G01X-7031272Y-6157252D02*
G01X-7065308Y-6179096D01*
G01X-7000284Y-6246406D02*
G01X-7000284Y-6215418D01*
G01X-7027970Y-6212370D01*
G01X-7024922Y-6215418D01*
G01X-7021874Y-6224562D01*
G01X-7021874Y-6233960D01*
G01X-7024922Y-6243358D01*
G01X-7031272Y-6249454D01*
G01X-7040416Y-6252502D01*
G01X-7046766Y-6252502D01*
G01X-7055910Y-6249454D01*
G01X-7062260Y-6243358D01*
G01X-7065308Y-6233960D01*
G01X-7065308Y-6224562D01*
G01X-7062260Y-6215418D01*
G01X-7058958Y-6212370D01*
G01X-7052862Y-6209322D01*
G01X-6063424Y-4674286D02*
G01X-6063424Y-4739310D01*
G01X-6063424Y-4674286D02*
G01X-6035484Y-4674286D01*
G01X-6026340Y-4677334D01*
G01X-6023292Y-4680382D01*
G01X-6019990Y-4686732D01*
G01X-6019990Y-4692828D01*
G01X-6023292Y-4698924D01*
G01X-6026340Y-4701972D01*
G01X-6035484Y-4705274D01*
G01X-6063424Y-4705274D01*
G01X-6041834Y-4705274D02*
G01X-6019990Y-4739310D01*
G01X-5989764Y-4686732D02*
G01X-5983668Y-4683430D01*
G01X-5974524Y-4674286D01*
G01X-5974524Y-4739310D01*
G01X-5901118Y-4674286D02*
G01X-5932106Y-4739310D01*
G01X-5944298Y-4674286D02*
G01X-5901118Y-4674286D01*
G01X-4206240Y-6079998D02*
G01X-4212590Y-6083046D01*
G01X-4218686Y-6089396D01*
G01X-4221734Y-6095492D01*
G01X-4221734Y-6107938D01*
G01X-4218686Y-6114034D01*
G01X-4212590Y-6120384D01*
G01X-4206240Y-6123432D01*
G01X-4197096Y-6126480D01*
G01X-4181602Y-6126480D01*
G01X-4172204Y-6123432D01*
G01X-4166108Y-6120384D01*
G01X-4159758Y-6114034D01*
G01X-4156710Y-6107938D01*
G01X-4156710Y-6095492D01*
G01X-4159758Y-6089396D01*
G01X-4166108Y-6083046D01*
G01X-4172204Y-6079998D01*
G01X-4221734Y-6019038D02*
G01X-4178554Y-6049772D01*
G01X-4178554Y-6003544D01*
G01X-4221734Y-6019038D02*
G01X-4156710Y-6019038D01*
G01X-4221734Y-5954776D02*
G01X-4218686Y-5964174D01*
G01X-4209288Y-5970270D01*
G01X-4194048Y-5973318D01*
G01X-4184650Y-5973318D01*
G01X-4169156Y-5970270D01*
G01X-4159758Y-5964174D01*
G01X-4156710Y-5954776D01*
G01X-4156710Y-5948680D01*
G01X-4159758Y-5939282D01*
G01X-4169156Y-5933186D01*
G01X-4184650Y-5930138D01*
G01X-4194048Y-5930138D01*
G01X-4209288Y-5933186D01*
G01X-4218686Y-5939282D01*
G01X-4221734Y-5948680D01*
G01X-4221734Y-5954776D01*
G01X-4791202Y-4650740D02*
G01X-4788154Y-4657090D01*
G01X-4781804Y-4663186D01*
G01X-4775708Y-4666234D01*
G01X-4763262Y-4666234D01*
G01X-4757166Y-4663186D01*
G01X-4750816Y-4657090D01*
G01X-4747768Y-4650740D01*
G01X-4744720Y-4641596D01*
G01X-4744720Y-4626102D01*
G01X-4747768Y-4616704D01*
G01X-4750816Y-4610608D01*
G01X-4757166Y-4604258D01*
G01X-4763262Y-4601210D01*
G01X-4775708Y-4601210D01*
G01X-4781804Y-4604258D01*
G01X-4788154Y-4610608D01*
G01X-4791202Y-4616704D01*
G01X-4852162Y-4666234D02*
G01X-4821428Y-4623054D01*
G01X-4867656Y-4623054D01*
G01X-4852162Y-4666234D02*
G01X-4852162Y-4601210D01*
G01X-4897882Y-4653788D02*
G01X-4903978Y-4657090D01*
G01X-4913122Y-4666234D01*
G01X-4913122Y-4601210D01*
G01X-3515360Y-5794502D02*
G01X-3509010Y-5791454D01*
G01X-3502914Y-5785104D01*
G01X-3499866Y-5779008D01*
G01X-3499866Y-5766562D01*
G01X-3502914Y-5760466D01*
G01X-3509010Y-5754116D01*
G01X-3515360Y-5751068D01*
G01X-3524504Y-5748020D01*
G01X-3539998Y-5748020D01*
G01X-3549396Y-5751068D01*
G01X-3555492Y-5754116D01*
G01X-3561842Y-5760466D01*
G01X-3564890Y-5766562D01*
G01X-3564890Y-5779008D01*
G01X-3561842Y-5785104D01*
G01X-3555492Y-5791454D01*
G01X-3549396Y-5794502D01*
G01X-3499866Y-5855462D02*
G01X-3543046Y-5824728D01*
G01X-3543046Y-5870956D01*
G01X-3499866Y-5855462D02*
G01X-3564890Y-5855462D01*
G01X-3515360Y-5904230D02*
G01X-3512312Y-5904230D01*
G01X-3505962Y-5907278D01*
G01X-3502914Y-5910326D01*
G01X-3499866Y-5916422D01*
G01X-3499866Y-5928868D01*
G01X-3502914Y-5935218D01*
G01X-3505962Y-5938266D01*
G01X-3512312Y-5941314D01*
G01X-3518408Y-5941314D01*
G01X-3524504Y-5938266D01*
G01X-3533902Y-5931916D01*
G01X-3564890Y-5901182D01*
G01X-3564890Y-5944362D01*
G01X-3705860Y-5794502D02*
G01X-3699510Y-5791454D01*
G01X-3693414Y-5785104D01*
G01X-3690366Y-5779008D01*
G01X-3690366Y-5766562D01*
G01X-3693414Y-5760466D01*
G01X-3699510Y-5754116D01*
G01X-3705860Y-5751068D01*
G01X-3715004Y-5748020D01*
G01X-3730498Y-5748020D01*
G01X-3739896Y-5751068D01*
G01X-3745992Y-5754116D01*
G01X-3752342Y-5760466D01*
G01X-3755390Y-5766562D01*
G01X-3755390Y-5779008D01*
G01X-3752342Y-5785104D01*
G01X-3745992Y-5791454D01*
G01X-3739896Y-5794502D01*
G01X-3690366Y-5855462D02*
G01X-3733546Y-5824728D01*
G01X-3733546Y-5870956D01*
G01X-3690366Y-5855462D02*
G01X-3755390Y-5855462D01*
G01X-3690366Y-5907278D02*
G01X-3690366Y-5941314D01*
G01X-3715004Y-5922772D01*
G01X-3715004Y-5931916D01*
G01X-3718052Y-5938266D01*
G01X-3721354Y-5941314D01*
G01X-3730498Y-5944362D01*
G01X-3736848Y-5944362D01*
G01X-3745992Y-5941314D01*
G01X-3752342Y-5935218D01*
G01X-3755390Y-5925820D01*
G01X-3755390Y-5916422D01*
G01X-3752342Y-5907278D01*
G01X-3749040Y-5904230D01*
G01X-3742944Y-5901182D01*
G01X-4848098Y-5674360D02*
G01X-4851146Y-5668010D01*
G01X-4857496Y-5661914D01*
G01X-4863592Y-5658866D01*
G01X-4876038Y-5658866D01*
G01X-4882134Y-5661914D01*
G01X-4888484Y-5668010D01*
G01X-4891532Y-5674360D01*
G01X-4894580Y-5683504D01*
G01X-4894580Y-5698998D01*
G01X-4891532Y-5708396D01*
G01X-4888484Y-5714492D01*
G01X-4882134Y-5720842D01*
G01X-4876038Y-5723890D01*
G01X-4863592Y-5723890D01*
G01X-4857496Y-5720842D01*
G01X-4851146Y-5714492D01*
G01X-4848098Y-5708396D01*
G01X-4811776Y-5658866D02*
G01X-4777740Y-5658866D01*
G01X-4796282Y-5683504D01*
G01X-4787138Y-5683504D01*
G01X-4780788Y-5686552D01*
G01X-4777740Y-5689854D01*
G01X-4774692Y-5698998D01*
G01X-4774692Y-5705348D01*
G01X-4777740Y-5714492D01*
G01X-4783836Y-5720842D01*
G01X-4793234Y-5723890D01*
G01X-4802632Y-5723890D01*
G01X-4811776Y-5720842D01*
G01X-4814824Y-5717540D01*
G01X-4817872Y-5711444D01*
G01X-4738370Y-5658866D02*
G01X-4704334Y-5658866D01*
G01X-4722876Y-5683504D01*
G01X-4713732Y-5683504D01*
G01X-4707382Y-5686552D01*
G01X-4704334Y-5689854D01*
G01X-4701286Y-5698998D01*
G01X-4701286Y-5705348D01*
G01X-4704334Y-5714492D01*
G01X-4710430Y-5720842D01*
G01X-4719828Y-5723890D01*
G01X-4729226Y-5723890D01*
G01X-4738370Y-5720842D01*
G01X-4741418Y-5717540D01*
G01X-4744466Y-5711444D01*
G01X-2156460Y-4765802D02*
G01X-2150110Y-4762754D01*
G01X-2144014Y-4756404D01*
G01X-2140966Y-4750308D01*
G01X-2140966Y-4737862D01*
G01X-2144014Y-4731766D01*
G01X-2150110Y-4725416D01*
G01X-2156460Y-4722368D01*
G01X-2165604Y-4719320D01*
G01X-2181098Y-4719320D01*
G01X-2190496Y-4722368D01*
G01X-2196592Y-4725416D01*
G01X-2202942Y-4731766D01*
G01X-2205990Y-4737862D01*
G01X-2205990Y-4750308D01*
G01X-2202942Y-4756404D01*
G01X-2196592Y-4762754D01*
G01X-2190496Y-4765802D01*
G01X-2140966Y-4826762D02*
G01X-2184146Y-4796028D01*
G01X-2184146Y-4842256D01*
G01X-2140966Y-4826762D02*
G01X-2205990Y-4826762D01*
G01X-2140966Y-4903216D02*
G01X-2184146Y-4872482D01*
G01X-2184146Y-4918710D01*
G01X-2140966Y-4903216D02*
G01X-2205990Y-4903216D01*
G01X-2199640Y-5381498D02*
G01X-2205990Y-5384546D01*
G01X-2212086Y-5390896D01*
G01X-2215134Y-5396992D01*
G01X-2215134Y-5409438D01*
G01X-2212086Y-5415534D01*
G01X-2205990Y-5421884D01*
G01X-2199640Y-5424932D01*
G01X-2190496Y-5427980D01*
G01X-2175002Y-5427980D01*
G01X-2165604Y-5424932D01*
G01X-2159508Y-5421884D01*
G01X-2153158Y-5415534D01*
G01X-2150110Y-5409438D01*
G01X-2150110Y-5396992D01*
G01X-2153158Y-5390896D01*
G01X-2159508Y-5384546D01*
G01X-2165604Y-5381498D01*
G01X-2215134Y-5320538D02*
G01X-2171954Y-5351272D01*
G01X-2171954Y-5305044D01*
G01X-2215134Y-5320538D02*
G01X-2150110Y-5320538D01*
G01X-2215134Y-5237734D02*
G01X-2215134Y-5268722D01*
G01X-2187448Y-5271770D01*
G01X-2190496Y-5268722D01*
G01X-2193544Y-5259578D01*
G01X-2193544Y-5250180D01*
G01X-2190496Y-5240782D01*
G01X-2184146Y-5234686D01*
G01X-2175002Y-5231638D01*
G01X-2168652Y-5231638D01*
G01X-2159508Y-5234686D01*
G01X-2153158Y-5240782D01*
G01X-2150110Y-5250180D01*
G01X-2150110Y-5259578D01*
G01X-2153158Y-5268722D01*
G01X-2156460Y-5271770D01*
G01X-2162556Y-5274818D01*
G01X-2572766Y-4566920D02*
G01X-2637790Y-4566920D01*
G01X-2572766Y-4566920D02*
G01X-2572766Y-4594860D01*
G01X-2575814Y-4604004D01*
G01X-2578862Y-4607052D01*
G01X-2585212Y-4610354D01*
G01X-2591308Y-4610354D01*
G01X-2597404Y-4607052D01*
G01X-2600452Y-4604004D01*
G01X-2603754Y-4594860D01*
G01X-2603754Y-4566920D01*
G01X-2603754Y-4588510D02*
G01X-2637790Y-4610354D01*
G01X-2588260Y-4643628D02*
G01X-2585212Y-4643628D01*
G01X-2578862Y-4646676D01*
G01X-2575814Y-4649724D01*
G01X-2572766Y-4655820D01*
G01X-2572766Y-4668266D01*
G01X-2575814Y-4674616D01*
G01X-2578862Y-4677664D01*
G01X-2585212Y-4680712D01*
G01X-2591308Y-4680712D01*
G01X-2597404Y-4677664D01*
G01X-2606802Y-4671314D01*
G01X-2637790Y-4640580D01*
G01X-2637790Y-4683760D01*
G01X-2581910Y-4751070D02*
G01X-2575814Y-4748022D01*
G01X-2572766Y-4738624D01*
G01X-2572766Y-4732528D01*
G01X-2575814Y-4723130D01*
G01X-2585212Y-4717034D01*
G01X-2600452Y-4713986D01*
G01X-2615946Y-4713986D01*
G01X-2628392Y-4717034D01*
G01X-2634742Y-4723130D01*
G01X-2637790Y-4732528D01*
G01X-2637790Y-4735576D01*
G01X-2634742Y-4744720D01*
G01X-2628392Y-4751070D01*
G01X-2619248Y-4754118D01*
G01X-2615946Y-4754118D01*
G01X-2606802Y-4751070D01*
G01X-2600452Y-4744720D01*
G01X-2597404Y-4735576D01*
G01X-2597404Y-4732528D01*
G01X-2600452Y-4723130D01*
G01X-2606802Y-4717034D01*
G01X-2615946Y-4713986D01*
G01X-2634234Y-5618480D02*
G01X-2569210Y-5618480D01*
G01X-2634234Y-5618480D02*
G01X-2634234Y-5590540D01*
G01X-2631186Y-5581396D01*
G01X-2628138Y-5578348D01*
G01X-2621788Y-5575046D01*
G01X-2615692Y-5575046D01*
G01X-2609596Y-5578348D01*
G01X-2606548Y-5581396D01*
G01X-2603246Y-5590540D01*
G01X-2603246Y-5618480D01*
G01X-2603246Y-5596890D02*
G01X-2569210Y-5575046D01*
G01X-2618740Y-5541772D02*
G01X-2621788Y-5541772D01*
G01X-2628138Y-5538724D01*
G01X-2631186Y-5535676D01*
G01X-2634234Y-5529580D01*
G01X-2634234Y-5517134D01*
G01X-2631186Y-5510784D01*
G01X-2628138Y-5507736D01*
G01X-2621788Y-5504688D01*
G01X-2615692Y-5504688D01*
G01X-2609596Y-5507736D01*
G01X-2600198Y-5514086D01*
G01X-2569210Y-5544820D01*
G01X-2569210Y-5501640D01*
G01X-2634234Y-5428234D02*
G01X-2569210Y-5459222D01*
G01X-2634234Y-5471414D02*
G01X-2634234Y-5428234D01*
G04 Text End*

G04 PolygonModel Start*
G54D11*
G01X-7112273Y-7008670D02*
G01X-7112273Y-7088668D01*
G01X-7112227Y-6952625D02*
G01X-7112227Y-6872628D01*
G01X-7254241Y-7008670D02*
G01X-7254241Y-7088668D01*
G01X-7254193Y-6952625D02*
G01X-7254193Y-6872628D01*
G01X-7143255Y-7119643D02*
G01X-7223260Y-7119643D01*
G01X-7223207Y-6841650D02*
G01X-7143205Y-6841650D01*
G01X-7254193Y-6872633D02*
G02X-7223207Y-6841650I30983J0D01*
G01X-7143210Y-6841650D02*
G02X-7112227Y-6872633I0J-30983D01*
G01X-7112273Y-7088662D02*
G02X-7143255Y-7119643I-30983J3D01*
G01X-7223253Y-7119643D02*
G02X-7254241Y-7088662I-5J30983D01*
G01X-6900795Y-6952633D02*
G01X-6900795Y-6872635D01*
G01X-6900840Y-7008678D02*
G01X-6900840Y-7088675D01*
G01X-6758826Y-6952633D02*
G01X-6758826Y-6872635D01*
G01X-6758875Y-7008678D02*
G01X-6758875Y-7088675D01*
G01X-6869812Y-6841660D02*
G01X-6789807Y-6841660D01*
G01X-6789860Y-7119653D02*
G01X-6869863Y-7119653D01*
G01X-6758875Y-7088670D02*
G02X-6789860Y-7119653I-30983J0D01*
G01X-6869857Y-7119653D02*
G02X-6900840Y-7088670I0J30983D01*
G01X-6900795Y-6872641D02*
G02X-6869812Y-6841660I30983J-3D01*
G01X-6789814Y-6841660D02*
G02X-6758826Y-6872641I5J-30983D01*
G01X-7030557Y-5598081D02*
G01X-7030557Y-5518084D01*
G01X-7030603Y-5654126D02*
G01X-7030603Y-5734124D01*
G01X-6888589Y-5598081D02*
G01X-6888589Y-5518084D01*
G01X-6888637Y-5654126D02*
G01X-6888637Y-5734124D01*
G01X-6999575Y-5487109D02*
G01X-6919570Y-5487109D01*
G01X-6919623Y-5765101D02*
G01X-6999625Y-5765101D01*
G01X-6888637Y-5734119D02*
G02X-6919623Y-5765101I-30983J0D01*
G01X-6999620Y-5765101D02*
G02X-7030603Y-5734119I0J30983D01*
G01X-7030557Y-5518089D02*
G02X-6999575Y-5487109I30983J-3D01*
G01X-6919577Y-5487109D02*
G02X-6888589Y-5518089I5J-30983D01*
G01X-7934050Y-7750113D02*
G01X-8014047Y-7750113D01*
G01X-7878005Y-7750158D02*
G01X-7798008Y-7750158D01*
G01X-7934050Y-7608145D02*
G01X-8014047Y-7608145D01*
G01X-7878005Y-7608193D02*
G01X-7798008Y-7608193D01*
G01X-8045023Y-7719130D02*
G01X-8045023Y-7639125D01*
G01X-7767030Y-7639178D02*
G01X-7767030Y-7719181D01*
G01X-7798013Y-7608193D02*
G02X-7767030Y-7639178I0J-30983D01*
G01X-7767030Y-7719176D02*
G02X-7798013Y-7750158I-30983J0D01*
G01X-8014042Y-7750113D02*
G02X-8045023Y-7719130I3J30983D01*
G01X-8045023Y-7639133D02*
G02X-8014042Y-7608145I30983J5D01*
G01X-6414889Y-7143137D02*
G01X-6414889Y-7063139D01*
G01X-6414935Y-7199182D02*
G01X-6414935Y-7279179D01*
G01X-6272921Y-7143137D02*
G01X-6272921Y-7063139D01*
G01X-6272969Y-7199182D02*
G01X-6272969Y-7279179D01*
G01X-6383906Y-7032164D02*
G01X-6303901Y-7032164D01*
G01X-6303954Y-7310157D02*
G01X-6383957Y-7310157D01*
G01X-6272969Y-7279174D02*
G02X-6303954Y-7310157I-30983J0D01*
G01X-6383952Y-7310157D02*
G02X-6414935Y-7279174I0J30983D01*
G01X-6414889Y-7063144D02*
G02X-6383906Y-7032164I30983J-3D01*
G01X-6303909Y-7032164D02*
G02X-6272921Y-7063144I5J-30983D01*
G01X-5566835Y-7033471D02*
G01X-5566835Y-6953474D01*
G01X-5566881Y-7089516D02*
G01X-5566881Y-7169513D01*
G01X-5424867Y-7033471D02*
G01X-5424867Y-6953474D01*
G01X-5424915Y-7089516D02*
G01X-5424915Y-7169513D01*
G01X-5535852Y-6922498D02*
G01X-5455847Y-6922498D01*
G01X-5455901Y-7200491D02*
G01X-5535903Y-7200491D01*
G01X-5424915Y-7169508D02*
G02X-5455901Y-7200491I-30983J0D01*
G01X-5535898Y-7200491D02*
G02X-5566881Y-7169508I0J30983D01*
G01X-5566835Y-6953479D02*
G02X-5535852Y-6922498I30983J-3D01*
G01X-5455855Y-6922498D02*
G02X-5424867Y-6953479I5J-30983D01*
G01X-7960983Y-6952640D02*
G01X-7960983Y-6872643D01*
G01X-7961029Y-7008685D02*
G01X-7961029Y-7088683D01*
G01X-7819015Y-6952640D02*
G01X-7819015Y-6872643D01*
G01X-7819063Y-7008685D02*
G01X-7819063Y-7088683D01*
G01X-7930000Y-6841668D02*
G01X-7849995Y-6841668D01*
G01X-7850049Y-7119661D02*
G01X-7930051Y-7119661D01*
G01X-7819063Y-7088678D02*
G02X-7850049Y-7119661I-30983J0D01*
G01X-7930046Y-7119661D02*
G02X-7961029Y-7088678I0J30983D01*
G01X-7960983Y-6872648D02*
G02X-7930000Y-6841668I30983J-3D01*
G01X-7850003Y-6841668D02*
G02X-7819015Y-6872648I5J-30983D01*
G01X-8076374Y-7078676D02*
G01X-8076374Y-7158674D01*
G01X-8076328Y-7022631D02*
G01X-8076328Y-6942634D01*
G01X-8218342Y-7078676D02*
G01X-8218342Y-7158674D01*
G01X-8218294Y-7022631D02*
G01X-8218294Y-6942634D01*
G01X-8107357Y-7189649D02*
G01X-8187362Y-7189649D01*
G01X-8187308Y-6911656D02*
G01X-8107306Y-6911656D01*
G01X-8218294Y-6942639D02*
G02X-8187308Y-6911656I30983J0D01*
G01X-8107311Y-6911656D02*
G02X-8076328Y-6942639I0J-30983D01*
G01X-8076374Y-7158669D02*
G02X-8107357Y-7189649I-30983J3D01*
G01X-8187354Y-7189649D02*
G02X-8218342Y-7158669I-5J30983D01*
G01X-5504343Y-2364819D02*
G01X-5504343Y-2444816D01*
G01X-5504297Y-2308774D02*
G01X-5504297Y-2228776D01*
G01X-5646311Y-2364819D02*
G01X-5646311Y-2444816D01*
G01X-5646263Y-2308774D02*
G01X-5646263Y-2228776D01*
G01X-5535325Y-2475791D02*
G01X-5615330Y-2475791D01*
G01X-5615277Y-2197798D02*
G01X-5535275Y-2197798D01*
G01X-5646263Y-2228781D02*
G02X-5615277Y-2197798I30983J0D01*
G01X-5535280Y-2197798D02*
G02X-5504297Y-2228781I0J-30983D01*
G01X-5504343Y-2444811D02*
G02X-5535325Y-2475791I-30983J3D01*
G01X-5615323Y-2475791D02*
G02X-5646311Y-2444811I-5J30983D01*
G01X-2064857Y-5045479D02*
G01X-2064857Y-4965482D01*
G01X-2064903Y-5101524D02*
G01X-2064903Y-5181521D01*
G01X-1922889Y-5045479D02*
G01X-1922889Y-4965482D01*
G01X-1922937Y-5101524D02*
G01X-1922937Y-5181521D01*
G01X-2033875Y-4934506D02*
G01X-1953870Y-4934506D01*
G01X-1953923Y-5212499D02*
G01X-2033925Y-5212499D01*
G01X-1922937Y-5181516D02*
G02X-1953923Y-5212499I-30983J0D01*
G01X-2033920Y-5212499D02*
G02X-2064903Y-5181516I0J30983D01*
G01X-2064857Y-4965487D02*
G02X-2033875Y-4934506I30983J-3D01*
G01X-1953877Y-4934506D02*
G02X-1922889Y-4965487I5J-30983D01*
G01X-3584019Y-5265257D02*
G01X-3664016Y-5265257D01*
G01X-3527974Y-5265303D02*
G01X-3447976Y-5265303D01*
G01X-3584019Y-5123289D02*
G01X-3664016Y-5123289D01*
G01X-3527974Y-5123337D02*
G01X-3447976Y-5123337D01*
G01X-3694991Y-5234275D02*
G01X-3694991Y-5154270D01*
G01X-3416998Y-5154323D02*
G01X-3416998Y-5234325D01*
G01X-3447981Y-5123337D02*
G02X-3416998Y-5154323I0J-30983D01*
G01X-3416998Y-5234320D02*
G02X-3447981Y-5265303I-30983J0D01*
G01X-3664011Y-5265257D02*
G02X-3694991Y-5234275I3J30983D01*
G01X-3694991Y-5154277D02*
G02X-3664011Y-5123289I30983J5D01*
G01X-3584019Y-5062057D02*
G01X-3664016Y-5062057D01*
G01X-3527974Y-5062103D02*
G01X-3447976Y-5062103D01*
G01X-3584019Y-4920089D02*
G01X-3664016Y-4920089D01*
G01X-3527974Y-4920137D02*
G01X-3447976Y-4920137D01*
G01X-3694991Y-5031075D02*
G01X-3694991Y-4951070D01*
G01X-3416998Y-4951123D02*
G01X-3416998Y-5031125D01*
G01X-3447981Y-4920137D02*
G02X-3416998Y-4951123I0J-30983D01*
G01X-3416998Y-5031120D02*
G02X-3447981Y-5062103I-30983J0D01*
G01X-3664011Y-5062057D02*
G02X-3694991Y-5031075I3J30983D01*
G01X-3694991Y-4951077D02*
G02X-3664011Y-4920089I30983J5D01*
G01X-982541Y-6093027D02*
G01X-982541Y-6013030D01*
G01X-982586Y-6149072D02*
G01X-982586Y-6229069D01*
G01X-840572Y-6093027D02*
G01X-840572Y-6013030D01*
G01X-840621Y-6149072D02*
G01X-840621Y-6229069D01*
G01X-951558Y-5982054D02*
G01X-871553Y-5982054D01*
G01X-871606Y-6260047D02*
G01X-951608Y-6260047D01*
G01X-840621Y-6229064D02*
G02X-871606Y-6260047I-30983J0D01*
G01X-951603Y-6260047D02*
G02X-982586Y-6229064I0J30983D01*
G01X-982541Y-6013035D02*
G02X-951558Y-5982054I30983J-3D01*
G01X-871560Y-5982054D02*
G02X-840572Y-6013035I5J-30983D01*
G01X-9673402Y-8774298D02*
G01X-9173403Y-8774298D01*
G01X-9673402Y-8697412D02*
G01X-9673402Y-8774298D01*
G01X-9173403Y-8697412D02*
G01X-9173403Y-8774298D01*
G01X-9173403Y-7456302D02*
G01X-9673402Y-7456302D01*
G01X-9673402Y-8443415D02*
G01X-9673402Y-8549185D01*
G01X-9673402Y-8189415D02*
G01X-9673402Y-8295185D01*
G01X-9673402Y-7935415D02*
G01X-9673402Y-8041185D01*
G01X-9673402Y-7681415D02*
G01X-9673402Y-7787185D01*
G01X-9673402Y-7456302D02*
G01X-9673402Y-7533185D01*
G01X-9173403Y-8443415D02*
G01X-9173403Y-8549185D01*
G01X-9173403Y-8189415D02*
G01X-9173403Y-8295185D01*
G01X-9173403Y-7935415D02*
G01X-9173403Y-8041185D01*
G01X-9173403Y-7681415D02*
G01X-9173403Y-7787185D01*
G01X-9173403Y-7456302D02*
G01X-9173403Y-7533185D01*
G01X-7327900Y-9194800D02*
G01X-7327900Y-9220200D01*
G01X-6591300Y-9194800D02*
G01X-6591300Y-9220200D01*
G01X-7327900Y-9194800D02*
G01X-7213600Y-9194800D01*
G01X-6832600Y-9194800D02*
G01X-7086600Y-9194800D01*
G01X-6591300Y-9194800D02*
G01X-6692900Y-9194800D01*
G01X-6591300Y-9334500D02*
G01X-6591300Y-9779000D01*
G01X-6591300Y-9779000D02*
G01X-7327900Y-9779000D01*
G01X-7327900Y-9779000D02*
G01X-7327900Y-9334500D01*
G54D10*
G01X-5273353Y-6931744D02*
G01X-5258118Y-6916334D01*
G01X-5258118Y-6916334D02*
G01X-5156475Y-6916334D01*
G01X-5156475Y-6916334D02*
G01X-5143219Y-6931744D01*
G01X-5143219Y-7185744D02*
G01X-5158319Y-7201159D01*
G01X-5158319Y-7201159D02*
G01X-5259962Y-7201159D01*
G01X-5259962Y-7201159D02*
G01X-5273218Y-7185744D01*
G54D12*
G01X-5143219Y-6931543D02*
G01X-5143219Y-7007743D01*
G01X-5273218Y-7185950D02*
G01X-5273218Y-7109750D01*
G01X-5273218Y-6931543D02*
G01X-5273218Y-7007743D01*
G01X-5143219Y-7185950D02*
G01X-5143219Y-7109750D01*
G54D10*
G01X-7791731Y-7360020D02*
G01X-7776321Y-7375254D01*
G01X-7776321Y-7375254D02*
G01X-7776321Y-7476898D01*
G01X-7776321Y-7476898D02*
G01X-7791731Y-7490154D01*
G01X-8045731Y-7490154D02*
G01X-8061147Y-7475054D01*
G01X-8061147Y-7475054D02*
G01X-8061147Y-7373410D01*
G01X-8061147Y-7373410D02*
G01X-8045731Y-7360154D01*
G54D12*
G01X-7791531Y-7490154D02*
G01X-7867731Y-7490154D01*
G01X-8045937Y-7360154D02*
G01X-7969737Y-7360154D01*
G01X-7791531Y-7360154D02*
G01X-7867731Y-7360154D01*
G01X-8045937Y-7490154D02*
G01X-7969737Y-7490154D01*
G54D11*
G01X-8789200Y-6404671D02*
G01X-8829200Y-6364671D01*
G01X-8829200Y-6364671D02*
G01X-8839200Y-6354671D01*
G01X-8839200Y-6354671D02*
G01X-8849225Y-6364671D01*
G01X-8849225Y-6364671D02*
G01X-8889225Y-6404671D01*
G01X-8789200Y-6404671D02*
G01X-8889225Y-6404671D01*
G01X-8940927Y-6428994D02*
G01X-8940927Y-6583934D01*
G01X-8940927Y-6583934D02*
G01X-8737727Y-6583934D01*
G01X-8737727Y-6583934D02*
G01X-8737727Y-6428994D01*
G01X-8943467Y-6350254D02*
G01X-8943467Y-6202934D01*
G01X-8943467Y-6202934D02*
G01X-8902827Y-6162294D01*
G01X-8902827Y-6162294D02*
G01X-8775827Y-6162294D01*
G01X-8775827Y-6162294D02*
G01X-8737727Y-6200394D01*
G01X-8737727Y-6200394D02*
G01X-8737727Y-6352794D01*
G01X-8793565Y-5837532D02*
G01X-8833565Y-5797532D01*
G01X-8833565Y-5797532D02*
G01X-8843564Y-5787532D01*
G01X-8843564Y-5787532D02*
G01X-8853590Y-5797532D01*
G01X-8853590Y-5797532D02*
G01X-8893590Y-5837532D01*
G01X-8793565Y-5837532D02*
G01X-8893590Y-5837532D01*
G01X-8945291Y-5861855D02*
G01X-8945291Y-6016795D01*
G01X-8945291Y-6016795D02*
G01X-8742091Y-6016795D01*
G01X-8742091Y-6016795D02*
G01X-8742091Y-5861855D01*
G01X-8947831Y-5783115D02*
G01X-8947831Y-5635795D01*
G01X-8947831Y-5635795D02*
G01X-8907191Y-5595155D01*
G01X-8907191Y-5595155D02*
G01X-8780191Y-5595155D01*
G01X-8780191Y-5595155D02*
G01X-8742091Y-5633255D01*
G01X-8742091Y-5633255D02*
G01X-8742091Y-5785655D01*
G54D10*
G01X-8003974Y-6259316D02*
G01X-7908086Y-6259316D01*
G01X-7908086Y-6259316D02*
G01X-7908086Y-6127195D01*
G01X-7908086Y-6127195D02*
G01X-8003974Y-6127195D01*
G01X-8089216Y-6259316D02*
G01X-8185104Y-6259316D01*
G01X-8185104Y-6259316D02*
G01X-8185104Y-6127195D01*
G01X-8185104Y-6127195D02*
G01X-8089216Y-6127195D01*
G01X-7463501Y-6177092D02*
G01X-7463501Y-6272980D01*
G01X-7463501Y-6272980D02*
G01X-7331381Y-6272980D01*
G01X-7331381Y-6272980D02*
G01X-7331381Y-6177092D01*
G01X-7463501Y-6091850D02*
G01X-7463501Y-5995962D01*
G01X-7463501Y-5995962D02*
G01X-7331381Y-5995962D01*
G01X-7331381Y-5995962D02*
G01X-7331381Y-6091850D01*
G01X-3355360Y-4957521D02*
G01X-3355360Y-5053409D01*
G01X-3355360Y-5053409D02*
G01X-3223240Y-5053409D01*
G01X-3223240Y-5053409D02*
G01X-3223240Y-4957521D01*
G01X-3355360Y-4872279D02*
G01X-3355360Y-4776391D01*
G01X-3355360Y-4776391D02*
G01X-3223240Y-4776391D01*
G01X-3223240Y-4776391D02*
G01X-3223240Y-4872279D01*
G01X-3223240Y-5227879D02*
G01X-3223240Y-5131991D01*
G01X-3223240Y-5131991D02*
G01X-3355360Y-5131991D01*
G01X-3355360Y-5131991D02*
G01X-3355360Y-5227879D01*
G01X-3223240Y-5313121D02*
G01X-3223240Y-5409009D01*
G01X-3223240Y-5409009D02*
G01X-3355360Y-5409009D01*
G01X-3355360Y-5409009D02*
G01X-3355360Y-5313121D01*
G01X-4376979Y-5920760D02*
G01X-4281091Y-5920760D01*
G01X-4281091Y-5920760D02*
G01X-4281091Y-5788640D01*
G01X-4281091Y-5788640D02*
G01X-4376979Y-5788640D01*
G01X-4462221Y-5920760D02*
G01X-4558109Y-5920760D01*
G01X-4558109Y-5920760D02*
G01X-4558109Y-5788640D01*
G01X-4558109Y-5788640D02*
G01X-4462221Y-5788640D01*
G01X-2118340Y-4211879D02*
G01X-2118340Y-4115991D01*
G01X-2118340Y-4115991D02*
G01X-2250460Y-4115991D01*
G01X-2250460Y-4115991D02*
G01X-2250460Y-4211879D01*
G01X-2118340Y-4297121D02*
G01X-2118340Y-4393009D01*
G01X-2118340Y-4393009D02*
G01X-2250460Y-4393009D01*
G01X-2250460Y-4393009D02*
G01X-2250460Y-4297121D01*
G01X-2880340Y-4224579D02*
G01X-2880340Y-4128691D01*
G01X-2880340Y-4128691D02*
G01X-3012460Y-4128691D01*
G01X-3012460Y-4128691D02*
G01X-3012460Y-4224579D01*
G01X-2880340Y-4309821D02*
G01X-2880340Y-4405709D01*
G01X-2880340Y-4405709D02*
G01X-3012460Y-4405709D01*
G01X-3012460Y-4405709D02*
G01X-3012460Y-4309821D01*
G01X-810240Y-3640379D02*
G01X-810240Y-3544491D01*
G01X-810240Y-3544491D02*
G01X-942360Y-3544491D01*
G01X-942360Y-3544491D02*
G01X-942360Y-3640379D01*
G01X-810240Y-3725621D02*
G01X-810240Y-3821509D01*
G01X-810240Y-3821509D02*
G01X-942360Y-3821509D01*
G01X-942360Y-3821509D02*
G01X-942360Y-3725621D01*
G01X-1148337Y-6558219D02*
G01X-1148337Y-6654107D01*
G01X-1148337Y-6654107D02*
G01X-1016216Y-6654107D01*
G01X-1016216Y-6654107D02*
G01X-1016216Y-6558219D01*
G01X-1148337Y-6472977D02*
G01X-1148337Y-6377089D01*
G01X-1148337Y-6377089D02*
G01X-1016216Y-6377089D01*
G01X-1016216Y-6377089D02*
G01X-1016216Y-6472977D01*
G54D11*
G01X-5913387Y-9583699D02*
G01X-5913387Y-8983701D01*
G01X-5913387Y-8983701D02*
G01X-5313388Y-8983701D01*
G01X-5313388Y-8983701D02*
G01X-5313388Y-9583699D01*
G01X-5313388Y-9583699D02*
G01X-5913387Y-9583699D01*
G01X-4500613Y-8983701D02*
G01X-4500613Y-9583699D01*
G01X-4500613Y-9583699D02*
G01X-5100612Y-9583699D01*
G01X-5100612Y-9583699D02*
G01X-5100612Y-8983701D01*
G01X-5100612Y-8983701D02*
G01X-4500613Y-8983701D01*
G54D13*
G01X-7700324Y-6710874D02*
G01X-7655340Y-6710874D01*
G01X-7655340Y-6710874D02*
G01X-7655340Y-6665891D01*
G01X-7700324Y-6365892D02*
G01X-7655340Y-6365892D01*
G01X-7655340Y-6365892D02*
G01X-7655340Y-6410875D01*
G01X-8000323Y-6410875D02*
G01X-8000323Y-6365892D01*
G01X-8000323Y-6365892D02*
G01X-7955340Y-6365892D01*
G01X-7955340Y-6710874D02*
G01X-8000323Y-6710874D01*
G01X-8000323Y-6710874D02*
G01X-8000323Y-6665891D01*
G54D14*
G01X-8035350Y-6385983D02*
G03X-8065352Y-6386110I-15001J-127D01*
G03X-8035350Y-6386237I15001J0D01*
G54D10*
G01X-6275263Y-7440736D02*
G01X-6275263Y-7705978D01*
G01X-6540505Y-7705978D02*
G01X-6540505Y-7440736D01*
G54D11*
G01X-872277Y-6406648D02*
G01X-823890Y-6406648D01*
G01X-742269Y-6546646D02*
G01X-733080Y-6546646D01*
G01X-963082Y-6546646D02*
G01X-953897Y-6546646D01*
G01X-742277Y-6406648D02*
G01X-733080Y-6406648D01*
G01X-963082Y-6406648D02*
G01X-953892Y-6406648D01*
G01X-733080Y-6406648D02*
G01X-733080Y-6546646D01*
G01X-963082Y-6406648D02*
G01X-963082Y-6546646D01*
G01X-7625540Y-4300601D02*
G01X-7625540Y-4300604D01*
G01X-7625540Y-4300604D02*
G01X-7712418Y-4387482D01*
G01X-6712420Y-5300599D02*
G01X-6712420Y-5213721D01*
G01X-6712420Y-5300599D02*
G01X-6799301Y-5300599D01*
G01X-6799301Y-4300601D02*
G01X-6712420Y-4300601D01*
G01X-6712420Y-4300601D02*
G01X-6712420Y-4387482D01*
G01X-7712418Y-4387482D02*
G01X-7712418Y-4300601D01*
G01X-7712418Y-4300601D02*
G01X-7625540Y-4300601D01*
G01X-7625540Y-5300599D02*
G01X-7712418Y-5300599D01*
G01X-7712418Y-5300599D02*
G01X-7712418Y-5213718D01*
G54D13*
G01X-6787418Y-4375600D02*
G01X-7637419Y-4375600D01*
G01X-7637419Y-4375600D02*
G01X-7637419Y-5225600D01*
G01X-7637419Y-5225600D02*
G01X-6787418Y-5225600D01*
G01X-6787418Y-5225600D02*
G01X-6787418Y-4375600D01*
G54D15*
G01X-7514933Y-4470654D02*
G03X-7574932Y-4470908I-29999J-254D01*
G03X-7514933Y-4471162I30000J0D01*
G54D14*
G01X-7761417Y-4364474D02*
G03X-7791419Y-4364601I-15001J-127D01*
G03X-7761417Y-4364728I15001J0D01*
G36*
G01X-7712418Y-4387482D02*
G01X-7712418Y-4300601D01*
G01X-7625540Y-4300601D01*
G01X-7712418Y-4387479D01*
G01X-7712418Y-4387482D01*
G37*
G54D11*
G01X-9534216Y-6927850D02*
G01X-9534216Y-6953250D01*
G01X-9534216Y-6953250D02*
G01X-9795184Y-6953250D01*
G01X-9795184Y-6953250D02*
G01X-9795184Y-6927850D01*
G01X-9534216Y-3371850D02*
G01X-9534216Y-3333750D01*
G01X-9534216Y-3333750D02*
G01X-9795184Y-3333750D01*
G01X-9795184Y-3333750D02*
G01X-9795184Y-3371850D01*
G01X-9534216Y-3371850D02*
G01X-9534216Y-6927850D01*
G01X-9534216Y-3624240D02*
G01X-9795184Y-3624240D01*
G01X-9795184Y-3371850D02*
G01X-9795184Y-6927850D01*
G01X-9228298Y-8981201D02*
G01X-9104300Y-8981201D01*
G01X-9104300Y-8981201D02*
G01X-9166802Y-9042202D01*
G01X-9166802Y-9042202D02*
G01X-9228298Y-8980698D01*
G01X-9324299Y-9390530D02*
G01X-8430301Y-9390530D01*
G01X-8430301Y-9085659D02*
G01X-8430301Y-9073200D01*
G01X-8430301Y-9073200D02*
G01X-9322298Y-9073200D01*
G01X-8430301Y-9458658D02*
G01X-8430301Y-9368762D01*
G01X-9324299Y-9671759D02*
G01X-9324299Y-9990198D01*
G01X-9324299Y-9990198D02*
G01X-8430301Y-9990198D01*
G01X-8430301Y-9990198D02*
G01X-8430301Y-9671759D01*
G01X-9324299Y-9368762D02*
G01X-9324299Y-9458658D01*
G01X-9324299Y-9073200D02*
G01X-9324299Y-9085659D01*
G36*
G01X-9166802Y-9042202D02*
G01X-9228298Y-8981201D01*
G01X-9105801Y-8981201D01*
G01X-9166802Y-9042202D01*
G37*
G54D17*
G01X-8089806Y-4648200D02*
G01X-8089806Y-4643064D01*
G01X-8090276Y-4724400D02*
G01X-8090276Y-4729536D01*
G01X-8128000Y-4648200D02*
G01X-8051800Y-4648200D01*
G01X-8051800Y-4724400D02*
G01X-8128000Y-4724400D01*
G54D11*
G01X-7912100Y-4432300D02*
G01X-7912100Y-4940300D01*
G01X-8255000Y-4940300D01*
G01X-8255000Y-4432300D01*
G01X-7912100Y-4432300D01*
G54D17*
G01X-8058150Y-4667250D02*
G01X-8058150Y-4705350D01*
G01X-8121650Y-4705350D01*
G01X-8121650Y-4667250D01*
G01X-8058150Y-4667250D01*
G54D10*
G01X-4955560Y-3052521D02*
G01X-4955560Y-3148409D01*
G01X-4955560Y-3148409D02*
G01X-4823440Y-3148409D01*
G01X-4823440Y-3148409D02*
G01X-4823440Y-3052521D01*
G01X-4955560Y-2967279D02*
G01X-4955560Y-2871391D01*
G01X-4955560Y-2871391D02*
G01X-4823440Y-2871391D01*
G01X-4823440Y-2871391D02*
G01X-4823440Y-2967279D01*
G54D11*
G01X-5657703Y-2668206D02*
G01X-5657703Y-2716593D01*
G01X-5797700Y-2798214D02*
G01X-5797700Y-2807404D01*
G01X-5797700Y-2577401D02*
G01X-5797700Y-2586586D01*
G01X-5657703Y-2798206D02*
G01X-5657703Y-2807404D01*
G01X-5657703Y-2577401D02*
G01X-5657703Y-2586591D01*
G01X-5657703Y-2807404D02*
G01X-5797700Y-2807404D01*
G01X-5657703Y-2577401D02*
G01X-5797700Y-2577401D01*
G54D10*
G01X-4365656Y-5381156D02*
G01X-4415227Y-5381156D01*
G01X-4415227Y-5381156D02*
G01X-4415227Y-5331585D01*
G01X-4365656Y-4865917D02*
G01X-4415227Y-4865917D01*
G01X-4415227Y-4865917D02*
G01X-4415227Y-4915487D01*
G01X-3949559Y-5381156D02*
G01X-3899988Y-5381156D01*
G01X-3899988Y-5381156D02*
G01X-3899988Y-5331585D01*
G01X-3949559Y-4865917D02*
G01X-3899988Y-4865917D01*
G01X-3899988Y-4865917D02*
G01X-3899988Y-4915487D01*
G01X-3940468Y-5340676D02*
G01X-4374747Y-5340676D01*
G01X-4374747Y-5340676D02*
G01X-4374747Y-4906397D01*
G01X-4374747Y-4906397D02*
G01X-3940468Y-4906397D01*
G01X-3940468Y-4906397D02*
G01X-3940468Y-5340676D01*
G54D11*
G01X-4261957Y-4467781D02*
G01X-4261957Y-4387784D01*
G01X-4262003Y-4523826D02*
G01X-4262003Y-4603824D01*
G01X-4119989Y-4467781D02*
G01X-4119989Y-4387784D01*
G01X-4120037Y-4523826D02*
G01X-4120037Y-4603824D01*
G01X-4230975Y-4356809D02*
G01X-4150970Y-4356809D01*
G01X-4151023Y-4634801D02*
G01X-4231025Y-4634801D01*
G01X-4120037Y-4603819D02*
G02X-4151023Y-4634801I-30983J0D01*
G01X-4231020Y-4634801D02*
G02X-4262003Y-4603819I0J30983D01*
G01X-4261957Y-4387789D02*
G02X-4230975Y-4356809I30983J-3D01*
G01X-4150977Y-4356809D02*
G02X-4119989Y-4387789I5J-30983D01*
G01X-3646984Y-4506475D02*
G01X-3566986Y-4506475D01*
G01X-3703029Y-4506429D02*
G01X-3783026Y-4506429D01*
G01X-3646984Y-4648443D02*
G01X-3566986Y-4648443D01*
G01X-3703029Y-4648395D02*
G01X-3783026Y-4648395D01*
G01X-3536011Y-4537458D02*
G01X-3536011Y-4617463D01*
G01X-3814004Y-4617409D02*
G01X-3814004Y-4537407D01*
G01X-3783021Y-4648395D02*
G02X-3814004Y-4617409I0J30983D01*
G01X-3814004Y-4537412D02*
G02X-3783021Y-4506429I30983J0D01*
G01X-3566991Y-4506475D02*
G02X-3536011Y-4537458I-3J-30983D01*
G01X-3536011Y-4617455D02*
G02X-3566991Y-4648443I-30983J-5D01*
G01X-6710843Y-5654119D02*
G01X-6710843Y-5734116D01*
G01X-6710797Y-5598074D02*
G01X-6710797Y-5518076D01*
G01X-6852811Y-5654119D02*
G01X-6852811Y-5734116D01*
G01X-6852763Y-5598074D02*
G01X-6852763Y-5518076D01*
G01X-6741825Y-5765091D02*
G01X-6821830Y-5765091D01*
G01X-6821777Y-5487098D02*
G01X-6741775Y-5487098D01*
G01X-6852763Y-5518081D02*
G02X-6821777Y-5487098I30983J0D01*
G01X-6741780Y-5487098D02*
G02X-6710797Y-5518081I0J-30983D01*
G01X-6710843Y-5734111D02*
G02X-6741825Y-5765091I-30983J3D01*
G01X-6821823Y-5765091D02*
G02X-6852811Y-5734111I-5J30983D01*
G01X-6347376Y-4361339D02*
G01X-6267379Y-4361339D01*
G01X-6403421Y-4361293D02*
G01X-6483419Y-4361293D01*
G01X-6347376Y-4503307D02*
G01X-6267379Y-4503307D01*
G01X-6403421Y-4503259D02*
G01X-6483419Y-4503259D01*
G01X-6236404Y-4392322D02*
G01X-6236404Y-4472327D01*
G01X-6514396Y-4472273D02*
G01X-6514396Y-4392271D01*
G01X-6483413Y-4503259D02*
G02X-6514396Y-4472273I0J30983D01*
G01X-6514396Y-4392276D02*
G02X-6483413Y-4361293I30983J0D01*
G01X-6267384Y-4361339D02*
G02X-6236404Y-4392322I-3J-30983D01*
G01X-6236404Y-4472319D02*
G02X-6267384Y-4503307I-30983J-5D01*
G01X-7614757Y-3908981D02*
G01X-7614757Y-3828984D01*
G01X-7614803Y-3965026D02*
G01X-7614803Y-4045024D01*
G01X-7472789Y-3908981D02*
G01X-7472789Y-3828984D01*
G01X-7472837Y-3965026D02*
G01X-7472837Y-4045024D01*
G01X-7583775Y-3798009D02*
G01X-7503770Y-3798009D01*
G01X-7503823Y-4076001D02*
G01X-7583825Y-4076001D01*
G01X-7472837Y-4045019D02*
G02X-7503823Y-4076001I-30983J0D01*
G01X-7583820Y-4076001D02*
G02X-7614803Y-4045019I0J30983D01*
G01X-7614757Y-3828989D02*
G02X-7583775Y-3798009I30983J-3D01*
G01X-7503777Y-3798009D02*
G02X-7472789Y-3828989I5J-30983D01*
G01X-7208357Y-5598081D02*
G01X-7208357Y-5518084D01*
G01X-7208403Y-5654126D02*
G01X-7208403Y-5734124D01*
G01X-7066389Y-5598081D02*
G01X-7066389Y-5518084D01*
G01X-7066437Y-5654126D02*
G01X-7066437Y-5734124D01*
G01X-7177375Y-5487109D02*
G01X-7097370Y-5487109D01*
G01X-7097423Y-5765101D02*
G01X-7177425Y-5765101D01*
G01X-7066437Y-5734119D02*
G02X-7097423Y-5765101I-30983J0D01*
G01X-7177420Y-5765101D02*
G02X-7208403Y-5734119I0J30983D01*
G01X-7208357Y-5518089D02*
G02X-7177375Y-5487109I30983J-3D01*
G01X-7097377Y-5487109D02*
G02X-7066389Y-5518089I5J-30983D01*
G01X-7965519Y-5417657D02*
G01X-8045516Y-5417657D01*
G01X-7909474Y-5417703D02*
G01X-7829476Y-5417703D01*
G01X-7965519Y-5275689D02*
G01X-8045516Y-5275689D01*
G01X-7909474Y-5275737D02*
G01X-7829476Y-5275737D01*
G01X-8076491Y-5386675D02*
G01X-8076491Y-5306670D01*
G01X-7798498Y-5306723D02*
G01X-7798498Y-5386725D01*
G01X-7829481Y-5275737D02*
G02X-7798498Y-5306723I0J-30983D01*
G01X-7798498Y-5386720D02*
G02X-7829481Y-5417703I-30983J0D01*
G01X-8045511Y-5417657D02*
G02X-8076491Y-5386675I3J30983D01*
G01X-8076491Y-5306677D02*
G02X-8045511Y-5275689I30983J5D01*
G01X-8079819Y-5125557D02*
G01X-8159816Y-5125557D01*
G01X-8023774Y-5125603D02*
G01X-7943776Y-5125603D01*
G01X-8079819Y-4983589D02*
G01X-8159816Y-4983589D01*
G01X-8023774Y-4983637D02*
G01X-7943776Y-4983637D01*
G01X-8190791Y-5094575D02*
G01X-8190791Y-5014570D01*
G01X-7912798Y-5014623D02*
G01X-7912798Y-5094625D01*
G01X-7943781Y-4983637D02*
G02X-7912798Y-5014623I0J-30983D01*
G01X-7912798Y-5094620D02*
G02X-7943781Y-5125603I-30983J0D01*
G01X-8159811Y-5125557D02*
G02X-8190791Y-5094575I3J30983D01*
G01X-8190791Y-5014577D02*
G02X-8159811Y-4983589I30983J5D01*
G01X-3710489Y-4709679D02*
G01X-3630491Y-4709679D01*
G01X-3766534Y-4709633D02*
G01X-3846531Y-4709633D01*
G01X-3710489Y-4851647D02*
G01X-3630491Y-4851647D01*
G01X-3766534Y-4851599D02*
G01X-3846531Y-4851599D01*
G01X-3599516Y-4740662D02*
G01X-3599516Y-4820667D01*
G01X-3877509Y-4820613D02*
G01X-3877509Y-4740611D01*
G01X-3846526Y-4851599D02*
G02X-3877509Y-4820613I0J30983D01*
G01X-3877509Y-4740616D02*
G02X-3846526Y-4709633I30983J0D01*
G01X-3630496Y-4709679D02*
G02X-3599516Y-4740662I-3J-30983D01*
G01X-3599516Y-4820659D02*
G02X-3630496Y-4851647I-30983J-5D01*
G01X-2557943Y-4288716D02*
G01X-2557943Y-4368714D01*
G01X-2557897Y-4232671D02*
G01X-2557897Y-4152674D01*
G01X-2699911Y-4288716D02*
G01X-2699911Y-4368714D01*
G01X-2699863Y-4232671D02*
G01X-2699863Y-4152674D01*
G01X-2588925Y-4399689D02*
G01X-2668930Y-4399689D01*
G01X-2668877Y-4121696D02*
G01X-2588875Y-4121696D01*
G01X-2699863Y-4152679D02*
G02X-2668877Y-4121696I30983J0D01*
G01X-2588880Y-4121696D02*
G02X-2557897Y-4152679I0J-30983D01*
G01X-2557943Y-4368709D02*
G02X-2588925Y-4399689I-30983J3D01*
G01X-2668923Y-4399689D02*
G02X-2699911Y-4368709I-5J30983D01*
G01X-4012665Y-5717817D02*
G01X-4012665Y-5637820D01*
G01X-4012711Y-5773862D02*
G01X-4012711Y-5853860D01*
G01X-3870697Y-5717817D02*
G01X-3870697Y-5637820D01*
G01X-3870745Y-5773862D02*
G01X-3870745Y-5853860D01*
G01X-3981682Y-5606845D02*
G01X-3901677Y-5606845D01*
G01X-3901730Y-5884838D02*
G01X-3981733Y-5884838D01*
G01X-3870745Y-5853855D02*
G02X-3901730Y-5884838I-30983J0D01*
G01X-3981728Y-5884838D02*
G02X-4012711Y-5853855I0J30983D01*
G01X-4012665Y-5637825D02*
G02X-3981682Y-5606845I30983J-3D01*
G01X-3901685Y-5606845D02*
G02X-3870697Y-5637825I5J-30983D01*
G01X-7891943Y-3977719D02*
G01X-7891943Y-4057716D01*
G01X-7891897Y-3921674D02*
G01X-7891897Y-3841676D01*
G01X-8033911Y-3977719D02*
G01X-8033911Y-4057716D01*
G01X-8033863Y-3921674D02*
G01X-8033863Y-3841676D01*
G01X-7922925Y-4088691D02*
G01X-8002930Y-4088691D01*
G01X-8002877Y-3810698D02*
G01X-7922875Y-3810698D01*
G01X-8033863Y-3841681D02*
G02X-8002877Y-3810698I30983J0D01*
G01X-7922880Y-3810698D02*
G02X-7891897Y-3841681I0J-30983D01*
G01X-7891943Y-4057711D02*
G02X-7922925Y-4088691I-30983J3D01*
G01X-8002923Y-4088691D02*
G02X-8033911Y-4057711I-5J30983D01*
G01X-8108941Y-3990415D02*
G01X-8108941Y-4070412D01*
G01X-8108895Y-3934370D02*
G01X-8108895Y-3854373D01*
G01X-8250909Y-3990415D02*
G01X-8250909Y-4070412D01*
G01X-8250861Y-3934370D02*
G01X-8250861Y-3854373D01*
G01X-8139924Y-4101388D02*
G01X-8219929Y-4101388D01*
G01X-8219876Y-3823395D02*
G01X-8139873Y-3823395D01*
G01X-8250861Y-3854378D02*
G02X-8219876Y-3823395I30983J0D01*
G01X-8139878Y-3823395D02*
G02X-8108895Y-3854378I0J-30983D01*
G01X-8108941Y-4070407D02*
G02X-8139924Y-4101388I-30983J3D01*
G01X-8219921Y-4101388D02*
G02X-8250909Y-4070407I-5J30983D01*
G54D10*
G01X-7862839Y-4133939D02*
G01X-7862839Y-4349661D01*
G01X-7862839Y-4349661D02*
G01X-8268559Y-4349661D01*
G01X-8268559Y-4349661D02*
G01X-8268559Y-4133939D01*
G01X-8268559Y-4133939D02*
G01X-7862839Y-4133939D01*
G01X-1587721Y-3546879D02*
G01X-1587721Y-3692121D01*
G01X-1587721Y-3692121D02*
G01X-1484559Y-3692121D01*
G01X-1282479Y-3546879D02*
G01X-1282479Y-3692121D01*
G01X-1282479Y-3692121D02*
G01X-1385641Y-3692121D01*
G01X-1480640Y-3546879D02*
G01X-1389560Y-3546879D01*
G54D11*
G01X-6590474Y-7605574D02*
G01X-6590474Y-7685571D01*
G01X-6590428Y-7549529D02*
G01X-6590428Y-7469532D01*
G01X-6732442Y-7605574D02*
G01X-6732442Y-7685571D01*
G01X-6732394Y-7549529D02*
G01X-6732394Y-7469532D01*
G01X-6621457Y-7716547D02*
G01X-6701462Y-7716547D01*
G01X-6701408Y-7438554D02*
G01X-6621406Y-7438554D01*
G01X-6732394Y-7469537D02*
G02X-6701408Y-7438554I30983J0D01*
G01X-6621411Y-7438554D02*
G02X-6590428Y-7469537I0J-30983D01*
G01X-6590474Y-7685566D02*
G02X-6621457Y-7716547I-30983J3D01*
G01X-6701454Y-7716547D02*
G02X-6732442Y-7685566I-5J30983D01*
G01X-6211689Y-7473337D02*
G01X-6211689Y-7393339D01*
G01X-6211735Y-7529382D02*
G01X-6211735Y-7609379D01*
G01X-6069721Y-7473337D02*
G01X-6069721Y-7393339D01*
G01X-6069769Y-7529382D02*
G01X-6069769Y-7609379D01*
G01X-6180706Y-7362364D02*
G01X-6100701Y-7362364D01*
G01X-6100754Y-7640357D02*
G01X-6180757Y-7640357D01*
G01X-6069769Y-7609374D02*
G02X-6100754Y-7640357I-30983J0D01*
G01X-6180752Y-7640357D02*
G02X-6211735Y-7609374I0J30983D01*
G01X-6211689Y-7393344D02*
G02X-6180706Y-7362364I30983J-3D01*
G01X-6100709Y-7362364D02*
G02X-6069721Y-7393344I5J-30983D01*
G01X-7195657Y-7934881D02*
G01X-7195657Y-7854884D01*
G01X-7195703Y-7990926D02*
G01X-7195703Y-8070924D01*
G01X-7053689Y-7934881D02*
G01X-7053689Y-7854884D01*
G01X-7053737Y-7990926D02*
G01X-7053737Y-8070924D01*
G01X-7164675Y-7823909D02*
G01X-7084670Y-7823909D01*
G01X-7084723Y-8101901D02*
G01X-7164725Y-8101901D01*
G01X-7053737Y-8070919D02*
G02X-7084723Y-8101901I-30983J0D01*
G01X-7164720Y-8101901D02*
G02X-7195703Y-8070919I0J30983D01*
G01X-7195657Y-7854889D02*
G02X-7164675Y-7823909I30983J-3D01*
G01X-7084677Y-7823909D02*
G02X-7053689Y-7854889I5J-30983D01*
G01X-5726825Y-7084874D02*
G01X-5726825Y-7164871D01*
G01X-5726779Y-7028829D02*
G01X-5726779Y-6948832D01*
G01X-5868793Y-7084874D02*
G01X-5868793Y-7164871D01*
G01X-5868745Y-7028829D02*
G01X-5868745Y-6948832D01*
G01X-5757808Y-7195847D02*
G01X-5837813Y-7195847D01*
G01X-5837759Y-6917854D02*
G01X-5757757Y-6917854D01*
G01X-5868745Y-6948837D02*
G02X-5837759Y-6917854I30983J0D01*
G01X-5757762Y-6917854D02*
G02X-5726779Y-6948837I0J-30983D01*
G01X-5726825Y-7164866D02*
G02X-5757808Y-7195847I-30983J3D01*
G01X-5837805Y-7195847D02*
G02X-5868793Y-7164866I-5J30983D01*
G01X-4046057Y-4467781D02*
G01X-4046057Y-4387784D01*
G01X-4046103Y-4523826D02*
G01X-4046103Y-4603824D01*
G01X-3904089Y-4467781D02*
G01X-3904089Y-4387784D01*
G01X-3904137Y-4523826D02*
G01X-3904137Y-4603824D01*
G01X-4015075Y-4356809D02*
G01X-3935070Y-4356809D01*
G01X-3935123Y-4634801D02*
G01X-4015125Y-4634801D01*
G01X-3904137Y-4603819D02*
G02X-3935123Y-4634801I-30983J0D01*
G01X-4015120Y-4634801D02*
G02X-4046103Y-4603819I0J30983D01*
G01X-4046057Y-4387789D02*
G02X-4015075Y-4356809I30983J-3D01*
G01X-3935077Y-4356809D02*
G02X-3904089Y-4387789I5J-30983D01*
G01X-2471261Y-4226476D02*
G01X-2471261Y-4146479D01*
G01X-2471307Y-4282521D02*
G01X-2471307Y-4362519D01*
G01X-2329293Y-4226476D02*
G01X-2329293Y-4146479D01*
G01X-2329341Y-4282521D02*
G01X-2329341Y-4362519D01*
G01X-2440278Y-4115504D02*
G01X-2360273Y-4115504D01*
G01X-2360327Y-4393496D02*
G01X-2440329Y-4393496D01*
G01X-2329341Y-4362513D02*
G02X-2360327Y-4393496I-30983J0D01*
G01X-2440324Y-4393496D02*
G02X-2471307Y-4362513I0J30983D01*
G01X-2471261Y-4146484D02*
G02X-2440278Y-4115504I30983J-3D01*
G01X-2360281Y-4115504D02*
G02X-2329293Y-4146484I5J-30983D01*
G01X-4335943Y-4536519D02*
G01X-4335943Y-4616516D01*
G01X-4335897Y-4480474D02*
G01X-4335897Y-4400476D01*
G01X-4477911Y-4536519D02*
G01X-4477911Y-4616516D01*
G01X-4477863Y-4480474D02*
G01X-4477863Y-4400476D01*
G01X-4366925Y-4647491D02*
G01X-4446930Y-4647491D01*
G01X-4446877Y-4369498D02*
G01X-4366875Y-4369498D01*
G01X-4477863Y-4400481D02*
G02X-4446877Y-4369498I30983J0D01*
G01X-4366880Y-4369498D02*
G02X-4335897Y-4400481I0J-30983D01*
G01X-4335943Y-4616511D02*
G02X-4366925Y-4647491I-30983J3D01*
G01X-4446923Y-4647491D02*
G02X-4477911Y-4616511I-5J30983D01*
G01X-7265992Y-7359852D02*
G01X-6805988Y-7359852D01*
G01X-6805990Y-7769849D02*
G01X-6805993Y-7714850D01*
G01X-7265990Y-7769849D02*
G01X-7265992Y-7714850D01*
G01X-6805988Y-7414802D02*
G01X-6805988Y-7359938D01*
G01X-6805988Y-7769849D02*
G01X-7265992Y-7769849D01*
G01X-7265990Y-7414851D02*
G01X-7265992Y-7359852D01*
G54D10*
G01X-458780Y-6746509D02*
G01X-330286Y-6746509D01*
G01X-330286Y-6746509D02*
G01X-330286Y-6563091D01*
G01X-330286Y-6563091D02*
G01X-458780Y-6563091D01*
G01X-554020Y-6746509D02*
G01X-682513Y-6746509D01*
G01X-682513Y-6746509D02*
G01X-682513Y-6563091D01*
G01X-682513Y-6563091D02*
G01X-554020Y-6563091D01*
G01X-5781309Y-3119420D02*
G01X-5781309Y-3247913D01*
G01X-5781309Y-3247913D02*
G01X-5597891Y-3247913D01*
G01X-5597891Y-3247913D02*
G01X-5597891Y-3119420D01*
G01X-5781309Y-3024180D02*
G01X-5781309Y-2895686D01*
G01X-5781309Y-2895686D02*
G01X-5597891Y-2895686D01*
G01X-5597891Y-2895686D02*
G01X-5597891Y-3024180D01*
G54D11*
G01X-7644574Y-6163972D02*
G01X-7644574Y-6243969D01*
G01X-7644528Y-6107927D02*
G01X-7644528Y-6027929D01*
G01X-7786542Y-6163972D02*
G01X-7786542Y-6243969D01*
G01X-7786494Y-6107927D02*
G01X-7786494Y-6027929D01*
G01X-7675557Y-6274944D02*
G01X-7755562Y-6274944D01*
G01X-7755508Y-5996951D02*
G01X-7675506Y-5996951D01*
G01X-7786494Y-6027934D02*
G02X-7755508Y-5996951I30983J0D01*
G01X-7675511Y-5996951D02*
G02X-7644528Y-6027934I0J-30983D01*
G01X-7644574Y-6243964D02*
G02X-7675557Y-6274944I-30983J3D01*
G01X-7755554Y-6274944D02*
G02X-7786542Y-6243964I-5J30983D01*
G01X-7607580Y-6952633D02*
G01X-7607580Y-6872635D01*
G01X-7607626Y-7008678D02*
G01X-7607626Y-7088675D01*
G01X-7465612Y-6952633D02*
G01X-7465612Y-6872635D01*
G01X-7465660Y-7008678D02*
G01X-7465660Y-7088675D01*
G01X-7576597Y-6841660D02*
G01X-7496592Y-6841660D01*
G01X-7496646Y-7119653D02*
G01X-7576648Y-7119653D01*
G01X-7465660Y-7088670D02*
G02X-7496646Y-7119653I-30983J0D01*
G01X-7576643Y-7119653D02*
G02X-7607626Y-7088670I0J30983D01*
G01X-7607580Y-6872641D02*
G02X-7576597Y-6841660I30983J-3D01*
G01X-7496600Y-6841660D02*
G02X-7465612Y-6872641I5J-30983D01*
G01X-7525986Y-6495437D02*
G01X-7525986Y-6415439D01*
G01X-7526032Y-6551482D02*
G01X-7526032Y-6631479D01*
G01X-7384018Y-6495437D02*
G01X-7384018Y-6415439D01*
G01X-7384067Y-6551482D02*
G01X-7384067Y-6631479D01*
G01X-7495004Y-6384464D02*
G01X-7414999Y-6384464D01*
G01X-7415052Y-6662457D02*
G01X-7495054Y-6662457D01*
G01X-7384067Y-6631474D02*
G02X-7415052Y-6662457I-30983J0D01*
G01X-7495049Y-6662457D02*
G02X-7526032Y-6631474I0J30983D01*
G01X-7525986Y-6415444D02*
G02X-7495004Y-6384464I30983J-3D01*
G01X-7415006Y-6384464D02*
G02X-7384018Y-6415444I5J-30983D01*
G54D10*
G01X-7690478Y-9227515D02*
G01X-7690478Y-9131628D01*
G01X-7690478Y-9131628D02*
G01X-7822599Y-9131628D01*
G01X-7822599Y-9131628D02*
G01X-7822599Y-9227515D01*
G01X-7690478Y-9312758D02*
G01X-7690478Y-9408645D01*
G01X-7690478Y-9408645D02*
G01X-7822599Y-9408645D01*
G01X-7822599Y-9408645D02*
G01X-7822599Y-9312758D01*
G01X-8036540Y-9227515D02*
G01X-8036540Y-9131628D01*
G01X-8036540Y-9131628D02*
G01X-8168660Y-9131628D01*
G01X-8168660Y-9131628D02*
G01X-8168660Y-9227515D01*
G01X-8036540Y-9312758D02*
G01X-8036540Y-9408645D01*
G01X-8036540Y-9408645D02*
G01X-8168660Y-9408645D01*
G01X-8168660Y-9408645D02*
G01X-8168660Y-9312758D01*
G01X-6984328Y-6564269D02*
G01X-6984328Y-6468382D01*
G01X-6984328Y-6468382D02*
G01X-7116449Y-6468382D01*
G01X-7116449Y-6468382D02*
G01X-7116449Y-6564269D01*
G01X-6984328Y-6649512D02*
G01X-6984328Y-6745399D01*
G01X-6984328Y-6745399D02*
G01X-7116449Y-6745399D01*
G01X-7116449Y-6745399D02*
G01X-7116449Y-6649512D01*
G01X-8397674Y-6907016D02*
G01X-8301786Y-6907016D01*
G01X-8301786Y-6907016D02*
G01X-8301786Y-6774895D01*
G01X-8301786Y-6774895D02*
G01X-8397674Y-6774895D01*
G01X-8482916Y-6907016D02*
G01X-8578804Y-6907016D01*
G01X-8578804Y-6907016D02*
G01X-8578804Y-6774895D01*
G01X-8578804Y-6774895D02*
G01X-8482916Y-6774895D01*
G01X-8010042Y-5933460D02*
G01X-7914155Y-5933460D01*
G01X-7914155Y-5933460D02*
G01X-7914155Y-5801340D01*
G01X-7914155Y-5801340D02*
G01X-8010042Y-5801340D01*
G01X-8095285Y-5933460D02*
G01X-8191172Y-5933460D01*
G01X-8191172Y-5933460D02*
G01X-8191172Y-5801340D01*
G01X-8191172Y-5801340D02*
G01X-8095285Y-5801340D01*
G01X-8366740Y-5278679D02*
G01X-8366740Y-5182791D01*
G01X-8366740Y-5182791D02*
G01X-8498860Y-5182791D01*
G01X-8498860Y-5182791D02*
G01X-8498860Y-5278679D01*
G01X-8366740Y-5363921D02*
G01X-8366740Y-5459809D01*
G01X-8366740Y-5459809D02*
G01X-8498860Y-5459809D01*
G01X-8498860Y-5459809D02*
G01X-8498860Y-5363921D01*
G01X-6622085Y-3909040D02*
G01X-6717972Y-3909040D01*
G01X-6717972Y-3909040D02*
G01X-6717972Y-4041160D01*
G01X-6717972Y-4041160D02*
G01X-6622085Y-4041160D01*
G01X-6536842Y-3909040D02*
G01X-6440955Y-3909040D01*
G01X-6440955Y-3909040D02*
G01X-6440955Y-4041160D01*
G01X-6440955Y-4041160D02*
G01X-6536842Y-4041160D01*
G01X-7127260Y-3966921D02*
G01X-7127260Y-4062809D01*
G01X-7127260Y-4062809D02*
G01X-6995140Y-4062809D01*
G01X-6995140Y-4062809D02*
G01X-6995140Y-3966921D01*
G01X-7127260Y-3881679D02*
G01X-7127260Y-3785791D01*
G01X-7127260Y-3785791D02*
G01X-6995140Y-3785791D01*
G01X-6995140Y-3785791D02*
G01X-6995140Y-3881679D01*
G01X-6371742Y-4269760D02*
G01X-6275855Y-4269760D01*
G01X-6275855Y-4269760D02*
G01X-6275855Y-4137640D01*
G01X-6275855Y-4137640D02*
G01X-6371742Y-4137640D01*
G01X-6456985Y-4269760D02*
G01X-6552872Y-4269760D01*
G01X-6552872Y-4269760D02*
G01X-6552872Y-4137640D01*
G01X-6552872Y-4137640D02*
G01X-6456985Y-4137640D01*
G54D11*
G01X-8461927Y-4668361D02*
G01X-8541925Y-4668361D01*
G01X-8405882Y-4668407D02*
G01X-8325885Y-4668407D01*
G01X-8461927Y-4526393D02*
G01X-8541925Y-4526393D01*
G01X-8405882Y-4526441D02*
G01X-8325885Y-4526441D01*
G01X-8572900Y-4637378D02*
G01X-8572900Y-4557373D01*
G01X-8294907Y-4557427D02*
G01X-8294907Y-4637429D01*
G01X-8325890Y-4526441D02*
G02X-8294907Y-4557427I0J-30983D01*
G01X-8294907Y-4637424D02*
G02X-8325890Y-4668407I-30983J0D01*
G01X-8541920Y-4668361D02*
G02X-8572900Y-4637378I3J30983D01*
G01X-8572900Y-4557381D02*
G02X-8541920Y-4526393I30983J5D01*
G01X-8460819Y-4884257D02*
G01X-8540816Y-4884257D01*
G01X-8404774Y-4884303D02*
G01X-8324776Y-4884303D01*
G01X-8460819Y-4742289D02*
G01X-8540816Y-4742289D01*
G01X-8404774Y-4742337D02*
G01X-8324776Y-4742337D01*
G01X-8571791Y-4853275D02*
G01X-8571791Y-4773270D01*
G01X-8293798Y-4773323D02*
G01X-8293798Y-4853325D01*
G01X-8324781Y-4742337D02*
G02X-8293798Y-4773323I0J-30983D01*
G01X-8293798Y-4853320D02*
G02X-8324781Y-4884303I-30983J0D01*
G01X-8540811Y-4884257D02*
G02X-8571791Y-4853275I3J30983D01*
G01X-8571791Y-4773277D02*
G02X-8540811Y-4742289I30983J5D01*
G54D10*
G01X-7246959Y-6316792D02*
G01X-7246959Y-6412680D01*
G01X-7246959Y-6412680D02*
G01X-7114838Y-6412680D01*
G01X-7114838Y-6412680D02*
G01X-7114838Y-6316792D01*
G01X-7246959Y-6231550D02*
G01X-7246959Y-6135662D01*
G01X-7246959Y-6135662D02*
G01X-7114838Y-6135662D01*
G01X-7114838Y-6135662D02*
G01X-7114838Y-6231550D01*
G01X-5926379Y-4904760D02*
G01X-5830491Y-4904760D01*
G01X-5830491Y-4904760D02*
G01X-5830491Y-4772640D01*
G01X-5830491Y-4772640D02*
G01X-5926379Y-4772640D01*
G01X-6011621Y-4904760D02*
G01X-6107509Y-4904760D01*
G01X-6107509Y-4904760D02*
G01X-6107509Y-4772640D01*
G01X-6107509Y-4772640D02*
G01X-6011621Y-4772640D01*
G54D11*
G01X-4069243Y-5781119D02*
G01X-4069243Y-5861116D01*
G01X-4069197Y-5725074D02*
G01X-4069197Y-5645076D01*
G01X-4211211Y-5781119D02*
G01X-4211211Y-5861116D01*
G01X-4211163Y-5725074D02*
G01X-4211163Y-5645076D01*
G01X-4100225Y-5892091D02*
G01X-4180230Y-5892091D01*
G01X-4180177Y-5614098D02*
G01X-4100175Y-5614098D01*
G01X-4211163Y-5645081D02*
G02X-4180177Y-5614098I30983J0D01*
G01X-4100180Y-5614098D02*
G02X-4069197Y-5645081I0J-30983D01*
G01X-4069243Y-5861111D02*
G02X-4100225Y-5892091I-30983J3D01*
G01X-4180223Y-5892091D02*
G02X-4211211Y-5861111I-5J30983D01*
G01X-4543981Y-4716943D02*
G01X-4463984Y-4716943D01*
G01X-4600026Y-4716897D02*
G01X-4680024Y-4716897D01*
G01X-4543981Y-4858911D02*
G01X-4463984Y-4858911D01*
G01X-4600026Y-4858863D02*
G01X-4680024Y-4858863D01*
G01X-4433009Y-4747925D02*
G01X-4433009Y-4827930D01*
G01X-4711001Y-4827877D02*
G01X-4711001Y-4747875D01*
G01X-4680019Y-4858863D02*
G02X-4711001Y-4827877I0J30983D01*
G01X-4711001Y-4747880D02*
G02X-4680019Y-4716897I30983J0D01*
G01X-4463989Y-4716943D02*
G02X-4433009Y-4747925I-3J-30983D01*
G01X-4433009Y-4827923D02*
G02X-4463989Y-4858911I-30983J-5D01*
G01X-3613373Y-5542992D02*
G01X-3613373Y-5462995D01*
G01X-3613419Y-5599037D02*
G01X-3613419Y-5679035D01*
G01X-3471405Y-5542992D02*
G01X-3471405Y-5462995D01*
G01X-3471453Y-5599037D02*
G01X-3471453Y-5679035D01*
G01X-3582390Y-5432020D02*
G01X-3502385Y-5432020D01*
G01X-3502439Y-5710012D02*
G01X-3582441Y-5710012D01*
G01X-3471453Y-5679030D02*
G02X-3502439Y-5710012I-30983J0D01*
G01X-3582436Y-5710012D02*
G02X-3613419Y-5679030I0J30983D01*
G01X-3613373Y-5463000D02*
G02X-3582390Y-5432020I30983J-3D01*
G01X-3502393Y-5432020D02*
G02X-3471405Y-5463000I5J-30983D01*
G01X-3817457Y-5547281D02*
G01X-3817457Y-5467284D01*
G01X-3817503Y-5603326D02*
G01X-3817503Y-5683324D01*
G01X-3675489Y-5547281D02*
G01X-3675489Y-5467284D01*
G01X-3675537Y-5603326D02*
G01X-3675537Y-5683324D01*
G01X-3786475Y-5436309D02*
G01X-3706470Y-5436309D01*
G01X-3706523Y-5714301D02*
G01X-3786525Y-5714301D01*
G01X-3675537Y-5683319D02*
G02X-3706523Y-5714301I-30983J0D01*
G01X-3786520Y-5714301D02*
G02X-3817503Y-5683319I0J30983D01*
G01X-3817457Y-5467289D02*
G02X-3786475Y-5436309I30983J-3D01*
G01X-3706477Y-5436309D02*
G02X-3675489Y-5467289I5J-30983D01*
G01X-4447619Y-5747857D02*
G01X-4527616Y-5747857D01*
G01X-4391574Y-5747903D02*
G01X-4311576Y-5747903D01*
G01X-4447619Y-5605889D02*
G01X-4527616Y-5605889D01*
G01X-4391574Y-5605937D02*
G01X-4311576Y-5605937D01*
G01X-4558591Y-5716875D02*
G01X-4558591Y-5636870D01*
G01X-4280598Y-5636923D02*
G01X-4280598Y-5716925D01*
G01X-4311581Y-5605937D02*
G02X-4280598Y-5636923I0J-30983D01*
G01X-4280598Y-5716920D02*
G02X-4311581Y-5747903I-30983J0D01*
G01X-4527611Y-5747857D02*
G02X-4558591Y-5716875I3J30983D01*
G01X-4558591Y-5636877D02*
G02X-4527611Y-5605889I30983J5D01*
G01X-2407763Y-4899585D02*
G01X-2407763Y-4819588D01*
G01X-2407808Y-4955630D02*
G01X-2407808Y-5035627D01*
G01X-2265794Y-4899585D02*
G01X-2265794Y-4819588D01*
G01X-2265843Y-4955630D02*
G01X-2265843Y-5035627D01*
G01X-2376780Y-4788612D02*
G01X-2296775Y-4788612D01*
G01X-2296828Y-5066605D02*
G01X-2376830Y-5066605D01*
G01X-2265843Y-5035622D02*
G02X-2296828Y-5066605I-30983J0D01*
G01X-2376825Y-5066605D02*
G02X-2407808Y-5035622I0J30983D01*
G01X-2407763Y-4819593D02*
G02X-2376780Y-4788612I30983J-3D01*
G01X-2296782Y-4788612D02*
G02X-2265794Y-4819593I5J-30983D01*
G01X-2265837Y-5273115D02*
G01X-2265837Y-5353112D01*
G01X-2265792Y-5217070D02*
G01X-2265792Y-5137073D01*
G01X-2407806Y-5273115D02*
G01X-2407806Y-5353112D01*
G01X-2407757Y-5217070D02*
G01X-2407757Y-5137073D01*
G01X-2296820Y-5384088D02*
G01X-2376825Y-5384088D01*
G01X-2376772Y-5106095D02*
G01X-2296770Y-5106095D01*
G01X-2407757Y-5137078D02*
G02X-2376772Y-5106095I30983J0D01*
G01X-2296775Y-5106095D02*
G02X-2265792Y-5137078I0J-30983D01*
G01X-2265837Y-5353107D02*
G02X-2296820Y-5384088I-30983J3D01*
G01X-2376818Y-5384088D02*
G02X-2407806Y-5353107I-5J30983D01*
G54D10*
G01X-2669560Y-4969358D02*
G01X-2669560Y-5065245D01*
G01X-2669560Y-5065245D02*
G01X-2537440Y-5065245D01*
G01X-2537440Y-5065245D02*
G01X-2537440Y-4969358D01*
G01X-2669560Y-4884115D02*
G01X-2669560Y-4788228D01*
G01X-2669560Y-4788228D02*
G01X-2537440Y-4788228D01*
G01X-2537440Y-4788228D02*
G01X-2537440Y-4884115D01*
G01X-2536576Y-5202479D02*
G01X-2536576Y-5106591D01*
G01X-2536576Y-5106591D02*
G01X-2668697Y-5106591D01*
G01X-2668697Y-5106591D02*
G01X-2668697Y-5202479D01*
G01X-2536576Y-5287721D02*
G01X-2536576Y-5383609D01*
G01X-2536576Y-5383609D02*
G01X-2668697Y-5383609D01*
G01X-2668697Y-5383609D02*
G01X-2668697Y-5287721D01*

G04 Circle Start*
G54D11*
G01X-5766321Y-9283700D02*
G03X-5460454Y-9283700I152933J0D01*
G03X-5766321Y-9283700I-152933J0D01*
G01X-5460987Y-9080500D02*
G03X-5359387Y-9080500I50800J0D01*
G03X-5460987Y-9080500I-50800J0D01*
G01X-5460987Y-9486900D02*
G03X-5359387Y-9486900I50800J0D01*
G03X-5460987Y-9486900I-50800J0D01*
G01X-5867387Y-9080500D02*
G03X-5765787Y-9080500I50800J0D01*
G03X-5867387Y-9080500I-50800J0D01*
G01X-5867235Y-9486697D02*
G03X-5765635Y-9486697I50800J0D01*
G03X-5867235Y-9486697I-50800J0D01*
G01X-4953546Y-9283700D02*
G03X-4647679Y-9283700I152933J0D01*
G03X-4953546Y-9283700I-152933J0D01*
G01X-5054613Y-9486900D02*
G03X-4953013Y-9486900I50800J0D01*
G03X-5054613Y-9486900I-50800J0D01*
G01X-5054613Y-9080500D02*
G03X-4953013Y-9080500I50800J0D01*
G03X-5054613Y-9080500I-50800J0D01*
G01X-4648213Y-9486900D02*
G03X-4546613Y-9486900I50800J0D01*
G03X-4648213Y-9486900I-50800J0D01*
G01X-4648365Y-9080703D02*
G03X-4546765Y-9080703I50800J0D01*
G03X-4648365Y-9080703I-50800J0D01*
G54D13*
G01X-6317891Y-7394363D02*
G03X-6297876Y-7394363I10008J0D01*
G03X-6317891Y-7394363I-10008J0D01*
G54D11*
G01X-987788Y-6590946D02*
G03X-962388Y-6590946I12700J0D01*
G03X-987788Y-6590946I-12700J0D01*
G01X-9131071Y-9476979D02*
G03X-9039530Y-9476979I45771J0D01*
G03X-9131071Y-9476979I-45771J0D01*
G01X-8706079Y-9476979D02*
G03X-8614537Y-9476979I45771J0D01*
G03X-8706079Y-9476979I-45771J0D01*
G01X-5854700Y-2565395D02*
G03X-5829300Y-2565395I12700J0D01*
G03X-5854700Y-2565395I-12700J0D01*
G54D13*
G01X-3740616Y-5298542D02*
G03X-3720600Y-5298542I10008J0D01*
G03X-3740616Y-5298542I-10008J0D01*
G54D14*
G01X-4005487Y-5290668D02*
G03X-3975464Y-5290668I15011J0D01*
G03X-4005487Y-5290668I-15011J0D01*
G04 Circle End*

M02*

